<svg width="76" height="76" viewBox="0 0 76 76" fill="none" xmlns="http://www.w3.org/2000/svg">
<path fill-rule="evenodd" clip-rule="evenodd" d="M29.2917 28.5002C29.2917 23.6907 33.1905 19.7918 38 19.7918C42.8095 19.7918 46.7083 23.6907 46.7083 28.5002C46.7083 33.3096 42.8095 37.2085 38 37.2085C33.1905 37.2085 29.2917 33.3096 29.2917 28.5002ZM38 24.5418C35.8139 24.5418 34.0417 26.314 34.0417 28.5002C34.0417 30.6863 35.8139 32.4585 38 32.4585C40.1861 32.4585 41.9583 30.6863 41.9583 28.5002C41.9583 26.314 40.1861 24.5418 38 24.5418Z" fill="#6A0BFF"/>
<path fill-rule="evenodd" clip-rule="evenodd" d="M38 38.7918C34.2134 38.7918 30.6679 39.5542 27.9812 40.8976C25.4365 42.1699 22.9583 44.367 22.9583 47.5002L22.9579 47.698C22.9531 49.3142 22.9449 52.0354 25.5241 53.9024C26.7209 54.7687 28.3002 55.3213 30.2565 55.6733C32.231 56.0285 34.7612 56.2085 38 56.2085C41.2388 56.2085 43.769 56.0285 45.7435 55.6733C47.6998 55.3213 49.2791 54.7687 50.4759 53.9024C53.0551 52.0354 53.0469 49.3142 53.0421 47.698L53.0417 47.5002C53.0417 44.367 50.5635 42.1699 48.0188 40.8976C45.3321 39.5542 41.7866 38.7918 38 38.7918ZM27.7083 47.5002C27.7083 47.1355 28.0657 46.166 30.1054 45.1461C32.0031 44.1972 34.791 43.5418 38 43.5418C41.209 43.5418 43.9969 44.1972 45.8946 45.1461C47.9343 46.166 48.2917 47.1355 48.2917 47.5002C48.2917 49.4143 48.1698 49.7079 47.6907 50.0546C47.3042 50.3344 46.5085 50.7093 44.9024 50.9983C43.3143 51.284 41.0945 51.4585 38 51.4585C34.9055 51.4585 32.6857 51.284 31.0976 50.9983C29.4915 50.7093 28.6958 50.3344 28.3093 50.0546C27.8302 49.7079 27.7083 49.4143 27.7083 47.5002Z" fill="#6A0BFF"/>
<path fill-rule="evenodd" clip-rule="evenodd" d="M27.6241 6.49536C32.1965 4.92934 35.0312 3.9585 38 3.9585C40.9688 3.9585 43.8035 4.92934 48.376 6.49537L50.6795 7.28392C55.3704 8.88962 58.9905 10.1288 61.5821 11.1816C62.8875 11.712 64.0098 12.2256 64.9136 12.7505C65.7832 13.2555 66.6557 13.8855 67.2485 14.73C67.8344 15.5648 68.1374 16.5911 68.3278 17.579C68.5257 18.6061 68.645 19.8382 68.7221 21.2528C68.875 24.0618 68.875 27.9099 68.875 32.9012V37.9728C68.875 57.2928 54.2829 66.5556 45.6053 70.3463L45.5194 70.3838C44.4435 70.8539 43.432 71.2959 42.2699 71.5934C41.043 71.9075 39.7393 72.0418 38 72.0418C36.2607 72.0418 34.957 71.9075 33.7301 71.5934C32.5679 71.2959 31.5566 70.854 30.4805 70.3838L30.3947 70.3463C21.7171 66.5556 7.125 57.2928 7.125 37.9728V32.9015C7.125 27.9105 7.125 24.0617 7.27795 21.2528C7.35498 19.8382 7.47432 18.6061 7.67224 17.579C7.86262 16.5911 8.16558 15.5648 8.7515 14.73C9.34427 13.8855 10.2168 13.2555 11.0864 12.7505C11.9902 12.2256 13.1125 11.712 14.4179 11.1816C17.0094 10.1288 20.6296 8.88963 25.3205 7.28393L27.6241 6.49536ZM38 8.7085C35.9172 8.7085 33.868 9.37868 28.7553 11.1288L26.9414 11.7497C22.1515 13.3893 18.6583 14.586 16.2057 15.5823C14.9815 16.0797 14.0945 16.4964 13.4719 16.858C13.1645 17.0365 12.9527 17.1838 12.8113 17.2988C12.6914 17.3963 12.6456 17.4515 12.6391 17.4595C12.633 17.4695 12.5936 17.5353 12.5382 17.6909C12.4749 17.8685 12.4048 18.1233 12.3364 18.4778C12.1981 19.1955 12.0933 20.1814 12.0209 21.5111C11.8759 24.1748 11.875 27.8932 11.875 32.9862V37.9728C11.875 54.3606 24.1297 62.4261 32.2962 65.9935C33.4725 66.5073 34.1518 66.7982 34.9081 66.9918C35.6303 67.1767 36.5117 67.2918 38 67.2918C39.4883 67.2918 40.3697 67.1767 41.0919 66.9918C41.8482 66.7982 42.5275 66.5073 43.7038 65.9935C51.8703 62.4261 64.125 54.3606 64.125 37.9728V32.9862C64.125 27.8932 64.1241 24.1748 63.9791 21.5111C63.9067 20.1814 63.8019 19.1955 63.6636 18.4778C63.5952 18.1233 63.5251 17.8685 63.4618 17.6909C63.4064 17.5352 63.367 17.4694 63.3609 17.4595C63.3543 17.4514 63.3085 17.3962 63.1887 17.2988C63.0473 17.1838 62.8355 17.0365 62.5281 16.858C61.9055 16.4964 61.0185 16.0797 59.7943 15.5823C57.3417 14.586 53.8485 13.3893 49.0586 11.7497L47.2447 11.1288C42.132 9.37868 40.0828 8.7085 38 8.7085Z" fill="#6A0BFF"/>
<path fill-rule="evenodd" clip-rule="evenodd" d="M29.2917 28.5002C29.2917 23.6907 33.1905 19.7918 38 19.7918C42.8095 19.7918 46.7083 23.6907 46.7083 28.5002C46.7083 33.3096 42.8095 37.2085 38 37.2085C33.1905 37.2085 29.2917 33.3096 29.2917 28.5002ZM38 24.5418C35.8139 24.5418 34.0417 26.314 34.0417 28.5002C34.0417 30.6863 35.8139 32.4585 38 32.4585C40.1861 32.4585 41.9583 30.6863 41.9583 28.5002C41.9583 26.314 40.1861 24.5418 38 24.5418Z" stroke="#6A0BFF"/>
<path fill-rule="evenodd" clip-rule="evenodd" d="M38 38.7918C34.2134 38.7918 30.6679 39.5542 27.9812 40.8976C25.4365 42.1699 22.9583 44.367 22.9583 47.5002L22.9579 47.698C22.9531 49.3142 22.9449 52.0354 25.5241 53.9024C26.7209 54.7687 28.3002 55.3213 30.2565 55.6733C32.231 56.0285 34.7612 56.2085 38 56.2085C41.2388 56.2085 43.769 56.0285 45.7435 55.6733C47.6998 55.3213 49.2791 54.7687 50.4759 53.9024C53.0551 52.0354 53.0469 49.3142 53.0421 47.698L53.0417 47.5002C53.0417 44.367 50.5635 42.1699 48.0188 40.8976C45.3321 39.5542 41.7866 38.7918 38 38.7918ZM27.7083 47.5002C27.7083 47.1355 28.0657 46.166 30.1054 45.1461C32.0031 44.1972 34.791 43.5418 38 43.5418C41.209 43.5418 43.9969 44.1972 45.8946 45.1461C47.9343 46.166 48.2917 47.1355 48.2917 47.5002C48.2917 49.4143 48.1698 49.7079 47.6907 50.0546C47.3042 50.3344 46.5085 50.7093 44.9024 50.9983C43.3143 51.284 41.0945 51.4585 38 51.4585C34.9055 51.4585 32.6857 51.284 31.0976 50.9983C29.4915 50.7093 28.6958 50.3344 28.3093 50.0546C27.8302 49.7079 27.7083 49.4143 27.7083 47.5002Z" stroke="#6A0BFF"/>
<path fill-rule="evenodd" clip-rule="evenodd" d="M27.6241 6.49536C32.1965 4.92934 35.0312 3.9585 38 3.9585C40.9688 3.9585 43.8035 4.92934 48.376 6.49537L50.6795 7.28392C55.3704 8.88962 58.9905 10.1288 61.5821 11.1816C62.8875 11.712 64.0098 12.2256 64.9136 12.7505C65.7832 13.2555 66.6557 13.8855 67.2485 14.73C67.8344 15.5648 68.1374 16.5911 68.3278 17.579C68.5257 18.6061 68.645 19.8382 68.7221 21.2528C68.875 24.0618 68.875 27.9099 68.875 32.9012V37.9728C68.875 57.2928 54.2829 66.5556 45.6053 70.3463L45.5194 70.3838C44.4435 70.8539 43.432 71.2959 42.2699 71.5934C41.043 71.9075 39.7393 72.0418 38 72.0418C36.2607 72.0418 34.957 71.9075 33.7301 71.5934C32.5679 71.2959 31.5566 70.854 30.4805 70.3838L30.3947 70.3463C21.7171 66.5556 7.125 57.2928 7.125 37.9728V32.9015C7.125 27.9105 7.125 24.0617 7.27795 21.2528C7.35498 19.8382 7.47432 18.6061 7.67224 17.579C7.86262 16.5911 8.16558 15.5648 8.7515 14.73C9.34427 13.8855 10.2168 13.2555 11.0864 12.7505C11.9902 12.2256 13.1125 11.712 14.4179 11.1816C17.0094 10.1288 20.6296 8.88963 25.3205 7.28393L27.6241 6.49536ZM38 8.7085C35.9172 8.7085 33.868 9.37868 28.7553 11.1288L26.9414 11.7497C22.1515 13.3893 18.6583 14.586 16.2057 15.5823C14.9815 16.0797 14.0945 16.4964 13.4719 16.858C13.1645 17.0365 12.9527 17.1838 12.8113 17.2988C12.6914 17.3963 12.6456 17.4515 12.6391 17.4595C12.633 17.4695 12.5936 17.5353 12.5382 17.6909C12.4749 17.8685 12.4048 18.1233 12.3364 18.4778C12.1981 19.1955 12.0933 20.1814 12.0209 21.5111C11.8759 24.1748 11.875 27.8932 11.875 32.9862V37.9728C11.875 54.3606 24.1297 62.4261 32.2962 65.9935C33.4725 66.5073 34.1518 66.7982 34.9081 66.9918C35.6303 67.1767 36.5117 67.2918 38 67.2918C39.4883 67.2918 40.3697 67.1767 41.0919 66.9918C41.8482 66.7982 42.5275 66.5073 43.7038 65.9935C51.8703 62.4261 64.125 54.3606 64.125 37.9728V32.9862C64.125 27.8932 64.1241 24.1748 63.9791 21.5111C63.9067 20.1814 63.8019 19.1955 63.6636 18.4778C63.5952 18.1233 63.5251 17.8685 63.4618 17.6909C63.4064 17.5352 63.367 17.4694 63.3609 17.4595C63.3543 17.4514 63.3085 17.3962 63.1887 17.2988C63.0473 17.1838 62.8355 17.0365 62.5281 16.858C61.9055 16.4964 61.0185 16.0797 59.7943 15.5823C57.3417 14.586 53.8485 13.3893 49.0586 11.7497L47.2447 11.1288C42.132 9.37868 40.0828 8.7085 38 8.7085Z" stroke="#6A0BFF"/>
</svg>
