<svg width="32" height="32" viewBox="0 0 32 32" fill="none" xmlns="http://www.w3.org/2000/svg">
	<path d="M20 10C20 9.73478 20.1054 9.48043 20.2929 9.29289C20.4804 9.10536 20.7348 9 21 9H29C29.2652 9 29.5196 9.10536 29.7071 9.29289C29.8946 9.48043 30 9.73478 30 10C30 10.2652 29.8946 10.5196 29.7071 10.7071C29.5196 10.8946 29.2652 11 29 11H21C20.7348 11 20.4804 10.8946 20.2929 10.7071C20.1054 10.5196 20 10.2652 20 10ZM17 19.75C17 21.1424 16.4469 22.4777 15.4623 23.4623C14.4777 24.4469 13.1424 25 11.75 25H4C3.73478 25 3.48043 24.8946 3.29289 24.7071C3.10536 24.5196 3 24.2652 3 24V8C3 7.73478 3.10536 7.48043 3.29289 7.29289C3.48043 7.10536 3.73478 7 4 7H11.25C12.2064 7.00102 13.1403 7.29074 13.9293 7.83125C14.7184 8.37176 15.3259 9.13788 15.6723 10.0293C16.0188 10.9208 16.0881 11.8961 15.8711 12.8276C15.6541 13.7591 15.161 14.6034 14.4563 15.25C15.2324 15.7169 15.8746 16.3767 16.3203 17.1652C16.7661 17.9538 17.0002 18.8442 17 19.75ZM5 14.5H11.25C11.9793 14.5 12.6788 14.2103 13.1945 13.6945C13.7103 13.1788 14 12.4793 14 11.75C14 11.0207 13.7103 10.3212 13.1945 9.80546C12.6788 9.28973 11.9793 9 11.25 9H5V14.5ZM15 19.75C15 19.3232 14.9159 18.9006 14.7526 18.5063C14.5893 18.112 14.3499 17.7537 14.0481 17.4519C13.7463 17.1501 13.388 16.9107 12.9937 16.7474C12.5994 16.5841 12.1768 16.5 11.75 16.5H5V23H11.75C12.1768 23 12.5994 22.9159 12.9937 22.7526C13.388 22.5893 13.7463 22.3499 14.0481 22.0481C14.3499 21.7463 14.5893 21.388 14.7526 20.9937C14.9159 20.5994 15 20.1768 15 19.75ZM31 19C31 19.2652 30.8946 19.5196 30.7071 19.7071C30.5196 19.8946 30.2652 20 30 20H21.125C21.3132 20.7297 21.7038 21.3913 22.2516 21.9088C22.7995 22.4262 23.4824 22.7783 24.2216 22.9246C24.9608 23.071 25.7263 23.0055 26.43 22.7357C27.1336 22.466 27.7467 22.003 28.1987 21.4C28.2776 21.2949 28.3764 21.2065 28.4895 21.1396C28.6026 21.0727 28.7277 21.0287 28.8578 21.0102C28.9878 20.9917 29.1203 20.999 29.2475 21.0317C29.3748 21.0643 29.4943 21.1217 29.5994 21.2006C29.7044 21.2795 29.7929 21.3783 29.8598 21.4914C29.9267 21.6044 29.9706 21.7296 29.9891 21.8596C30.0077 21.9897 30.0004 22.1221 29.9677 22.2494C29.935 22.3766 29.8776 22.4962 29.7987 22.6012C28.9436 23.7407 27.7109 24.5386 26.3212 24.8523C24.9316 25.166 23.4756 24.975 22.2139 24.3135C20.9522 23.652 19.967 22.5631 19.4346 21.2416C18.9023 19.9202 18.8575 18.4525 19.3083 17.101C19.7591 15.7496 20.676 14.6027 21.8951 13.8654C23.1141 13.1282 24.5557 12.8488 25.9619 13.0772C27.3681 13.3056 28.6472 14.0269 29.5702 15.112C30.4933 16.1972 31.0001 17.5754 31 19ZM28.875 18C28.6547 17.1396 28.1543 16.377 27.4527 15.8324C26.7511 15.2878 25.8882 14.9922 25 14.9922C24.1118 14.9922 23.2489 15.2878 22.5473 15.8324C21.8457 16.377 21.3453 17.1396 21.125 18H28.875Z" fill="#343330"/>
</svg>
