<svg width="24" height="24" viewBox="0 0 24 24" xmlns="http://www.w3.org/2000/svg">
<path d="M21.7172 18.2392L18.6056 3.44549C18.5654 3.25203 18.4873 3.06843 18.3759 2.90523C18.2645 2.74203 18.1219 2.60246 17.9564 2.49452C17.7909 2.38659 17.6057 2.31242 17.4114 2.27628C17.2171 2.24014 17.0176 2.24274 16.8244 2.28393L12.4359 3.22705C12.0478 3.31205 11.7089 3.54687 11.4929 3.88044C11.277 4.21401 11.2015 4.61935 11.2828 5.0083L14.3944 19.8021C14.4637 20.1396 14.6471 20.4429 14.9138 20.6611C15.1805 20.8793 15.5142 20.999 15.8588 21.0002C15.9653 21 16.0715 20.9887 16.1756 20.9664L20.5641 20.0233C20.9527 19.9381 21.292 19.7028 21.5079 19.3687C21.7239 19.0345 21.7991 18.6286 21.7172 18.2392ZM12.75 4.70174C12.75 4.69612 12.75 4.6933 12.75 4.6933L17.1375 3.7558L17.4497 5.24362L13.0622 6.18768L12.75 4.70174ZM13.3706 7.65205L17.76 6.70987L18.0731 8.20049L13.6875 9.14362L13.3706 7.65205ZM13.9931 10.6117L18.3825 9.66862L19.6294 15.5974L15.24 16.5405L13.9931 10.6117ZM20.25 18.5571L15.8625 19.4946L15.5503 18.0067L19.9378 17.0627L20.25 18.5486C20.25 18.5542 20.25 18.5571 20.25 18.5571ZM9.75 3.00018H5.25C4.85218 3.00018 4.47064 3.15821 4.18934 3.43952C3.90804 3.72082 3.75 4.10235 3.75 4.50018V19.5002C3.75 19.898 3.90804 20.2795 4.18934 20.5608C4.47064 20.8421 4.85218 21.0002 5.25 21.0002H9.75C10.1478 21.0002 10.5294 20.8421 10.8107 20.5608C11.092 20.2795 11.25 19.898 11.25 19.5002V4.50018C11.25 4.10235 11.092 3.72082 10.8107 3.43952C10.5294 3.15821 10.1478 3.00018 9.75 3.00018ZM5.25 4.50018H9.75V6.00018H5.25V4.50018ZM5.25 7.50018H9.75V16.5002H5.25V7.50018ZM9.75 19.5002H5.25V18.0002H9.75V19.5002Z" />
</svg>
