<svg width="20" height="21" viewBox="0 0 20 21" fill="none" xmlns="http://www.w3.org/2000/svg">
<path fill-rule="evenodd" clip-rule="evenodd" d="M1.875 5.5C1.875 5.15482 2.15482 4.875 2.5 4.875H16.6667C17.0118 4.875 17.2917 5.15482 17.2917 5.5C17.2917 5.84518 17.0118 6.125 16.6667 6.125H2.5C2.15482 6.125 1.875 5.84518 1.875 5.5ZM1.875 9.66667C1.875 9.32149 2.15482 9.04167 2.5 9.04167H9.16667C9.51184 9.04167 9.79167 9.32149 9.79167 9.66667C9.79167 10.0118 9.51184 10.2917 9.16667 10.2917H2.5C2.15482 10.2917 1.875 10.0118 1.875 9.66667ZM12.0581 9.22472C12.3021 8.98065 12.6979 8.98065 12.9419 9.22472L14.5833 10.8661L16.2247 9.22472C16.4688 8.98065 16.8645 8.98065 17.1086 9.22472C17.3527 9.4688 17.3527 9.86453 17.1086 10.1086L15.4672 11.75L17.1086 13.3914C17.3527 13.6355 17.3527 14.0312 17.1086 14.2753C16.8645 14.5194 16.4688 14.5194 16.2247 14.2753L14.5833 12.6339L12.9419 14.2753C12.6979 14.5194 12.3021 14.5194 12.0581 14.2753C11.814 14.0312 11.814 13.6355 12.0581 13.3914L13.6995 11.75L12.0581 10.1086C11.814 9.86453 11.814 9.4688 12.0581 9.22472ZM1.875 13.8333C1.875 13.4882 2.15482 13.2083 2.5 13.2083H9.16667C9.51184 13.2083 9.79167 13.4882 9.79167 13.8333C9.79167 14.1785 9.51184 14.4583 9.16667 14.4583H2.5C2.15482 14.4583 1.875 14.1785 1.875 13.8333Z" fill="#8C8C8C"/>
</svg>
