<svg width="20" height="20" viewBox="0 0 20 20" fill="none" xmlns="http://www.w3.org/2000/svg">
	<path d="M14.168 11.6654C14.6282 11.6654 15.0013 11.2923 15.0013 10.832C15.0013 10.3718 14.6282 9.9987 14.168 9.9987C13.7077 9.9987 13.3346 10.3718 13.3346 10.832C13.3346 11.2923 13.7077 11.6654 14.168 11.6654Z" fill="#5E5E5E"/>
	<path d="M14.168 14.9987C14.6282 14.9987 15.0013 14.6256 15.0013 14.1654C15.0013 13.7051 14.6282 13.332 14.168 13.332C13.7077 13.332 13.3346 13.7051 13.3346 14.1654C13.3346 14.6256 13.7077 14.9987 14.168 14.9987Z" fill="#5E5E5E"/>
	<path d="M10.8346 10.832C10.8346 11.2923 10.4615 11.6654 10.0013 11.6654C9.54107 11.6654 9.16797 11.2923 9.16797 10.832C9.16797 10.3718 9.54107 9.9987 10.0013 9.9987C10.4615 9.9987 10.8346 10.3718 10.8346 10.832Z" fill="#5E5E5E"/>
	<path d="M10.8346 14.1654C10.8346 14.6256 10.4615 14.9987 10.0013 14.9987C9.54107 14.9987 9.16797 14.6256 9.16797 14.1654C9.16797 13.7051 9.54107 13.332 10.0013 13.332C10.4615 13.332 10.8346 13.7051 10.8346 14.1654Z" fill="#5E5E5E"/>
	<path d="M5.83464 11.6654C6.29487 11.6654 6.66797 11.2923 6.66797 10.832C6.66797 10.3718 6.29487 9.9987 5.83464 9.9987C5.3744 9.9987 5.0013 10.3718 5.0013 10.832C5.0013 11.2923 5.3744 11.6654 5.83464 11.6654Z" fill="#5E5E5E"/>
	<path d="M5.83464 14.9987C6.29487 14.9987 6.66797 14.6256 6.66797 14.1654C6.66797 13.7051 6.29487 13.332 5.83464 13.332C5.3744 13.332 5.0013 13.7051 5.0013 14.1654C5.0013 14.6256 5.3744 14.9987 5.83464 14.9987Z" fill="#5E5E5E"/>
	<path fill-rule="evenodd" clip-rule="evenodd" d="M5.83464 1.45703C6.17981 1.45703 6.45964 1.73685 6.45964 2.08203V2.71763C7.0113 2.70702 7.61908 2.70703 8.28752 2.70703H11.715C12.3834 2.70703 12.9913 2.70702 13.543 2.71763V2.08203C13.543 1.73685 13.8228 1.45703 14.168 1.45703C14.5131 1.45703 14.793 1.73685 14.793 2.08203V2.77127C15.0096 2.78779 15.2147 2.80855 15.4088 2.83464C16.3858 2.966 17.1766 3.24276 17.8003 3.8664C18.4239 4.49004 18.7007 5.28083 18.832 6.25784C18.9597 7.20718 18.9596 8.4202 18.9596 9.95165V11.7124C18.9596 13.2438 18.9597 14.4569 18.832 15.4062C18.7007 16.3832 18.4239 17.174 17.8003 17.7977C17.1766 18.4213 16.3858 18.6981 15.4088 18.8294C14.4595 18.9571 13.2465 18.957 11.715 18.957H8.28763C6.75618 18.957 5.54312 18.9571 4.59378 18.8294C3.61677 18.6981 2.82597 18.4213 2.20234 17.7977C1.5787 17.174 1.30194 16.3832 1.17058 15.4062C1.04295 14.4569 1.04296 13.2438 1.04297 11.7124V9.95168C1.04296 8.42022 1.04295 7.20719 1.17058 6.25784C1.30194 5.28083 1.5787 4.49004 2.20234 3.8664C2.82597 3.24276 3.61677 2.966 4.59378 2.83464C4.78789 2.80855 4.99302 2.78779 5.20964 2.77127V2.08203C5.20964 1.73685 5.48946 1.45703 5.83464 1.45703ZM4.76034 4.0735C3.92194 4.18622 3.4389 4.39761 3.08622 4.75028C2.73355 5.10296 2.52216 5.586 2.40943 6.4244C2.39035 6.56639 2.37438 6.71587 2.36104 6.8737H17.6416C17.6282 6.71587 17.6123 6.56639 17.5932 6.42441C17.4804 5.586 17.2691 5.10296 16.9164 4.75028C16.5637 4.39761 16.0807 4.18622 15.2423 4.0735C14.3859 3.95836 13.257 3.95703 11.668 3.95703H8.33464C6.74562 3.95703 5.61673 3.95836 4.76034 4.0735ZM2.29297 9.9987C2.29297 9.28702 2.29324 8.66764 2.30387 8.1237H17.6987C17.7094 8.66764 17.7096 9.28702 17.7096 9.9987V11.6654C17.7096 13.2544 17.7083 14.3833 17.5932 15.2397C17.4804 16.0781 17.2691 16.5611 16.9164 16.9138C16.5637 17.2665 16.0807 17.4778 15.2423 17.5906C14.3859 17.7057 13.257 17.707 11.668 17.707H8.33464C6.74562 17.707 5.61673 17.7057 4.76034 17.5906C3.92194 17.4778 3.4389 17.2665 3.08622 16.9138C2.73355 16.5611 2.52216 16.0781 2.40943 15.2397C2.2943 14.3833 2.29297 13.2544 2.29297 11.6654V9.9987Z" fill="#5E5E5E"/>
</svg>
