<svg width="21" height="21" viewBox="0 0 21 21" fill="none" xmlns="http://www.w3.org/2000/svg">
<path fill-rule="evenodd" clip-rule="evenodd" d="M10.452 1.53906H10.5477C12.4713 1.53905 13.9788 1.53904 15.1551 1.69718C16.359 1.85905 17.309 2.19683 18.0547 2.94251C18.8004 3.68818 19.1382 4.6382 19.3 5.84215C19.4582 7.01839 19.4582 8.52592 19.4582 10.4496V10.5452C19.4582 12.4689 19.4582 13.9764 19.3 15.1526C19.1382 16.3566 18.8004 17.3066 18.0547 18.0523C17.309 18.798 16.359 19.1357 15.1551 19.2976C13.9788 19.4557 12.4713 19.4557 10.5476 19.4557H10.452C8.52836 19.4557 7.02083 19.4557 5.84459 19.2976C4.64065 19.1357 3.69063 18.798 2.94495 18.0523C2.19928 17.3066 1.86149 16.3566 1.69963 15.1526C1.54148 13.9764 1.54149 12.4689 1.5415 10.5452V10.4496C1.54149 8.52592 1.54148 7.01839 1.69963 5.84215C1.86149 4.6382 2.19928 3.68818 2.94495 2.94251C3.69063 2.19683 4.64065 1.85905 5.84459 1.69718C7.02083 1.53904 8.52836 1.53905 10.452 1.53906ZM6.01115 2.93604C4.94582 3.07927 4.30355 3.35168 3.82883 3.82639C3.35412 4.30111 3.08171 4.94337 2.93848 6.00871C2.79283 7.09203 2.7915 8.51554 2.7915 10.4974C2.7915 12.4792 2.79283 13.9028 2.93848 14.9861C3.08171 16.0514 3.35412 16.6937 3.82883 17.1684C4.30355 17.6431 4.94582 17.9155 6.01115 18.0588C7.09447 18.2044 8.51798 18.2057 10.4998 18.2057C12.4817 18.2057 13.9052 18.2044 14.9885 18.0588C16.0539 17.9155 16.6961 17.6431 17.1708 17.1684C17.6456 16.6937 17.918 16.0514 18.0612 14.9861C18.2068 13.9028 18.2082 12.4792 18.2082 10.4974C18.2082 8.51554 18.2068 7.09203 18.0612 6.00871C17.918 4.94337 17.6456 4.30111 17.1708 3.82639C16.6961 3.35168 16.0539 3.07927 14.9885 2.93604C13.9052 2.79039 12.4817 2.78906 10.4998 2.78906C8.51798 2.78906 7.09447 2.79039 6.01115 2.93604ZM9.2642 5.87814C9.51416 6.1162 9.52381 6.51181 9.28576 6.76176L6.9048 9.26176C6.78684 9.38563 6.62327 9.45573 6.45222 9.45573C6.28117 9.45573 6.1176 9.38563 5.99963 9.26176L5.04725 8.26176C4.8092 8.01181 4.81885 7.6162 5.0688 7.37814C5.31876 7.14009 5.71437 7.14974 5.95242 7.39969L6.45222 7.92448L8.38058 5.89969C8.61864 5.64974 9.01425 5.64009 9.2642 5.87814ZM10.7082 7.9974C10.7082 7.65222 10.988 7.3724 11.3332 7.3724H15.4998C15.845 7.3724 16.1248 7.65222 16.1248 7.9974C16.1248 8.34257 15.845 8.6224 15.4998 8.6224H11.3332C10.988 8.6224 10.7082 8.34257 10.7082 7.9974ZM9.2642 11.7115C9.51416 11.9495 9.52381 12.3451 9.28576 12.5951L6.9048 15.0951C6.78684 15.219 6.62327 15.2891 6.45222 15.2891C6.28117 15.2891 6.1176 15.219 5.99963 15.0951L5.04725 14.0951C4.8092 13.8451 4.81885 13.4495 5.0688 13.2115C5.31876 12.9734 5.71437 12.9831 5.95242 13.233L6.45222 13.7578L8.38058 11.733C8.61864 11.4831 9.01425 11.4734 9.2642 11.7115ZM10.7082 13.8307C10.7082 13.4856 10.988 13.2057 11.3332 13.2057H15.4998C15.845 13.2057 16.1248 13.4856 16.1248 13.8307C16.1248 14.1759 15.845 14.4557 15.4998 14.4557H11.3332C10.988 14.4557 10.7082 14.1759 10.7082 13.8307Z" fill="#6A0BFF"/>
</svg>
