<svg width="32" height="33" viewBox="0 0 32 33" fill="none" xmlns="http://www.w3.org/2000/svg">
<path d="M29.7616 12.9591L29.7493 12.9463C29.223 12.3962 28.6814 11.8302 28.4762 11.332C28.2854 10.8731 28.2738 10.113 28.2626 9.3761L28.2625 9.37172L28.2624 9.3663C28.2413 7.99513 28.2175 6.44248 27.1375 5.3625C26.0575 4.28251 24.5049 4.25865 23.1337 4.23758L23.1283 4.2375L23.1239 4.23743C22.387 4.2262 21.6269 4.21462 21.168 4.02375C20.6688 3.81763 20.0983 3.27175 19.5457 2.74303L19.5409 2.73844C18.5706 1.80609 17.4681 0.75 16 0.75C14.5319 0.75 13.4308 1.80609 12.4591 2.73844L12.4463 2.75066C11.8962 3.277 11.3302 3.81862 10.832 4.02375C10.376 4.21458 9.61336 4.2262 8.87659 4.23743L8.87172 4.2375L8.86631 4.23758C7.49513 4.25865 5.94249 4.28251 4.8625 5.3625C3.79731 6.42769 3.76633 7.95269 3.73876 9.30987C3.73834 9.33052 3.73792 9.35114 3.7375 9.37172L3.73743 9.37608C3.7262 10.113 3.71462 10.8731 3.52375 11.332C3.31763 11.8312 2.77175 12.4017 2.24302 12.9543L2.23844 12.9591C1.30609 13.9294 0.25 15.0319 0.25 16.5C0.25 17.9681 1.30609 19.0692 2.23844 20.0409L2.25066 20.0537C2.777 20.6038 3.31862 21.1698 3.52375 21.668C3.71462 22.1269 3.7262 22.887 3.73743 23.6239L3.7375 23.6283L3.73758 23.6337C3.75865 25.0049 3.78251 26.5575 4.8625 27.6375C5.94248 28.7175 7.49513 28.7413 8.8663 28.7624L8.87172 28.7625L8.8761 28.7626C9.61302 28.7738 10.3731 28.7854 10.832 28.9762C11.3312 29.1824 11.9017 29.7282 12.4543 30.257L12.4591 30.2616C13.4294 31.1939 14.5319 32.25 16 32.25C17.4681 32.25 18.5692 31.1939 19.5409 30.2616L19.5537 30.2493C20.1038 29.723 20.6698 29.1814 21.168 28.9762C21.6269 28.7854 22.387 28.7738 23.1239 28.7626L23.1283 28.7625L23.1337 28.7624C24.5049 28.7413 26.0575 28.7175 27.1375 27.6375C28.2175 26.5575 28.2413 25.0049 28.2624 23.6337L28.2625 23.6283L28.2626 23.6239C28.2738 22.887 28.2854 22.1269 28.4762 21.668C28.6824 21.1688 29.2282 20.5983 29.757 20.0457L29.7616 20.0409C30.6939 19.0706 31.75 17.9681 31.75 16.5C31.75 15.0319 30.6939 13.9308 29.7616 12.9591ZM28.1373 18.4842L28.1332 18.4886C27.4609 19.1903 26.7655 19.9162 26.3964 20.8073C26.042 21.6652 26.0266 22.6453 26.0125 23.5945C25.9984 24.5789 25.983 25.6097 25.5456 26.0456C25.1083 26.4816 24.0845 26.4984 23.0945 26.5125C22.1453 26.5266 21.1652 26.542 20.3073 26.8964C19.4162 27.2655 18.6903 27.9609 17.9886 28.6332L17.9842 28.6373L17.9817 28.6398C17.2794 29.3126 16.5618 30 16 30C15.4375 30 14.7133 29.3081 14.0158 28.6373C13.3183 27.9666 12.5856 27.2662 11.6927 26.8964C10.8348 26.542 9.85469 26.5266 8.90547 26.5125C7.92109 26.4984 6.89031 26.483 6.45437 26.0456C6.01844 25.6083 6.00156 24.5845 5.9875 23.5945C5.97344 22.6453 5.95797 21.6652 5.60359 20.8073C5.23451 19.9162 4.53912 19.1903 3.86682 18.4886L3.86266 18.4842L3.86023 18.4817C3.18741 17.7794 2.5 17.0618 2.5 16.5C2.5 15.9375 3.19187 15.2133 3.86266 14.5158C4.53344 13.8183 5.23375 13.0856 5.60359 12.1927C5.95797 11.3348 5.97344 10.3547 5.9875 9.40547C6.00156 8.42109 6.01703 7.39031 6.45437 6.95437C6.89172 6.51844 7.91547 6.50156 8.90547 6.4875C9.85469 6.47344 10.8348 6.45797 11.6927 6.10359C12.5838 5.73451 13.3097 5.03912 14.0114 4.36682L14.0158 4.36266L14.0183 4.36023C14.7206 3.68741 15.4382 3 16 3C16.5625 3 17.2867 3.69187 17.9842 4.36266C18.6817 5.03344 19.4144 5.73375 20.3073 6.10359C21.1652 6.45797 22.1453 6.47344 23.0945 6.4875C24.0789 6.50156 25.1097 6.51703 25.5456 6.95437C25.9816 7.39172 25.9984 8.41547 26.0125 9.40547C26.0266 10.3547 26.042 11.3348 26.3964 12.1927C26.7655 13.0838 27.4609 13.8097 28.1332 14.5114L28.1373 14.5158L28.1398 14.5183C28.8126 15.2206 29.5 15.9382 29.5 16.5C29.5 17.0625 28.8081 17.7867 28.1373 18.4842ZM22.4209 12.3291C22.5255 12.4335 22.6085 12.5576 22.6651 12.6942C22.7217 12.8308 22.7509 12.9772 22.7509 13.125C22.7509 13.2728 22.7217 13.4192 22.6651 13.5558C22.6085 13.6924 22.5255 13.8165 22.4209 13.9209L14.5459 21.7959C14.4415 21.9005 14.3174 21.9835 14.1808 22.0401C14.0442 22.0967 13.8978 22.1259 13.75 22.1259C13.6022 22.1259 13.4558 22.0967 13.3192 22.0401C13.1826 21.9835 13.0585 21.9005 12.9541 21.7959L9.57906 18.4209C9.36797 18.2098 9.24937 17.9235 9.24937 17.625C9.24937 17.3265 9.36797 17.0402 9.57906 16.8291C9.79016 16.618 10.0765 16.4994 10.375 16.4994C10.6735 16.4994 10.9598 16.618 11.1709 16.8291L13.75 19.4095L20.8291 12.3291C20.9335 12.2245 21.0576 12.1415 21.1942 12.0849C21.3308 12.0283 21.4772 11.9991 21.625 11.9991C21.7728 11.9991 21.9192 12.0283 22.0558 12.0849C22.1924 12.1415 22.3165 12.2245 22.4209 12.3291Z"/>
<path d="M29.7616 12.9591L29.7493 12.9463C29.223 12.3962 28.6814 11.8302 28.4762 11.332C28.2854 10.8731 28.2738 10.113 28.2626 9.3761L28.2625 9.37172L28.2624 9.3663C28.2413 7.99513 28.2175 6.44248 27.1375 5.3625C26.0575 4.28251 24.5049 4.25865 23.1337 4.23758L23.1283 4.2375L23.1239 4.23743C22.387 4.2262 21.6269 4.21462 21.168 4.02375C20.6688 3.81763 20.0983 3.27175 19.5457 2.74303L19.5409 2.73844C18.5706 1.80609 17.4681 0.75 16 0.75C14.5319 0.75 13.4308 1.80609 12.4591 2.73844L12.4463 2.75066C11.8962 3.277 11.3302 3.81862 10.832 4.02375C10.376 4.21458 9.61336 4.2262 8.87659 4.23743L8.87172 4.2375L8.86631 4.23758C7.49513 4.25865 5.94249 4.28251 4.8625 5.3625C3.79731 6.42769 3.76633 7.95269 3.73876 9.30987C3.73834 9.33052 3.73792 9.35114 3.7375 9.37172L3.73743 9.37608C3.7262 10.113 3.71462 10.8731 3.52375 11.332C3.31763 11.8312 2.77175 12.4017 2.24302 12.9543L2.23844 12.9591C1.30609 13.9294 0.25 15.0319 0.25 16.5C0.25 17.9681 1.30609 19.0692 2.23844 20.0409L2.25066 20.0537C2.777 20.6038 3.31862 21.1698 3.52375 21.668C3.71462 22.1269 3.7262 22.887 3.73743 23.6239L3.7375 23.6283L3.73758 23.6337C3.75865 25.0049 3.78251 26.5575 4.8625 27.6375C5.94248 28.7175 7.49513 28.7413 8.8663 28.7624L8.87172 28.7625L8.8761 28.7626C9.61302 28.7738 10.3731 28.7854 10.832 28.9762C11.3312 29.1824 11.9017 29.7282 12.4543 30.257L12.4591 30.2616C13.4294 31.1939 14.5319 32.25 16 32.25C17.4681 32.25 18.5692 31.1939 19.5409 30.2616L19.5537 30.2493C20.1038 29.723 20.6698 29.1814 21.168 28.9762C21.6269 28.7854 22.387 28.7738 23.1239 28.7626L23.1283 28.7625L23.1337 28.7624C24.5049 28.7413 26.0575 28.7175 27.1375 27.6375C28.2175 26.5575 28.2413 25.0049 28.2624 23.6337L28.2625 23.6283L28.2626 23.6239C28.2738 22.887 28.2854 22.1269 28.4762 21.668C28.6824 21.1688 29.2282 20.5983 29.757 20.0457L29.7616 20.0409C30.6939 19.0706 31.75 17.9681 31.75 16.5C31.75 15.0319 30.6939 13.9308 29.7616 12.9591ZM28.1373 18.4842L28.1332 18.4886C27.4609 19.1903 26.7655 19.9162 26.3964 20.8073C26.042 21.6652 26.0266 22.6453 26.0125 23.5945C25.9984 24.5789 25.983 25.6097 25.5456 26.0456C25.1083 26.4816 24.0845 26.4984 23.0945 26.5125C22.1453 26.5266 21.1652 26.542 20.3073 26.8964C19.4162 27.2655 18.6903 27.9609 17.9886 28.6332L17.9842 28.6373L17.9817 28.6398C17.2794 29.3126 16.5618 30 16 30C15.4375 30 14.7133 29.3081 14.0158 28.6373C13.3183 27.9666 12.5856 27.2662 11.6927 26.8964C10.8348 26.542 9.85469 26.5266 8.90547 26.5125C7.92109 26.4984 6.89031 26.483 6.45437 26.0456C6.01844 25.6083 6.00156 24.5845 5.9875 23.5945C5.97344 22.6453 5.95797 21.6652 5.60359 20.8073C5.23451 19.9162 4.53912 19.1903 3.86682 18.4886L3.86266 18.4842L3.86023 18.4817C3.18741 17.7794 2.5 17.0618 2.5 16.5C2.5 15.9375 3.19187 15.2133 3.86266 14.5158C4.53344 13.8183 5.23375 13.0856 5.60359 12.1927C5.95797 11.3348 5.97344 10.3547 5.9875 9.40547C6.00156 8.42109 6.01703 7.39031 6.45437 6.95437C6.89172 6.51844 7.91547 6.50156 8.90547 6.4875C9.85469 6.47344 10.8348 6.45797 11.6927 6.10359C12.5838 5.73451 13.3097 5.03912 14.0114 4.36682L14.0158 4.36266L14.0183 4.36023C14.7206 3.68741 15.4382 3 16 3C16.5625 3 17.2867 3.69187 17.9842 4.36266C18.6817 5.03344 19.4144 5.73375 20.3073 6.10359C21.1652 6.45797 22.1453 6.47344 23.0945 6.4875C24.0789 6.50156 25.1097 6.51703 25.5456 6.95437C25.9816 7.39172 25.9984 8.41547 26.0125 9.40547C26.0266 10.3547 26.042 11.3348 26.3964 12.1927C26.7655 13.0838 27.4609 13.8097 28.1332 14.5114L28.1373 14.5158L28.1398 14.5183C28.8126 15.2206 29.5 15.9382 29.5 16.5C29.5 17.0625 28.8081 17.7867 28.1373 18.4842ZM22.4209 12.3291C22.5255 12.4335 22.6085 12.5576 22.6651 12.6942C22.7217 12.8308 22.7509 12.9772 22.7509 13.125C22.7509 13.2728 22.7217 13.4192 22.6651 13.5558C22.6085 13.6924 22.5255 13.8165 22.4209 13.9209L14.5459 21.7959C14.4415 21.9005 14.3174 21.9835 14.1808 22.0401C14.0442 22.0967 13.8978 22.1259 13.75 22.1259C13.6022 22.1259 13.4558 22.0967 13.3192 22.0401C13.1826 21.9835 13.0585 21.9005 12.9541 21.7959L9.57906 18.4209C9.36797 18.2098 9.24937 17.9235 9.24937 17.625C9.24937 17.3265 9.36797 17.0402 9.57906 16.8291C9.79016 16.618 10.0765 16.4994 10.375 16.4994C10.6735 16.4994 10.9598 16.618 11.1709 16.8291L13.75 19.4095L20.8291 12.3291C20.9335 12.2245 21.0576 12.1415 21.1942 12.0849C21.3308 12.0283 21.4772 11.9991 21.625 11.9991C21.7728 11.9991 21.9192 12.0283 22.0558 12.0849C22.1924 12.1415 22.3165 12.2245 22.4209 12.3291Z"/>
</svg>
