<svg width="76" height="76" viewBox="0 0 76 76" fill="none" xmlns="http://www.w3.org/2000/svg">
<path fill-rule="evenodd" clip-rule="evenodd" d="M37.817 3.95703H38.1804C45.4903 3.95699 51.2189 3.95696 55.6886 4.5579C60.2636 5.17299 63.8737 6.45657 66.7073 9.29013C69.5408 12.1237 70.8244 15.7338 71.4395 20.3088C72.0404 24.7785 72.0404 30.5071 72.0404 37.817V38.1804C72.0404 45.4903 72.0404 51.2189 71.4395 55.6886C70.8244 60.2636 69.5408 63.8737 66.7073 66.7073C63.8737 69.5408 60.2636 70.8244 55.6886 71.4395C51.2189 72.0404 45.4903 72.0404 38.1804 72.0404H37.817C30.5071 72.0404 24.7785 72.0404 20.3088 71.4395C15.7338 70.8244 12.1237 69.5408 9.29013 66.7073C6.45657 63.8737 5.17299 60.2636 4.5579 55.6886C3.95696 51.2189 3.95699 45.4903 3.95703 38.1804V37.817C3.95699 30.5071 3.95696 24.7785 4.5579 20.3088C5.17299 15.7338 6.45657 12.1237 9.29013 9.29013C12.1237 6.45657 15.7338 5.17299 20.3088 4.5579C24.7785 3.95696 30.5071 3.95699 37.817 3.95703ZM20.9417 9.26554C16.8934 9.80982 14.4528 10.845 12.6489 12.6489C10.845 14.4528 9.80982 16.8934 9.26554 20.9417C8.71208 25.0583 8.70703 30.4677 8.70703 37.9987C8.70703 45.5297 8.71208 50.9391 9.26554 55.0557C9.80982 59.104 10.845 61.5446 12.6489 63.3485C14.4528 65.1524 16.8934 66.1876 20.9417 66.7319C25.0583 67.2853 30.4677 67.2904 37.9987 67.2904C45.5297 67.2904 50.9391 67.2853 55.0557 66.7319C59.104 66.1876 61.5446 65.1524 63.3485 63.3485C65.1524 61.5446 66.1876 59.104 66.7319 55.0557C67.2853 50.9391 67.2904 45.5297 67.2904 37.9987C67.2904 30.4677 67.2853 25.0583 66.7319 20.9417C66.1876 16.8934 65.1524 14.4528 63.3485 12.6489C61.5446 10.845 59.104 9.80982 55.0557 9.26554C50.9391 8.71208 45.5297 8.70703 37.9987 8.70703C30.4677 8.70703 25.0583 8.71208 20.9417 9.26554ZM37.9987 22.957C39.3104 22.957 40.3737 24.0204 40.3737 25.332V37.0149L47.5947 44.236C48.5222 45.1635 48.5222 46.6673 47.5947 47.5947C46.6673 48.5222 45.1635 48.5222 44.236 47.5947L37.4787 40.8374C36.5634 39.9222 36.1058 39.4646 35.8647 38.8826C35.6237 38.3007 35.6237 37.6535 35.6237 36.3591V25.332C35.6237 24.0204 36.687 22.957 37.9987 22.957Z" fill="#6A0BFF"/>
</svg>
