<svg width="25" height="24" viewBox="0 0 25 24" fill="none" xmlns="http://www.w3.org/2000/svg">
	<path d="M12.75 11.5753V11.8584L12.9928 12.0041L16.3788 14.0355C16.3788 14.0355 16.3788 14.0355 16.3788 14.0356C16.4357 14.0697 16.4767 14.1251 16.4928 14.1895L16.9779 14.0684L16.4928 14.1895C16.5088 14.2538 16.4987 14.322 16.4645 14.3788C16.4303 14.4357 16.375 14.4767 16.3106 14.4928L16.4316 14.9779L16.3106 14.4928C16.2462 14.5089 16.1781 14.4987 16.1212 14.4645L16.121 14.4644L12.3713 12.2146C12.3343 12.1923 12.3036 12.1609 12.2824 12.1233L11.8472 12.3695L12.2824 12.1233C12.2611 12.0858 12.25 12.0433 12.25 12.0002V12V7.50003C12.25 7.43372 12.2763 7.37014 12.3232 7.32325C12.3701 7.27637 12.4337 7.25003 12.5 7.25003C12.5663 7.25003 12.6299 7.27637 12.6768 7.32325C12.7237 7.37014 12.75 7.43372 12.75 7.50003V11.5753ZM12.4988 3.50003L12.4997 3.50003C13.8869 3.50093 15.2527 3.84132 16.4781 4.4915C17.7035 5.14168 18.7511 6.08188 19.5296 7.23005C20.308 8.37822 20.7936 9.69946 20.944 11.0785C21.0944 12.4575 20.905 13.8523 20.3924 15.1413C19.8797 16.4303 19.0594 17.5742 18.003 18.4733C16.9466 19.3723 15.6862 19.9991 14.3318 20.299C12.9774 20.5989 11.5702 20.5628 10.233 20.1938C8.89592 19.8248 7.66945 19.1342 6.66061 18.1823C6.63668 18.1596 6.61744 18.1325 6.60398 18.1025C6.59053 18.0724 6.58313 18.04 6.5822 18.0071C6.58127 17.9742 6.58683 17.9414 6.59856 17.9107L6.1314 17.7325L6.59856 17.9107C6.6103 17.8799 6.62798 17.8518 6.65059 17.8278L6.28719 17.4844L6.65059 17.8278C6.6732 17.8039 6.70031 17.7847 6.73036 17.7712C6.76041 17.7577 6.79282 17.7503 6.82573 17.7494C6.85864 17.7485 6.89141 17.754 6.92217 17.7658C6.95294 17.7775 6.98109 17.7952 7.00502 17.8178L7.00526 17.818C8.14881 18.8973 9.58504 19.6156 11.1345 19.8832C12.6839 20.1508 14.2779 19.9559 15.7172 19.3228C17.1565 18.6897 18.3773 17.6464 19.2271 16.3235C20.0769 15.0005 20.518 13.4564 20.4953 11.8842C20.4725 10.312 19.987 8.78129 19.0993 7.48344C18.2115 6.1856 16.9611 5.17813 15.504 4.58692C14.047 3.99571 12.4481 3.84698 10.907 4.15931C9.36597 4.47164 7.95111 5.23119 6.83926 6.34304L6.8371 6.34521C6.06508 7.12674 5.38903 7.87983 4.71262 8.67639L4.01322 9.50003H5.09375H7.25C7.3163 9.50003 7.37989 9.52637 7.42678 9.57325C7.47366 9.62014 7.5 9.68372 7.5 9.75003C7.5 9.81633 7.47366 9.87992 7.42678 9.9268C7.37989 9.97369 7.3163 10 7.25 10H3.5C3.4337 10 3.37011 9.97369 3.32322 9.92681C3.27634 9.87992 3.25 9.81633 3.25 9.75003V6.00003C3.25 5.93372 3.27634 5.87014 3.32322 5.82325C3.37011 5.77637 3.4337 5.75003 3.5 5.75003C3.5663 5.75003 3.62989 5.77637 3.67678 5.82325C3.72366 5.87014 3.75 5.93372 3.75 6.00003V7.68753V9.03939L4.62966 8.01288C5.21783 7.32654 5.81532 6.67172 6.48767 5.99103C7.2751 5.19916 8.21172 4.57128 9.24337 4.1437C10.2753 3.71602 11.3817 3.49724 12.4988 3.50003Z" stroke="#5E5E5E"/>
</svg>
