<svg width="70" height="70" viewBox="0 0 70 70" fill="none" xmlns="http://www.w3.org/2000/svg">
<path fill-rule="evenodd" clip-rule="evenodd" d="M34.819 0.957032H35.1824C42.4923 0.956991 48.2209 0.956959 52.6906 1.5579C57.2656 2.17299 60.8757 3.45657 63.7092 6.29013C66.5428 9.12369 67.8264 12.7338 68.4415 17.3088C69.0424 21.7785 69.0424 27.5071 69.0423 34.817V35.1804C69.0424 42.4903 69.0424 48.2189 68.4415 52.6886C67.8264 57.2636 66.5428 60.8737 63.7092 63.7073C60.8757 66.5408 57.2656 67.8244 52.6906 68.4395C48.2209 69.0404 42.4923 69.0404 35.1823 69.0404H34.819C27.5091 69.0404 21.7804 69.0404 17.3107 68.4395C12.7357 67.8244 9.12565 66.5408 6.29208 63.7073C3.45852 60.8737 2.17494 57.2636 1.55985 52.6886C0.958912 48.2189 0.958944 42.4903 0.958985 35.1804V34.817C0.958944 27.5071 0.958912 21.7785 1.55985 17.3088C2.17494 12.7338 3.45852 9.12369 6.29208 6.29013C9.12565 3.45657 12.7357 2.17299 17.3107 1.5579C21.7804 0.956959 27.509 0.956991 34.819 0.957032ZM17.9436 6.26554C13.8954 6.80982 11.4548 7.84498 9.65084 9.64889C7.84693 11.4528 6.81177 13.8934 6.26749 17.9417C5.71403 22.0583 5.70899 27.4677 5.70899 34.9987C5.70899 42.5297 5.71403 47.9391 6.26749 52.0557C6.81177 56.104 7.84693 58.5446 9.65084 60.3485C11.4548 62.1524 13.8954 63.1876 17.9436 63.7319C22.0602 64.2853 27.4696 64.2904 35.0007 64.2904C42.5317 64.2904 47.9411 64.2853 52.0577 63.7319C56.1059 63.1876 58.5466 62.1524 60.3505 60.3485C62.1544 58.5446 63.1895 56.104 63.7338 52.0557C64.2873 47.9391 64.2923 42.5297 64.2923 34.9987C64.2923 27.4677 64.2873 22.0583 63.7338 17.9417C63.1895 13.8934 62.1544 11.4528 60.3505 9.64889C58.5466 7.84498 56.1059 6.80982 52.0577 6.26554C47.9411 5.71208 42.5317 5.70703 35.0007 5.70703C27.4696 5.70703 22.0602 5.71208 17.9436 6.26554ZM35.0007 19.957C36.3123 19.957 37.3757 21.0204 37.3757 22.332V34.0149L44.5967 41.236C45.5242 42.1635 45.5242 43.6673 44.5967 44.5947C43.6692 45.5222 42.1654 45.5222 41.2379 44.5947L34.4806 37.8374C33.5654 36.9222 33.1077 36.4646 32.8667 35.8826C32.6257 35.3007 32.6257 34.6535 32.6257 33.3591V22.332C32.6257 21.0204 33.689 19.957 35.0007 19.957Z" fill="#6A0BFF"/>
</svg>
