<svg width="20" height="20" viewBox="0 0 20 20" fill="none" xmlns="http://www.w3.org/2000/svg">
<path d="M5.83317 6.04199C6.17835 6.04199 6.45817 6.32181 6.45817 6.66699L6.45817 13.3337C6.45817 13.6788 6.17835 13.9587 5.83317 13.9587C5.48799 13.9587 5.20817 13.6788 5.20817 13.3337L5.20817 6.66699C5.20817 6.32181 5.48799 6.04199 5.83317 6.04199Z" fill="#5E5E5E"/>
<path d="M14.7915 10.0003C14.7915 10.3455 14.5117 10.6253 14.1665 10.6253H9.84205L11.2751 12.0584C11.5192 12.3025 11.5192 12.6982 11.2751 12.9423C11.031 13.1863 10.6353 13.1863 10.3912 12.9423L7.89123 10.4423C7.77402 10.3251 7.70817 10.1661 7.70817 10.0003C7.70817 9.83457 7.77402 9.6756 7.89123 9.55838L10.3912 7.05838C10.6353 6.81431 11.031 6.81431 11.2751 7.05838C11.5192 7.30246 11.5192 7.69819 11.2751 7.94227L9.84205 9.37533H14.1665C14.5117 9.37533 14.7915 9.65515 14.7915 10.0003Z" fill="#5E5E5E"/>
<path fill-rule="evenodd" clip-rule="evenodd" d="M9.95202 1.04199C8.02836 1.04198 6.52083 1.04197 5.34459 1.20011C4.14065 1.36198 3.19063 1.69976 2.44495 2.44544C1.69928 3.19111 1.36149 4.14113 1.19963 5.34508C1.04148 6.52132 1.04149 8.02885 1.0415 9.95251V10.0481C1.04149 11.9718 1.04148 13.4793 1.19963 14.6556C1.36149 15.8595 1.69928 16.8095 2.44495 17.5552C3.19063 18.3009 4.14065 18.6387 5.34459 18.8005C6.52083 18.9587 8.02836 18.9587 9.95203 18.9587H10.0476C11.9713 18.9587 13.4788 18.9587 14.6551 18.8005C15.859 18.6387 16.8091 18.3009 17.5547 17.5552C18.3004 16.8095 18.6382 15.8595 18.8 14.6556C18.9582 13.4793 18.9582 11.9718 18.9582 10.0481V9.95252C18.9582 8.02885 18.9582 6.52132 18.8 5.34508C18.6382 4.14113 18.3004 3.19111 17.5547 2.44544C16.8091 1.69976 15.859 1.36198 14.6551 1.20011C13.4788 1.04197 11.9713 1.04198 10.0477 1.04199H9.95202ZM3.32883 3.32932C3.80355 2.85461 4.44582 2.5822 5.51115 2.43897C6.59447 2.29332 8.01798 2.29199 9.99984 2.29199C11.9817 2.29199 13.4052 2.29332 14.4885 2.43897C15.5539 2.5822 16.1961 2.85461 16.6708 3.32932C17.1456 3.80404 17.418 4.4463 17.5612 5.51164C17.7068 6.59495 17.7082 8.01847 17.7082 10.0003C17.7082 11.9822 17.7068 13.4057 17.5612 14.489C17.418 15.5543 17.1456 16.1966 16.6708 16.6713C16.1961 17.146 15.5539 17.4185 14.4885 17.5617C13.4052 17.7073 11.9817 17.7087 9.99984 17.7087C8.01798 17.7087 6.59447 17.7073 5.51115 17.5617C4.44582 17.4185 3.80355 17.146 3.32883 16.6713C2.85412 16.1966 2.58171 15.5543 2.43848 14.489C2.29283 13.4057 2.2915 11.9822 2.2915 10.0003C2.2915 8.01847 2.29283 6.59495 2.43848 5.51164C2.58171 4.4463 2.85412 3.80404 3.32883 3.32932Z" fill="#5E5E5E"/>
<path d="M5.83317 6.04199C6.17835 6.04199 6.45817 6.32181 6.45817 6.66699L6.45817 13.3337C6.45817 13.6788 6.17835 13.9587 5.83317 13.9587C5.48799 13.9587 5.20817 13.6788 5.20817 13.3337L5.20817 6.66699C5.20817 6.32181 5.48799 6.04199 5.83317 6.04199Z" stroke="#5E5E5E"/>
<path d="M14.7915 10.0003C14.7915 10.3455 14.5117 10.6253 14.1665 10.6253H9.84205L11.2751 12.0584C11.5192 12.3025 11.5192 12.6982 11.2751 12.9423C11.031 13.1863 10.6353 13.1863 10.3912 12.9423L7.89123 10.4423C7.77402 10.3251 7.70817 10.1661 7.70817 10.0003C7.70817 9.83457 7.77402 9.6756 7.89123 9.55838L10.3912 7.05838C10.6353 6.81431 11.031 6.81431 11.2751 7.05838C11.5192 7.30246 11.5192 7.69819 11.2751 7.94227L9.84205 9.37533H14.1665C14.5117 9.37533 14.7915 9.65515 14.7915 10.0003Z" stroke="#5E5E5E"/>
<path fill-rule="evenodd" clip-rule="evenodd" d="M9.95202 1.04199C8.02836 1.04198 6.52083 1.04197 5.34459 1.20011C4.14065 1.36198 3.19063 1.69976 2.44495 2.44544C1.69928 3.19111 1.36149 4.14113 1.19963 5.34508C1.04148 6.52132 1.04149 8.02885 1.0415 9.95251V10.0481C1.04149 11.9718 1.04148 13.4793 1.19963 14.6556C1.36149 15.8595 1.69928 16.8095 2.44495 17.5552C3.19063 18.3009 4.14065 18.6387 5.34459 18.8005C6.52083 18.9587 8.02836 18.9587 9.95203 18.9587H10.0476C11.9713 18.9587 13.4788 18.9587 14.6551 18.8005C15.859 18.6387 16.8091 18.3009 17.5547 17.5552C18.3004 16.8095 18.6382 15.8595 18.8 14.6556C18.9582 13.4793 18.9582 11.9718 18.9582 10.0481V9.95252C18.9582 8.02885 18.9582 6.52132 18.8 5.34508C18.6382 4.14113 18.3004 3.19111 17.5547 2.44544C16.8091 1.69976 15.859 1.36198 14.6551 1.20011C13.4788 1.04197 11.9713 1.04198 10.0477 1.04199H9.95202ZM3.32883 3.32932C3.80355 2.85461 4.44582 2.5822 5.51115 2.43897C6.59447 2.29332 8.01798 2.29199 9.99984 2.29199C11.9817 2.29199 13.4052 2.29332 14.4885 2.43897C15.5539 2.5822 16.1961 2.85461 16.6708 3.32932C17.1456 3.80404 17.418 4.4463 17.5612 5.51164C17.7068 6.59495 17.7082 8.01847 17.7082 10.0003C17.7082 11.9822 17.7068 13.4057 17.5612 14.489C17.418 15.5543 17.1456 16.1966 16.6708 16.6713C16.1961 17.146 15.5539 17.4185 14.4885 17.5617C13.4052 17.7073 11.9817 17.7087 9.99984 17.7087C8.01798 17.7087 6.59447 17.7073 5.51115 17.5617C4.44582 17.4185 3.80355 17.146 3.32883 16.6713C2.85412 16.1966 2.58171 15.5543 2.43848 14.489C2.29283 13.4057 2.2915 11.9822 2.2915 10.0003C2.2915 8.01847 2.29283 6.59495 2.43848 5.51164C2.58171 4.4463 2.85412 3.80404 3.32883 3.32932Z" stroke="#5E5E5E"/>
</svg>
