<svg xmlns="http://www.w3.org/2000/svg" width="20" height="20" viewBox="0 0 20 20" >
<path d="M8.35989 7.47601C8.11581 7.23194 7.72008 7.23194 7.476 7.47601C7.23192 7.72009 7.23192 8.11582 7.476 8.3599L9.1174 10.0013L7.47602 11.6427C7.23194 11.8868 7.23194 12.2825 7.47602 12.5266C7.7201 12.7706 8.11583 12.7706 8.3599 12.5266L10.0013 10.8852L11.6427 12.5265C11.8867 12.7706 12.2825 12.7706 12.5265 12.5265C12.7706 12.2825 12.7706 11.8867 12.5265 11.6427L10.8852 10.0013L12.5266 8.35991C12.7706 8.11584 12.7706 7.72011 12.5266 7.47603C12.2825 7.23195 11.8867 7.23195 11.6427 7.47603L10.0013 9.11741L8.35989 7.47601Z" />
<path fill-rule="evenodd" clip-rule="evenodd" d="M10.0013 1.04297C5.05375 1.04297 1.04297 5.05375 1.04297 10.0013C1.04297 14.9489 5.05375 18.9596 10.0013 18.9596C14.9489 18.9596 18.9596 14.9489 18.9596 10.0013C18.9596 5.05375 14.9489 1.04297 10.0013 1.04297ZM2.29297 10.0013C2.29297 5.74411 5.74411 2.29297 10.0013 2.29297C14.2585 2.29297 17.7096 5.74411 17.7096 10.0013C17.7096 14.2585 14.2585 17.7096 10.0013 17.7096C5.74411 17.7096 2.29297 14.2585 2.29297 10.0013Z" />
<path d="M8.35989 7.47601C8.11581 7.23194 7.72008 7.23194 7.476 7.47601C7.23192 7.72009 7.23192 8.11582 7.476 8.3599L9.1174 10.0013L7.47602 11.6427C7.23194 11.8868 7.23194 12.2825 7.47602 12.5266C7.7201 12.7706 8.11583 12.7706 8.3599 12.5266L10.0013 10.8852L11.6427 12.5265C11.8867 12.7706 12.2825 12.7706 12.5265 12.5265C12.7706 12.2825 12.7706 11.8867 12.5265 11.6427L10.8852 10.0013L12.5266 8.35991C12.7706 8.11584 12.7706 7.72011 12.5266 7.47603C12.2825 7.23195 11.8867 7.23195 11.6427 7.47603L10.0013 9.11741L8.35989 7.47601Z" />
<path fill-rule="evenodd" clip-rule="evenodd" d="M10.0013 1.04297C5.05375 1.04297 1.04297 5.05375 1.04297 10.0013C1.04297 14.9489 5.05375 18.9596 10.0013 18.9596C14.9489 18.9596 18.9596 14.9489 18.9596 10.0013C18.9596 5.05375 14.9489 1.04297 10.0013 1.04297ZM2.29297 10.0013C2.29297 5.74411 5.74411 2.29297 10.0013 2.29297C14.2585 2.29297 17.7096 5.74411 17.7096 10.0013C17.7096 14.2585 14.2585 17.7096 10.0013 17.7096C5.74411 17.7096 2.29297 14.2585 2.29297 10.0013Z" />
</svg>