
<svg width="22" height="22" viewBox="0 0 22 22" fill="none" xmlns="http://www.w3.org/2000/svg">
<path fill-rule="evenodd" clip-rule="evenodd" d="M15.3939 1.02121L15.4604 1.03904C16.5598 1.33361 17.431 1.56704 18.1162 1.81458C18.8172 2.06779 19.3888 2.35744 19.8597 2.79847C20.5453 3.44068 21.0252 4.27179 21.2385 5.18671C21.385 5.81503 21.3501 6.45486 21.2189 7.18849C21.0906 7.90573 20.8572 8.77697 20.5626 9.87638L20.0271 11.8747C19.7326 12.974 19.4991 13.8452 19.2516 14.5305C18.9984 15.2314 18.7087 15.803 18.2677 16.2739C17.6459 16.9377 16.8471 17.4087 15.9665 17.6316C15.7093 18.2213 15.3336 18.7554 14.8597 19.1993C14.3888 19.6403 13.8172 19.9299 13.1162 20.1832C12.431 20.4307 11.5598 20.6641 10.4605 20.9587L10.394 20.9765C9.29461 21.2711 8.42337 21.5045 7.70613 21.6328C6.9725 21.764 6.33266 21.7989 5.70435 21.6524C4.78943 21.4391 3.95832 20.9592 3.31611 20.2736C2.87508 19.8027 2.58542 19.2311 2.33222 18.5302C2.08468 17.8449 1.85124 16.9737 1.55667 15.8743L1.02122 13.876C0.72664 12.7766 0.493195 11.9054 0.364945 11.1882C0.233759 10.4546 0.198811 9.81472 0.345313 9.18641C0.558642 8.27149 1.03849 7.44038 1.72417 6.79817C2.19505 6.35714 2.76664 6.06749 3.46758 5.81428C4.15283 5.56674 5.02404 5.3333 6.12341 5.03873L6.15665 5.02983C6.42112 4.95896 6.67134 4.89203 6.90825 4.82944C7.29986 3.43031 7.64448 2.44126 8.31611 1.72417C8.95831 1.03849 9.78943 0.558642 10.7043 0.345313C11.3327 0.198811 11.9725 0.233759 12.7061 0.364945C13.4233 0.493194 14.2945 0.726636 15.3939 1.02121ZM6.45502 6.5028C5.36214 6.79571 4.57905 7.00764 3.9772 7.22505C3.36778 7.4452 3.00995 7.64907 2.74955 7.89296C2.2804 8.33237 1.95209 8.90103 1.80613 9.52703C1.72511 9.87449 1.72747 10.2863 1.84152 10.9242C1.95723 11.5712 2.17355 12.381 2.47902 13.521L2.99666 15.4529C3.30212 16.5929 3.51967 17.4023 3.74299 18.0205C3.96314 18.63 4.16701 18.9878 4.4109 19.2482C4.85031 19.7173 5.41897 20.0456 6.04496 20.1916C6.39242 20.2726 6.80425 20.2703 7.4421 20.1562C8.08915 20.0405 8.89893 19.8242 10.0389 19.5187C11.1789 19.2132 11.9884 18.9957 12.6066 18.7724C13.216 18.5522 13.5739 18.3484 13.8343 18.1045C13.9719 17.9756 14.0973 17.8357 14.2096 17.6865C14.0306 17.6612 13.8463 17.629 13.6557 17.5911C12.9839 17.4575 12.1769 17.2413 11.1808 16.9744L11.1234 16.959C10.024 16.6644 9.15283 16.431 8.46758 16.1835C7.76664 15.9302 7.19505 15.6406 6.72416 15.1996C6.03849 14.5574 5.55864 13.7262 5.34531 12.8113C5.19881 12.183 5.23376 11.5432 5.36494 10.8095C5.4932 10.0923 5.72664 9.22112 6.02122 8.12174L6.45502 6.5028ZM12.4421 1.84152C11.8042 1.72747 11.3924 1.72511 11.045 1.80613C10.419 1.95209 9.85031 2.2804 9.4109 2.74955C8.97479 3.21518 8.70642 3.93452 8.2397 5.64323C8.16384 5.92093 8.08365 6.22023 7.99665 6.54488L7.47902 8.47673C7.17355 9.61674 6.95723 10.4265 6.84152 11.0736C6.72747 11.7114 6.72511 12.1232 6.80613 12.4707C6.95209 13.0967 7.2804 13.6654 7.74955 14.1048C8.00995 14.3487 8.36778 14.5525 8.9772 14.7727C9.59542 14.996 10.4049 15.2136 11.5449 15.519C12.5703 15.7938 13.3303 15.997 13.9482 16.1199C14.5635 16.2422 14.981 16.2723 15.3232 16.23C15.3976 16.2209 15.4691 16.2082 15.5389 16.1919C16.1649 16.0459 16.7335 15.7176 17.1729 15.2485C17.4168 14.9881 17.6207 14.6303 17.8408 14.0208C18.0642 13.4026 18.2817 12.5932 18.5872 11.4532L19.1048 9.5213C19.4103 8.38129 19.6266 7.57151 19.7423 6.92446C19.8564 6.28661 19.8587 5.87479 19.7777 5.52733C19.6317 4.90133 19.3034 4.33267 18.8343 3.89327C18.5739 3.64937 18.216 3.4455 17.6066 3.22535C16.9884 3.00203 16.1789 2.78448 15.0389 2.47902C13.8989 2.17355 13.0892 1.95723 12.4421 1.84152Z" fill="#6A0BFF"/>
</svg>