<svg width="18" height="18" viewBox="0 0 18 18" fill="none" xmlns="http://www.w3.org/2000/svg">
<path d="M8.95202 0.0429688H9.04765C10.9713 0.0429585 12.4788 0.0429504 13.6551 0.201091C14.859 0.362958 15.8091 0.700741 16.5547 1.44642C17.3004 2.19209 17.6382 3.14211 17.8 4.34606C17.9582 5.5223 17.9582 7.02983 17.9582 8.95349V9.04911C17.9582 10.9728 17.9582 12.4803 17.8 13.6565C17.6382 14.8605 17.3004 15.8105 16.5547 16.5562C15.8091 17.3019 14.859 17.6396 13.6551 17.8015C12.4788 17.9597 10.9713 17.9596 9.04765 17.9596H8.95203C7.02836 17.9596 5.52083 17.9597 4.34459 17.8015C3.14065 17.6396 2.19063 17.3019 1.44495 16.5562C0.699277 15.8105 0.361493 14.8605 0.199626 13.6565C0.0414856 12.4803 0.0414937 10.9728 0.0415039 9.04913V8.95349C0.0414937 7.02983 0.0414856 5.52229 0.199626 4.34606C0.361493 3.14211 0.699277 2.19209 1.44495 1.44642C2.19063 0.700741 3.14065 0.362958 4.34459 0.201091C5.52083 0.0429504 7.02837 0.0429585 8.95202 0.0429688ZM4.51115 1.43994C3.44582 1.58318 2.80355 1.85559 2.32883 2.3303C1.85412 2.80501 1.58171 3.44728 1.43848 4.51262C1.29283 5.59593 1.2915 7.01945 1.2915 9.0013C1.2915 10.9832 1.29283 12.4067 1.43848 13.49C1.58171 14.5553 1.85412 15.1976 2.32883 15.6723C2.80355 16.147 3.44582 16.4194 4.51115 16.5627C5.59447 16.7083 7.01798 16.7096 8.99984 16.7096C10.9817 16.7096 12.4052 16.7083 13.4885 16.5627C14.5539 16.4194 15.1961 16.147 15.6708 15.6723C16.1456 15.1976 16.418 14.5553 16.5612 13.49C16.7068 12.4067 16.7082 10.9832 16.7082 9.0013C16.7082 7.01945 16.7068 5.59593 16.5612 4.51262C16.418 3.44728 16.1456 2.80501 15.6708 2.3303C15.1961 1.85559 14.5539 1.58318 13.4885 1.43994C12.4052 1.2943 10.9817 1.29297 8.99984 1.29297C7.01798 1.29297 5.59447 1.2943 4.51115 1.43994ZM8.06234 6.39714C8.06234 5.87937 8.48207 5.45964 8.99984 5.45964C9.5176 5.45964 9.93734 5.87937 9.93734 6.39714C9.93734 6.7401 9.75353 7.0408 9.47606 7.20496C9.24391 7.34231 8.98202 7.53132 8.772 7.77881C8.5594 8.02933 8.37484 8.3714 8.37484 8.79297V9.83464C8.37484 10.1798 8.65466 10.4596 8.99984 10.4596C9.34502 10.4596 9.62484 10.1798 9.62484 9.83464V8.79297C9.62484 8.7543 9.63946 8.68849 9.72507 8.58761C9.81325 8.4837 9.9486 8.37778 10.1126 8.28077C10.7545 7.90095 11.1873 7.19992 11.1873 6.39714C11.1873 5.18901 10.208 4.20964 8.99984 4.20964C7.79172 4.20964 6.81234 5.18901 6.81234 6.39714C6.81234 6.74231 7.09216 7.02214 7.43734 7.02214C7.78252 7.02214 8.06234 6.74231 8.06234 6.39714ZM9.83317 12.3346C9.83317 12.7949 9.46007 13.168 8.99984 13.168C8.5396 13.168 8.1665 12.7949 8.1665 12.3346C8.1665 11.8744 8.5396 11.5013 8.99984 11.5013C9.46007 11.5013 9.83317 11.8744 9.83317 12.3346Z" fill="#6A0BFF"/>
<path d="M8.95202 0.0429688H9.04765C10.9713 0.0429585 12.4788 0.0429504 13.6551 0.201091C14.859 0.362958 15.8091 0.700741 16.5547 1.44642C17.3004 2.19209 17.6382 3.14211 17.8 4.34606C17.9582 5.5223 17.9582 7.02983 17.9582 8.95349V9.04911C17.9582 10.9728 17.9582 12.4803 17.8 13.6565C17.6382 14.8605 17.3004 15.8105 16.5547 16.5562C15.8091 17.3019 14.859 17.6396 13.6551 17.8015C12.4788 17.9597 10.9713 17.9596 9.04765 17.9596H8.95203C7.02836 17.9596 5.52083 17.9597 4.34459 17.8015C3.14065 17.6396 2.19063 17.3019 1.44495 16.5562C0.699277 15.8105 0.361493 14.8605 0.199626 13.6565C0.0414856 12.4803 0.0414937 10.9728 0.0415039 9.04913V8.95349C0.0414937 7.02983 0.0414856 5.52229 0.199626 4.34606C0.361493 3.14211 0.699277 2.19209 1.44495 1.44642C2.19063 0.700741 3.14065 0.362958 4.34459 0.201091C5.52083 0.0429504 7.02837 0.0429585 8.95202 0.0429688ZM4.51115 1.43994C3.44582 1.58318 2.80355 1.85559 2.32883 2.3303C1.85412 2.80501 1.58171 3.44728 1.43848 4.51262C1.29283 5.59593 1.2915 7.01945 1.2915 9.0013C1.2915 10.9832 1.29283 12.4067 1.43848 13.49C1.58171 14.5553 1.85412 15.1976 2.32883 15.6723C2.80355 16.147 3.44582 16.4194 4.51115 16.5627C5.59447 16.7083 7.01798 16.7096 8.99984 16.7096C10.9817 16.7096 12.4052 16.7083 13.4885 16.5627C14.5539 16.4194 15.1961 16.147 15.6708 15.6723C16.1456 15.1976 16.418 14.5553 16.5612 13.49C16.7068 12.4067 16.7082 10.9832 16.7082 9.0013C16.7082 7.01945 16.7068 5.59593 16.5612 4.51262C16.418 3.44728 16.1456 2.80501 15.6708 2.3303C15.1961 1.85559 14.5539 1.58318 13.4885 1.43994C12.4052 1.2943 10.9817 1.29297 8.99984 1.29297C7.01798 1.29297 5.59447 1.2943 4.51115 1.43994ZM8.06234 6.39714C8.06234 5.87937 8.48207 5.45964 8.99984 5.45964C9.5176 5.45964 9.93734 5.87937 9.93734 6.39714C9.93734 6.7401 9.75353 7.0408 9.47606 7.20496C9.24391 7.34231 8.98202 7.53132 8.772 7.77881C8.5594 8.02933 8.37484 8.3714 8.37484 8.79297V9.83464C8.37484 10.1798 8.65466 10.4596 8.99984 10.4596C9.34502 10.4596 9.62484 10.1798 9.62484 9.83464V8.79297C9.62484 8.7543 9.63946 8.68849 9.72507 8.58761C9.81325 8.4837 9.9486 8.37778 10.1126 8.28077C10.7545 7.90095 11.1873 7.19992 11.1873 6.39714C11.1873 5.18901 10.208 4.20964 8.99984 4.20964C7.79172 4.20964 6.81234 5.18901 6.81234 6.39714C6.81234 6.74231 7.09216 7.02214 7.43734 7.02214C7.78252 7.02214 8.06234 6.74231 8.06234 6.39714ZM9.83317 12.3346C9.83317 12.7949 9.46007 13.168 8.99984 13.168C8.5396 13.168 8.1665 12.7949 8.1665 12.3346C8.1665 11.8744 8.5396 11.5013 8.99984 11.5013C9.46007 11.5013 9.83317 11.8744 9.83317 12.3346Z" stroke="#6A0BFF"/>
</svg>
