<svg width="20" height="20" viewBox="0 0 20 20" fill="none" xmlns="http://www.w3.org/2000/svg">
	<path fill-rule="evenodd" clip-rule="evenodd" d="M12.5 1.04169H9.11965C7.58819 1.04167 6.37516 1.04166 5.42582 1.1693C4.4488 1.30066 3.65801 1.57742 3.03437 2.20106C2.41073 2.82469 2.13397 3.61548 2.00261 4.5925C1.87498 5.54185 1.87499 6.75487 1.875 8.28633V13.3334C1.875 14.8936 3.01838 16.1867 4.51293 16.4206C4.6279 17.0573 4.84794 17.6007 5.29029 18.0431C5.79189 18.5447 6.42345 18.7604 7.17354 18.8613C7.89602 18.9584 8.81462 18.9584 9.95428 18.9584H12.5457C13.6854 18.9584 14.604 18.9584 15.3265 18.8613C16.0766 18.7604 16.7081 18.5447 17.2097 18.0431C17.7113 17.5415 17.9271 16.9099 18.0279 16.1598C18.125 15.4373 18.125 14.5187 18.125 13.3791V9.12096C18.125 7.9813 18.125 7.0627 18.0279 6.34023C17.9271 5.59014 17.7113 4.95858 17.2097 4.45698C16.7674 4.01463 16.2239 3.79459 15.5873 3.67962C15.3534 2.18506 14.0602 1.04169 12.5 1.04169ZM14.2744 3.55933C14.0221 2.82188 13.323 2.29169 12.5 2.29169H9.16667C7.57765 2.29169 6.44876 2.29302 5.59238 2.40815C4.75397 2.52087 4.27093 2.73227 3.91825 3.08494C3.56558 3.43761 3.35419 3.92065 3.24147 4.75906C3.12633 5.61545 3.125 6.74434 3.125 8.33335V13.3334C3.125 14.1563 3.6552 14.8554 4.39264 15.1078C4.37498 14.5995 4.37499 14.0248 4.375 13.3791V9.12096C4.37498 7.9813 4.37497 7.0627 4.4721 6.34023C4.57295 5.59014 4.7887 4.95858 5.29029 4.45698C5.79189 3.95538 6.42345 3.73964 7.17354 3.63879C7.89601 3.54166 8.81461 3.54167 9.95427 3.54169H12.5457C13.1914 3.54168 13.7661 3.54167 14.2744 3.55933ZM6.17418 5.34086C6.40481 5.11023 6.72862 4.95986 7.3401 4.87764C7.96956 4.79302 8.80382 4.79169 10 4.79169H12.5C13.6962 4.79169 14.5304 4.79302 15.1599 4.87764C15.7714 4.95986 16.0952 5.11023 16.3258 5.34086C16.5565 5.5715 16.7068 5.89531 16.789 6.50679C16.8737 7.13625 16.875 7.97051 16.875 9.16669V13.3334C16.875 14.5295 16.8737 15.3638 16.789 15.9933C16.7068 16.6047 16.5565 16.9285 16.3258 17.1592C16.0952 17.3898 15.7714 17.5402 15.1599 17.6224C14.5304 17.707 13.6962 17.7084 12.5 17.7084H10C8.80382 17.7084 7.96956 17.707 7.3401 17.6224C6.72862 17.5402 6.40481 17.3898 6.17418 17.1592C5.94354 16.9285 5.79317 16.6047 5.71096 15.9933C5.62633 15.3638 5.625 14.5295 5.625 13.3334V9.16669C5.625 7.97051 5.62633 7.13625 5.71096 6.50679C5.79317 5.89531 5.94354 5.5715 6.17418 5.34086Z" fill="#5E5E5E" opacity="0.8"/>
</svg>