<svg width="20" height="20" viewBox="0 0 20 20" fill="none" xmlns="http://www.w3.org/2000/svg">
<path fill-rule="evenodd" clip-rule="evenodd" d="M6.62029 1.04297H13.3784C14.5181 1.04295 15.4367 1.04294 16.1591 1.14007C16.9092 1.24092 17.5408 1.45666 18.0424 1.95826C18.544 2.45986 18.7597 3.09142 18.8606 3.84151C18.9577 4.56398 18.9577 5.48259 18.9577 6.62225V10.047C18.9577 11.1867 18.9577 12.1053 18.8606 12.8278C18.7597 13.5779 18.544 14.2094 18.0424 14.711C17.6275 15.1259 17.1217 15.3468 16.5294 15.4674C15.9543 15.5845 15.2605 15.614 14.439 15.6227L14.4343 15.6228L14.2473 15.6233C14.1667 15.8768 14.0356 16.1179 13.8539 16.3311C13.7447 16.4593 13.6787 16.6187 13.6653 16.7865C13.5852 17.7902 12.7882 18.5871 11.7846 18.6672C11.6167 18.6806 11.4574 18.7466 11.3292 18.8559C10.5629 19.5089 9.43581 19.5089 8.66951 18.8559C8.54134 18.7466 8.38197 18.6806 8.21411 18.6672C7.21048 18.5871 6.41352 17.7902 6.33343 16.7865C6.32004 16.6187 6.25403 16.4593 6.1448 16.3311C5.96337 16.1182 5.83234 15.8775 5.75172 15.6244C4.88479 15.6185 4.1591 15.595 3.56298 15.4855C2.93131 15.3695 2.39375 15.1485 1.95631 14.711C1.45471 14.2094 1.23897 13.5779 1.13812 12.8278C1.04099 12.1053 1.041 11.1867 1.04102 10.047V6.62224C1.041 5.48258 1.04099 4.56398 1.13812 3.84151C1.23897 3.09142 1.45471 2.45986 1.95631 1.95826C2.4579 1.45666 3.08947 1.24092 3.83956 1.14007C4.56203 1.04294 5.48063 1.04295 6.62029 1.04297ZM5.75297 14.3743C5.83369 14.1226 5.9643 13.8833 6.1448 13.6715C6.25403 13.5433 6.32004 13.3839 6.33343 13.2161C6.41352 12.2124 7.21048 11.4155 8.21411 11.3354C8.38198 11.322 8.54134 11.256 8.66951 11.1468C9.43581 10.4937 10.5629 10.4937 11.3292 11.1468C11.4574 11.256 11.6167 11.322 11.7846 11.3354C12.7882 11.4155 13.5852 12.2124 13.6653 13.2161C13.6787 13.3839 13.7447 13.5433 13.8539 13.6715C14.0342 13.883 14.1647 14.122 14.2454 14.3733L14.428 14.3728C15.2491 14.364 15.8345 14.3332 16.28 14.2425C16.7088 14.1552 16.9652 14.0204 17.1585 13.8271C17.3891 13.5965 17.5395 13.2727 17.6217 12.6612C17.7064 12.0317 17.7077 11.1975 17.7077 10.0013V6.66797C17.7077 5.47179 17.7064 4.63753 17.6217 4.00807C17.5395 3.39659 17.3891 3.07278 17.1585 2.84214C16.9279 2.61151 16.6041 2.46114 15.9926 2.37893C15.3631 2.2943 14.5289 2.29297 13.3327 2.29297H6.66602C5.46984 2.29297 4.63558 2.2943 4.00612 2.37893C3.39464 2.46114 3.07083 2.61151 2.84019 2.84214C2.60956 3.07278 2.45918 3.39659 2.37697 4.00807C2.29234 4.63753 2.29102 5.47179 2.29102 6.66797V10.0013C2.29102 11.1975 2.29234 12.0317 2.37697 12.6612C2.45918 13.2727 2.60956 13.5965 2.84019 13.8271C3.04307 14.03 3.31646 14.1693 3.78881 14.2561C4.26396 14.3434 4.88539 14.3683 5.75297 14.3743ZM6.87435 5.0013C6.87435 4.65612 7.15417 4.3763 7.49935 4.3763H12.4993C12.8445 4.3763 13.1243 4.65612 13.1243 5.0013C13.1243 5.34648 12.8445 5.6263 12.4993 5.6263H7.49935C7.15417 5.6263 6.87435 5.34648 6.87435 5.0013ZM5.20768 7.91797C5.20768 7.57279 5.48751 7.29297 5.83268 7.29297H14.166C14.5112 7.29297 14.791 7.57279 14.791 7.91797C14.791 8.26315 14.5112 8.54297 14.166 8.54297H5.83268C5.48751 8.54297 5.20768 8.26315 5.20768 7.91797ZM10.5184 12.0981C10.2193 11.8433 9.77939 11.8433 9.48028 12.0981C9.15191 12.378 8.74362 12.5471 8.31354 12.5814C7.9218 12.6127 7.61073 12.9238 7.57947 13.3155C7.54515 13.7456 7.37603 14.1539 7.09619 14.4822C6.8413 14.7813 6.8413 15.2213 7.09619 15.5204C7.37603 15.8487 7.54515 16.257 7.57947 16.6871C7.61073 17.0788 7.9218 17.3899 8.31354 17.4212C8.74362 17.4555 9.15191 17.6246 9.48028 17.9045C9.77939 18.1594 10.2193 18.1594 10.5184 17.9045C10.8468 17.6246 11.2551 17.4555 11.6852 17.4212C12.0769 17.3899 12.388 17.0788 12.4192 16.6871C12.4535 16.257 12.6227 15.8487 12.9025 15.5204C13.1574 15.2213 13.1574 14.7813 12.9025 14.4822C12.6227 14.1539 12.4535 13.7456 12.4192 13.3155C12.388 12.9238 12.0769 12.6127 11.6852 12.5814C11.2551 12.5471 10.8468 12.378 10.5184 12.0981ZM10.8229 13.7111C11.0752 13.4755 11.4707 13.4892 11.7063 13.7415C11.9418 13.9939 11.9281 14.3894 11.6758 14.6249L9.89008 16.2915C9.64995 16.5157 9.27732 16.5157 9.03719 16.2915L8.3229 15.6249C8.07056 15.3894 8.05692 14.9939 8.29244 14.7415C8.52796 14.4892 8.92345 14.4755 9.1758 14.7111L9.46364 14.9797L10.8229 13.7111Z" fill="#474747"/>
</svg>
