<svg width="16" height="16" viewBox="0 0 16 16" fill="none" xmlns="http://www.w3.org/2000/svg">
<path fill-rule="evenodd" clip-rule="evenodd" d="M10.3292 4.62335C10.5372 4.80496 10.5586 5.12081 10.377 5.32884L5.1389 11.3288C5.04394 11.4376 4.90661 11.5 4.76224 11.5C4.61786 11.5 4.48053 11.4376 4.38558 11.3288L2.29034 8.92884C2.10873 8.72081 2.13015 8.40495 2.33817 8.22335C2.54619 8.04174 2.86205 8.06315 3.04366 8.27118L4.76224 10.2397L9.62367 4.67118C9.80528 4.46316 10.1211 4.44174 10.3292 4.62335Z" />
<path fill-rule="evenodd" clip-rule="evenodd" d="M13.6786 4.67964C13.8786 4.87009 13.8863 5.18658 13.6959 5.38654L7.9814 11.3865C7.88041 11.4926 7.73801 11.549 7.5918 11.5409C7.44558 11.5329 7.31025 11.4611 7.22154 11.3446L6.93599 10.9696C6.7687 10.7499 6.81118 10.4362 7.03088 10.2689C7.21962 10.1252 7.47775 10.1363 7.65282 10.2816L12.9717 4.69687C13.1622 4.49691 13.4787 4.4892 13.6786 4.67964Z" />
</svg>
