<svg width="18" height="20" viewBox="0 0 18 20" fill="none" xmlns="http://www.w3.org/2000/svg">
<path d="M16.5 0.25H3.75C2.95435 0.25 2.19129 0.56607 1.62868 1.12868C1.06607 1.69129 0.75 2.45435 0.75 3.25V19C0.75 19.1989 0.829018 19.3897 0.96967 19.5303C1.11032 19.671 1.30109 19.75 1.5 19.75H15C15.1989 19.75 15.3897 19.671 15.5303 19.5303C15.671 19.3897 15.75 19.1989 15.75 19C15.75 18.8011 15.671 18.6103 15.5303 18.4697C15.3897 18.329 15.1989 18.25 15 18.25H2.25C2.25 17.8522 2.40804 17.4706 2.68934 17.1893C2.97064 16.908 3.35218 16.75 3.75 16.75H16.5C16.6989 16.75 16.8897 16.671 17.0303 16.5303C17.171 16.3897 17.25 16.1989 17.25 16V1C17.25 0.801088 17.171 0.610322 17.0303 0.46967C16.8897 0.329018 16.6989 0.25 16.5 0.25ZM15.75 15.25H3.75C3.22326 15.2493 2.70572 15.388 2.25 15.6522V3.25C2.25 2.85218 2.40804 2.47064 2.68934 2.18934C2.97064 1.90804 3.35218 1.75 3.75 1.75H15.75V15.25Z" fill="#474747"/>
</svg>
