<svg width="373" height="621" viewBox="0 0 373 621" fill="none" xmlns="http://www.w3.org/2000/svg">
<path fill-rule="evenodd" clip-rule="evenodd" d="M105.716 23.6939C120.785 13.7479 142.658 5.50723 164.051 1.71445C176.069 -0.415684 208.132 0.23945 218.735 2.83245C252.049 10.9799 278.895 27.5995 298.785 52.3896C305.672 60.9735 318.892 84.4245 318.892 88.0572C318.892 89.1039 320.81 89.9421 324.36 90.4453C333.51 91.7441 346.791 96.6238 352.523 100.793C359.726 106.032 366.49 114.772 369.641 122.912C373.237 132.203 373.253 150.642 369.673 160.623C362.466 180.721 343.353 194.59 322.865 194.59C320.68 194.59 318.892 195.036 318.892 195.58C318.892 196.125 315.251 202.035 310.799 208.715C302.182 221.646 291.429 232.715 279.835 240.59C275.989 243.201 272.843 245.873 272.843 246.529C272.843 247.183 276.469 259.49 280.901 273.878C285.334 288.266 288.96 300.628 288.96 301.349C288.96 302.071 291.938 303.518 295.58 304.566C317.484 310.871 318.892 311.389 318.869 313.129C318.857 314.111 318.084 320.613 317.153 327.579C316.22 334.545 315.453 340.562 315.448 340.95C315.443 341.338 319.742 345.224 325.003 349.585C341.455 363.229 349.327 373.505 352.685 385.726C359.372 410.057 352.118 430.49 331.88 444.323L328.177 446.855L331.16 453.424C339.686 472.201 344.227 491.863 344.202 509.893C344.177 528.436 339.803 543.47 330.434 557.222C326.194 563.447 315.231 574.575 309.937 578.03C307.427 579.667 307.371 580.024 308.647 586.312C312.595 605.771 298.341 620.607 275.721 620.583C248.366 620.553 224.403 603.56 215.274 577.72L213.141 571.681L205.864 572.256C195.297 573.092 176.801 572.962 167.482 571.985L159.399 571.138L157.284 577.166C152.775 590.023 143.945 601.549 132.648 609.322C117.067 620.044 93.2178 623.557 79.8715 617.095C68.4789 611.579 61.7695 599.131 64.293 588.194C66.0705 580.494 65.983 579.436 63.4998 578.647C60.007 577.538 45.2631 562.509 40.7583 555.465C38.449 551.854 34.9573 544.699 33.0002 539.565C29.5384 530.482 29.4406 529.702 29.3991 510.655C29.3508 488.192 31.2572 478.486 39.3538 459.993C41.8486 454.293 44.1061 449.112 44.3698 448.479C44.6334 447.845 42.7224 446.032 40.124 444.449C33.9177 440.667 25.8522 430.742 21.4107 421.42C18.0951 414.463 17.8511 413.084 17.9363 401.846C18.0111 392.148 18.5534 388.389 20.6797 382.848C25.5402 370.183 35.4454 358.348 50.9652 346.662C57.0299 342.095 57.5572 341.349 57.023 338.075C55.8165 330.664 54.1081 316.371 54.1081 313.679C54.1081 312.141 54.762 310.884 55.5609 310.884C56.3599 310.884 61.0834 309.592 66.0556 308.013C71.0289 306.435 76.9923 304.633 79.3074 304.01C83.4554 302.893 83.5716 302.699 87.0955 291.047C96.6082 259.601 100.157 247.53 100.157 246.626C100.157 246.084 97.4371 243.9 94.1135 241.773C81.42 233.651 64.0087 214.494 55.7762 199.593C52.6633 193.957 52.3041 193.69 48.6512 194.283C42.9802 195.203 30.8255 191.483 23.0224 186.438C15.1019 181.318 7.19643 171.313 3.28223 161.458C1.10525 155.975 0.657405 152.629 0.620565 141.565C0.576818 128.47 0.64244 128.128 4.90316 119.506C12.5025 104.129 25.4366 94.7389 43.0861 91.7855C48.5902 90.8644 52.5539 89.599 53.0766 88.5961C53.552 87.6807 55.4665 83.5195 57.3304 79.349C59.1931 75.1786 63.2074 67.9246 66.2501 63.2291C73.2324 52.4553 94.6546 30.9951 105.716 23.6939ZM91.5451 63.2556C107.119 43.8381 140.18 26.1614 168.693 22.0071C179.716 20.4009 196.934 20.5897 207.499 22.4331C237.098 27.5949 266.408 45.1587 282.94 67.6402C288.761 75.5539 298.17 91.8984 298.17 94.0941C298.17 110.953 301.024 93.7321 261.499 93.9444C240.605 94.0573 229.043 95.8236 215.478 100.977C204.786 105.038 195.282 107.03 186.454 107.058C178.311 107.084 167.28 104.665 163.125 101.943C161.7 101.008 154.331 98.8461 146.751 97.1374C134.873 94.4591 130.262 94.017 113.397 93.9352C102.633 93.8834 89.223 94.2818 83.5981 94.8207L73.3717 95.8005L74.158 92.5179C75.3529 87.5391 84.7367 71.7462 91.5451 63.2556ZM76.6792 128.917C76.5019 112.961 78.7111 110.303 93.8257 108.275C103.706 106.95 130.468 107.87 139.488 109.846C149.877 112.121 154.122 114.517 156.083 119.211C161.027 131.046 154.016 155.336 142.351 166.786C135.856 173.161 127.207 176.167 115.361 176.167C98.8692 176.167 89.9 171.669 83.7098 160.294C79.1946 151.996 76.8173 141.386 76.6792 128.917ZM42.2481 109.896C47.5598 108.001 48.3519 107.925 48.3519 109.308C48.3519 187.3 57.5618 179.622 34.7834 144.404C27.0541 127.957 20.1577 117.776 42.2481 109.896ZM236.411 110.072C245.589 108.951 254.134 108.251 263.683 108.473C281.773 108.892 285.726 109.308 289.586 111.192C296.345 114.492 297.606 119.177 295.958 134.888C294.466 149.115 291.574 158.444 286.781 164.498C279.866 173.23 264.568 177.741 250.63 175.16C236.911 172.619 228.999 166.474 222.358 153.201C217.397 143.289 214.548 130.35 215.825 123.537C217.253 115.925 223.847 111.613 236.411 110.072ZM327.346 111.342C323.648 109.141 323.147 95.3475 344.187 119.31C348.481 124.204 352.342 132.055 351.515 134.213C351.211 135.008 349.481 136.27 347.673 137.019C345.865 137.768 343.448 139.418 342.3 140.685C341.153 141.953 339.264 143.499 338.1 144.121C336.294 145.088 336.141 144.947 337.045 143.152C338.689 139.887 337.848 127.58 335.698 123.421C333.694 119.545 333.094 118.786 330.925 115.42C329.806 113.684 328.195 111.849 327.346 111.342ZM261.911 112.927C266.224 114.965 270.607 118.045 272.239 120.184C286.61 139.03 275.4 163.996 252.634 163.842C242.756 163.775 234.458 158.939 228.962 150.045C225.161 143.893 225.544 133.179 229.875 124.519C235.528 113.216 250.268 107.423 261.911 112.927ZM98.7184 149.758C92.0159 136.539 96.9006 120.922 109.987 113.729C126.885 104.442 146.726 116.603 148.279 137.199C148.693 142.688 148.272 144.627 145.605 149.529C140.262 159.349 130.388 164.266 118.232 163.163C109.042 162.331 102.981 158.167 98.7184 149.758ZM111.473 137.416C108.829 135.024 108.75 129.247 111.323 126.403C114.066 123.372 119.489 124.138 122.327 127.957C127.517 134.943 117.951 143.279 111.473 137.416ZM243.486 139.322C237.284 139.322 233.716 131.093 237.908 126.459C242.02 121.916 250.969 126.103 250.969 132.569C250.969 135.625 246.873 139.322 243.486 139.322ZM169.712 145.794C174.479 133.306 175.006 132.547 180.25 130.634C182.826 129.695 186.507 129.267 188.803 129.639C192.641 130.26 199.164 135.116 199.164 137.351C199.164 137.929 202.231 144.813 205.978 152.65C215.896 173.386 225.765 183.287 240.197 186.976C255.601 190.913 267.738 190.451 281.134 185.418C288.454 182.668 305.9 170.643 305.913 161.584C305.92 157.663 311.31 132.704 312.382 131.633C313.471 130.544 313.273 141.671 311.987 153.882C310.585 167.184 305.446 181.63 298.204 192.618C291.878 202.22 279.154 215.37 270.267 221.491C263.907 225.872 244.401 234.823 240.877 234.977C239.779 235.026 237.068 235.809 234.852 236.716L230.823 238.367L235.428 237.783C237.96 237.462 241.899 236.883 244.179 236.497L248.326 235.795L250.927 247.05C253.22 256.975 264.77 293.604 267.061 298.218C267.533 299.168 268.266 301.395 268.69 303.166C269.448 306.333 269.204 306.51 254.157 313.677C245.739 317.686 233.161 323.578 226.204 326.769C219.246 329.959 208.144 335.173 201.533 338.354C191.807 343.033 186.214 346.343 176.427 340.976C170.253 337.883 151.474 329.023 134.694 321.287C117.915 313.549 103.756 306.81 103.229 306.309C102.702 305.808 102.829 304.43 103.512 303.248C105.021 300.634 120.326 253.303 122.928 243.202C124.219 238.191 125.256 236.148 126.304 236.551C127.135 236.87 131.306 237.42 135.573 237.771L143.329 238.41L134.995 236.13C115.787 230.873 99.8478 221.894 88.5841 209.985C69.408 189.709 59.9322 167.257 59.8838 141.981C59.8631 130.496 61.4092 126.868 62.6053 135.597C67.5545 171.708 84.0678 188.833 113.939 188.833C142.209 188.833 157.907 176.719 169.712 145.794ZM162.169 198.883C162.002 187.236 169.139 179.41 181.783 177.379C188.258 176.339 192.329 176.925 199.478 179.926C205.917 182.627 209.557 186.559 211.737 193.167C214.83 202.537 208.9 213.097 196.573 220.171C194.2 221.533 192.256 223.095 192.256 223.641C192.256 224.185 193.528 225.903 195.083 227.458C199.607 231.984 210.66 230.753 217.548 224.957C219.467 223.341 221.037 222.477 221.037 223.034C221.037 225.076 211.09 233.667 205.495 236.457C198.923 239.735 185.66 242.379 180.735 241.393C175.172 240.281 162.672 233.656 159.233 229.999L155.992 226.551L160.022 228.603C165.491 231.39 173.109 231.275 177.046 228.345C181.704 224.881 181.663 221.772 176.93 219.525C172.347 217.35 166.296 211.502 163.909 206.943C162.991 205.188 162.208 201.561 162.169 198.883ZM168.59 191.208C169.67 190.014 172.199 188.226 174.211 187.235C179.842 184.457 184.777 184.863 187.504 188.331C188.781 189.955 189.583 191.913 189.288 192.683C188.992 193.453 185.862 195.812 182.33 197.924C175.132 202.231 172.203 201.894 168.565 196.34C166.745 193.562 166.746 193.246 168.59 191.208ZM75.4635 317.744C77.3319 317.717 80.6463 316.744 82.8314 315.58C86.6431 313.55 86.9896 313.547 91.4656 315.495C102.758 320.409 117.56 327.054 126.06 331.028C131.126 333.395 142.782 338.684 151.963 342.78C161.144 346.876 172.59 352.175 177.397 354.556L186.137 358.883L207.329 349.136C218.984 343.776 241.134 333.508 256.55 326.317C283.838 313.591 284.668 313.289 287.884 314.953C289.701 315.892 293.129 317.065 295.501 317.557L299.814 318.454L290.645 322.85C285.603 325.27 263.086 335.281 240.608 345.099C218.13 354.918 196.822 364.23 193.255 365.794L186.772 368.638L170.806 361.751C87.8785 325.976 72.3451 319.325 72.7723 318.058C72.8841 317.727 74.088 317.764 75.4635 317.744ZM38.4548 393.871C40.5937 385.52 44.653 379.208 52.7657 371.621C59.4061 365.412 61.0155 364.913 61.0155 369.067C61.0155 372.971 63.9926 379.884 67.1147 383.232C70.177 386.516 75.5602 389.323 84.0402 392.059C97.6846 396.461 106.995 403.29 109.434 410.686C111.28 416.278 108.228 425.99 103.32 430.139C95.9727 436.35 90.6943 437.838 77.8362 437.324C63.3341 436.745 54.5398 433.219 46.7079 424.845C37.9747 415.507 35.3936 405.82 38.4548 393.871ZM290.594 391.894C305.231 386.916 309.8 382.472 311.425 371.629C312.215 366.358 312.312 366.25 314.702 367.924C326.024 375.854 334.058 388.794 334.804 400.302C335.762 415.072 328.658 426.09 313.614 433.169C306.494 436.519 304.344 436.961 293.262 437.356C281.698 437.767 280.452 437.591 274.582 434.718C263.702 429.394 259.759 419.756 264.589 410.287C268.826 401.982 276.132 396.814 290.594 391.894ZM49.4594 517.77C47.3688 502.738 50.9606 484.006 60.1497 462.008C63.4238 454.171 63.8567 453.661 67.2195 453.676C74.7071 453.708 75.5187 454.43 76.655 462.068L77.7084 469.156L101.309 479.058C114.289 484.504 128.535 490.659 132.968 492.734C137.4 494.81 144.912 498.052 149.661 499.939C154.409 501.826 164.234 505.955 171.493 509.115C178.949 512.361 185.71 514.621 187.034 514.31C188.324 514.007 194.559 511.692 200.89 509.162C217.507 502.525 280.213 477.163 288.602 473.686L295.727 470.732L296.499 464.546C297.45 456.931 298.699 455.278 304.231 454.308C308.524 453.556 308.589 453.603 310.985 459.074C314.772 467.715 320.762 487.911 322.352 497.394C326.304 520.976 318.466 544.233 301.986 557.829L294.446 564.05L290.126 561.191C283.58 556.858 274.886 553.933 266.141 553.12L258.267 552.388L264.74 539.581C271.029 527.143 276.957 511.507 275.816 510.368C275.508 510.058 270.476 513.815 264.634 518.716C246.577 533.869 231.617 542.496 214.472 547.64C200.682 551.777 176.222 552.104 161.173 548.351C143.055 543.832 125.515 533.949 107.655 518.191C102.598 513.73 98.1163 510.08 97.6938 510.08C95.3119 510.08 107.362 540.409 112.754 547.982C114.057 549.813 115.124 551.553 115.124 551.848C115.124 552.143 111.889 552.751 107.934 553.198C98.7898 554.233 89.3969 557.509 83.2838 561.795L78.4981 565.149L71.859 559.78C60.1417 550.302 51.8102 534.676 49.4594 517.77ZM95.5617 576.857C99.6647 574.764 109.552 572.686 119.153 571.9C128.547 571.13 136.997 571.385 136.997 572.437C136.997 574.71 133.67 576.613 132.356 579.719C132.182 580.131 132.107 580.371 131.934 580.783C128.41 589.17 122.623 593.111 115.039 596.822C104.349 602.053 91.7362 602.366 86.5441 597.529C80.9295 592.297 85.4032 582.041 95.5617 576.857ZM241.285 571.749C249.397 572.638 258.9 572.199 266.877 573.863C279.996 576.599 288.96 584.305 288.96 592.847C288.96 602.766 269.384 603.711 253.551 594.557C249.007 591.93 235.233 571.083 241.285 571.749Z" />
</svg>
