<svg width="783" height="280" viewBox="0 0 783 280" fill="none" xmlns="http://www.w3.org/2000/svg">
<path fill-rule="evenodd" clip-rule="evenodd" d="M130.074 1.11005C111.233 4.72256 94.9469 19.4628 91.6326 35.9028L90.2716 42.6503L79.9044 48.6953C57.0161 62.0403 35.8743 87.2832 25.1518 114.066C17.3664 133.514 15.3212 144.42 14.793 169.299L14.312 191.971L9.09029 197.194C1.77753 204.51 -0.571019 211.292 0.113117 223.121C0.775496 234.567 4.56725 242.429 13.4223 250.713C22.7404 259.43 30.9343 262.666 44.0332 262.802C53.7018 262.902 55.8762 263.359 63.1056 266.81C73.7883 271.909 89.8231 275.899 109.918 278.457C129.424 280.941 169.676 280.34 189.045 277.275C202.397 275.162 226.914 269.318 237.024 265.839C243.479 263.618 243.638 263.621 255.882 266.374C262.674 267.901 276.522 270.539 286.656 272.236C350.183 282.871 384.172 281.024 403.394 265.891L407.823 262.404L418.702 264.642C432.042 267.386 446.975 267.547 455.424 265.038C469.028 260.997 478.803 245.936 476.743 232.193C476.291 229.179 475.685 226.101 475.398 225.35C475.048 224.44 477.412 223.917 482.511 223.775C486.711 223.659 500.221 222.164 512.533 220.453L534.919 217.342L544.498 219.984C558.324 223.796 593.674 223.867 609.679 220.114L620.558 217.563L634.552 225.902C659.882 240.995 672.469 245.633 686.213 244.938C700.157 244.232 708.481 239.201 714.583 227.79C716.876 223.502 717.255 220.903 717.255 209.493C717.255 196.599 717.119 195.917 712.786 187.127C710.328 182.139 705.603 174.732 702.287 170.666L696.256 163.272L706.161 160.655C738.326 152.156 768.131 130.788 779.544 108.045C784.173 98.8243 784.156 94.8721 779.47 90.1848C774.778 85.4926 771.974 85.8578 755.932 93.246C726.149 106.965 693.899 109.188 657.618 100.025C641.767 96.0206 621.126 86.588 606.962 76.8736C601.817 73.3445 590.26 63.0571 581.282 54.0113C559.459 32.028 543.456 21.159 519.63 12.1398C489.611 0.777593 446.641 -1.02261 411.076 7.59156C386.4 13.5677 374.82 18.44 317.169 47.1067C277.604 66.7796 257.123 75.898 252.501 75.898C251.18 75.898 240.169 70.2628 228.033 63.3751C215.896 56.4874 202.574 49.0072 198.427 46.7512C192.052 43.2838 190.884 42.1437 190.872 39.3715C190.846 33.1971 185.956 22.8238 180.002 16.3073C167.898 3.06019 149.349 -2.58467 130.074 1.11005ZM443.48 27.0831C433.296 28.3816 417.876 31.5625 407.823 34.44C390.351 39.4392 374.234 46.4949 329.256 68.8325C277.243 94.6642 261.001 101.264 249.413 101.28C245.329 101.286 239.882 98.6309 216.777 85.3717C185.678 67.5244 172.561 61.2763 158.795 57.7544C130.874 50.6116 98.9067 60.633 74.4132 84.2087C58.9138 99.1266 48.5768 117.101 42.486 139.726C39.7011 150.067 39.318 153.832 39.2575 171.409C39.1814 193.528 40.4941 200.573 47.2919 214.519C62.0637 244.821 85.5999 254.756 142.749 254.809C176.502 254.841 197.199 251.878 228.065 242.602C242.333 238.313 241.422 238.277 270.633 244.294C304.893 251.35 326.589 254.067 349.2 254.133C371.014 254.196 379.985 252.511 386.176 247.185C389.289 244.507 389.331 244.299 387.489 240.736C384.541 235.033 377.621 229.683 370.65 227.718C367.162 226.734 357.983 225.077 350.25 224.036C327.444 220.967 309.231 215.223 304.6 209.641C301.477 205.878 304.34 205.262 324.922 205.262C351.302 205.262 373.773 207.134 383.522 210.146C395.536 213.859 406.241 222.795 411.801 233.757C414.14 238.367 414.826 238.803 422.716 240.708C434.36 243.519 446.009 243.413 449.652 240.462C451.882 238.656 452.424 237.114 452.26 233.035C451.509 214.157 423.733 188.35 379.468 165.398C360.235 155.425 358.251 153.353 361.175 146.29C363.245 141.291 367.44 139.604 373.777 141.223C398.806 147.617 431.837 168.109 453.666 190.786L464.458 201.996L480.258 198.137C512.058 190.371 515.016 189.422 514.076 187.278C510.737 179.657 508.68 171.594 508.991 167.338L509.356 162.342L517.615 173.392C522.157 179.47 528.172 186.094 530.982 188.112C547.152 199.727 582.686 202.26 612.835 193.945C620.41 191.856 623.866 191.403 625.527 192.281C626.783 192.943 635.558 198.091 645.027 203.72C667.663 217.174 677.742 221.434 684.312 220.325C687.063 219.859 690.551 218.179 692.212 216.517C694.773 213.956 695.106 212.725 694.615 207.618C692.433 184.91 658.427 152.983 609.075 127.307L592.757 118.818L584.698 103.382C575.166 85.1275 567.577 74.5402 556.302 63.7656C537.628 45.9182 518.583 35.8932 491.829 29.8264C481.746 27.5401 452.784 25.8959 443.48 27.0831ZM111.306 85.188C108.657 86.2482 107.281 91.4446 108.863 94.4139C109.637 95.8671 113.779 100.32 118.067 104.311L125.864 111.565L117.265 120.322C107.964 129.793 106.737 133.211 111.082 137.557C114.771 141.247 117.851 140.506 124.732 134.277C128.194 131.142 132.532 127.223 134.373 125.565L137.721 122.552L146.489 131.263C153.668 138.396 155.952 139.975 159.089 139.975C161.678 139.975 163.53 139.104 164.801 137.288C168.228 132.396 167.115 129.812 157.754 120.919L148.827 112.435L157.196 104.142C166.483 94.9386 167.913 91.8569 164.975 87.3751C161.471 82.0252 157.126 83.2681 146.478 92.6633L137.07 100.967L128.004 92.6656C119.193 84.5967 116.168 83.2427 111.306 85.188ZM212.429 159.622C211.407 160.453 209.315 163.037 207.78 165.364C206.243 167.692 202.772 171.918 200.065 174.758L195.143 179.92L187.64 172.038C179.706 163.702 177.512 162.869 171.575 165.94C166.607 168.509 163.38 174.513 161.864 184.009C159.958 195.941 161.887 204.375 167.896 210.385C174.61 217.101 177.576 216.635 187.009 207.377L194.709 199.821L197.316 203.343C198.749 205.28 201.578 209.088 203.601 211.806C207.76 217.395 212.219 218.725 215.288 215.293C219.307 210.799 218.586 207.071 211.953 198.061L206.459 190.594L213.186 183.325C219.726 176.26 224.702 168.357 224.702 165.036C224.702 162.369 219.984 158.11 217.029 158.11C215.52 158.11 213.45 158.791 212.429 159.622ZM135.762 190.929L126.856 199.566L118.342 191.533C109.129 182.839 105.645 181.684 101.412 185.918C96.8893 190.442 99.1968 195.631 110.132 205.531L116.521 211.315L108.429 218.868C99.2246 227.457 97.4647 231.538 101.307 235.382C105.541 239.617 109.008 238.573 118.392 230.238L127.025 222.573L135.115 230.843C143.947 239.873 147.711 241.164 152.179 236.696C156.474 232.399 155.279 228.933 146.235 219.46L137.875 210.702L146.235 202.066C155.651 192.34 156.671 188.935 151.411 184.797C149.66 183.418 147.426 182.29 146.448 182.29C145.469 182.29 140.661 186.177 135.762 190.929Z" fill="#3804A6"/>
</svg>
