<svg width="32" height="32" viewBox="0 0 32 32" fill="none" xmlns="http://www.w3.org/2000/svg">
	<path d="M6.73999 4.32661C6.65217 4.22762 6.54558 4.14704 6.42639 4.08955C6.3072 4.03205 6.17778 3.99879 6.04564 3.99168C5.91351 3.98457 5.78127 4.00376 5.6566 4.04813C5.53193 4.09251 5.41731 4.16118 5.31938 4.25018C5.22144 4.33918 5.14215 4.44673 5.08609 4.5666C5.03003 4.68647 4.99832 4.81627 4.9928 4.94849C4.98727 5.08071 5.00804 5.2127 5.05391 5.33683C5.09978 5.46096 5.16982 5.57475 5.25999 5.67161L7.66499 8.31786C3.12499 11.1041 1.17249 15.3991 1.08624 15.5941C1.02938 15.722 1 15.8604 1 16.0004C1 16.1403 1.02938 16.2787 1.08624 16.4066C1.12999 16.5054 2.18874 18.8529 4.54249 21.2066C7.67874 24.3416 11.64 25.9991 16 25.9991C18.2408 26.0119 20.4589 25.5505 22.5087 24.6454L25.2587 27.6716C25.3466 27.7706 25.4531 27.8512 25.5723 27.9087C25.6915 27.9662 25.8209 27.9994 25.9531 28.0065C26.0852 28.0136 26.2175 27.9945 26.3421 27.9501C26.4668 27.9057 26.5814 27.837 26.6793 27.748C26.7773 27.659 26.8566 27.5515 26.9126 27.4316C26.9687 27.3117 27.0004 27.1819 27.0059 27.0497C27.0115 26.9175 26.9907 26.7855 26.9448 26.6614C26.899 26.5373 26.8289 26.4235 26.7387 26.3266L6.73999 4.32661ZM12.6562 13.8066L17.865 19.5379C17.0806 19.9505 16.1814 20.091 15.3085 19.9372C14.4357 19.7834 13.6386 19.344 13.0425 18.6881C12.4464 18.0322 12.085 17.1969 12.0151 16.3134C11.9452 15.4298 12.1707 14.5481 12.6562 13.8066ZM16 23.9991C12.1525 23.9991 8.79124 22.6004 6.00874 19.8429C4.86663 18.7078 3.89526 17.4131 3.12499 15.9991C3.71124 14.9004 5.58249 11.8254 9.04374 9.82661L11.2937 12.2954C10.4227 13.411 9.97403 14.7987 10.0272 16.2131C10.0803 17.6275 10.6317 18.9776 11.584 20.0247C12.5363 21.0719 13.8282 21.7487 15.2312 21.9354C16.6343 22.1222 18.0582 21.8069 19.2512 21.0454L21.0925 23.0704C19.4675 23.6938 17.7405 24.0088 16 23.9991ZM16.75 12.0704C16.4894 12.0206 16.2593 11.8694 16.1102 11.65C15.9611 11.4306 15.9053 11.1609 15.955 10.9004C16.0047 10.6398 16.1559 10.4096 16.3753 10.2605C16.5948 10.1115 16.8644 10.0556 17.125 10.1054C18.3995 10.3524 19.56 11.0049 20.4333 11.9655C21.3067 12.926 21.8462 14.1432 21.9712 15.4354C21.9959 15.6994 21.9147 15.9625 21.7455 16.1666C21.5762 16.3708 21.3328 16.4994 21.0687 16.5241C21.0375 16.5259 21.0062 16.5259 20.975 16.5241C20.725 16.5252 20.4838 16.4326 20.2987 16.2646C20.1136 16.0967 19.9981 15.8655 19.975 15.6166C19.8908 14.7571 19.5315 13.9477 18.9504 13.3088C18.3694 12.6699 17.5977 12.2355 16.75 12.0704ZM30.91 16.4066C30.8575 16.5241 29.5912 19.3279 26.74 21.8816C26.6426 21.9716 26.5282 22.0414 26.4036 22.0868C26.2789 22.1322 26.1465 22.1524 26.014 22.1461C25.8814 22.1398 25.7515 22.1072 25.6317 22.0503C25.5119 21.9933 25.4047 21.913 25.3162 21.8142C25.2277 21.7153 25.1598 21.5999 25.1163 21.4745C25.0729 21.3492 25.0549 21.2164 25.0633 21.084C25.0716 20.9516 25.1063 20.8222 25.1652 20.7034C25.2241 20.5845 25.306 20.4785 25.4062 20.3916C26.8051 19.1349 27.9801 17.6496 28.8812 15.9991C28.1093 14.5838 27.1358 13.2882 25.9912 12.1529C23.2087 9.39786 19.8475 7.99911 16 7.99911C15.1893 7.99812 14.3799 8.06376 13.58 8.19536C13.4499 8.21836 13.3166 8.21536 13.1876 8.18654C13.0587 8.15771 12.9368 8.10363 12.8289 8.02741C12.721 7.95119 12.6293 7.85435 12.559 7.74249C12.4887 7.63062 12.4413 7.50594 12.4196 7.37564C12.3978 7.24535 12.402 7.11203 12.432 6.98339C12.462 6.85474 12.5172 6.73332 12.5945 6.62613C12.6717 6.51895 12.7694 6.42812 12.8819 6.3589C12.9944 6.28969 13.1195 6.24345 13.25 6.22286C14.1589 6.07278 15.0787 5.99794 16 5.99911C20.36 5.99911 24.3212 7.65661 27.4575 10.7929C29.8112 13.1466 30.87 15.4954 30.9137 15.5941C30.9706 15.722 31 15.8604 31 16.0004C31 16.1403 30.9706 16.2787 30.9137 16.4066H30.91Z" fill="#343330"/>
</svg>
