<svg width="20" height="21" viewBox="0 0 20 21" fill="#5E5E5E" xmlns="http://www.w3.org/2000/svg">
<path fill-rule="evenodd" clip-rule="evenodd" d="M4.6868 4.18675C3.30431 4.81869 2.2915 6.32179 2.2915 8.11417C2.2915 9.94534 3.04085 11.3568 4.11508 12.5664C5.00044 13.5634 6.0722 14.3896 7.11744 15.1954C7.3657 15.3868 7.61246 15.5771 7.85488 15.7682C8.29324 16.1137 8.68427 16.417 9.06118 16.6373C9.43829 16.8576 9.74184 16.9583 9.99984 16.9583C10.2578 16.9583 10.5614 16.8576 10.9385 16.6373C11.3154 16.417 11.7064 16.1137 12.1448 15.7682C12.3872 15.5771 12.634 15.3868 12.8822 15.1954C13.9275 14.3896 14.9992 13.5634 15.8846 12.5664C16.9588 11.3568 17.7082 9.94534 17.7082 8.11417C17.7082 6.32179 16.6954 4.81869 15.3129 4.18675C13.9698 3.57282 12.1651 3.73541 10.4501 5.5172C10.3323 5.63962 10.1697 5.70879 9.99984 5.70879C9.82994 5.70879 9.66735 5.63962 9.54953 5.5172C7.83456 3.73541 6.02989 3.57282 4.6868 4.18675ZM9.99984 4.21561C8.07313 2.49179 5.91564 2.25065 4.16714 3.04989C2.32043 3.89403 1.0415 5.85412 1.0415 8.11417C1.0415 10.3355 1.96692 12.03 3.18044 13.3964C4.15223 14.4907 5.34169 15.4066 6.39219 16.2154C6.63033 16.3988 6.86132 16.5766 7.08102 16.7498C7.50788 17.0863 7.96612 17.4452 8.43052 17.7165C8.89472 17.9878 9.42451 18.2083 9.99984 18.2083C10.5752 18.2083 11.105 17.9878 11.5692 17.7165C12.0336 17.4452 12.4918 17.0863 12.9187 16.7498C13.1384 16.5766 13.3693 16.3988 13.6075 16.2154C14.658 15.4066 15.8474 14.4907 16.8192 13.3964C18.0328 12.03 18.9582 10.3355 18.9582 8.11417C18.9582 5.85412 17.6792 3.89403 15.8325 3.04989C14.084 2.25065 11.9266 2.49179 9.99984 4.21561Z"/>
</svg>
