<svg width="14" height="20" viewBox="0 0 14 20" fill="none" xmlns="http://www.w3.org/2000/svg">
<path d="M7.02344 10.0003C7.02344 8.15937 8.51582 6.66699 10.3568 6.66699C12.1977 6.66699 13.6901 8.15941 13.6901 10.0003C13.6901 11.8413 12.1977 13.3336 10.3568 13.3336C8.51578 13.3336 7.02344 11.8412 7.02344 10.0003Z" fill="#00BCFF"/>
<path d="M0.356445 16.6667C0.356445 14.8257 1.84883 13.3334 3.68977 13.3334L5.46613 12.3955L7.02309 13.3334V16.6667C7.02309 18.5077 5.5307 20 3.68977 20C1.84883 20 0.356445 18.5076 0.356445 16.6667Z" fill="#00CF7F"/>
<path d="M7.02281 0L5.20898 3.15117L7.02281 6.66664H10.3094C12.1504 6.66664 13.6427 5.17426 13.6427 3.33332C13.6427 1.49238 12.1503 0 10.3094 0H7.02281Z" fill="#FF7361"/>
<path d="M0.30957 3.33332C0.30957 5.17426 1.80195 6.66664 3.64289 6.66664L5.41113 7.34961L7.02297 6.66664V0H3.64285C1.80195 0 0.30957 1.49238 0.30957 3.33332Z" fill="#FF4D12"/>
<path d="M0.356445 10.0004C0.356445 11.8413 1.84883 13.3337 3.68977 13.3337H7.02309V6.66699H3.68977C1.84883 6.66699 0.356445 8.15941 0.356445 10.0004Z" fill="#B659FF"/>
</svg>
