<svg width="43" height="45" viewBox="0 0 43 45" fill="none" xmlns="http://www.w3.org/2000/svg">
<rect width="43" height="45" rx="8" fill="#FFDA85"/>
<path fill-rule="evenodd" clip-rule="evenodd" d="M13.8651 11.9375C13.882 11.9375 13.899 11.9375 13.916 11.9375L29.1336 11.9375C29.8561 11.9375 30.4738 11.9374 30.9674 11.9997C31.491 12.0658 31.997 12.2141 32.4127 12.604C32.8356 13.0008 33.0037 13.4959 33.0775 14.0111C33.1453 14.4842 33.1452 15.0726 33.1452 15.7439L33.1452 16.5851C33.1452 17.1143 33.1452 17.5719 33.1057 17.9534C33.0632 18.3639 32.9703 18.7491 32.7471 19.1188C32.5256 19.4858 32.2273 19.7522 31.8836 19.991C31.5597 20.216 31.1459 20.4489 30.6593 20.7228L27.4716 22.5173C26.746 22.9257 26.4934 23.0728 26.3247 23.2193C25.9373 23.5556 25.7155 23.9287 25.6112 24.3962C25.5667 24.5961 25.5619 24.8478 25.5619 25.6124L25.5619 28.5721C25.5619 29.5484 25.562 30.3773 25.4615 31.0145C25.3547 31.6921 25.1066 32.342 24.4566 32.7486C23.8214 33.1459 23.1216 33.1094 22.4416 32.9479C21.7867 32.7924 20.9796 32.4769 20.0112 32.0982L19.9171 32.0614C19.4635 31.8841 19.0663 31.7289 18.7519 31.5665C18.4139 31.392 18.1001 31.1749 17.86 30.837C17.6171 30.4953 17.5198 30.1289 17.4764 29.7544C17.4368 29.4128 17.4368 29.0029 17.4369 28.5457L17.4369 25.6123C17.4369 24.8478 17.432 24.5961 17.3875 24.3962C17.2832 23.9287 17.0614 23.5556 16.674 23.2193C16.5053 23.0728 16.2527 22.9257 15.5271 22.5173L12.3394 20.7229C11.8528 20.4489 11.439 20.216 11.1151 19.991C10.7714 19.7522 10.4731 19.4858 10.2516 19.1188C10.0285 18.7491 9.93553 18.3639 9.893 17.9534C9.85348 17.5719 9.8535 17.1143 9.85352 16.5851L9.85352 15.7992C9.85352 15.7807 9.85352 15.7623 9.85352 15.7439C9.85347 15.0726 9.85342 14.4842 9.92123 14.0111C9.99505 13.4959 10.1631 13.0008 10.586 12.604C11.0017 12.2141 11.5077 12.0658 12.0313 11.9997C12.5249 11.9374 13.1426 11.9375 13.8651 11.9375ZM12.2346 13.6119C11.8732 13.6575 11.7582 13.7325 11.6979 13.7891C11.6449 13.8388 11.575 13.9263 11.5298 14.2416C11.4805 14.5858 11.4785 15.0561 11.4785 15.7992V16.5465C11.4785 17.1252 11.4795 17.498 11.5094 17.7859C11.5371 18.0541 11.5848 18.183 11.6429 18.2792C11.7027 18.3783 11.8019 18.4895 12.0422 18.6564C12.2954 18.8323 12.6413 19.028 13.1684 19.3247L16.3242 21.1012C16.3538 21.1179 16.3829 21.1342 16.4115 21.1504C17.0168 21.4909 17.429 21.7228 17.7393 21.9922C18.38 22.5483 18.791 23.2239 18.9735 24.0426C19.0622 24.4405 19.0621 24.8867 19.0619 25.5165C19.0619 25.548 19.0619 25.5799 19.0619 25.6123V28.5043C19.0619 29.0158 19.0631 29.3304 19.0906 29.5673C19.1154 29.7814 19.1545 29.8534 19.1846 29.8958C19.2174 29.9419 19.2824 30.0116 19.4974 30.1226C19.7275 30.2415 20.0445 30.3665 20.5452 30.5622C21.5863 30.9692 22.2865 31.2409 22.8171 31.3669C23.3356 31.4901 23.5065 31.4262 23.5949 31.3709C23.6685 31.3249 23.7822 31.2313 23.8563 30.7615C23.9344 30.266 23.9369 29.5671 23.9369 28.5043V25.6124C23.9369 25.5799 23.9368 25.548 23.9368 25.5165C23.9366 24.8867 23.9365 24.4405 24.0252 24.0426C24.2077 23.2239 24.6188 22.5483 25.2594 21.9922C25.5697 21.7228 25.9819 21.4909 26.5871 21.1504C26.6158 21.1342 26.6449 21.1179 26.6745 21.1012L29.8303 19.3247C30.3574 19.028 30.7033 18.8323 30.9565 18.6564C31.1968 18.4895 31.2961 18.3783 31.3558 18.2792C31.4139 18.183 31.4616 18.0541 31.4894 17.7859C31.5192 17.498 31.5202 17.1252 31.5202 16.5465V15.7992C31.5202 15.0561 31.5182 14.5858 31.4689 14.2416C31.4237 13.9263 31.3538 13.8388 31.3008 13.7891C31.2405 13.7325 31.1255 13.6575 30.7641 13.6119C30.3843 13.564 29.8703 13.5625 29.0827 13.5625H13.916C13.1284 13.5625 12.6144 13.564 12.2346 13.6119Z" fill="#343330"/>
</svg>
