<svg width="29" height="28" viewBox="0 0 29 28" fill="none" xmlns="http://www.w3.org/2000/svg">
<path d="M14.5259 0.104492C6.53363 0.104492 0.0527344 6.46744 0.0527344 14.3171C0.0527344 20.5968 4.19973 25.9244 9.95036 27.8037C10.6737 27.9353 10.9392 27.4954 10.9392 27.12C10.9392 26.7811 10.9258 25.6615 10.9196 24.4739C6.89314 25.3336 6.04351 22.7969 6.04351 22.7969C5.38514 21.1541 4.43653 20.7173 4.43653 20.7173C3.12338 19.8351 4.53551 19.8533 4.53551 19.8533C5.98887 19.9533 6.75413 21.3179 6.75413 21.3179C8.04499 23.4908 10.1399 22.8626 10.9658 22.4994C11.0957 21.581 11.4708 20.9536 11.8847 20.5989C8.67005 20.2395 5.29071 19.0208 5.29071 13.5748C5.29071 12.0231 5.85609 10.7552 6.78193 9.75988C6.63166 9.40166 6.13626 7.95632 6.92214 5.9986C6.92214 5.9986 8.1375 5.61661 10.9033 7.45548C12.0578 7.14056 13.2959 6.98264 14.5259 6.97722C15.7559 6.98264 16.995 7.14056 18.1516 7.45548C20.914 5.61661 22.1277 5.9986 22.1277 5.9986C22.9155 7.95632 22.4199 9.40166 22.2696 9.75988C23.1976 10.7552 23.7592 12.0231 23.7592 13.5748C23.7592 19.0337 20.3733 20.2357 17.1505 20.5876C17.6696 21.0287 18.1322 21.8936 18.1322 23.2196C18.1322 25.1211 18.1154 26.6516 18.1154 27.12C18.1154 27.4982 18.3759 27.9414 19.1096 27.8018C24.8571 25.9204 28.9988 20.5947 28.9988 14.3171C28.9988 6.46744 22.5189 0.104492 14.5259 0.104492Z" fill="white"/>
<path d="M5.53409 20.5105C5.50222 20.5813 5.38909 20.6023 5.28604 20.5538C5.18106 20.5074 5.1221 20.4112 5.15614 20.3403C5.18729 20.2676 5.30066 20.2476 5.40539 20.2958C5.51061 20.3424 5.57052 20.4396 5.53409 20.5105Z" fill="white"/>
<path d="M6.12075 21.1529C6.05173 21.2157 5.9168 21.1865 5.82524 21.0872C5.73057 20.9881 5.71284 20.8556 5.78282 20.7918C5.854 20.729 5.98486 20.7584 6.07977 20.8575C6.17444 20.9578 6.19289 21.0893 6.12075 21.1529Z" fill="white"/>
<path d="M6.69134 21.9715C6.60266 22.032 6.45766 21.9753 6.36803 21.8489C6.27935 21.7225 6.27935 21.5709 6.36995 21.5102C6.45982 21.4495 6.60266 21.5041 6.6935 21.6295C6.78194 21.7578 6.78194 21.9096 6.69134 21.9715Z" fill="white"/>
<path d="M7.47313 22.7621C7.3938 22.848 7.22484 22.8249 7.10117 22.7077C6.97462 22.5931 6.93939 22.4304 7.01896 22.3445C7.09925 22.2584 7.26917 22.2826 7.3938 22.3989C7.51939 22.5133 7.55774 22.6771 7.47313 22.7621Z" fill="white"/>
<path d="M8.5517 23.2216C8.51671 23.3329 8.35397 23.3835 8.19004 23.3362C8.02634 23.2875 7.91921 23.1571 7.95229 23.0446C7.98632 22.9325 8.14977 22.8798 8.31491 22.9304C8.47836 22.9789 8.58573 23.1084 8.5517 23.2216Z" fill="white"/>
<path d="M9.7362 23.307C9.74027 23.4243 9.60127 23.5215 9.42918 23.5233C9.25614 23.5273 9.11618 23.4325 9.11426 23.3172C9.11426 23.1988 9.25015 23.1025 9.42319 23.0997C9.59527 23.0964 9.7362 23.1905 9.7362 23.307Z" fill="white"/>
<path d="M10.8388 23.1225C10.8594 23.2369 10.7398 23.3543 10.5689 23.3854C10.4009 23.4157 10.2453 23.3451 10.224 23.2317C10.2032 23.1145 10.3249 22.997 10.4927 22.9667C10.6638 22.9375 10.8169 23.0062 10.8388 23.1225Z" fill="white"/>
</svg>
