<svg width="29" height="28" viewBox="0 0 29 28" fill="none" xmlns="http://www.w3.org/2000/svg">
<path d="M14.5261 0.104492C6.53388 0.104492 0.0529785 6.46744 0.0529785 14.3171C0.0529785 20.5968 4.19998 25.9244 9.95061 27.8037C10.6739 27.9353 10.9395 27.4954 10.9395 27.12C10.9395 26.7811 10.9261 25.6615 10.9198 24.4739C6.89338 25.3336 6.04376 22.7969 6.04376 22.7969C5.38538 21.1541 4.43677 20.7173 4.43677 20.7173C3.12362 19.8351 4.53576 19.8533 4.53576 19.8533C5.98911 19.9533 6.75437 21.3179 6.75437 21.3179C8.04523 23.4908 10.1402 22.8626 10.9661 22.4994C11.096 21.581 11.4711 20.9536 11.885 20.5989C8.67029 20.2395 5.29095 19.0208 5.29095 13.5748C5.29095 12.0231 5.85633 10.7552 6.78218 9.75988C6.6319 9.40166 6.13651 7.95632 6.92238 5.9986C6.92238 5.9986 8.13775 5.61661 10.9035 7.45548C12.058 7.14056 13.2962 6.98264 14.5261 6.97722C15.7561 6.98264 16.9952 7.14056 18.1519 7.45548C20.9143 5.61661 22.128 5.9986 22.128 5.9986C22.9158 7.95632 22.4201 9.40166 22.2699 9.75988C23.1979 10.7552 23.7594 12.0231 23.7594 13.5748C23.7594 19.0337 20.3736 20.2357 17.1508 20.5876C17.6699 21.0287 18.1324 21.8936 18.1324 23.2196C18.1324 25.1211 18.1157 26.6516 18.1157 27.12C18.1157 27.4982 18.3762 27.9414 19.1098 27.8018C24.8573 25.9204 28.9991 20.5947 28.9991 14.3171C28.9991 6.46744 22.5191 0.104492 14.5261 0.104492Z" />
<path d="M5.53471 20.5105C5.50283 20.5813 5.3897 20.6023 5.28665 20.5538C5.18167 20.5074 5.12271 20.4112 5.15675 20.3403C5.1879 20.2676 5.30127 20.2476 5.406 20.2958C5.51122 20.3424 5.57113 20.4396 5.53471 20.5105Z" />
<path d="M6.12094 21.1529C6.05191 21.2157 5.91698 21.1865 5.82543 21.0872C5.73076 20.9881 5.71302 20.8556 5.783 20.7918C5.85419 20.729 5.98505 20.7584 6.07995 20.8575C6.17462 20.9578 6.19308 21.0893 6.12094 21.1529Z" />
<path d="M6.69159 21.9715C6.60291 22.032 6.45791 21.9753 6.36827 21.8489C6.27959 21.7225 6.27959 21.5709 6.37019 21.5102C6.46007 21.4495 6.60291 21.5041 6.69374 21.6295C6.78218 21.7578 6.78218 21.9096 6.69159 21.9715Z" />
<path d="M7.47338 22.7621C7.39405 22.848 7.22508 22.8249 7.10141 22.7077C6.97486 22.5931 6.93963 22.4304 7.0192 22.3445C7.09949 22.2584 7.26942 22.2826 7.39405 22.3989C7.51963 22.5133 7.55798 22.6771 7.47338 22.7621Z" />
<path d="M8.55188 23.2216C8.51689 23.3329 8.35415 23.3835 8.19022 23.3362C8.02653 23.2875 7.91939 23.1571 7.95247 23.0446C7.9865 22.9325 8.14996 22.8798 8.31509 22.9304C8.47854 22.9789 8.58591 23.1084 8.55188 23.2216Z" />
<path d="M9.73632 23.307C9.7404 23.4243 9.60139 23.5215 9.42931 23.5233C9.25626 23.5273 9.1163 23.4325 9.11438 23.3172C9.11438 23.1988 9.25027 23.1025 9.42331 23.0997C9.5954 23.0964 9.73632 23.1905 9.73632 23.307Z" />
<path d="M10.8386 23.1225C10.8592 23.2369 10.7396 23.3543 10.5687 23.3854C10.4007 23.4157 10.2452 23.3451 10.2238 23.2317C10.203 23.1145 10.3247 22.997 10.4925 22.9667C10.6636 22.9375 10.8168 23.0062 10.8386 23.1225Z" />
</svg>
