<svg width="26" height="27" viewBox="0 0 26 27" fill="none" xmlns="http://www.w3.org/2000/svg">
<path d="M14.8932 11.3307C14.8932 11.7795 15.257 12.1432 15.7057 12.1432H16.4525L14.2722 14.3235C14.1665 14.4293 13.995 14.4293 13.8892 14.3235L12.1713 12.6056C11.4309 11.8652 10.2305 11.8652 9.49017 12.6056L7.00621 15.0895C6.6889 15.4068 6.6889 15.9213 7.00621 16.2386C7.32351 16.5559 7.83795 16.5559 8.15525 16.2386L10.6392 13.7546C10.745 13.6489 10.9165 13.6489 11.0222 13.7546L12.7402 15.4726C13.4805 16.2129 14.6809 16.2129 15.4213 15.4726L17.6016 13.2923V14.0391C17.6016 14.4878 17.9653 14.8516 18.4141 14.8516C18.8628 14.8516 19.2266 14.4878 19.2266 14.0391V11.3307C19.2266 10.882 18.8628 10.5182 18.4141 10.5182H15.7057C15.257 10.5182 14.8932 10.882 14.8932 11.3307Z" fill="white"/>
<path fill-rule="evenodd" clip-rule="evenodd" d="M12.9352 1.85156C10.4345 1.85155 8.47469 1.85154 6.94558 2.05712C5.38045 2.26755 4.14542 2.70667 3.17604 3.67604C2.20667 4.64542 1.76755 5.88045 1.55712 7.44558C1.35154 8.97469 1.35155 10.9345 1.35156 13.4352V13.5596C1.35155 16.0603 1.35154 18.0201 1.55712 19.5492C1.76755 21.1143 2.20667 22.3494 3.17604 23.3188C4.14542 24.2881 5.38045 24.7272 6.94558 24.9377C8.47469 25.1433 10.4345 25.1432 12.9352 25.1432H13.0595C15.5603 25.1432 17.5201 25.1433 19.0492 24.9377C20.6143 24.7272 21.8494 24.2881 22.8188 23.3188C23.7881 22.3494 24.2272 21.1143 24.4377 19.5492C24.6433 18.0201 24.6432 16.0603 24.6432 13.5595V13.4352C24.6432 10.9345 24.6433 8.97469 24.4377 7.44558C24.2272 5.88045 23.7881 4.64542 22.8188 3.67604C21.8494 2.70667 20.6143 2.26755 19.0492 2.05712C17.5201 1.85154 15.5603 1.85155 13.0596 1.85156H12.9352ZM4.32509 4.82509C4.94222 4.20796 5.77717 3.85383 7.1621 3.66763C8.57041 3.47829 10.421 3.47656 12.9974 3.47656C15.5738 3.47656 17.4244 3.47829 18.8327 3.66763C20.2176 3.85383 21.0526 4.20796 21.6697 4.82509C22.2868 5.44222 22.641 6.27717 22.8272 7.6621C23.0165 9.07041 23.0182 10.921 23.0182 13.4974C23.0182 16.0738 23.0165 17.9244 22.8272 19.3327C22.641 20.7176 22.2868 21.5526 21.6697 22.1697C21.0526 22.7868 20.2176 23.141 18.8327 23.3272C17.4244 23.5165 15.5738 23.5182 12.9974 23.5182C10.421 23.5182 8.57041 23.5165 7.1621 23.3272C5.77717 23.141 4.94222 22.7868 4.32509 22.1697C3.70796 21.5526 3.35383 20.7176 3.16763 19.3327C2.97829 17.9244 2.97656 16.0738 2.97656 13.4974C2.97656 10.921 2.97829 9.07041 3.16763 7.6621C3.35383 6.27717 3.70796 5.44222 4.32509 4.82509Z" fill="white"/>
</svg>
