<svg width="32" height="32" viewBox="0 0 32 32" fill="none" xmlns="http://www.w3.org/2000/svg">
<path fill-rule="evenodd" clip-rule="evenodd" d="M27.667 9.33301C27.667 9.88529 27.2193 10.333 26.667 10.333L5.33366 10.333C4.78138 10.333 4.33366 9.88529 4.33366 9.33301C4.33366 8.78072 4.78138 8.33301 5.33366 8.33301L26.667 8.33301C27.2193 8.33301 27.667 8.78072 27.667 9.33301Z" fill="#5E5E5E"/>
<path fill-rule="evenodd" clip-rule="evenodd" d="M27.667 16C27.667 16.5523 27.2193 17 26.667 17L5.33366 17C4.78138 17 4.33366 16.5523 4.33366 16C4.33366 15.4477 4.78138 15 5.33366 15L26.667 15C27.2193 15 27.667 15.4477 27.667 16Z" fill="#5E5E5E"/>
<path fill-rule="evenodd" clip-rule="evenodd" d="M27.667 22.667C27.667 23.2193 27.2193 23.667 26.667 23.667L5.33366 23.667C4.78138 23.667 4.33366 23.2193 4.33366 22.667C4.33366 22.1147 4.78138 21.667 5.33366 21.667L26.667 21.667C27.2193 21.667 27.667 22.1147 27.667 22.667Z" fill="#5E5E5E"/>
</svg>
