<svg width="26" height="27" viewBox="0 0 26 27" fill="none" xmlns="http://www.w3.org/2000/svg">
<path fill-rule="evenodd" clip-rule="evenodd" d="M20.4813 4.74616C19.3829 3.6244 17.8164 3.21062 16.2829 3.64697C15.8513 3.76977 15.4019 3.51945 15.2791 3.08785C15.1563 2.65625 15.4066 2.20681 15.8382 2.08401C17.9379 1.48656 20.1224 2.05696 21.6424 3.60927C21.9563 3.92989 21.9509 4.44431 21.6303 4.75826C21.3097 5.0722 20.7952 5.06679 20.4813 4.74616ZM12.1227 4.08148C11.8908 3.68382 11.215 3.44265 10.5285 3.83498C9.84455 4.22588 9.72425 4.91492 9.95211 5.30567L12.6882 9.99771C12.9143 10.3853 12.7833 10.8828 12.3957 11.1089C12.008 11.3349 11.5105 11.2039 11.2845 10.8163L8.54835 6.12426C8.54821 6.12402 8.54849 6.12449 8.54835 6.12426L7.63631 4.56024C7.40442 4.16258 6.72862 3.92141 6.04214 4.31374C5.35817 4.70464 5.23788 5.39368 5.46574 5.78442L9.56993 12.8225C9.79597 13.2101 9.66498 13.7076 9.27734 13.9337C8.88971 14.1597 8.39222 14.0287 8.16617 13.6411L6.34208 10.5131C6.11019 10.1154 5.43439 9.87422 4.74791 10.2666C4.06395 10.6574 3.94365 11.3465 4.17151 11.7372L8.2757 18.7753C10.0187 21.7643 14.3199 22.7343 17.9675 20.6497C21.6125 18.5665 22.9083 14.4049 21.1693 11.4228L18.4331 6.73076C18.2012 6.33309 17.5255 6.09192 16.839 6.48426C16.155 6.87515 16.0347 7.56419 16.2626 7.95494L18.0867 11.083C18.1958 11.2702 18.2257 11.4932 18.1696 11.7026C18.1135 11.9119 17.9761 12.0902 17.7879 12.1977C16.1169 13.1527 15.6048 14.9992 16.3364 16.2538C16.5625 16.6414 16.4315 17.1389 16.0438 17.3649C15.6562 17.591 15.1587 17.46 14.9326 17.0724C13.7851 15.1046 14.5074 12.6706 16.3013 11.2472L12.1227 4.08148ZM15.0782 5.92399L13.5264 3.26289C12.7509 1.933 11.0098 1.68828 9.7222 2.42414C9.32538 2.65092 8.98786 2.96179 8.7334 3.32246C7.86668 2.36817 6.37402 2.2524 5.23582 2.9029C3.94574 3.64019 3.28242 5.2662 4.06198 6.60301L5.14766 8.4648C4.73054 8.5101 4.31681 8.64127 3.9416 8.85571C2.65152 9.593 1.9882 11.219 2.76775 12.5558L6.87194 19.5939C9.15858 23.5151 14.5252 24.4887 18.7738 22.0605C23.025 19.6309 24.8637 14.5324 22.573 10.6042L19.8369 5.91217C19.0614 4.58227 17.3202 4.33755 16.0327 5.07341C15.6535 5.29013 15.3284 5.58362 15.0782 5.92399ZM4.78164 19.8447C5.16928 19.6186 5.66677 19.7496 5.89281 20.1373C6.78858 21.6734 8.15802 22.835 9.8468 23.5887C10.2566 23.7716 10.4405 24.2521 10.2576 24.6619C10.0747 25.0716 9.59428 25.2555 9.18451 25.0727C7.22204 24.1968 5.57558 22.8191 4.48906 20.9559C4.26301 20.5682 4.394 20.0707 4.78164 19.8447Z" fill="white"/>
</svg>
