<svg width="29" height="28" viewBox="0 0 29 28" fill="none" xmlns="http://www.w3.org/2000/svg">
<path fill-rule="evenodd" clip-rule="evenodd" d="M14.5 0C6.49187 0 0 6.26801 0 14C0 21.732 6.49187 28 14.5 28C22.5081 28 29 21.732 29 14C29 6.26801 22.5081 0 14.5 0ZM11.312 6.57844C12.1369 6.5422 12.4005 6.53333 14.5007 6.53333H14.4983C16.5992 6.53333 16.8618 6.5422 17.6867 6.57844C18.51 6.61485 19.0723 6.74069 19.5653 6.92534C20.0744 7.11589 20.5046 7.37101 20.9348 7.78635C21.3649 8.20137 21.6292 8.61796 21.8273 9.10905C22.0174 9.58381 22.1479 10.1264 22.1866 10.9213C22.2237 11.7177 22.2333 11.9722 22.2333 14.0001C22.2333 16.0279 22.2237 16.2818 22.1866 17.0782C22.1479 17.8728 22.0174 18.4156 21.8273 18.8905C21.6292 19.3814 21.3649 19.798 20.9348 20.213C20.5051 20.6284 20.0743 20.8841 19.5658 21.0748C19.0737 21.2595 18.5111 21.3853 17.6879 21.4217C16.863 21.458 16.6002 21.4668 14.4998 21.4668C12.3997 21.4668 12.1362 21.458 11.3113 21.4217C10.4882 21.3853 9.92609 21.2595 9.43405 21.0748C8.92574 20.8841 8.49428 20.6284 8.06459 20.213C7.63458 19.798 7.37036 19.3814 7.17267 18.8903C6.98159 18.4156 6.85125 17.873 6.81339 17.0781C6.77601 16.2816 6.76667 16.0279 6.76667 14.0001C6.76667 11.9722 6.77633 11.7176 6.81323 10.9211C6.85028 10.1265 6.98079 9.58381 7.17251 9.10889C7.37068 8.61796 7.6349 8.20137 8.06507 7.78635C8.49492 7.37116 8.92638 7.11605 9.43502 6.92534C9.92673 6.74069 10.4887 6.61485 11.312 6.57844Z" />
<path fill-rule="evenodd" clip-rule="evenodd" d="M13.807 7.87882C13.9417 7.87862 14.0866 7.87868 14.243 7.87875L14.5007 7.87882C16.5656 7.87882 16.8103 7.88598 17.6257 7.92175C18.3797 7.95504 18.7889 8.07669 19.0615 8.17889C19.4224 8.31422 19.6797 8.476 19.9502 8.73734C20.2209 8.99868 20.3884 9.24757 20.5289 9.59602C20.6348 9.85891 20.7609 10.254 20.7953 10.982C20.8323 11.7691 20.8404 12.0056 20.8404 13.9983C20.8404 15.991 20.8323 16.2274 20.7953 17.0145C20.7608 17.7425 20.6348 18.1377 20.5289 18.4006C20.3888 18.749 20.2209 18.9971 19.9502 19.2583C19.6795 19.5196 19.4226 19.6814 19.0615 19.8167C18.7892 19.9194 18.3797 20.0407 17.6257 20.074C16.8105 20.1098 16.5656 20.1176 14.5007 20.1176C12.4358 20.1176 12.191 20.1098 11.3758 20.074C10.6218 20.0404 10.2126 19.9188 9.9398 19.8166C9.5789 19.6813 9.32112 19.5195 9.05045 19.2581C8.77978 18.9968 8.61223 18.7485 8.47174 18.3999C8.36589 18.137 8.23973 17.7419 8.20542 17.0139C8.16836 16.2268 8.16095 15.9903 8.16095 13.9964C8.16095 12.0025 8.16836 11.7673 8.20542 10.9802C8.2399 10.2522 8.36589 9.85704 8.47174 9.59384C8.6119 9.24539 8.77978 8.9965 9.05045 8.73516C9.32112 8.47383 9.5789 8.31205 9.9398 8.1764C10.2124 8.07373 10.6218 7.9524 11.3758 7.91895C12.0892 7.88784 12.3657 7.87851 13.807 7.87695V7.87882ZM18.628 9.11945C18.1157 9.11945 17.7 9.52032 17.7 10.0151C17.7 10.5098 18.1157 10.9112 18.628 10.9112C19.1404 10.9112 19.556 10.5098 19.556 10.0151C19.556 9.52048 19.1404 9.11914 18.628 9.11914V9.11945ZM10.5301 14.0005C10.5301 11.883 12.3082 10.1661 14.5014 10.166C16.6946 10.166 18.4723 11.8829 18.4723 14.0005C18.4723 16.1181 16.6947 17.8342 14.5015 17.8342C12.3083 17.8342 10.5301 16.1181 10.5301 14.0005Z" />
<path d="M14.5007 11.5107C15.9243 11.5107 17.0785 12.625 17.0785 13.9997C17.0785 15.3742 15.9243 16.4886 14.5007 16.4886C13.077 16.4886 11.9229 15.3742 11.9229 13.9997C11.9229 12.625 13.077 11.5107 14.5007 11.5107Z" />
</svg>
