<svg width="32" height="32" viewBox="0 0 32 32" fill="none" xmlns="http://www.w3.org/2000/svg">
	<path d="M16 10C14.8133 10 13.6533 10.3519 12.6666 11.0112C11.6799 11.6705 10.9108 12.6075 10.4567 13.7039C10.0026 14.8003 9.88378 16.0067 10.1153 17.1705C10.3468 18.3344 10.9182 19.4035 11.7574 20.2426C12.5965 21.0818 13.6656 21.6532 14.8295 21.8847C15.9933 22.1162 17.1997 21.9974 18.2961 21.5433C19.3925 21.0892 20.3295 20.3201 20.9888 19.3334C21.6481 18.3467 22 17.1867 22 16C21.9983 14.4092 21.3657 12.884 20.2408 11.7592C19.116 10.6343 17.5908 10.0017 16 10ZM16 20C15.2089 20 14.4355 19.7654 13.7777 19.3259C13.1199 18.8864 12.6072 18.2616 12.3045 17.5307C12.0017 16.7998 11.9225 15.9956 12.0769 15.2196C12.2312 14.4437 12.6122 13.731 13.1716 13.1716C13.731 12.6122 14.4437 12.2312 15.2196 12.0769C15.9956 11.9225 16.7998 12.0017 17.5307 12.3045C18.2616 12.6072 18.8864 13.1199 19.3259 13.7777C19.7654 14.4355 20 15.2089 20 16C20 17.0609 19.5786 18.0783 18.8284 18.8284C18.0783 19.5786 17.0609 20 16 20ZM22 3H10C8.14409 3.00199 6.36477 3.74012 5.05245 5.05245C3.74012 6.36477 3.00199 8.14409 3 10V22C3.00199 23.8559 3.74012 25.6352 5.05245 26.9476C6.36477 28.2599 8.14409 28.998 10 29H22C23.8559 28.998 25.6352 28.2599 26.9476 26.9476C28.2599 25.6352 28.998 23.8559 29 22V10C28.998 8.14409 28.2599 6.36477 26.9476 5.05245C25.6352 3.74012 23.8559 3.00199 22 3ZM27 22C27 23.3261 26.4732 24.5979 25.5355 25.5355C24.5979 26.4732 23.3261 27 22 27H10C8.67392 27 7.40215 26.4732 6.46447 25.5355C5.52678 24.5979 5 23.3261 5 22V10C5 8.67392 5.52678 7.40215 6.46447 6.46447C7.40215 5.52678 8.67392 5 10 5H22C23.3261 5 24.5979 5.52678 25.5355 6.46447C26.4732 7.40215 27 8.67392 27 10V22ZM24 9.5C24 9.79667 23.912 10.0867 23.7472 10.3334C23.5824 10.58 23.3481 10.7723 23.074 10.8858C22.7999 10.9994 22.4983 11.0291 22.2074 10.9712C21.9164 10.9133 21.6491 10.7704 21.4393 10.5607C21.2296 10.3509 21.0867 10.0836 21.0288 9.79264C20.9709 9.50166 21.0007 9.20006 21.1142 8.92597C21.2277 8.65189 21.42 8.41762 21.6666 8.2528C21.9133 8.08797 22.2033 8 22.5 8C22.8978 8 23.2794 8.15804 23.5607 8.43934C23.842 8.72064 24 9.10218 24 9.5Z" fill="#343330"/>
</svg>
