<svg width="26" height="27" viewBox="0 0 26 27" fill="none" xmlns="http://www.w3.org/2000/svg">
<path fill-rule="evenodd" clip-rule="evenodd" d="M12.9352 1.85156H13.0596C15.5603 1.85155 17.5201 1.85154 19.0492 2.05712C20.6143 2.26755 21.8494 2.70667 22.8187 3.67604C23.7881 4.64542 24.2272 5.88045 24.4377 7.44558C24.6433 8.97469 24.6432 10.9345 24.6432 13.4352V13.5595C24.6432 16.0603 24.6433 18.0201 24.4377 19.5492C24.2272 21.1143 23.7881 22.3494 22.8187 23.3187C21.8494 24.2881 20.6143 24.7272 19.0492 24.9377C17.5201 25.1433 15.5603 25.1432 13.0595 25.1432H12.9352C10.4345 25.1432 8.47469 25.1433 6.94558 24.9377C5.38045 24.7272 4.14542 24.2881 3.17604 23.3187C2.20667 22.3494 1.76755 21.1143 1.55712 19.5492C1.35154 18.0201 1.35155 16.0603 1.35156 13.5596V13.4352C1.35155 10.9345 1.35154 8.97469 1.55712 7.44558C1.76755 5.88045 2.20667 4.64542 3.17604 3.67604C4.14542 2.70667 5.38045 2.26755 6.94558 2.05712C8.47469 1.85154 10.4345 1.85155 12.9352 1.85156ZM7.1621 3.66763C5.77717 3.85383 4.94222 4.20796 4.32509 4.82509C3.70796 5.44222 3.35383 6.27717 3.16763 7.6621C2.97829 9.07041 2.97656 10.921 2.97656 13.4974C2.97656 16.0738 2.97829 17.9244 3.16763 19.3327C3.35383 20.7176 3.70796 21.5526 4.32509 22.1697C4.94222 22.7868 5.77717 23.141 7.1621 23.3272C8.57041 23.5165 10.421 23.5182 12.9974 23.5182C15.5738 23.5182 17.4244 23.5165 18.8327 23.3272C20.2176 23.141 21.0526 22.7868 21.6697 22.1697C22.2868 21.5526 22.641 20.7176 22.8272 19.3327C23.0165 17.9244 23.0182 16.0738 23.0182 13.4974C23.0182 10.921 23.0165 9.07041 22.8272 7.6621C22.641 6.27717 22.2868 5.44222 21.6697 4.82509C21.0526 4.20796 20.2176 3.85383 18.8327 3.66763C17.4244 3.47829 15.5738 3.47656 12.9974 3.47656C10.421 3.47656 8.57041 3.47829 7.1621 3.66763ZM10.4076 7.88386C12.6729 5.61857 16.3456 5.61857 18.6109 7.88386C20.8762 10.1492 20.8762 13.8219 18.6109 16.0872C17.1065 17.5917 14.9816 18.0959 13.0632 17.6039L10.4083 20.2588C10.0041 20.663 9.4382 20.8615 8.87016 20.7984L7.36173 20.6308C7.01756 20.5925 6.69663 20.4383 6.45175 20.1934L6.30137 20.043C6.0565 19.7982 5.90226 19.4772 5.86401 19.1331L5.69641 17.6246C5.63329 17.0566 5.83182 16.4907 6.23595 16.0865L8.89093 13.4315C8.39886 11.5132 8.90314 9.38831 10.4076 7.88386ZM17.4619 9.03291C15.8312 7.40222 13.1873 7.40222 11.5566 9.03291C10.4746 10.115 10.1095 11.6435 10.4653 13.0289C10.5947 13.533 10.4916 14.129 10.066 14.5546L7.385 17.2356C7.32992 17.2907 7.30287 17.3678 7.31147 17.4452L7.4752 18.9188L7.57602 19.0196L9.04961 19.1833C9.12702 19.1919 9.20414 19.1649 9.25922 19.1098L9.57737 18.7916L8.89503 18.1168C8.57599 17.8012 8.57316 17.2868 8.88871 16.9677C9.20426 16.6487 9.7187 16.6459 10.0377 16.9614L10.7264 17.6426L11.9404 16.4286C12.3662 16.0028 12.9622 15.9002 13.4659 16.0295C14.8512 16.3853 16.3798 16.0202 17.4619 14.9382C19.0926 13.3075 19.0926 10.6636 17.4619 9.03291ZM12.8459 10.4571C13.7273 9.57566 15.1563 9.57566 16.0377 10.4571C16.9191 11.3384 16.9191 12.7675 16.0377 13.6489C15.1563 14.5302 13.7273 14.5302 12.8459 13.6489C11.9645 12.7675 11.9645 11.3384 12.8459 10.4571ZM14.8887 11.6061C14.6419 11.3593 14.2418 11.3593 13.995 11.6061C13.7482 11.8529 13.7482 12.253 13.995 12.4998C14.2418 12.7466 14.6419 12.7466 14.8887 12.4998C15.1355 12.253 15.1355 11.8529 14.8887 11.6061Z" fill="white"/>
</svg>
