<svg width="17" height="21" viewBox="0 0 17 21" fill="none" xmlns="http://www.w3.org/2000/svg">
<path d="M12 19.502C12.1988 19.502 12.3896 19.5812 12.5303 19.7217C12.6708 19.8622 12.7499 20.0532 12.75 20.252C12.75 20.4509 12.6709 20.6425 12.5303 20.7832C12.3897 20.9236 12.1988 21.002 12 21.002H4.5C4.30123 21.0019 4.11033 20.9237 3.96973 20.7832C3.82907 20.6425 3.75 20.4509 3.75 20.252C3.75012 20.0532 3.82918 19.8622 3.96973 19.7217C4.11033 19.5812 4.30121 19.502 4.5 19.502H12ZM8.05176 0.00195312C9.15161 -0.0244982 10.2457 0.169622 11.2695 0.572266C12.2935 0.974982 13.2264 1.57892 14.0137 2.34766C14.8009 3.11639 15.4265 4.03473 15.8535 5.04883C16.2804 6.06278 16.5003 7.1518 16.5 8.25195C16.5032 9.50207 16.2212 10.737 15.6748 11.8613C15.1282 12.9858 14.3318 13.9713 13.3467 14.7412C13.1625 14.8824 13.0125 15.0637 12.9092 15.2715C12.806 15.4791 12.7515 15.7076 12.75 15.9395V16.502C12.75 16.8998 12.5919 17.2822 12.3105 17.5635C12.0293 17.8446 11.6477 18.002 11.25 18.002H5.25C4.85232 18.0019 4.47071 17.8446 4.18945 17.5635C3.90815 17.2822 3.75 16.8998 3.75 16.502V15.9395C3.74978 15.7103 3.69689 15.4839 3.5957 15.2783C3.49446 15.0727 3.34752 14.8929 3.16602 14.7529C2.18336 13.9876 1.38735 13.0089 0.838867 11.8906C0.290387 10.7724 0.00362142 9.54337 0 8.29785C-0.0241136 3.82994 3.58754 0.108824 8.05176 0.00195312ZM8.08691 1.50195C4.4307 1.58824 1.48031 4.63284 1.5 8.28906C1.50344 9.30768 1.7386 10.3122 2.1875 11.2266C2.63643 12.141 3.28793 12.9417 4.0918 13.5674C4.45296 13.8482 4.74552 14.208 4.94629 14.6191C5.14701 15.0302 5.25059 15.482 5.25 15.9395V16.502H11.25V15.9395C11.2511 15.4806 11.357 15.0279 11.5596 14.6162C11.7621 14.2045 12.0561 13.8444 12.4189 13.5635C13.2252 12.9334 13.8769 12.1273 14.3242 11.207C14.7715 10.2866 15.0028 9.27532 15 8.25195C15.0002 7.35179 14.82 6.46049 14.4707 5.63086C14.1213 4.80125 13.6099 4.04978 12.9658 3.4209C12.3218 2.79204 11.5584 2.29821 10.7207 1.96875C9.88283 1.63929 8.98697 1.4802 8.08691 1.50195ZM9.125 3.0127C10.2113 3.20697 11.2118 3.72956 11.9922 4.50977C12.7726 5.29001 13.2958 6.29068 13.4902 7.37695C13.5236 7.57292 13.4772 7.77432 13.3623 7.93652C13.2474 8.09864 13.0728 8.20868 12.877 8.24219C12.8351 8.2488 12.7924 8.2517 12.75 8.25195C12.5729 8.25199 12.401 8.18946 12.2656 8.0752C12.1305 7.96094 12.0404 7.80243 12.0107 7.62793C11.7473 6.0717 10.4284 4.75375 8.875 4.49219C8.77801 4.47578 8.68492 4.43992 8.60156 4.3877C8.51826 4.33543 8.44569 4.26763 8.38867 4.1875C8.33156 4.10723 8.2906 4.01593 8.26855 3.91992C8.24661 3.8241 8.24442 3.72487 8.26074 3.62793C8.27709 3.53093 8.31208 3.43788 8.36426 3.35449C8.41654 3.27104 8.4852 3.1987 8.56543 3.1416C8.64562 3.08454 8.73611 3.04354 8.83203 3.02148C8.92804 2.99944 9.02786 2.99632 9.125 3.0127Z" fill="#6A0BFF"/>
<path d="M12 19.502C12.1988 19.502 12.3896 19.5812 12.5303 19.7217C12.6708 19.8622 12.7499 20.0532 12.75 20.252C12.75 20.4509 12.6709 20.6425 12.5303 20.7832C12.3897 20.9236 12.1988 21.002 12 21.002H4.5C4.30123 21.0019 4.11033 20.9237 3.96973 20.7832C3.82907 20.6425 3.75 20.4509 3.75 20.252C3.75012 20.0532 3.82918 19.8622 3.96973 19.7217C4.11033 19.5812 4.30121 19.502 4.5 19.502H12ZM8.05176 0.00195312C9.15161 -0.0244982 10.2457 0.169622 11.2695 0.572266C12.2935 0.974982 13.2264 1.57892 14.0137 2.34766C14.8009 3.11639 15.4265 4.03473 15.8535 5.04883C16.2804 6.06278 16.5003 7.1518 16.5 8.25195C16.5032 9.50207 16.2212 10.737 15.6748 11.8613C15.1282 12.9858 14.3318 13.9713 13.3467 14.7412C13.1625 14.8824 13.0125 15.0637 12.9092 15.2715C12.806 15.4791 12.7515 15.7076 12.75 15.9395V16.502C12.75 16.8998 12.5919 17.2822 12.3105 17.5635C12.0293 17.8446 11.6477 18.002 11.25 18.002H5.25C4.85232 18.0019 4.47071 17.8446 4.18945 17.5635C3.90815 17.2822 3.75 16.8998 3.75 16.502V15.9395C3.74978 15.7103 3.69689 15.4839 3.5957 15.2783C3.49446 15.0727 3.34752 14.8929 3.16602 14.7529C2.18336 13.9876 1.38735 13.0089 0.838867 11.8906C0.290387 10.7724 0.00362142 9.54337 0 8.29785C-0.0241136 3.82994 3.58754 0.108824 8.05176 0.00195312ZM8.08691 1.50195C4.4307 1.58824 1.48031 4.63284 1.5 8.28906C1.50344 9.30768 1.7386 10.3122 2.1875 11.2266C2.63643 12.141 3.28793 12.9417 4.0918 13.5674C4.45296 13.8482 4.74552 14.208 4.94629 14.6191C5.14701 15.0302 5.25059 15.482 5.25 15.9395V16.502H11.25V15.9395C11.2511 15.4806 11.357 15.0279 11.5596 14.6162C11.7621 14.2045 12.0561 13.8444 12.4189 13.5635C13.2252 12.9334 13.8769 12.1273 14.3242 11.207C14.7715 10.2866 15.0028 9.27532 15 8.25195C15.0002 7.35179 14.82 6.46049 14.4707 5.63086C14.1213 4.80125 13.6099 4.04978 12.9658 3.4209C12.3218 2.79204 11.5584 2.29821 10.7207 1.96875C9.88283 1.63929 8.98697 1.4802 8.08691 1.50195ZM9.125 3.0127C10.2113 3.20697 11.2118 3.72956 11.9922 4.50977C12.7726 5.29001 13.2958 6.29068 13.4902 7.37695C13.5236 7.57292 13.4772 7.77432 13.3623 7.93652C13.2474 8.09864 13.0728 8.20868 12.877 8.24219C12.8351 8.2488 12.7924 8.2517 12.75 8.25195C12.5729 8.25199 12.401 8.18946 12.2656 8.0752C12.1305 7.96094 12.0404 7.80243 12.0107 7.62793C11.7473 6.0717 10.4284 4.75375 8.875 4.49219C8.77801 4.47578 8.68492 4.43992 8.60156 4.3877C8.51826 4.33543 8.44569 4.26763 8.38867 4.1875C8.33156 4.10723 8.2906 4.01593 8.26855 3.91992C8.24661 3.8241 8.24442 3.72487 8.26074 3.62793C8.27709 3.53093 8.31208 3.43788 8.36426 3.35449C8.41654 3.27104 8.4852 3.1987 8.56543 3.1416C8.64562 3.08454 8.73611 3.04354 8.83203 3.02148C8.92804 2.99944 9.02786 2.99632 9.125 3.0127Z" stroke="#6A0BFF"/>
</svg>
