<svg width="42" height="40" viewBox="0 0 42 40" fill="none" xmlns="http://www.w3.org/2000/svg">
	<rect width="42.0012" height="39.4328" rx="8.32719" fill="#6A0BFF" />
	<path d="M21.8747 9.5C21.8747 9.01675 21.4829 8.625 20.9997 8.625C20.5164 8.625 20.1247 9.01675 20.1247 9.5V11.8333C20.1247 12.3166 20.5164 12.7083 20.9997 12.7083C21.4829 12.7083 21.8747 12.3166 21.8747 11.8333V9.5Z" fill="#E1CEFF" />
	<path d="M17.5022 11.5427C17.9855 11.5413 18.3761 11.1484 18.3747 10.6652C18.3733 10.1819 17.9804 9.79134 17.4971 9.79276C15.6922 9.79804 14.2299 9.82766 13.056 10.0268C11.8567 10.2303 10.8722 10.6237 10.0811 11.4148C9.20804 12.2879 8.82057 13.395 8.63667 14.7628C8.45798 16.0919 8.45799 17.7901 8.45801 19.9342V20.0658C8.45799 22.2099 8.45798 23.9081 8.63667 25.2372C8.82057 26.605 9.20804 27.7121 10.0811 28.5852C10.9542 29.4583 12.0613 29.8458 13.4291 30.0297C14.7582 30.2084 16.4564 30.2084 18.6004 30.2083H23.3989C25.5429 30.2084 27.2411 30.2084 28.5702 30.0297C29.938 29.8458 31.0451 29.4583 31.9182 28.5852C32.7913 27.7121 33.1788 26.605 33.3627 25.2372C33.5414 23.9081 33.5414 22.2099 33.5413 20.0659V19.9342C33.5414 17.7902 33.5414 16.0919 33.3627 14.7628C33.1788 13.395 32.7913 12.2879 31.9182 11.4148C31.1271 10.6237 30.1427 10.2303 28.9434 10.0268C27.7695 9.82766 26.3072 9.79804 24.5022 9.79276C24.019 9.79134 23.6261 10.1819 23.6247 10.6652C23.6233 11.1484 24.0139 11.5413 24.4971 11.5427C26.3255 11.5481 27.643 11.5812 28.6506 11.7522C29.6328 11.9188 30.2316 12.203 30.6808 12.6522C31.1745 13.146 31.4705 13.8222 31.6283 14.996C31.7895 16.1949 31.7913 17.7754 31.7913 20C31.7913 22.2246 31.7895 23.8051 31.6283 25.004C31.4705 26.1778 31.1745 26.854 30.6808 27.3478C30.187 27.8415 29.5108 28.1375 28.337 28.2953C27.1381 28.4565 25.5576 28.4583 23.333 28.4583H18.6663C16.4417 28.4583 14.8613 28.4565 13.6623 28.2953C12.4886 28.1375 11.8123 27.8415 11.3186 27.3478C10.8248 26.854 10.5289 26.1778 10.3711 25.004C10.2099 23.8051 10.208 22.2246 10.208 20C10.208 17.7754 10.2099 16.1949 10.3711 14.996C10.5289 13.8222 10.8248 13.146 11.3186 12.6522C11.7677 12.203 12.3665 11.9188 13.3487 11.7522C14.3564 11.5812 15.6738 11.5481 17.5022 11.5427Z" fill="#E1CEFF" />
	<path d="M15.458 18.25C15.458 17.7668 15.8498 17.375 16.333 17.375H25.6663C26.1496 17.375 26.5413 17.7668 26.5413 18.25C26.5413 18.7332 26.1496 19.125 25.6663 19.125H16.333C15.8498 19.125 15.458 18.7332 15.458 18.25Z" fill="#E1CEFF" />
	<path d="M16.333 21.4583C15.8498 21.4583 15.458 21.8501 15.458 22.3333C15.458 22.8166 15.8498 23.2083 16.333 23.2083H22.7497C23.2329 23.2083 23.6247 22.8166 23.6247 22.3333C23.6247 21.8501 23.2329 21.4583 22.7497 21.4583H16.333Z" fill="#E1CEFF" />
</svg>
