<svg width="76" height="76" viewBox="0 0 76 76" fill="none" xmlns="http://www.w3.org/2000/svg">
<path d="M37.9987 41.957C39.3104 41.957 40.3737 43.0204 40.3737 44.332V56.9987C40.3737 58.3104 39.3104 59.3737 37.9987 59.3737C36.687 59.3737 35.6237 58.3104 35.6237 56.9987V44.332C35.6237 43.0204 36.687 41.957 37.9987 41.957Z" fill="#6A0BFF"/>
<path fill-rule="evenodd" clip-rule="evenodd" d="M16.6237 29.4575V25.332C16.6237 13.5269 26.1936 3.95703 37.9987 3.95703C49.8038 3.95703 59.3737 13.5269 59.3737 25.332V29.4575C60.092 29.508 60.769 29.5737 61.4059 29.6594C64.2563 30.0426 66.6562 30.8624 68.5623 32.7685C70.4683 34.6745 71.2882 37.0745 71.6714 39.9248C72.0405 42.6702 72.0404 46.1609 72.0404 50.4916V50.8391C72.0404 55.1698 72.0405 58.6605 71.6714 61.4059C71.2882 64.2562 70.4683 66.6562 68.5623 68.5622C66.6562 70.4683 64.2563 71.2882 61.4059 71.6714C58.6605 72.0405 55.1698 72.0404 50.8391 72.0404H25.1583C20.8276 72.0404 17.3369 72.0405 14.5915 71.6714C11.7411 71.2882 9.34121 70.4683 7.43514 68.5622C5.52907 66.6562 4.70924 64.2562 4.32603 61.4059C3.95692 58.6605 3.95697 55.1699 3.95703 50.8392V50.4916C3.95697 46.1609 3.95692 42.6702 4.32603 39.9248C4.70924 37.0745 5.52907 34.6745 7.43514 32.7685C9.34121 30.8624 11.7411 30.0426 14.5915 29.6594C15.2284 29.5737 15.9054 29.508 16.6237 29.4575ZM21.3737 25.332C21.3737 16.1503 28.817 8.70703 37.9987 8.70703C47.1804 8.70703 54.6237 16.1503 54.6237 25.332V29.3013C53.4409 29.2903 52.1803 29.2903 50.8391 29.2904H25.1583C23.8171 29.2903 22.5565 29.2903 21.3737 29.3013V25.332ZM15.2244 34.367C12.9008 34.6794 11.6703 35.2508 10.7939 36.1272C9.91748 37.0036 9.34607 38.2341 9.03367 40.5577C8.71208 42.9497 8.70704 46.1199 8.70704 50.6654C8.70704 55.2108 8.71208 58.381 9.03367 60.773C9.34607 63.0966 9.91748 64.3271 10.7939 65.2035C11.6703 66.0799 12.9008 66.6513 15.2244 66.9637C17.6164 67.2853 20.7866 67.2904 25.332 67.2904H50.6654C55.2109 67.2904 58.381 67.2853 60.773 66.9637C63.0966 66.6513 64.3271 66.0799 65.2035 65.2035C66.0799 64.3271 66.6513 63.0966 66.9637 60.773C67.2853 58.381 67.2904 55.2108 67.2904 50.6654C67.2904 46.1199 67.2853 42.9497 66.9637 40.5577C66.6513 38.2341 66.0799 37.0036 65.2035 36.1272C64.3271 35.2508 63.0966 34.6794 60.773 34.367C58.381 34.0454 55.2109 34.0404 50.6654 34.0404H25.332C20.7866 34.0404 17.6164 34.0454 15.2244 34.367Z" fill="#6A0BFF"/>
<path d="M37.9987 41.957C39.3104 41.957 40.3737 43.0204 40.3737 44.332V56.9987C40.3737 58.3104 39.3104 59.3737 37.9987 59.3737C36.687 59.3737 35.6237 58.3104 35.6237 56.9987V44.332C35.6237 43.0204 36.687 41.957 37.9987 41.957Z" stroke="#6A0BFF"/>
<path fill-rule="evenodd" clip-rule="evenodd" d="M16.6237 29.4575V25.332C16.6237 13.5269 26.1936 3.95703 37.9987 3.95703C49.8038 3.95703 59.3737 13.5269 59.3737 25.332V29.4575C60.092 29.508 60.769 29.5737 61.4059 29.6594C64.2563 30.0426 66.6562 30.8624 68.5623 32.7685C70.4683 34.6745 71.2882 37.0745 71.6714 39.9248C72.0405 42.6702 72.0404 46.1609 72.0404 50.4916V50.8391C72.0404 55.1698 72.0405 58.6605 71.6714 61.4059C71.2882 64.2562 70.4683 66.6562 68.5623 68.5622C66.6562 70.4683 64.2563 71.2882 61.4059 71.6714C58.6605 72.0405 55.1698 72.0404 50.8391 72.0404H25.1583C20.8276 72.0404 17.3369 72.0405 14.5915 71.6714C11.7411 71.2882 9.34121 70.4683 7.43514 68.5622C5.52907 66.6562 4.70924 64.2562 4.32603 61.4059C3.95692 58.6605 3.95697 55.1699 3.95703 50.8392V50.4916C3.95697 46.1609 3.95692 42.6702 4.32603 39.9248C4.70924 37.0745 5.52907 34.6745 7.43514 32.7685C9.34121 30.8624 11.7411 30.0426 14.5915 29.6594C15.2284 29.5737 15.9054 29.508 16.6237 29.4575ZM21.3737 25.332C21.3737 16.1503 28.817 8.70703 37.9987 8.70703C47.1804 8.70703 54.6237 16.1503 54.6237 25.332V29.3013C53.4409 29.2903 52.1803 29.2903 50.8391 29.2904H25.1583C23.8171 29.2903 22.5565 29.2903 21.3737 29.3013V25.332ZM15.2244 34.367C12.9008 34.6794 11.6703 35.2508 10.7939 36.1272C9.91748 37.0036 9.34607 38.2341 9.03367 40.5577C8.71208 42.9497 8.70704 46.1199 8.70704 50.6654C8.70704 55.2108 8.71208 58.381 9.03367 60.773C9.34607 63.0966 9.91748 64.3271 10.7939 65.2035C11.6703 66.0799 12.9008 66.6513 15.2244 66.9637C17.6164 67.2853 20.7866 67.2904 25.332 67.2904H50.6654C55.2109 67.2904 58.381 67.2853 60.773 66.9637C63.0966 66.6513 64.3271 66.0799 65.2035 65.2035C66.0799 64.3271 66.6513 63.0966 66.9637 60.773C67.2853 58.381 67.2904 55.2108 67.2904 50.6654C67.2904 46.1199 67.2853 42.9497 66.9637 40.5577C66.6513 38.2341 66.0799 37.0036 65.2035 36.1272C64.3271 35.2508 63.0966 34.6794 60.773 34.367C58.381 34.0454 55.2109 34.0404 50.6654 34.0404H25.332C20.7866 34.0404 17.6164 34.0454 15.2244 34.367Z" stroke="#6A0BFF"/>
</svg>
