<svg width="35" height="35" viewBox="0 0 35 35" fill="none" xmlns="http://www.w3.org/2000/svg">
	<circle cx="17.3533" cy="17.3533" r="17.3533" fill="#4600E9"/>
	<path fill-rule="evenodd" clip-rule="evenodd" d="M27.9046 12.0618C27.2151 12.5336 26.7779 13.0962 26.6005 13.7401C26.4971 14.1153 26.4614 14.481 26.5243 14.52C26.6211 14.5797 27.2744 14.2112 27.5822 13.9233C27.9157 13.6113 28.1766 13.1697 28.2942 12.718C28.3702 12.4262 28.3936 11.7979 28.3284 11.7979C28.3075 11.7979 28.1168 11.9167 27.9046 12.0618ZM26.8144 13.9008C26.778 13.8732 26.954 13.5373 27.0608 13.4306C27.2464 13.245 27.2381 13.2877 27.0257 13.6118C26.9175 13.7768 26.8225 13.9069 26.8144 13.9008Z" fill="white"/>
	<path d="M12.1182 16.8506C12.1085 16.8603 11.9169 16.8458 11.6924 16.8183L11.3006 16.7704C11.2901 16.7691 11.2804 16.7641 11.2733 16.7563L11.0524 16.5146C10.5719 15.9889 10.0486 15.821 8.88635 15.82C8.02933 15.8192 8.00175 15.83 8.14627 16.1107C8.50117 16.7999 9.30393 17.2386 10.2104 17.2386C10.4539 17.2386 10.769 17.2085 10.9107 17.1717C11.0594 17.1332 11.1992 17.1215 11.2414 17.144C11.2816 17.1655 11.6101 17.2328 11.9715 17.2936L12.6286 17.4042L12.1182 16.8506Z" fill="white"/>
	<path fill-rule="evenodd" clip-rule="evenodd" d="M11.5492 9.40966C11.5494 9.17491 11.5776 8.90306 11.6119 8.80546C11.6463 8.7079 11.6927 8.62804 11.7148 8.62804C11.7856 8.62804 11.9555 8.90476 12.0568 9.18494C12.1613 9.47382 12.2017 10.266 12.1259 10.5383L12.1076 10.6041C12.0987 10.636 12.059 10.6471 12.0348 10.6244L11.9702 10.5636C11.6817 10.2926 11.5489 9.78224 11.5492 9.40966ZM24.7594 11.8018C24.7774 11.6971 24.8564 11.603 25.0105 11.4071C25.1692 11.2052 25.3157 11.0502 25.3358 11.0627C25.3952 11.0994 25.66 11.8373 25.7609 12.2473C25.9155 12.8753 25.9687 13.428 25.9385 14.0924C25.8835 15.2993 25.4817 16.4118 24.647 17.6687C24.2294 18.2975 23.6555 18.9747 22.5075 20.1934C21.3225 21.4513 21.1823 21.6062 20.8039 22.0753C19.6735 23.4768 19.0959 24.8419 19.0947 26.115C19.0939 27.0114 19.3675 27.919 19.8814 28.7242C19.9689 28.8613 20.0405 28.9837 20.0405 28.9962C20.0405 29.0088 18.9335 29.019 17.5805 29.019C16.2275 29.019 15.1205 29.009 15.1205 28.9968C15.1205 28.9846 15.2778 28.6492 15.4701 28.2516C15.8313 27.5047 15.9774 27.1356 16.5334 25.5653C17.7361 22.1688 18.6692 20.7206 20.8057 18.9342C21.8111 18.0937 22.8478 17.2783 23.724 16.2983C23.8705 16.1344 24.0116 15.9654 24.1389 15.786C24.454 15.3419 24.7302 14.8019 24.8942 14.3053C25.0119 13.9491 25.0272 13.833 25.0284 13.2882C25.0292 12.9227 25.0063 12.6099 24.8772 12.268L24.8768 12.2668C24.7851 12.024 24.7412 11.9076 24.7594 11.8018Z" fill="white"/>
	<path d="M27.0419 8.26716C26.3137 8.56999 25.8317 9.08241 25.7114 9.6817C25.6415 10.0294 25.687 10.2839 25.819 10.2839C26.1269 10.2839 26.9027 9.69532 27.1684 9.26011C27.3081 9.03132 27.4677 8.5276 27.4677 8.31555C27.4677 8.1203 27.4106 8.11382 27.0419 8.26716Z" fill="white"/>
	<path d="M21.1539 5.70069C20.5607 6.40292 20.5643 7.83374 21.1611 8.53106L21.3175 8.71379C21.3252 8.72277 21.329 8.73445 21.328 8.74623L21.2968 9.11553C21.2564 9.5929 21.1282 10.199 20.9635 10.6919C20.6711 11.5665 19.9199 12.8725 19.1028 13.9268C18.6611 14.4969 17.6066 15.7799 17.3972 16.0067C17.379 16.0263 17.3464 16.06 17.3302 16.0813L16.8783 16.6744L16.5973 17.1102C16.4428 17.35 16.2867 17.6032 16.2506 17.6731L16.2159 17.7401C16.2013 17.7684 16.1625 17.7724 16.1424 17.7477L15.8774 17.4217C15.5389 17.0053 15.0746 16.5784 14.4559 16.1148L14.0647 15.8216C14.0561 15.8152 14.0502 15.8059 14.048 15.7954L13.8254 14.7392C13.4176 12.8035 13.3629 12.5811 13.236 12.3419C13.0709 12.0308 11.98 10.9414 11.3315 10.44L10.844 10.0632C10.8352 10.0564 10.8293 10.0464 10.8275 10.0354L10.7746 9.71515C10.7024 9.27776 10.5439 8.97223 10.2295 8.66395C9.98278 8.4221 9.22961 7.92746 9.18145 7.97563C9.16825 7.98883 9.13443 8.13033 9.10628 8.29015C8.96478 9.09349 9.43 9.96287 10.2102 10.3532C10.394 10.4452 10.5871 10.5205 10.6393 10.5205C10.6915 10.5205 10.8855 10.6423 11.0705 10.7913C11.589 11.2087 12.707 12.3208 12.809 12.5205C12.8592 12.6188 12.9517 12.9487 13.0146 13.2539C13.0776 13.559 13.204 14.1374 13.2956 14.5392C13.3872 14.9411 13.4534 15.2787 13.4428 15.2893C13.4081 15.324 12.3497 14.512 12.0017 14.1837C11.5391 13.7473 11.1516 13.1569 10.9857 12.6358C10.8582 12.2355 10.7108 12.1641 10.3964 11.8925C10.1856 11.7103 9.99276 11.5613 9.96788 11.5613C9.8946 11.5613 9.84554 11.971 9.84895 12.5548C9.85406 13.4305 10.0855 14.1134 10.71 15.0956C10.7705 15.1908 10.7408 15.1847 10.3645 15.0246C9.80481 14.7865 8.98943 14.1295 8.9433 13.8795C8.9048 13.671 8.73548 13.3737 8.56087 13.2081C8.38792 13.0439 7.96797 12.8525 7.64789 12.7918C7.26598 12.7193 6.41602 12.729 6.41602 12.8058C6.41602 12.9619 6.6842 13.3782 6.9336 13.6091C7.32583 13.9723 7.89573 14.2107 8.37164 14.2107C8.53405 14.2107 8.59579 14.2473 8.87097 14.5069C9.40592 15.0116 9.75746 15.252 10.3107 15.4917C11.25 15.8985 11.4406 16.0203 11.8055 16.4468C11.9872 16.6591 12.1279 16.8408 12.1182 16.8506L12.6286 17.4042L12.9406 17.759C14.5744 19.6172 15.616 21.2181 16.0453 22.5306C16.089 22.6645 16.1399 22.774 16.1582 22.774C16.1765 22.774 16.2639 22.609 16.3525 22.4073C16.7082 21.5967 17.3635 20.5181 17.7848 20.0495C17.9654 19.8485 18.0129 19.7498 18.1172 19.358C18.4218 18.2136 18.8956 17.1871 19.7662 15.786C20.0896 15.2654 20.1215 15.232 21.5453 13.9172C23.4591 12.15 23.6356 11.9804 23.8019 11.7489C23.8797 11.6406 24.0572 11.4318 24.1964 11.2847C24.8046 10.6422 25.1023 9.91622 25.1023 9.07612C25.1023 8.61735 25.0166 8.23475 24.8743 8.05904L24.8219 7.99434C24.8047 7.9731 24.7725 7.97242 24.7544 7.99292L24.5647 8.20806C23.8136 9.05985 23.5023 9.94437 23.6316 10.8586L23.6894 11.2663C23.6913 11.2798 23.6869 11.2933 23.6775 11.3031L23.5104 11.4771C23.4102 11.5814 22.9238 12.0344 22.4295 12.4838C21.9351 12.9331 21.3771 13.4502 21.1895 13.6328L21.0362 13.782C21.0005 13.8167 20.9436 13.775 20.9659 13.7305L21.03 13.6028C21.8338 12.0013 22.1257 10.5217 21.9108 9.13692C21.8282 8.60448 21.8283 8.60434 21.9325 8.34418C22.0884 7.9549 22.1088 7.45885 21.9883 6.98267C21.8872 6.58284 21.5805 5.90673 21.394 5.67287L21.3224 5.58309C21.305 5.56131 21.2721 5.56084 21.2541 5.58211L21.1539 5.70069Z" fill="white"/>
	<path d="M16.4871 27.6455H18.6914L18.9363 28.3963H16.2422L16.4871 27.6455Z" fill="#4600E9"/>
	<path d="M16.8659 26.5859H18.4883L18.6505 27.0718H16.6631L16.8659 26.5859Z" fill="#4600E9"/>
	<path d="M17.2462 25.6143H18.4408L18.6275 26.0118H17.0596L17.2462 25.6143Z" fill="#4600E9"/>
	<path d="M17.5907 24.709H18.5833L18.7384 25.0402H17.4355L17.5907 24.709Z" fill="#4600E9"/>
	<path d="M17.9367 23.8916H18.7443L18.8705 24.1345H17.8105L17.9367 23.8916Z" fill="#4600E9"/>
	<circle cx="21.1231" cy="28.5294" r="0.507907" fill="white"/>
</svg>
