<svg width="99" height="32" viewBox="0 0 99 32" fill="none" xmlns="http://www.w3.org/2000/svg">
	<path d="M16.4357 5.95898H21.1688L13.9604 18.6028V24.9112H9.49938V18.6028L2.29102 5.95898H7.02406L11.7299 14.5687L16.4357 5.95898Z" fill="#303030"/>
	<path d="M26.914 25.209C24.8467 25.209 23.133 24.5682 21.7729 23.2867C20.4129 21.9871 19.7328 20.2995 19.7328 18.2238C19.7328 16.1661 20.4038 14.4875 21.7457 13.1879C23.1058 11.8883 24.7832 11.2385 26.778 11.2385C28.7365 11.2385 30.3595 11.8522 31.6471 13.0796C32.9346 14.2889 33.5784 15.8863 33.5784 17.8718C33.5784 18.2328 33.5511 18.684 33.4967 19.2255H24.1123C24.2573 20.0738 24.5747 20.7146 25.0643 21.1478C25.5721 21.581 26.1796 21.7976 26.8868 21.7976C27.4852 21.7976 28.0021 21.6532 28.4373 21.3644C28.8725 21.0576 29.1445 20.6514 29.2533 20.146L33.0343 21.1478C32.6716 22.4835 31.9281 23.4943 30.8038 24.1802C29.6976 24.866 28.401 25.209 26.914 25.209ZM24.2483 16.5181H29.4165C29.3077 16.0307 29.0176 15.6065 28.5461 15.2456C28.0927 14.8665 27.5124 14.677 26.8052 14.677C25.5358 14.677 24.6835 15.2907 24.2483 16.5181Z" fill="#303030"/>
	<path d="M48.041 21.4456C48.1861 21.4456 48.3946 21.4005 48.6666 21.3103V24.9653C48.2858 25.1097 47.7508 25.1819 47.0617 25.1819C45.3209 25.1819 44.1421 24.6946 43.5256 23.7199C42.5826 24.6946 41.2316 25.1819 39.4725 25.1819C38.0943 25.1819 36.97 24.8209 36.0996 24.0989C35.2473 23.3769 34.8211 22.3842 34.8211 21.1207C34.8211 19.9475 35.211 18.9999 35.9908 18.2779C36.7705 17.5559 37.8223 17.1317 39.1461 17.0054L43.0359 16.6534V16.3827C43.0359 15.8592 42.8546 15.4441 42.4919 15.1373C42.1292 14.8124 41.6668 14.6499 41.1046 14.6499C40.0891 14.6499 39.4816 15.1373 39.2821 16.1119L35.3923 15.5704C35.6281 14.0543 36.2991 12.9532 37.4052 12.2674C38.5296 11.5815 39.8715 11.2385 41.4311 11.2385C43.2807 11.2385 44.7315 11.6807 45.7833 12.5652C46.8532 13.4316 47.3882 14.668 47.3882 16.2744V20.7146C47.3882 21.202 47.6058 21.4456 48.041 21.4456ZM43.0359 19.6587V19.3609L40.479 19.6587C40.0438 19.7129 39.6992 19.8573 39.4454 20.0919C39.1915 20.3085 39.0645 20.5702 39.0645 20.8771C39.0645 21.2381 39.2187 21.5178 39.527 21.7164C39.8534 21.9149 40.2614 22.0052 40.751 21.9871C41.4039 21.951 41.9479 21.7344 42.3831 21.3373C42.8183 20.9402 43.0359 20.3807 43.0359 19.6587Z" fill="#303030"/>
	<path d="M58.4538 11.2385C59.9771 11.2385 61.2193 11.6807 62.1804 12.5652C63.1597 13.4496 63.6493 14.686 63.6493 16.2744V24.9112H59.2971V17.601C59.2971 16.7888 59.0976 16.1841 58.6986 15.787C58.2997 15.3719 57.7556 15.1643 57.0665 15.1643C56.3774 15.1643 55.8243 15.3809 55.4073 15.8141C55.0083 16.2473 54.8088 16.8791 54.8088 17.7093V24.9112H50.4566V5.95898H54.8088V12.6193C55.6974 11.6988 56.9124 11.2385 58.4538 11.2385Z" fill="#303030"/>
	<path d="M74.9413 11.5093H79.2935V24.9112H74.9413V23.8011C74.0527 24.7216 72.8377 25.1819 71.2963 25.1819C69.8455 25.1819 68.6124 24.7216 67.5969 23.8011C66.5995 22.8625 66.1008 21.5539 66.1008 19.8753V11.5093H70.453V18.9277C70.453 19.7038 70.6525 20.2904 71.0515 20.6875C71.4504 21.0666 71.9944 21.2561 72.6835 21.2561C73.3726 21.2561 73.9167 21.0395 74.3156 20.6063C74.7327 20.1731 74.9413 19.5414 74.9413 18.7111V11.5093Z" fill="#303030"/>
	<path d="M90.0705 11.2385C91.9202 11.2385 93.4888 11.8973 94.7764 13.215C96.0639 14.5145 96.7077 16.1841 96.7077 18.2238C96.7077 20.2273 96.073 21.8878 94.8036 23.2055C93.5342 24.5231 91.9656 25.1819 90.0977 25.1819C88.5019 25.1819 87.1963 24.6946 86.1807 23.7199V24.9112H81.8285V5.95898H86.1807V12.6735C87.1781 11.7168 88.4747 11.2385 90.0705 11.2385ZM89.2001 21.4185C90.0343 21.4185 90.7415 21.1298 91.3218 20.5522C91.9021 19.9565 92.1922 19.1804 92.1922 18.2238C92.1922 17.2491 91.9021 16.4729 91.3218 15.8953C90.7596 15.2997 90.0524 15.0019 89.2001 15.0019C88.3297 15.0019 87.6043 15.2997 87.024 15.8953C86.4618 16.4729 86.1807 17.2491 86.1807 18.2238C86.1807 19.1804 86.4618 19.9565 87.024 20.5522C87.6043 21.1298 88.3297 21.4185 89.2001 21.4185Z" fill="#303030"/>
</svg>
