<svg width="22" height="22" viewBox="0 0 22 22" fill="none" xmlns="http://www.w3.org/2000/svg">
<path fill-rule="evenodd" clip-rule="evenodd" d="M12.2559 21.0114C12.2541 20.5972 12.5884 20.26 13.0026 20.2581C14.7122 20.2505 15.9724 20.2 16.9492 20.0128C17.9051 19.8295 18.5342 19.5251 19.0208 19.0424C19.5929 18.4749 19.923 17.7052 20.1001 16.4272C20.2802 15.1276 20.2887 13.4189 20.2983 11.0401C20.3079 8.66127 20.3132 6.9526 20.1436 5.65157C19.9769 4.37213 19.653 3.59984 19.0855 3.0277C18.5179 2.45555 17.7483 2.12546 16.4702 1.94837C15.1706 1.76829 13.462 1.7598 11.0831 1.75019C8.70432 1.74058 6.99565 1.73527 5.69462 1.90484C4.41517 2.0716 3.64289 2.39547 3.07075 2.96302C2.58415 3.4457 2.27464 4.0723 2.08369 5.02668C1.88856 6.00198 1.82788 7.26169 1.80648 8.97122C1.8013 9.38541 1.46133 9.71696 1.04715 9.71178C0.632971 9.70659 0.301413 9.36663 0.306598 8.95245C0.327934 7.24811 0.38719 5.86024 0.612845 4.7324C0.842687 3.58363 1.25482 2.65152 2.01438 1.89808C2.91299 1.0067 4.05489 0.605873 5.50075 0.417425C6.91335 0.233312 8.72284 0.24063 11.0318 0.249969L11.1466 0.250433C13.4556 0.259745 15.265 0.267044 16.6761 0.462563C18.1204 0.662684 19.259 1.07272 20.1504 1.97133C21.0418 2.86994 21.4426 4.01184 21.6311 5.4577C21.8152 6.8703 21.8079 8.67978 21.7985 10.9888L21.7981 11.1035C21.7887 13.4125 21.7814 15.222 21.5859 16.6331C21.3858 18.0774 20.9758 19.216 20.0772 20.1074C19.3176 20.8608 18.3822 21.2654 17.2316 21.486C16.102 21.7025 14.7137 21.7505 13.0092 21.7581C12.595 21.7599 12.2577 21.4257 12.2559 21.0114ZM6.53622 21.5123C6.24215 21.804 5.76728 21.8021 5.47557 21.508L0.495808 16.4879C0.204101 16.1938 0.206019 15.7189 0.500092 15.4272L5.52025 10.4475C5.81432 10.1558 6.28919 10.1577 6.5809 10.4517C6.87261 10.7458 6.87069 11.2207 6.57661 11.5124L2.84195 15.217L9.03124 15.242C10.5827 15.2483 11.5015 14.495 11.8235 14.174L12.0165 13.9816L12.2078 13.7928C12.5314 13.4733 13.2921 12.5607 13.2984 11.0092L13.3105 8.00924C13.3122 7.59503 13.6493 7.2606 14.0635 7.26227C14.4777 7.26395 14.8121 7.60109 14.8105 8.0153L14.7984 11.0153C14.7899 13.099 13.7578 14.3705 13.2616 14.8603C13.2616 14.8603 13.2616 14.8603 13.2616 14.8603L13.0703 15.0491L12.8825 15.2363C12.3887 15.7285 11.109 16.7504 9.02518 16.742L2.83589 16.717L6.54051 20.4517C6.83222 20.7457 6.8303 21.2206 6.53622 21.5123Z" fill="#303030"/>
</svg>
