<svg width="24" height="24" viewBox="0 0 24 24" fill="none" xmlns="http://www.w3.org/2000/svg">
<path d="M20.4724 9.77389L20.473 9.77444C20.6195 9.9091 20.7364 10.0727 20.8163 10.2549C20.8963 10.4371 20.9375 10.6338 20.9375 10.8328V19.5C20.9375 19.8812 20.786 20.2469 20.5165 20.5165C20.2469 20.786 19.8812 20.9375 19.5 20.9375H15C14.6188 20.9375 14.2531 20.786 13.9835 20.5165C13.714 20.2469 13.5625 19.8812 13.5625 19.5V15V14.9375H13.5H10.5H10.4375V15V19.5C10.4375 19.8812 10.286 20.2469 10.0165 20.5165C9.74688 20.786 9.38125 20.9375 9 20.9375H4.5C4.11875 20.9375 3.75312 20.786 3.48353 20.5165C3.21395 20.2469 3.0625 19.8812 3.0625 19.5V10.8328C3.06247 10.6338 3.10374 10.4371 3.18369 10.2549C3.26365 10.0727 3.38054 9.9091 3.52699 9.77444L3.527 9.77444L3.5276 9.77387L11.0192 2.69762L11.0192 2.69763L11.0204 2.69637L11.0297 2.68712C11.2942 2.44708 11.6386 2.31409 11.9958 2.31409C12.3524 2.31409 12.6963 2.44666 12.9606 2.68598C12.9646 2.69033 12.9688 2.69447 12.9732 2.69838L20.4724 9.77389ZM19.5 19.5625H19.5625L19.5625 19.5L19.5634 10.8309L19.5634 10.8033L19.543 10.7847L19.5335 10.7761L19.5327 10.7753L12.0429 3.70455L12 3.66403L11.9571 3.70455L4.46827 10.7772L4.4674 10.778L4.45796 10.7866L4.4375 10.8052V10.8328V19.5V19.5625H4.5H9H9.0625V19.5V15C9.0625 14.6187 9.21395 14.2531 9.48353 13.9835C9.75312 13.7139 10.1188 13.5625 10.5 13.5625H13.5C13.8812 13.5625 14.2469 13.7139 14.5165 13.9835C14.786 14.2531 14.9375 14.6187 14.9375 15V19.5V19.5625H15H19.5Z" fill="#343330" stroke="#474747" stroke-width="0.125"/>
</svg>
