<svg width="54" height="54" viewBox="0 0 54 54" fill="none" xmlns="http://www.w3.org/2000/svg">
<circle cx="27" cy="27" r="27" fill="#6A0BFF"/>
<path d="M8 32.7551V21H9.93074L13.6973 28.8041L17.4638 21H19.3945V32.7551H17.3847V25.7347L14.0771 32.7551H13.3175L10.0099 25.7347V32.7551H8Z" fill="white"/>
<path d="M25.588 33C24.7123 33 23.9395 32.8068 23.2695 32.4204C22.6048 32.0286 22.0826 31.4925 21.7028 30.8122C21.3282 30.1265 21.1409 29.3429 21.1409 28.4612C21.1409 27.498 21.3256 26.6599 21.6948 25.9469C22.0641 25.234 22.5732 24.6816 23.222 24.2898C23.8709 23.8925 24.6173 23.6939 25.4614 23.6939C26.3582 23.6939 27.1204 23.9116 27.7482 24.3469C28.376 24.7823 28.8402 25.3946 29.1409 26.1837C29.4416 26.9728 29.5471 27.9007 29.4574 28.9673H27.3288V28.151C27.3288 27.2531 27.189 26.6082 26.9094 26.2163C26.6351 25.819 26.1841 25.6204 25.5563 25.6204C24.8231 25.6204 24.2824 25.8517 23.9342 26.3143C23.5913 26.7714 23.4199 27.449 23.4199 28.3469C23.4199 29.1687 23.5913 29.8054 23.9342 30.2571C24.2824 30.7034 24.7914 30.9265 25.4614 30.9265C25.8834 30.9265 26.2448 30.8313 26.5454 30.6408C26.8461 30.4503 27.0756 30.1755 27.2339 29.8163L29.3862 30.4531C29.0644 31.2585 28.5553 31.8844 27.859 32.3306C27.1679 32.7769 26.4109 33 25.588 33ZM22.7552 28.9673V27.3184H28.4208V28.9673H22.7552Z" fill="white"/>
<path d="M35.2164 33C34.3407 33 33.5678 32.8068 32.8979 32.4204C32.2332 32.0286 31.7109 31.4925 31.3311 30.8122C30.9566 30.1265 30.7693 29.3429 30.7693 28.4612C30.7693 27.498 30.9539 26.6599 31.3232 25.9469C31.6925 25.234 32.2015 24.6816 32.8504 24.2898C33.4993 23.8925 34.2457 23.6939 35.0897 23.6939C35.9865 23.6939 36.7488 23.9116 37.3766 24.3469C38.0043 24.7823 38.4685 25.3946 38.7692 26.1837C39.0699 26.9728 39.1754 27.9007 39.0857 28.9673H36.9572V28.151C36.9572 27.2531 36.8174 26.6082 36.5378 26.2163C36.2635 25.819 35.8125 25.6204 35.1847 25.6204C34.4514 25.6204 33.9107 25.8517 33.5626 26.3143C33.2197 26.7714 33.0482 27.449 33.0482 28.3469C33.0482 29.1687 33.2197 29.8054 33.5626 30.2571C33.9107 30.7034 34.4198 30.9265 35.0897 30.9265C35.5118 30.9265 35.8731 30.8313 36.1738 30.6408C36.4745 30.4503 36.704 30.1755 36.8622 29.8163L39.0145 30.4531C38.6927 31.2585 38.1837 31.8844 37.4873 32.3306C36.7963 32.7769 36.0393 33 35.2164 33ZM32.3835 28.9673V27.3184H38.0492V28.9673H32.3835Z" fill="white"/>
<path d="M46 32.7551C45.4092 32.8694 44.8289 32.9184 44.2592 32.902C43.6947 32.8912 43.1883 32.7905 42.7399 32.6C42.2968 32.4041 41.9592 32.0912 41.727 31.6612C41.516 31.2585 41.4053 30.8503 41.3947 30.4367C41.3842 30.0177 41.3789 29.5442 41.3789 29.0163V21.4898H43.5312V28.8857C43.5312 29.2286 43.5338 29.5388 43.5391 29.8163C43.5496 30.0884 43.605 30.3061 43.7053 30.4694C43.8952 30.7796 44.1985 30.9483 44.6152 30.9755C45.032 31.0027 45.4936 30.981 46 30.9102V32.7551ZM39.9229 25.6531V23.9388H46V25.6531H39.9229Z" fill="white"/>
</svg>
