<svg width="20" height="20" viewBox="0 0 32 32" fill="none" xmlns="http://www.w3.org/2000/svg">
<path d="M30 15C29.9983 13.4092 29.3657 11.8841 28.2408 10.7592C27.116 9.63433 25.5908 9.00166 24 9.00001H19.025C18.6612 8.97876 12.3225 8.53251 6.28625 3.47001C5.99476 3.2252 5.63946 3.06866 5.26208 3.01877C4.88471 2.96889 4.50094 3.02774 4.15585 3.1884C3.81076 3.34907 3.51869 3.60488 3.31395 3.92578C3.1092 4.24668 3.00029 4.61935 3 5.00001V25C3.00005 25.3808 3.10879 25.7536 3.31345 26.0747C3.5181 26.3958 3.81015 26.6518 4.15529 26.8126C4.50042 26.9734 4.88429 27.0324 5.26178 26.9825C5.63926 26.9327 5.99468 26.7761 6.28625 26.5313C11.0075 22.5713 15.9113 21.4363 18 21.1188V25.0838C17.9996 25.4133 18.0806 25.7379 18.2359 26.0286C18.3912 26.3193 18.6159 26.5671 18.89 26.75L20.265 27.6663C20.5308 27.8436 20.8352 27.9548 21.1527 27.9903C21.4703 28.0259 21.7917 27.9849 22.0901 27.8706C22.3885 27.7564 22.6553 27.5724 22.8679 27.3339C23.0806 27.0955 23.2331 26.8095 23.3125 26.5L24.7838 20.955C26.2272 20.763 27.5517 20.0533 28.5112 18.958C29.4706 17.8626 29.9997 16.4561 30 15ZM5 24.9913V5.00001C10.3513 9.48876 15.8287 10.625 18 10.905V19.09C15.8313 19.375 10.355 20.5088 5 24.9913ZM21.375 25.9913V26.005L20 25.0888V21H22.7L21.375 25.9913ZM24 19H20V11H24C25.0609 11 26.0783 11.4214 26.8284 12.1716C27.5786 12.9217 28 13.9391 28 15C28 16.0609 27.5786 17.0783 26.8284 17.8284C26.0783 18.5786 25.0609 19 24 19Z" fill="#343330"/>
</svg>
