<svg width="24" height="24" viewBox="0 -4 24 24"  fill="none" xmlns="http://www.w3.org/2000/svg">
<path d="M4.5625 2C4.5625 1.81766 4.63493 1.6428 4.76386 1.51386C4.8928 1.38493 5.06766 1.3125 5.25 1.3125H17.25C17.4323 1.3125 17.6072 1.38493 17.7361 1.51386C17.8651 1.6428 17.9375 1.81766 17.9375 2C17.9375 2.18234 17.8651 2.3572 17.7361 2.48614C17.6072 2.61507 17.4323 2.6875 17.25 2.6875H5.25C5.06766 2.6875 4.8928 2.61507 4.76386 2.48614C4.63493 2.3572 4.5625 2.18234 4.5625 2ZM5.25 7.3125H17.25C17.4323 7.3125 17.6072 7.38493 17.7361 7.51386C17.8651 7.6428 17.9375 7.81766 17.9375 8C17.9375 8.18234 17.8651 8.35721 17.7361 8.48614C17.6072 8.61507 17.4323 8.6875 17.25 8.6875H5.25C5.06766 8.6875 4.8928 8.61507 4.76386 8.48614C4.63493 8.35721 4.5625 8.18234 4.5625 8C4.5625 7.81766 4.63493 7.6428 4.76386 7.51386C4.8928 7.38493 5.06766 7.3125 5.25 7.3125ZM5.25 13.3125H17.25C17.4323 13.3125 17.6072 13.3849 17.7361 13.5139C17.8651 13.6428 17.9375 13.8177 17.9375 14C17.9375 14.1823 17.8651 14.3572 17.7361 14.4861C17.6072 14.6151 17.4323 14.6875 17.25 14.6875H5.25C5.06766 14.6875 4.8928 14.6151 4.76386 14.4861C4.63493 14.3572 4.5625 14.1823 4.5625 14C4.5625 13.8177 4.63493 13.6428 4.76386 13.5139C4.8928 13.3849 5.06766 13.3125 5.25 13.3125ZM0.534707 1.11656C0.709434 0.999815 0.914858 0.9375 1.125 0.9375C1.40679 0.9375 1.67704 1.04944 1.8763 1.2487C2.07556 1.44796 2.1875 1.71821 2.1875 2C2.1875 2.21014 2.12519 2.41557 2.00844 2.59029C1.89169 2.76502 1.72575 2.9012 1.5316 2.98162C1.33746 3.06204 1.12382 3.08308 0.917717 3.04208C0.711612 3.00109 0.522293 2.89989 0.373699 2.7513C0.225106 2.60271 0.123913 2.41339 0.0829161 2.20728C0.0419193 2.00118 0.0629604 1.78755 0.143379 1.5934C0.223797 1.39925 0.35998 1.23331 0.534707 1.11656ZM0.534707 7.11656C0.709434 6.99981 0.914858 6.9375 1.125 6.9375C1.40679 6.9375 1.67704 7.04944 1.8763 7.2487C2.07556 7.44796 2.1875 7.71821 2.1875 8C2.1875 8.21014 2.12519 8.41557 2.00844 8.59029C1.89169 8.76502 1.72575 8.9012 1.5316 8.98162C1.33746 9.06204 1.12382 9.08308 0.917717 9.04208C0.711613 9.00109 0.522293 8.89989 0.373699 8.7513C0.225106 8.60271 0.123913 8.41339 0.0829161 8.20728C0.0419193 8.00118 0.0629604 7.78755 0.143378 7.5934C0.223797 7.39925 0.35998 7.23331 0.534707 7.11656ZM0.534707 13.1166C0.709435 12.9998 0.914858 12.9375 1.125 12.9375C1.40679 12.9375 1.67704 13.0494 1.8763 13.2487C2.07556 13.448 2.1875 13.7182 2.1875 14C2.1875 14.2101 2.12519 14.4156 2.00844 14.5903C1.89169 14.765 1.72575 14.9012 1.5316 14.9816C1.33746 15.062 1.12382 15.0831 0.917717 15.0421C0.711613 15.0011 0.522293 14.8999 0.3737 14.7513C0.225106 14.6027 0.123913 14.4134 0.0829162 14.2073C0.0419193 14.0012 0.0629604 13.7875 0.143378 13.5934C0.223797 13.3993 0.35998 13.2333 0.534707 13.1166Z" fill="#343330" stroke="#474747" stroke-width="0.125"/>
</svg>
