<svg width="20" height="20" viewBox="0 0 20 20" fill="none" xmlns="http://www.w3.org/2000/svg">
<path d="M17.9422 4.5583L15.4422 2.0583C15.3841 2.00019 15.3152 1.95409 15.2393 1.92264C15.1635 1.89119 15.0821 1.875 15 1.875C14.9179 1.875 14.8365 1.89119 14.7607 1.92264C14.6848 1.95409 14.6159 2.00019 14.5578 2.0583L7.05781 9.5583C6.99979 9.61639 6.95378 9.68534 6.92242 9.76121C6.89105 9.83708 6.87494 9.91839 6.875 10.0005V12.5005C6.875 12.6663 6.94085 12.8252 7.05806 12.9424C7.17527 13.0596 7.33424 13.1255 7.5 13.1255H10C10.0821 13.1256 10.1634 13.1094 10.2393 13.0781C10.3152 13.0467 10.3841 13.0007 10.4422 12.9427L17.9422 5.44268C18.0003 5.38463 18.0464 5.3157 18.0779 5.23983C18.1093 5.16396 18.1255 5.08263 18.1255 5.00049C18.1255 4.91836 18.1093 4.83703 18.0779 4.76115C18.0464 4.68528 18.0003 4.61635 17.9422 4.5583ZM9.74141 11.8755H8.125V10.2591L13.125 5.25909L14.7414 6.87549L9.74141 11.8755ZM15.625 5.9919L14.0086 4.37549L15 3.38409L16.6164 5.00049L15.625 5.9919ZM17.5 9.37549V16.2505C17.5 16.582 17.3683 16.9 17.1339 17.1344C16.8995 17.3688 16.5815 17.5005 16.25 17.5005H3.75C3.41848 17.5005 3.10054 17.3688 2.86612 17.1344C2.6317 16.9 2.5 16.582 2.5 16.2505V3.75049C2.5 3.41897 2.6317 3.10103 2.86612 2.86661C3.10054 2.63219 3.41848 2.50049 3.75 2.50049H10.625C10.7908 2.50049 10.9497 2.56634 11.0669 2.68355C11.1842 2.80076 11.25 2.95973 11.25 3.12549C11.25 3.29125 11.1842 3.45022 11.0669 3.56743C10.9497 3.68464 10.7908 3.75049 10.625 3.75049H3.75V16.2505H16.25V9.37549C16.25 9.20973 16.3158 9.05076 16.4331 8.93355C16.5503 8.81634 16.7092 8.75049 16.875 8.75049C17.0408 8.75049 17.1997 8.81634 17.3169 8.93355C17.4342 9.05076 17.5 9.20973 17.5 9.37549Z" fill="#6A0BFF"/>
</svg>
