<svg width="20" height="20" viewBox="0 0 20 20" fill="none" xmlns="http://www.w3.org/2000/svg">
<path d="M5 6.66669C5 5.3406 5.52678 4.06883 6.46447 3.13115C7.40215 2.19347 8.67392 1.66669 10 1.66669C11.3261 1.66669 12.5979 2.19347 13.5355 3.13115C14.4732 4.06883 15 5.3406 15 6.66669C15 12.5 17.5 14.1667 17.5 14.1667H2.5C2.5 14.1667 5 12.5 5 6.66669Z" stroke="#757575" stroke-width="1.66667" stroke-linecap="round" stroke-linejoin="round"/>
<path d="M8.58398 17.5C8.72347 17.7537 8.92852 17.9653 9.17773 18.1127C9.42693 18.26 9.71113 18.3378 10.0007 18.3378C10.2902 18.3378 10.5744 18.26 10.8236 18.1127C11.0728 17.9653 11.2778 17.7537 11.4173 17.5" stroke="#757575" stroke-width="1.66667" stroke-linecap="round" stroke-linejoin="round"/>
</svg>
