<svg width="24" height="24" viewBox="0 0 24 24" fill="none" xmlns="http://www.w3.org/2000/svg">
<path fill-rule="evenodd" clip-rule="evenodd" d="M14.2544 1.36477C13.1584 1.05884 12.132 1.38956 11.4026 2.05979C10.6845 2.71963 10.25 3.70576 10.25 4.76087V11.4554C10.25 12.7228 11.2775 13.7503 12.5449 13.7503H19.2394C20.2945 13.7503 21.2806 13.3158 21.9405 12.5977C22.6107 11.8683 22.9414 10.8419 22.6355 9.74587C21.5034 5.69027 18.31 2.49687 14.2544 1.36477ZM11.75 4.76087C11.75 4.10956 12.0201 3.52942 12.4175 3.16432C12.8035 2.80959 13.3035 2.65668 13.8511 2.80954C17.4013 3.80055 20.1997 6.599 21.1907 10.1492C21.3436 10.6968 21.1907 11.1967 20.8359 11.5828C20.4708 11.9801 19.8907 12.2503 19.2394 12.2503H12.5449C12.1059 12.2503 11.75 11.8944 11.75 11.4554V4.76087Z" fill="#6A0BFF"/>
<path d="M8.67232 4.71579C9.0675 4.59167 9.28724 4.1707 9.16312 3.77552C9.039 3.38034 8.61803 3.1606 8.22285 3.28472C4.18231 4.55378 1.25 8.32818 1.25 12.7894C1.25 18.2906 5.70962 22.7503 11.2108 22.7503C15.6721 22.7503 19.4465 19.8179 20.7155 15.7774C20.8397 15.3822 20.6199 14.9613 20.2247 14.8371C19.8296 14.713 19.4086 14.9328 19.2845 15.3279C18.2061 18.7613 14.9982 21.2503 11.2108 21.2503C6.53805 21.2503 2.75 17.4622 2.75 12.7894C2.75 9.00209 5.23899 5.79414 8.67232 4.71579Z" fill="#6A0BFF"/>
</svg>
