<svg width="24" height="24" viewBox="0 0 24 24"  fill="none" xmlns="http://www.w3.org/2000/svg">
<path d="M19.5953 17.9063L19.5952 17.9063L19.5961 17.9077C19.6441 17.9859 19.6759 18.073 19.6897 18.1638C19.7035 18.2545 19.699 18.3471 19.6764 18.4361C19.6538 18.5251 19.6137 18.6087 19.5583 18.6819C19.5029 18.7551 19.4334 18.8165 19.3539 18.8624C19.2744 18.9083 19.1865 18.9379 19.0954 18.9493C19.0043 18.9607 18.9119 18.9537 18.8235 18.9288C18.7351 18.9039 18.6527 18.8615 18.5809 18.8042C18.5092 18.7469 18.4497 18.6758 18.4059 18.5952L18.4059 18.5952L18.405 18.5937C16.6279 15.5223 13.4856 13.6875 10.0006 13.6875C6.51562 13.6875 3.37338 15.5223 1.59621 18.5937L1.59619 18.5937L1.59538 18.5952C1.55157 18.6758 1.49205 18.7469 1.42032 18.8042C1.34859 18.8615 1.26611 18.9039 1.17774 18.9288C1.08938 18.9537 0.996924 18.9607 0.905828 18.9493C0.81473 18.9379 0.72684 18.9083 0.647342 18.8624C0.567843 18.8165 0.498347 18.7551 0.442954 18.6819C0.387561 18.6087 0.347392 18.5251 0.324818 18.4361C0.302244 18.3471 0.297722 18.2545 0.311519 18.1638C0.325315 18.073 0.357151 17.9859 0.405149 17.9077L0.405166 17.9077L0.405977 17.9063C1.82622 15.45 4.01429 13.6902 6.5672 12.8569L6.69805 12.8142L6.57978 12.7438C5.32138 11.9947 4.34369 10.8532 3.79684 9.49458C3.24999 8.13601 3.16422 6.6355 3.5527 5.22346C3.94118 3.81143 4.78244 2.56596 5.94728 1.67832C7.11211 0.790671 8.53612 0.309937 10.0006 0.309937C11.4651 0.309937 12.8891 0.790671 14.054 1.67832C15.2188 2.56596 16.0601 3.81143 16.4485 5.22346C16.837 6.6355 16.7513 8.13601 16.2044 9.49458C15.6576 10.8532 14.6799 11.9947 13.4215 12.7438L13.3032 12.8142L13.434 12.8569C15.9869 13.6911 18.175 15.4509 19.5953 17.9063ZM4.68812 6.99999V7.00005C4.68963 8.40854 5.24981 9.7589 6.24576 10.7548C7.24171 11.7508 8.59207 12.311 10.0006 12.3125H10.0006C11.0513 12.3125 12.0785 12.0009 12.9521 11.4172C13.8257 10.8334 14.5066 10.0037 14.9087 9.03299C15.3108 8.06226 15.416 6.99409 15.211 5.96357C15.0061 4.93305 14.5001 3.98645 13.7571 3.24348C13.0142 2.50052 12.0676 1.99455 11.037 1.78957C10.0065 1.58458 8.93835 1.68979 7.96761 2.09188C6.99688 2.49397 6.16718 3.17488 5.58344 4.04852C4.99969 4.92216 4.68812 5.94927 4.68812 6.99999Z" fill="#303030" stroke="#303030" stroke-width="0.125"/>
</svg>
