<svg width="241" height="196" viewBox="0 0 241 196" fill="none" xmlns="http://www.w3.org/2000/svg">
<path fill-rule="evenodd" clip-rule="evenodd" d="M229.461 75.265C222.812 75.265 217.5 80.6755 216.675 87.2729C215.244 98.7165 211.776 109.844 206.402 120.117C199.163 133.954 188.682 145.827 175.859 154.715C163.036 163.604 148.252 169.245 132.776 171.153C117.3 173.061 101.592 171.18 87.001 165.671C72.4095 160.162 59.3691 151.189 48.9979 139.523C38.6267 127.856 31.2341 113.844 27.4539 98.6862C23.6737 83.5288 23.6187 67.679 27.2937 52.4957C30.0221 41.2231 34.746 30.5677 41.2094 21.0228C44.9355 15.5203 44.515 7.95554 39.5263 3.56533C34.5239 -0.836912 26.8428 -0.373915 22.9725 5.05052C20.6032 8.37126 18.4063 11.8065 16.3888 15.3423C10.789 25.1566 6.57249 35.7454 3.89443 46.81C-0.698211 65.7847 -0.629526 85.5924 4.0946 104.535C8.81872 123.477 18.0573 140.989 31.0183 155.569C43.9793 170.148 60.276 181.361 78.5111 188.246C96.7462 195.13 116.376 197.481 135.716 195.097C155.057 192.712 173.532 185.663 189.558 174.555C205.583 163.446 218.681 148.61 227.727 131.316C233.003 121.232 236.809 110.489 239.065 99.4121C239.881 95.4077 240.494 91.3598 240.901 87.2839C241.562 80.668 236.11 75.265 229.461 75.265Z" fill="#400799"/>
</svg>
