<svg width="39" height="39" viewBox="0 0 39 39" fill="none" xmlns="http://www.w3.org/2000/svg">
<path fill-rule="evenodd" clip-rule="evenodd" d="M32.2153 21.5787L32.211 21.5832C31.5066 22.3184 30.7781 23.0789 30.3915 24.0125C30.0202 24.9111 30.004 25.9379 29.9893 26.9324C29.9746 27.9636 29.9583 29.0435 29.5002 29.5002C29.042 29.9569 27.9695 29.9746 26.9324 29.9893C25.9379 30.004 24.9111 30.0202 24.0125 30.3915C23.0789 30.7781 22.3184 31.5066 21.5832 32.211L21.5787 32.2153L21.576 32.2179C20.8403 32.9227 20.0886 33.6429 19.5 33.6429C18.9107 33.6429 18.152 32.918 17.4213 32.2153C16.6906 31.5126 15.923 30.7789 14.9875 30.3915C14.0889 30.0202 13.0621 30.004 12.0676 29.9893C11.0364 29.9746 9.95652 29.9583 9.49982 29.5002C9.04312 29.042 9.02545 27.9695 9.01071 26.9324C8.99598 25.9379 8.97978 24.9111 8.60853 24.0125C8.22187 23.0789 7.49336 22.3184 6.78905 21.5833L6.78469 21.5787L6.78214 21.576C6.07728 20.8403 5.35714 20.0886 5.35714 19.5C5.35714 18.9107 6.08196 18.152 6.78469 17.4213C7.48741 16.6906 8.22107 15.923 8.60853 14.9875C8.97978 14.0889 8.99598 13.0621 9.01071 12.0676C9.02545 11.0364 9.04165 9.95652 9.49982 9.49982C9.95799 9.04312 11.0305 9.02545 12.0676 9.01071C13.0621 8.99598 14.0889 8.97978 14.9875 8.60853C15.9211 8.22187 16.6815 7.49337 17.4167 6.78905L17.4213 6.78469L17.424 6.78214C18.1597 6.07728 18.9114 5.35714 19.5 5.35714C20.0893 5.35714 20.848 6.08196 21.5787 6.78469C22.3094 7.48741 23.077 8.22107 24.0125 8.60853C24.9111 8.97978 25.9379 8.99598 26.9324 9.01071C27.9636 9.02545 29.0435 9.04165 29.5002 9.49982C29.9569 9.95799 29.9746 11.0305 29.9893 12.0676C30.004 13.0621 30.0202 14.0889 30.3915 14.9875C30.7781 15.9211 31.5066 16.6816 32.211 17.4167L32.2153 17.4213L32.2179 17.424C32.9227 18.1597 33.6429 18.9114 33.6429 19.5C33.6429 20.0893 32.918 20.848 32.2153 21.5787ZM26.4825 15.513C26.4232 15.3699 26.3363 15.2399 26.2267 15.1304C26.1172 15.0209 25.9873 14.9339 25.8442 14.8746C25.7011 14.8153 25.5477 14.7848 25.3929 14.7848C25.238 14.7848 25.0846 14.8153 24.9415 14.8746C24.7985 14.9339 24.6685 15.0209 24.559 15.1304L17.1429 22.5481L14.441 19.8447C14.2198 19.6236 13.9199 19.4993 13.6071 19.4993C13.2944 19.4993 12.9945 19.6236 12.7733 19.8447C12.5522 20.0659 12.4279 20.3658 12.4279 20.6786C12.4279 20.9913 12.5522 21.2913 12.7733 21.5124L16.309 25.0481C16.4185 25.1577 16.5485 25.2446 16.6915 25.3039C16.8346 25.3633 16.988 25.3938 17.1429 25.3938C17.2977 25.3938 17.4511 25.3633 17.5942 25.3039C17.7373 25.2446 17.8672 25.1577 17.9767 25.0481L26.2267 16.7981C26.3363 16.6887 26.4232 16.5587 26.4825 16.4156C26.5418 16.2725 26.5724 16.1192 26.5724 15.9643C26.5724 15.8094 26.5418 15.656 26.4825 15.513Z" fill="#FFC234"/>
<path fill-rule="evenodd" clip-rule="evenodd" d="M33.9041 15.777L33.9169 15.7904C34.8936 16.8084 36 17.962 36 19.5C36 21.038 34.8936 22.193 33.9169 23.2096L33.9121 23.2146C33.3582 23.7935 32.7863 24.3911 32.5704 24.9141C32.3704 25.3948 32.3583 26.1911 32.3465 26.9631L32.3464 26.9677L32.3463 26.9734C32.3243 28.4099 32.2993 30.0364 31.1679 31.1679C30.0364 32.2993 28.4099 32.3243 26.9734 32.3463L26.9677 32.3464L26.9631 32.3465C26.1911 32.3583 25.3948 32.3704 24.9141 32.5704C24.3922 32.7853 23.7992 33.3527 23.2229 33.9041L23.2096 33.9169C22.1916 34.8936 21.038 36 19.5 36C17.962 36 16.807 34.8936 15.7904 33.9169L15.7854 33.9121C15.2065 33.3581 14.6089 32.7863 14.0859 32.5704C13.6051 32.3704 12.8089 32.3583 12.0369 32.3465L12.0323 32.3464L12.0266 32.3463C10.5901 32.3243 8.96355 32.2993 7.83214 31.1679C6.70073 30.0364 6.67573 28.4099 6.65366 26.9734L6.65357 26.9677L6.6535 26.9632C6.64174 26.1911 6.62961 25.3949 6.42964 24.9141C6.21474 24.3922 5.64732 23.7992 5.09592 23.2229L5.08312 23.2096C4.10638 22.1916 3 21.038 3 19.5C3 17.962 4.10638 16.807 5.08312 15.7904L5.08792 15.7854C5.64183 15.2065 6.2137 14.6089 6.42964 14.0859C6.62961 13.6051 6.64174 12.8089 6.6535 12.0368L6.65357 12.0323C6.65401 12.0107 6.65445 11.9891 6.65489 11.9675C6.68377 10.5457 6.71622 8.94806 7.83214 7.83214C8.96356 6.70073 10.5901 6.67573 12.0266 6.65366L12.0323 6.65357L12.0374 6.65349C12.8092 6.64173 13.6082 6.62956 14.0859 6.42964C14.6078 6.21474 15.2008 5.64733 15.7771 5.09593L15.7904 5.08312C16.8084 4.10638 17.962 3 19.5 3C21.038 3 22.193 4.10638 23.2096 5.08312L23.2146 5.08792C23.7934 5.64183 24.3911 6.2137 24.9141 6.42964C25.3949 6.62961 26.1911 6.64174 26.9632 6.6535L26.9677 6.65357L26.9734 6.65366C28.4099 6.67573 30.0364 6.70073 31.1679 7.83214C32.2993 8.96355 32.3243 10.5901 32.3463 12.0266L32.3464 12.0323L32.3465 12.0369C32.3583 12.8089 32.3704 13.6051 32.5704 14.0859C32.7853 14.6078 33.3527 15.2008 33.9041 15.777ZM32.211 21.5832L32.2153 21.5787C32.918 20.848 33.6429 20.0893 33.6429 19.5C33.6429 18.9114 32.9227 18.1597 32.2179 17.424L32.2153 17.4213L32.211 17.4167C31.5066 16.6816 30.7781 15.9211 30.3915 14.9875C30.0202 14.0889 30.004 13.0621 29.9893 12.0676C29.9746 11.0305 29.9569 9.95799 29.5002 9.49982C29.0435 9.04165 27.9636 9.02545 26.9324 9.01071C25.9379 8.99598 24.9111 8.97978 24.0125 8.60853C23.077 8.22107 22.3094 7.48741 21.5787 6.78469C20.848 6.08196 20.0893 5.35714 19.5 5.35714C18.9114 5.35714 18.1597 6.07728 17.424 6.78214L17.4213 6.78469L17.4167 6.78905C16.6815 7.49337 15.9211 8.22187 14.9875 8.60853C14.0889 8.97978 13.0621 8.99598 12.0676 9.01071C11.0305 9.02545 9.95799 9.04312 9.49982 9.49982C9.04165 9.95652 9.02545 11.0364 9.01071 12.0676C8.99598 13.0621 8.97978 14.0889 8.60853 14.9875C8.22107 15.923 7.48741 16.6906 6.78469 17.4213C6.08196 18.152 5.35714 18.9107 5.35714 19.5C5.35714 20.0886 6.07728 20.8403 6.78214 21.576L6.78469 21.5787L6.78905 21.5833C7.49336 22.3184 8.22187 23.0789 8.60853 24.0125C8.97978 24.9111 8.99598 25.9379 9.01071 26.9324C9.02545 27.9695 9.04312 29.042 9.49982 29.5002C9.95652 29.9583 11.0364 29.9746 12.0676 29.9893C13.0621 30.004 14.0889 30.0202 14.9875 30.3915C15.923 30.7789 16.6906 31.5126 17.4213 32.2153C18.152 32.918 18.9107 33.6429 19.5 33.6429C20.0886 33.6429 20.8403 32.9227 21.576 32.2179L21.5787 32.2153L21.5832 32.211C22.3184 31.5066 23.0789 30.7781 24.0125 30.3915C24.9111 30.0202 25.9379 30.004 26.9324 29.9893C27.9695 29.9746 29.042 29.9569 29.5002 29.5002C29.9583 29.0435 29.9746 27.9636 29.9893 26.9324C30.004 25.9379 30.0202 24.9111 30.3915 24.0125C30.7781 23.0789 31.5066 22.3184 32.211 21.5832Z" fill="#FFC234"/>
</svg>
