<svg width="22" height="22" viewBox="0 0 22 22" fill="none" xmlns="http://www.w3.org/2000/svg">
<path d="M8.69356 11.6836C9.12301 12.2577 9.67092 12.7327 10.3001 13.0765C10.9293 13.4203 11.6251 13.6247 12.3402 13.6759C13.0554 13.7271 13.7731 13.6239 14.4449 13.3733C15.1167 13.1228 15.7267 12.7306 16.2336 12.2236L19.2336 9.22356C20.1444 8.28055 20.6483 7.01754 20.6369 5.70655C20.6255 4.39557 20.0997 3.14151 19.1727 2.21447C18.2456 1.28743 16.9915 0.761581 15.6806 0.750189C14.3696 0.738797 13.1066 1.24277 12.1636 2.15356L10.4436 3.86356M12.6936 9.68356C12.2641 9.10943 11.7162 8.63438 11.087 8.29062C10.4578 7.94686 9.76205 7.74244 9.04691 7.69123C8.33177 7.64001 7.61397 7.74319 6.94221 7.99378C6.27045 8.24436 5.66044 8.63649 5.15356 9.14356L2.15356 12.1436C1.24277 13.0866 0.738797 14.3496 0.750189 15.6606C0.761581 16.9716 1.28743 18.2256 2.21447 19.1527C3.14151 20.0797 4.39557 20.6055 5.70655 20.6169C7.01754 20.6283 8.28055 20.1244 9.22356 19.2136L10.9336 17.5036" stroke="#5E5E5E" stroke-width="1.5" stroke-linecap="round" stroke-linejoin="round"/>
</svg>
