<svg width="33" height="33" viewBox="0 0 33 33"  xmlns="http://www.w3.org/2000/svg">
<path fill-rule="evenodd" clip-rule="evenodd" d="M29.2153 18.5787L29.211 18.5832C28.5066 19.3184 27.7781 20.0789 27.3915 21.0125C27.0202 21.9111 27.004 22.9379 26.9893 23.9324C26.9746 24.9636 26.9583 26.0435 26.5002 26.5002C26.042 26.9569 24.9695 26.9746 23.9324 26.9893C22.9379 27.004 21.9111 27.0202 21.0125 27.3915C20.0789 27.7781 19.3184 28.5066 18.5832 29.211L18.5787 29.2153L18.576 29.2179C17.8403 29.9227 17.0886 30.6429 16.5 30.6429C15.9107 30.6429 15.152 29.918 14.4213 29.2153C13.6906 28.5126 12.923 27.7789 11.9875 27.3915C11.0889 27.0202 10.0621 27.004 9.06763 26.9893C8.03638 26.9746 6.95652 26.9583 6.49982 26.5002C6.04312 26.042 6.02545 24.9695 6.01071 23.9324C5.99598 22.9379 5.97978 21.9111 5.60853 21.0125C5.22187 20.0789 4.49336 19.3184 3.78905 18.5833L3.78469 18.5787L3.78214 18.576C3.07728 17.8403 2.35714 17.0886 2.35714 16.5C2.35714 15.9107 3.08196 15.152 3.78469 14.4213C4.48741 13.6906 5.22107 12.923 5.60853 11.9875C5.97978 11.0889 5.99598 10.0621 6.01071 9.06763C6.02545 8.03638 6.04165 6.95652 6.49982 6.49982C6.95799 6.04312 8.03049 6.02545 9.06763 6.01071C10.0621 5.99598 11.0889 5.97978 11.9875 5.60853C12.9211 5.22187 13.6815 4.49337 14.4167 3.78905L14.4213 3.78469L14.424 3.78214C15.1597 3.07728 15.9114 2.35714 16.5 2.35714C17.0893 2.35714 17.848 3.08196 18.5787 3.78469C19.3094 4.48741 20.077 5.22107 21.0125 5.60853C21.9111 5.97978 22.9379 5.99598 23.9324 6.01071C24.9636 6.02545 26.0435 6.04165 26.5002 6.49982C26.9569 6.95799 26.9746 8.03049 26.9893 9.06763C27.004 10.0621 27.0202 11.0889 27.3915 11.9875C27.7781 12.9211 28.5066 13.6816 29.211 14.4167L29.2153 14.4213L29.2179 14.424C29.9227 15.1597 30.6429 15.9114 30.6429 16.5C30.6429 17.0893 29.918 17.848 29.2153 18.5787ZM23.4825 12.513C23.4232 12.3699 23.3363 12.2399 23.2267 12.1304C23.1172 12.0209 22.9873 11.9339 22.8442 11.8746C22.7011 11.8153 22.5477 11.7848 22.3929 11.7848C22.238 11.7848 22.0846 11.8153 21.9415 11.8746C21.7985 11.9339 21.6685 12.0209 21.559 12.1304L14.1429 19.5481L11.441 16.8447C11.2198 16.6236 10.9199 16.4993 10.6071 16.4993C10.2944 16.4993 9.99445 16.6236 9.7733 16.8447C9.55216 17.0659 9.42792 17.3658 9.42792 17.6786C9.42792 17.9913 9.55216 18.2913 9.7733 18.5124L13.309 22.0481C13.4185 22.1577 13.5485 22.2446 13.6915 22.3039C13.8346 22.3633 13.988 22.3938 14.1429 22.3938C14.2977 22.3938 14.4511 22.3633 14.5942 22.3039C14.7373 22.2446 14.8672 22.1577 14.9767 22.0481L23.2267 13.7981C23.3363 13.6887 23.4232 13.5587 23.4825 13.4156C23.5418 13.2725 23.5724 13.1192 23.5724 12.9643C23.5724 12.8094 23.5418 12.656 23.4825 12.513Z" />
<path fill-rule="evenodd" clip-rule="evenodd" d="M30.9041 12.777L30.9169 12.7904C31.8936 13.8084 33 14.962 33 16.5C33 18.038 31.8936 19.193 30.9169 20.2096L30.9121 20.2146C30.3582 20.7935 29.7863 21.3911 29.5704 21.9141C29.3704 22.3948 29.3583 23.1911 29.3465 23.9631L29.3464 23.9677L29.3463 23.9734C29.3243 25.4099 29.2993 27.0364 28.1679 28.1679C27.0364 29.2993 25.4099 29.3243 23.9734 29.3463L23.9677 29.3464L23.9631 29.3465C23.1911 29.3583 22.3948 29.3704 21.9141 29.5704C21.3922 29.7853 20.7992 30.3527 20.2229 30.9041L20.2096 30.9169C19.1916 31.8936 18.038 33 16.5 33C14.962 33 13.807 31.8936 12.7904 30.9169L12.7854 30.9121C12.2065 30.3581 11.6089 29.7863 11.0859 29.5704C10.6051 29.3704 9.80887 29.3583 9.03687 29.3465L9.03228 29.3464L9.0266 29.3463C7.59014 29.3243 5.96355 29.2993 4.83214 28.1679C3.70073 27.0364 3.67573 25.4099 3.65366 23.9734L3.65357 23.9677L3.6535 23.9632C3.64174 23.1911 3.62961 22.3949 3.42964 21.9141C3.21474 21.3922 2.64732 20.7992 2.09592 20.2229L2.08312 20.2096C1.10638 19.1916 0 18.038 0 16.5C0 14.962 1.10638 13.807 2.08312 12.7904L2.08792 12.7854C2.64183 12.2065 3.2137 11.6089 3.42964 11.0859C3.62961 10.6051 3.64174 9.80886 3.6535 9.03685L3.65357 9.03228C3.65401 9.01072 3.65445 8.98912 3.65489 8.96748C3.68377 7.54568 3.71622 5.94806 4.83214 4.83214C5.96356 3.70073 7.59014 3.67573 9.02661 3.65366L9.03228 3.65357L9.03738 3.65349C9.80924 3.64173 10.6082 3.62956 11.0859 3.42964C11.6078 3.21474 12.2008 2.64733 12.7771 2.09593L12.7904 2.08312C13.8084 1.10638 14.962 0 16.5 0C18.038 0 19.193 1.10638 20.2096 2.08312L20.2146 2.08792C20.7934 2.64183 21.3911 3.2137 21.9141 3.42964C22.3949 3.62961 23.1911 3.64174 23.9632 3.6535L23.9677 3.65357L23.9734 3.65366C25.4099 3.67573 27.0364 3.70073 28.1679 4.83214C29.2993 5.96355 29.3243 7.59014 29.3463 9.0266L29.3464 9.03228L29.3465 9.03687C29.3583 9.80887 29.3704 10.6051 29.5704 11.0859C29.7853 11.6078 30.3527 12.2008 30.9041 12.777ZM29.211 18.5832L29.2153 18.5787C29.918 17.848 30.6429 17.0893 30.6429 16.5C30.6429 15.9114 29.9227 15.1597 29.2179 14.424L29.2153 14.4213L29.211 14.4167C28.5066 13.6816 27.7781 12.9211 27.3915 11.9875C27.0202 11.0889 27.004 10.0621 26.9893 9.06763C26.9746 8.03049 26.9569 6.95799 26.5002 6.49982C26.0435 6.04165 24.9636 6.02545 23.9324 6.01071C22.9379 5.99598 21.9111 5.97978 21.0125 5.60853C20.077 5.22107 19.3094 4.48741 18.5787 3.78469C17.848 3.08196 17.0893 2.35714 16.5 2.35714C15.9114 2.35714 15.1597 3.07728 14.424 3.78214L14.4213 3.78469L14.4167 3.78905C13.6815 4.49337 12.9211 5.22187 11.9875 5.60853C11.0889 5.97978 10.0621 5.99598 9.06763 6.01071C8.03049 6.02545 6.95799 6.04312 6.49982 6.49982C6.04165 6.95652 6.02545 8.03638 6.01071 9.06763C5.99598 10.0621 5.97978 11.0889 5.60853 11.9875C5.22107 12.923 4.48741 13.6906 3.78469 14.4213C3.08196 15.152 2.35714 15.9107 2.35714 16.5C2.35714 17.0886 3.07728 17.8403 3.78214 18.576L3.78469 18.5787L3.78905 18.5833C4.49336 19.3184 5.22187 20.0789 5.60853 21.0125C5.97978 21.9111 5.99598 22.9379 6.01071 23.9324C6.02545 24.9695 6.04312 26.042 6.49982 26.5002C6.95652 26.9583 8.03638 26.9746 9.06763 26.9893C10.0621 27.004 11.0889 27.0202 11.9875 27.3915C12.923 27.7789 13.6906 28.5126 14.4213 29.2153C15.152 29.918 15.9107 30.6429 16.5 30.6429C17.0886 30.6429 17.8403 29.9227 18.576 29.2179L18.5787 29.2153L18.5832 29.211C19.3184 28.5066 20.0789 27.7781 21.0125 27.3915C21.9111 27.0202 22.9379 27.004 23.9324 26.9893C24.9695 26.9746 26.042 26.9569 26.5002 26.5002C26.9583 26.0435 26.9746 24.9636 26.9893 23.9324C27.004 22.9379 27.0202 21.9111 27.3915 21.0125C27.7781 20.0789 28.5066 19.3184 29.211 18.5832Z" />
</svg>
