<svg width="18" height="18" viewBox="0 0 18 18" xmlns="http://www.w3.org/2000/svg">
<path fill="" d="M16.6453 7.03281L16.6385 7.02573C16.3461 6.72014 16.0452 6.40567 15.9312 6.12891C15.8252 5.87394 15.8188 5.45166 15.8125 5.04226L15.8125 5.03984L15.8125 5.03684C15.8007 4.27507 15.7875 3.41249 15.1875 2.8125C14.5875 2.21251 13.7249 2.19925 12.9632 2.18755L12.9602 2.1875L12.9577 2.18746C12.5483 2.18122 12.1261 2.17479 11.8711 2.06875C11.5938 1.95424 11.2768 1.65097 10.9698 1.35723L10.9672 1.35469C10.4281 0.836719 9.81563 0.25 9 0.25C8.18437 0.25 7.57266 0.836719 7.03281 1.35469L7.02572 1.36148C6.72013 1.65389 6.40567 1.95479 6.12891 2.06875C5.87556 2.17477 5.45187 2.18122 5.04255 2.18746L5.03984 2.1875L5.03684 2.18755C4.27507 2.19925 3.41249 2.21251 2.8125 2.8125C2.22073 3.40427 2.20352 4.2515 2.1882 5.00548C2.18797 5.01696 2.18773 5.02841 2.1875 5.03984L2.18746 5.04227C2.18122 5.45167 2.17479 5.87394 2.06875 6.12891C1.95424 6.40623 1.65097 6.72317 1.35723 7.03015L1.35469 7.03281C0.836719 7.57188 0.25 8.18437 0.25 9C0.25 9.81563 0.836719 10.4273 1.35469 10.9672L1.36147 10.9743C1.65388 11.2799 1.95479 11.5943 2.06875 11.8711C2.17479 12.1261 2.18122 12.5483 2.18746 12.9577L2.1875 12.9602L2.18755 12.9632C2.19925 13.7249 2.21251 14.5875 2.8125 15.1875C3.41249 15.7875 4.27507 15.8007 5.03684 15.8125L5.03984 15.8125L5.04226 15.8125C5.45166 15.8188 5.87394 15.8252 6.12891 15.9312C6.40623 16.0458 6.72318 16.349 7.03017 16.6428L7.03281 16.6453C7.57188 17.1633 8.18437 17.75 9 17.75C9.81563 17.75 10.4273 17.1633 10.9672 16.6453L10.9743 16.6385C11.2799 16.3461 11.5943 16.0452 11.8711 15.9312C12.1261 15.8252 12.5483 15.8188 12.9577 15.8125L12.9602 15.8125L12.9632 15.8125C13.7249 15.8007 14.5875 15.7875 15.1875 15.1875C15.7875 14.5875 15.8007 13.7249 15.8125 12.9632L15.8125 12.9602L15.8125 12.9577C15.8188 12.5483 15.8252 12.1261 15.9312 11.8711C16.0458 11.5938 16.349 11.2768 16.6428 10.9698L16.6453 10.9672C17.1633 10.4281 17.75 9.81563 17.75 9C17.75 8.18437 17.1633 7.57266 16.6453 7.03281ZM15.743 10.1023L15.7407 10.1048C15.3672 10.4946 14.9808 10.8979 14.7758 11.393C14.5789 11.8695 14.5703 12.4141 14.5625 12.9414C14.5547 13.4883 14.5461 14.0609 14.3031 14.3031C14.0602 14.5453 13.4914 14.5547 12.9414 14.5625C12.4141 14.5703 11.8695 14.5789 11.393 14.7758C10.8979 14.9808 10.4946 15.3672 10.1048 15.7407L10.1023 15.743L10.1009 15.7443C9.71076 16.1181 9.31212 16.5 9 16.5C8.6875 16.5 8.28516 16.1156 7.89766 15.743C7.51016 15.3703 7.10313 14.9812 6.60703 14.7758C6.13047 14.5789 5.58594 14.5703 5.05859 14.5625C4.51172 14.5547 3.93906 14.5461 3.69687 14.3031C3.45469 14.0602 3.44531 13.4914 3.4375 12.9414C3.42969 12.4141 3.42109 11.8695 3.22422 11.393C3.01917 10.8979 2.63284 10.4946 2.25934 10.1048L2.25703 10.1023L2.25568 10.1009C1.88189 9.71076 1.5 9.31212 1.5 9C1.5 8.6875 1.88437 8.28516 2.25703 7.89766C2.62969 7.51016 3.01875 7.10313 3.22422 6.60703C3.42109 6.13047 3.42969 5.58594 3.4375 5.05859C3.44531 4.51172 3.45391 3.93906 3.69687 3.69687C3.93984 3.45469 4.50859 3.44531 5.05859 3.4375C5.58594 3.42969 6.13047 3.42109 6.60703 3.22422C7.1021 3.01917 7.50537 2.63284 7.89524 2.25934L7.89766 2.25703L7.89907 2.25568C8.28924 1.88189 8.68788 1.5 9 1.5C9.3125 1.5 9.71484 1.88437 10.1023 2.25703C10.4898 2.62969 10.8969 3.01875 11.393 3.22422C11.8695 3.42109 12.4141 3.42969 12.9414 3.4375C13.4883 3.44531 14.0609 3.45391 14.3031 3.69687C14.5453 3.93984 14.5547 4.50859 14.5625 5.05859C14.5703 5.58594 14.5789 6.13047 14.7758 6.60703C14.9808 7.1021 15.3672 7.50537 15.7407 7.89525L15.743 7.89766L15.7443 7.89907C16.1181 8.28924 16.5 8.68788 16.5 9C16.5 9.3125 16.1156 9.71484 15.743 10.1023ZM12.5672 6.68281C12.6253 6.74086 12.6714 6.80979 12.7029 6.88566C12.7343 6.96154 12.7505 7.04287 12.7505 7.125C12.7505 7.20713 12.7343 7.28846 12.7029 7.36434C12.6714 7.44021 12.6253 7.50914 12.5672 7.56719L8.19219 11.9422C8.13414 12.0003 8.06521 12.0464 7.98934 12.0779C7.91346 12.1093 7.83213 12.1255 7.75 12.1255C7.66787 12.1255 7.58654 12.1093 7.51066 12.0779C7.43479 12.0464 7.36586 12.0003 7.30781 11.9422L5.43281 10.0672C5.31554 9.94991 5.24965 9.79085 5.24965 9.625C5.24965 9.45915 5.31554 9.30009 5.43281 9.18281C5.55009 9.06554 5.70915 8.99965 5.875 8.99965C6.04085 8.99965 6.19991 9.06554 6.31719 9.18281L7.75 10.6164L11.6828 6.68281C11.7409 6.6247 11.8098 6.5786 11.8857 6.54715C11.9615 6.5157 12.0429 6.49951 12.125 6.49951C12.2071 6.49951 12.2885 6.5157 12.3643 6.54715C12.4402 6.5786 12.5091 6.6247 12.5672 6.68281Z" />
<path fill="" d="M16.6453 7.03281L16.6385 7.02573C16.3461 6.72014 16.0452 6.40567 15.9312 6.12891C15.8252 5.87394 15.8188 5.45166 15.8125 5.04226L15.8125 5.03984L15.8125 5.03684C15.8007 4.27507 15.7875 3.41249 15.1875 2.8125C14.5875 2.21251 13.7249 2.19925 12.9632 2.18755L12.9602 2.1875L12.9577 2.18746C12.5483 2.18122 12.1261 2.17479 11.8711 2.06875C11.5938 1.95424 11.2768 1.65097 10.9698 1.35723L10.9672 1.35469C10.4281 0.836719 9.81563 0.25 9 0.25C8.18437 0.25 7.57266 0.836719 7.03281 1.35469L7.02572 1.36148C6.72013 1.65389 6.40567 1.95479 6.12891 2.06875C5.87556 2.17477 5.45187 2.18122 5.04255 2.18746L5.03984 2.1875L5.03684 2.18755C4.27507 2.19925 3.41249 2.21251 2.8125 2.8125C2.22073 3.40427 2.20352 4.2515 2.1882 5.00548C2.18797 5.01696 2.18773 5.02841 2.1875 5.03984L2.18746 5.04227C2.18122 5.45167 2.17479 5.87394 2.06875 6.12891C1.95424 6.40623 1.65097 6.72317 1.35723 7.03015L1.35469 7.03281C0.836719 7.57188 0.25 8.18437 0.25 9C0.25 9.81563 0.836719 10.4273 1.35469 10.9672L1.36147 10.9743C1.65388 11.2799 1.95479 11.5943 2.06875 11.8711C2.17479 12.1261 2.18122 12.5483 2.18746 12.9577L2.1875 12.9602L2.18755 12.9632C2.19925 13.7249 2.21251 14.5875 2.8125 15.1875C3.41249 15.7875 4.27507 15.8007 5.03684 15.8125L5.03984 15.8125L5.04226 15.8125C5.45166 15.8188 5.87394 15.8252 6.12891 15.9312C6.40623 16.0458 6.72318 16.349 7.03017 16.6428L7.03281 16.6453C7.57188 17.1633 8.18437 17.75 9 17.75C9.81563 17.75 10.4273 17.1633 10.9672 16.6453L10.9743 16.6385C11.2799 16.3461 11.5943 16.0452 11.8711 15.9312C12.1261 15.8252 12.5483 15.8188 12.9577 15.8125L12.9602 15.8125L12.9632 15.8125C13.7249 15.8007 14.5875 15.7875 15.1875 15.1875C15.7875 14.5875 15.8007 13.7249 15.8125 12.9632L15.8125 12.9602L15.8125 12.9577C15.8188 12.5483 15.8252 12.1261 15.9312 11.8711C16.0458 11.5938 16.349 11.2768 16.6428 10.9698L16.6453 10.9672C17.1633 10.4281 17.75 9.81563 17.75 9C17.75 8.18437 17.1633 7.57266 16.6453 7.03281ZM15.743 10.1023L15.7407 10.1048C15.3672 10.4946 14.9808 10.8979 14.7758 11.393C14.5789 11.8695 14.5703 12.4141 14.5625 12.9414C14.5547 13.4883 14.5461 14.0609 14.3031 14.3031C14.0602 14.5453 13.4914 14.5547 12.9414 14.5625C12.4141 14.5703 11.8695 14.5789 11.393 14.7758C10.8979 14.9808 10.4946 15.3672 10.1048 15.7407L10.1023 15.743L10.1009 15.7443C9.71076 16.1181 9.31212 16.5 9 16.5C8.6875 16.5 8.28516 16.1156 7.89766 15.743C7.51016 15.3703 7.10313 14.9812 6.60703 14.7758C6.13047 14.5789 5.58594 14.5703 5.05859 14.5625C4.51172 14.5547 3.93906 14.5461 3.69687 14.3031C3.45469 14.0602 3.44531 13.4914 3.4375 12.9414C3.42969 12.4141 3.42109 11.8695 3.22422 11.393C3.01917 10.8979 2.63284 10.4946 2.25934 10.1048L2.25703 10.1023L2.25568 10.1009C1.88189 9.71076 1.5 9.31212 1.5 9C1.5 8.6875 1.88437 8.28516 2.25703 7.89766C2.62969 7.51016 3.01875 7.10313 3.22422 6.60703C3.42109 6.13047 3.42969 5.58594 3.4375 5.05859C3.44531 4.51172 3.45391 3.93906 3.69687 3.69687C3.93984 3.45469 4.50859 3.44531 5.05859 3.4375C5.58594 3.42969 6.13047 3.42109 6.60703 3.22422C7.1021 3.01917 7.50537 2.63284 7.89524 2.25934L7.89766 2.25703L7.89907 2.25568C8.28924 1.88189 8.68788 1.5 9 1.5C9.3125 1.5 9.71484 1.88437 10.1023 2.25703C10.4898 2.62969 10.8969 3.01875 11.393 3.22422C11.8695 3.42109 12.4141 3.42969 12.9414 3.4375C13.4883 3.44531 14.0609 3.45391 14.3031 3.69687C14.5453 3.93984 14.5547 4.50859 14.5625 5.05859C14.5703 5.58594 14.5789 6.13047 14.7758 6.60703C14.9808 7.1021 15.3672 7.50537 15.7407 7.89525L15.743 7.89766L15.7443 7.89907C16.1181 8.28924 16.5 8.68788 16.5 9C16.5 9.3125 16.1156 9.71484 15.743 10.1023ZM12.5672 6.68281C12.6253 6.74086 12.6714 6.80979 12.7029 6.88566C12.7343 6.96154 12.7505 7.04287 12.7505 7.125C12.7505 7.20713 12.7343 7.28846 12.7029 7.36434C12.6714 7.44021 12.6253 7.50914 12.5672 7.56719L8.19219 11.9422C8.13414 12.0003 8.06521 12.0464 7.98934 12.0779C7.91346 12.1093 7.83213 12.1255 7.75 12.1255C7.66787 12.1255 7.58654 12.1093 7.51066 12.0779C7.43479 12.0464 7.36586 12.0003 7.30781 11.9422L5.43281 10.0672C5.31554 9.94991 5.24965 9.79085 5.24965 9.625C5.24965 9.45915 5.31554 9.30009 5.43281 9.18281C5.55009 9.06554 5.70915 8.99965 5.875 8.99965C6.04085 8.99965 6.19991 9.06554 6.31719 9.18281L7.75 10.6164L11.6828 6.68281C11.7409 6.6247 11.8098 6.5786 11.8857 6.54715C11.9615 6.5157 12.0429 6.49951 12.125 6.49951C12.2071 6.49951 12.2885 6.5157 12.3643 6.54715C12.4402 6.5786 12.5091 6.6247 12.5672 6.68281Z" />
</svg>
