<svg width="20" height="20" viewBox="0 0 20 20" fill="none" xmlns="http://www.w3.org/2000/svg">
<path d="M10.1824 1.6665H9.81569C9.37366 1.6665 8.94974 1.8421 8.63718 2.15466C8.32462 2.46722 8.14902 2.89114 8.14902 3.33317V3.48317C8.14872 3.77544 8.07157 4.0625 7.92531 4.31553C7.77904 4.56857 7.56881 4.7787 7.31569 4.92484L6.95736 5.13317C6.70399 5.27945 6.41659 5.35646 6.12402 5.35646C5.83146 5.35646 5.54406 5.27945 5.29069 5.13317L5.16569 5.0665C4.78325 4.84589 4.32889 4.78604 3.90236 4.90009C3.47583 5.01415 3.11198 5.29278 2.89069 5.67484L2.70736 5.9915C2.48674 6.37395 2.42689 6.82831 2.54095 7.25484C2.655 7.68137 2.93364 8.04521 3.31569 8.2665L3.44069 8.34984C3.69259 8.49526 3.90204 8.70408 4.04823 8.95553C4.19443 9.20698 4.27227 9.49231 4.27403 9.78317V10.2082C4.27519 10.5019 4.19873 10.7906 4.05239 11.0453C3.90606 11.2999 3.69503 11.5113 3.44069 11.6582L3.31569 11.7332C2.93364 11.9545 2.655 12.3183 2.54095 12.7448C2.42689 13.1714 2.48674 13.6257 2.70736 14.0082L2.89069 14.3248C3.11198 14.7069 3.47583 14.9855 3.90236 15.0996C4.32889 15.2136 4.78325 15.1538 5.16569 14.9332L5.29069 14.8665C5.54406 14.7202 5.83146 14.6432 6.12402 14.6432C6.41659 14.6432 6.70399 14.7202 6.95736 14.8665L7.31569 15.0748C7.56881 15.221 7.77904 15.4311 7.92531 15.6841C8.07157 15.9372 8.14872 16.2242 8.14902 16.5165V16.6665C8.14902 17.1085 8.32462 17.5325 8.63718 17.845C8.94974 18.1576 9.37366 18.3332 9.81569 18.3332H10.1824C10.6244 18.3332 11.0483 18.1576 11.3609 17.845C11.6734 17.5325 11.849 17.1085 11.849 16.6665V16.5165C11.8493 16.2242 11.9265 15.9372 12.0727 15.6841C12.219 15.4311 12.4292 15.221 12.6824 15.0748L13.0407 14.8665C13.2941 14.7202 13.5815 14.6432 13.874 14.6432C14.1666 14.6432 14.454 14.7202 14.7074 14.8665L14.8324 14.9332C15.2148 15.1538 15.6692 15.2136 16.0957 15.0996C16.5222 14.9855 16.8861 14.7069 17.1074 14.3248L17.2907 13.9998C17.5113 13.6174 17.5712 13.163 17.4571 12.7365C17.343 12.31 17.0644 11.9461 16.6824 11.7248L16.5574 11.6582C16.303 11.5113 16.092 11.2999 15.9457 11.0453C15.7993 10.7906 15.7229 10.5019 15.724 10.2082V9.7915C15.7229 9.49782 15.7993 9.20904 15.9457 8.95441C16.092 8.69978 16.303 8.48834 16.5574 8.3415L16.6824 8.2665C17.0644 8.04521 17.343 7.68137 17.4571 7.25484C17.5712 6.82831 17.5113 6.37395 17.2907 5.9915L17.1074 5.67484C16.8861 5.29278 16.5222 5.01415 16.0957 4.90009C15.6692 4.78604 15.2148 4.84589 14.8324 5.0665L14.7074 5.13317C14.454 5.27945 14.1666 5.35646 13.874 5.35646C13.5815 5.35646 13.2941 5.27945 13.0407 5.13317L12.6824 4.92484C12.4292 4.7787 12.219 4.56857 12.0727 4.31553C11.9265 4.0625 11.8493 3.77544 11.849 3.48317V3.33317C11.849 2.89114 11.6734 2.46722 11.3609 2.15466C11.0483 1.8421 10.6244 1.6665 10.1824 1.6665Z" stroke="#757575" stroke-width="1.66667" stroke-linecap="round" stroke-linejoin="round"/>
<path d="M10 12.5C11.3807 12.5 12.5 11.3807 12.5 10C12.5 8.61929 11.3807 7.5 10 7.5C8.61929 7.5 7.5 8.61929 7.5 10C7.5 11.3807 8.61929 12.5 10 12.5Z" stroke="#757575" stroke-width="1.66667" stroke-linecap="round" stroke-linejoin="round"/>
</svg>
