<svg width="32" height="32" viewBox="0 0 32 32" fill="none" xmlns="http://www.w3.org/2000/svg">
<path d="M26 4H6C5.46957 4 4.96086 4.21071 4.58579 4.58579C4.21071 4.96086 4 5.46957 4 6V26C4 26.5304 4.21071 27.0391 4.58579 27.4142C4.96086 27.7893 5.46957 28 6 28H26C26.5304 28 27.0391 27.7893 27.4142 27.4142C27.7893 27.0391 28 26.5304 28 26V6C28 5.46957 27.7893 4.96086 27.4142 4.58579C27.0391 4.21071 26.5304 4 26 4ZM11 20C11.1978 20 11.3911 20.0586 11.5556 20.1685C11.72 20.2784 11.8482 20.4346 11.9239 20.6173C11.9996 20.8 12.0194 21.0011 11.9808 21.1951C11.9422 21.3891 11.847 21.5673 11.7071 21.7071C11.5673 21.847 11.3891 21.9422 11.1951 21.9808C11.0011 22.0194 10.8 21.9996 10.6173 21.9239C10.4346 21.8482 10.2784 21.72 10.1685 21.5556C10.0586 21.3911 10 21.1978 10 21C10 20.7348 10.1054 20.4804 10.2929 20.2929C10.4804 20.1054 10.7348 20 11 20ZM6 6H10V18.1725C9.33279 18.4084 8.77045 18.8726 8.41237 19.483C8.05429 20.0934 7.92353 20.8107 8.0432 21.5082C8.16288 22.2057 8.52527 22.8385 9.06634 23.2946C9.60741 23.7507 10.2923 24.0009 11 24.0009C11.7077 24.0009 12.3926 23.7507 12.9337 23.2946C13.4747 22.8385 13.8371 22.2057 13.9568 21.5082C14.0765 20.8107 13.9457 20.0934 13.5876 19.483C13.2296 18.8726 12.6672 18.4084 12 18.1725V14.4137L18 20.4137V26H6V6ZM26 26H20V20C20.0001 19.8686 19.9743 19.7385 19.9241 19.6171C19.8739 19.4958 19.8003 19.3854 19.7075 19.2925L12 11.5863V6H16V9C15.9999 9.13136 16.0257 9.26145 16.0759 9.38285C16.1261 9.50424 16.1997 9.61456 16.2925 9.7075L18.2925 11.7075C18.0988 12.1108 17.9988 12.5526 18 13C18 13.5933 18.1759 14.1734 18.5056 14.6667C18.8352 15.1601 19.3038 15.5446 19.8519 15.7716C20.4001 15.9987 21.0033 16.0581 21.5853 15.9424C22.1672 15.8266 22.7018 15.5409 23.1213 15.1213C23.5409 14.7018 23.8266 14.1672 23.9424 13.5853C24.0581 13.0033 23.9987 12.4001 23.7716 11.8519C23.5446 11.3038 23.1601 10.8352 22.6667 10.5056C22.1734 10.1759 21.5933 10 21 10C20.5525 9.99922 20.1107 10.0996 19.7075 10.2937L18 8.58625V6H26V26ZM21 12C21.1978 12 21.3911 12.0586 21.5556 12.1685C21.72 12.2784 21.8482 12.4346 21.9239 12.6173C21.9996 12.8 22.0194 13.0011 21.9808 13.1951C21.9422 13.3891 21.847 13.5673 21.7071 13.7071C21.5673 13.847 21.3891 13.9422 21.1951 13.9808C21.0011 14.0194 20.8 13.9996 20.6173 13.9239C20.4346 13.8482 20.2784 13.72 20.1685 13.5556C20.0586 13.3911 20 13.1978 20 13C20 12.7348 20.1054 12.4804 20.2929 12.2929C20.4804 12.1054 20.7348 12 21 12Z" fill="#343330"/>
</svg>
