<svg width="20" height="20" viewBox="0 0 20 20" fill="none" xmlns="http://www.w3.org/2000/svg">
	<path d="M3.125 6.876H5.70312C5.84081 7.41376 6.15356 7.89039 6.59207 8.23077C7.03057 8.57115 7.56989 8.7559 8.125 8.7559C8.68011 8.7559 9.21943 8.57115 9.65793 8.23077C10.0964 7.89039 10.4092 7.41376 10.5469 6.876H16.875C17.0408 6.876 17.1997 6.81015 17.3169 6.69294C17.4342 6.57573 17.5 6.41676 17.5 6.251C17.5 6.08524 17.4342 5.92626 17.3169 5.80905C17.1997 5.69184 17.0408 5.626 16.875 5.626H10.5469C10.4092 5.08824 10.0964 4.6116 9.65793 4.27122C9.21943 3.93085 8.68011 3.74609 8.125 3.74609C7.56989 3.74609 7.03057 3.93085 6.59207 4.27122C6.15356 4.6116 5.84081 5.08824 5.70312 5.626H3.125C2.95924 5.626 2.80027 5.69184 2.68306 5.80905C2.56585 5.92626 2.5 6.08524 2.5 6.251C2.5 6.41676 2.56585 6.57573 2.68306 6.69294C2.80027 6.81015 2.95924 6.876 3.125 6.876ZM8.125 5.001C8.37223 5.001 8.6139 5.07431 8.81946 5.21166C9.02502 5.34901 9.18524 5.54423 9.27985 5.77264C9.37446 6.00105 9.39921 6.25238 9.35098 6.49486C9.30275 6.73733 9.1837 6.96006 9.00888 7.13488C8.83407 7.30969 8.61134 7.42875 8.36886 7.47698C8.12639 7.52521 7.87505 7.50045 7.64665 7.40585C7.41824 7.31124 7.22301 7.15102 7.08566 6.94546C6.94831 6.7399 6.875 6.49822 6.875 6.251C6.875 5.91948 7.0067 5.60153 7.24112 5.36711C7.47554 5.13269 7.79348 5.001 8.125 5.001ZM16.875 13.126H15.5469C15.4092 12.5882 15.0964 12.1116 14.6579 11.7712C14.2194 11.4308 13.6801 11.2461 13.125 11.2461C12.5699 11.2461 12.0306 11.4308 11.5921 11.7712C11.1536 12.1116 10.8408 12.5882 10.7031 13.126H3.125C2.95924 13.126 2.80027 13.1918 2.68306 13.3091C2.56585 13.4263 2.5 13.5852 2.5 13.751C2.5 13.9168 2.56585 14.0757 2.68306 14.1929C2.80027 14.3101 2.95924 14.376 3.125 14.376H10.7031C10.8408 14.9138 11.1536 15.3904 11.5921 15.7308C12.0306 16.0711 12.5699 16.2559 13.125 16.2559C13.6801 16.2559 14.2194 16.0711 14.6579 15.7308C15.0964 15.3904 15.4092 14.9138 15.5469 14.376H16.875C17.0408 14.376 17.1997 14.3101 17.3169 14.1929C17.4342 14.0757 17.5 13.9168 17.5 13.751C17.5 13.5852 17.4342 13.4263 17.3169 13.3091C17.1997 13.1918 17.0408 13.126 16.875 13.126ZM13.125 15.001C12.8778 15.001 12.6361 14.9277 12.4305 14.7903C12.225 14.653 12.0648 14.4578 11.9701 14.2294C11.8755 14.0009 11.8508 13.7496 11.899 13.5071C11.9472 13.2647 12.0663 13.0419 12.2411 12.8671C12.4159 12.6923 12.6387 12.5732 12.8811 12.525C13.1236 12.4768 13.3749 12.5015 13.6034 12.5961C13.8318 12.6908 14.027 12.851 14.1643 13.0565C14.3017 13.2621 14.375 13.5038 14.375 13.751C14.375 14.0825 14.2433 14.4005 14.0089 14.6349C13.7745 14.8693 13.4565 15.001 13.125 15.001Z" fill="#474747"/>
</svg>
