<svg width="24" height="24" viewBox="0 0 18 22" fill="none" xmlns="http://www.w3.org/2000/svg">
<path fill-rule="evenodd" clip-rule="evenodd" d="M7.948 0.250001H10.052C10.9505 0.249972 11.6997 0.249947 12.2945 0.329913C12.9223 0.414318 13.4891 0.599989 13.9445 1.05546C14.4 1.51093 14.5857 2.07773 14.6701 2.70552C14.734 3.18061 14.7468 3.75423 14.7494 4.42375C15.4941 4.5639 16.1312 4.8279 16.6517 5.34835C17.2536 5.95027 17.5125 6.70814 17.6335 7.60825C17.75 8.47522 17.75 9.57754 17.75 10.9451V12.0962C17.75 13.2647 17.75 14.1991 17.6714 14.96C17.59 15.747 17.4197 16.4117 17.0406 17.0251C16.6615 17.6385 16.1431 18.0881 15.4756 18.5128C14.8303 18.9234 13.9945 19.3413 12.9493 19.8639L12.9131 19.882C12.8561 19.9105 12.7998 19.9387 12.7441 19.9665C11.153 20.7628 10.1236 21.2779 9 21.2779C7.87637 21.2779 6.84703 20.7628 5.25588 19.9665C5.20024 19.9387 5.14392 19.9105 5.08688 19.882L5.05069 19.8639C4.00554 19.3413 3.16974 18.9234 2.52437 18.5128C1.85691 18.0881 1.33853 17.6385 0.95941 17.0251C0.580292 16.4117 0.410016 15.747 0.328653 14.96C0.249982 14.1991 0.24999 13.2647 0.250001 12.0962L0.250001 10.9451C0.24998 9.57754 0.249963 8.47522 0.366524 7.60825C0.48754 6.70814 0.746434 5.95027 1.34835 5.34835C1.8688 4.8279 2.50586 4.5639 3.25063 4.42375C3.2532 3.75423 3.26604 3.18061 3.32991 2.70552C3.41432 2.07773 3.59999 1.51093 4.05546 1.05546C4.51093 0.599989 5.07773 0.414318 5.70552 0.329913C6.3003 0.249947 7.04952 0.249972 7.948 0.250001ZM4.75163 4.27562C5.39049 4.24998 6.11946 4.24999 6.94512 4.25H11.0549C11.8805 4.24999 12.6095 4.24998 13.2484 4.27562C13.2444 3.69342 13.2306 3.25606 13.1835 2.90539C13.1214 2.44393 13.0142 2.24644 12.8839 2.11612C12.7536 1.9858 12.5561 1.87858 12.0946 1.81654C11.6116 1.7516 10.964 1.75 10 1.75H8C7.03599 1.75 6.38843 1.7516 5.90539 1.81654C5.44393 1.87858 5.24643 1.9858 5.11612 2.11612C4.9858 2.24644 4.87858 2.44393 4.81654 2.90539C4.76939 3.25606 4.75563 3.69342 4.75163 4.27562ZM3.80812 5.85315C3.07435 5.9518 2.68577 6.13225 2.40901 6.40901C2.13225 6.68578 1.9518 7.07435 1.85315 7.80812C1.75159 8.56347 1.75 9.56459 1.75 11V12.0557C1.75 13.2739 1.75093 14.1309 1.8207 14.8058C1.88868 15.4633 2.01711 15.8833 2.23539 16.2365C2.45367 16.5897 2.7719 16.8924 3.32962 17.2472C3.902 17.6114 4.6681 17.9955 5.7577 18.5403C7.58066 19.4518 8.27438 19.7779 9 19.7779C9.72563 19.7779 10.4193 19.4518 12.2423 18.5403C13.3319 17.9955 14.098 17.6114 14.6704 17.2472C15.2281 16.8924 15.5463 16.5897 15.7646 16.2365C15.9829 15.8833 16.1113 15.4633 16.1793 14.8058C16.2491 14.1309 16.25 13.2739 16.25 12.0557V11C16.25 9.56459 16.2484 8.56347 16.1469 7.80812C16.0482 7.07435 15.8678 6.68578 15.591 6.40901C15.3142 6.13225 14.9257 5.9518 14.1919 5.85315C13.4365 5.7516 12.4354 5.75 11 5.75H7C5.56459 5.75 4.56347 5.7516 3.80812 5.85315ZM9 10.0345C8.94187 10.1351 8.87722 10.251 8.80104 10.3877L8.70273 10.564C8.69579 10.5765 8.68836 10.5901 8.68039 10.6047C8.60186 10.7483 8.47182 10.9861 8.25497 11.1507C8.03359 11.3188 7.7673 11.3766 7.61158 11.4104C7.59599 11.4138 7.5815 11.4169 7.56828 11.4199L7.37737 11.4631C7.2022 11.5028 7.05951 11.5351 6.9375 11.5658C7.01686 11.6634 7.11995 11.7847 7.25403 11.9415L7.38417 12.0937C7.39341 12.1045 7.40345 12.1161 7.41415 12.1284C7.52208 12.2527 7.69634 12.4535 7.77693 12.7126C7.85656 12.9687 7.8291 13.2324 7.81177 13.3988C7.81004 13.4154 7.80841 13.431 7.807 13.4456L7.78732 13.6487C7.76908 13.8369 7.7549 13.9872 7.74545 14.1094C7.84966 14.0635 7.9682 14.0089 8.10903 13.9441L8.28777 13.8618C8.30008 13.8561 8.31356 13.8498 8.32814 13.8429C8.47165 13.7752 8.72133 13.6575 9 13.6575C9.27867 13.6575 9.52836 13.7752 9.67186 13.8429C9.68644 13.8498 9.69992 13.8561 9.71223 13.8618L9.89097 13.9441C10.0318 14.0089 10.1503 14.0635 10.2545 14.1094C10.2451 13.9872 10.2309 13.8369 10.2127 13.6487L10.193 13.4456C10.1916 13.4311 10.19 13.4154 10.1882 13.3988C10.1709 13.2324 10.1434 12.9687 10.2231 12.7126C10.3037 12.4535 10.4779 12.2527 10.5859 12.1284C10.5966 12.1161 10.6066 12.1045 10.6158 12.0937L10.746 11.9415C10.8801 11.7847 10.9831 11.6634 11.0625 11.5658C10.9405 11.5351 10.7978 11.5028 10.6226 11.4631L10.4317 11.4199C10.4185 11.4169 10.404 11.4138 10.3884 11.4104C10.2327 11.3766 9.96641 11.3188 9.74503 11.1507C9.52818 10.9861 9.39814 10.7483 9.31961 10.6047C9.31164 10.5901 9.30421 10.5765 9.29727 10.564L9.19896 10.3877C9.12278 10.251 9.05813 10.1351 9 10.0345ZM8.0135 8.79963C8.18566 8.57481 8.4983 8.25 9 8.25C9.5017 8.25 9.81434 8.57481 9.98651 8.79963C10.1508 9.01421 10.3163 9.31124 10.486 9.61577C10.4937 9.62961 10.5014 9.64347 10.5091 9.65734L10.6075 9.83369C10.6303 9.87459 10.6482 9.90677 10.6639 9.9343C10.6912 9.94071 10.723 9.94792 10.7627 9.95691L10.9536 10.0001C10.9693 10.0036 10.9849 10.0072 11.0006 10.0107C11.3284 10.0848 11.6542 10.1584 11.9042 10.257C12.1804 10.3658 12.5547 10.5777 12.6989 11.0416C12.8407 11.4973 12.6618 11.8834 12.5056 12.1315C12.3611 12.3611 12.1414 12.6179 11.9165 12.8808C11.9063 12.8926 11.8961 12.9045 11.886 12.9164L11.7558 13.0686C11.7213 13.1089 11.6954 13.1394 11.6735 13.1657C11.6764 13.202 11.6805 13.2443 11.686 13.3009L11.7057 13.504C11.7072 13.5195 11.7087 13.5349 11.7102 13.5504C11.7444 13.9023 11.7774 14.2424 11.7653 14.5145C11.7526 14.7997 11.6841 15.2315 11.2969 15.5254C10.8975 15.8286 10.4564 15.7626 10.1767 15.6824C9.91895 15.6086 9.6144 15.4682 9.30766 15.3269C9.29299 15.3201 9.27831 15.3134 9.26363 15.3066L9.08488 15.2243C9.05144 15.2089 9.02395 15.1963 9 15.1854C8.97605 15.1963 8.94857 15.2089 8.91512 15.2243L8.73638 15.3066C8.72168 15.3134 8.70699 15.3201 8.6923 15.3269C8.38557 15.4682 8.08104 15.6086 7.8233 15.6824C7.54358 15.7626 7.10247 15.8286 6.70306 15.5254C6.3159 15.2315 6.24743 14.7997 6.23473 14.5145C6.22261 14.2424 6.25564 13.9023 6.28981 13.5504C6.29131 13.5349 6.29282 13.5195 6.29432 13.504L6.31399 13.3009C6.31948 13.2443 6.32356 13.202 6.32655 13.1657C6.30465 13.1394 6.27866 13.1089 6.24418 13.0686L6.11403 12.9164C6.10385 12.9045 6.09367 12.8926 6.08351 12.8807C5.85859 12.6179 5.63891 12.3611 5.49436 12.1315C5.33817 11.8834 5.15934 11.4973 5.30106 11.0416C5.44532 10.5777 5.81962 10.3658 6.09576 10.257C6.34584 10.1584 6.67163 10.0848 6.99943 10.0107C7.01507 10.0072 7.03071 10.0036 7.04635 10.0001L7.23726 9.95691C7.27698 9.94792 7.30877 9.94071 7.3361 9.9343C7.3518 9.90677 7.36975 9.8746 7.39255 9.83369L7.49086 9.65734C7.49859 9.64347 7.50631 9.62962 7.51402 9.61578C7.68368 9.31125 7.84917 9.01422 8.0135 8.79963Z" fill="#6A0BFF"/>
</svg>
