<svg width="20" height="20" viewBox="0 0 20 20" fill="none" xmlns="http://www.w3.org/2000/svg">
<g id="Outline / Astronomy / Stars Minimalistic">
<g id="Vector">
<path fill-rule="evenodd" clip-rule="evenodd" d="M4.56699 1.58593C4.56699 1.5859 4.567 1.58595 4.56699 1.58593C4.52823 1.39032 4.35625 1.24933 4.15681 1.25C3.95734 1.25068 3.78633 1.39264 3.74894 1.58857L3.74866 1.59L3.74707 1.59799C3.74556 1.60546 3.74316 1.61713 3.73985 1.63255C3.73323 1.6634 3.72301 1.7091 3.7091 1.76599C3.68118 1.88018 3.63892 2.03731 3.58174 2.20887C3.46117 2.5707 3.29689 2.92564 3.10834 3.11546C2.91979 3.30529 2.56597 3.47196 2.20497 3.59498C2.0338 3.65331 1.87696 3.69664 1.76295 3.72533C1.70616 3.73963 1.66053 3.75015 1.62972 3.75698C1.61433 3.76039 1.60267 3.76287 1.59521 3.76443L1.58724 3.76608L1.58593 3.76634C1.39025 3.80505 1.24933 3.97704 1.25 4.17652C1.25068 4.376 1.39264 4.54701 1.58857 4.58439L1.59 4.58467L1.59799 4.58627C1.60546 4.58777 1.61713 4.59018 1.63255 4.59348C1.6634 4.6001 1.7091 4.61032 1.76599 4.62423C1.88018 4.65215 2.03731 4.69442 2.20887 4.75159C2.5707 4.87217 2.92564 5.03645 3.11546 5.225C3.30529 5.41355 3.47196 5.76736 3.59498 6.12837C3.65331 6.29954 3.69664 6.45638 3.72533 6.57038C3.73963 6.62718 3.75015 6.6728 3.75698 6.70361C3.76039 6.71901 3.76287 6.73066 3.76443 6.73812L3.76608 6.7461L3.76634 6.74741C3.80505 6.94308 3.97704 7.08401 4.17652 7.08333C4.376 7.08266 4.54701 6.9407 4.58439 6.74477L4.58467 6.74333L4.58627 6.73535C4.58777 6.72788 4.59018 6.7162 4.59348 6.70079C4.6001 6.66993 4.61032 6.62424 4.62423 6.56735C4.65215 6.45315 4.69442 6.29602 4.75159 6.12446C4.87217 5.76263 5.03645 5.4077 5.225 5.21787C5.41355 5.02804 5.76736 4.86137 6.12837 4.73835C6.29954 4.68002 6.45638 4.63669 6.57038 4.608C6.62718 4.59371 6.6728 4.58318 6.70361 4.57635C6.71901 4.57294 6.73066 4.57046 6.73812 4.5689L6.7461 4.56726L6.74741 4.56699C6.74736 4.567 6.74745 4.56698 6.74741 4.56699C6.94299 4.52821 7.084 4.35623 7.08333 4.15681C7.08266 3.95734 6.9407 3.78633 6.74477 3.74894L6.74333 3.74866L6.73535 3.74707C6.72788 3.74556 6.7162 3.74316 6.70079 3.73985C6.66993 3.73323 6.62424 3.72301 6.56735 3.7091C6.45315 3.68118 6.29602 3.63892 6.12446 3.58174C5.76263 3.46117 5.4077 3.29689 5.21787 3.10834C5.02804 2.91979 4.86137 2.56597 4.73835 2.20497C4.68002 2.0338 4.63669 1.87696 4.608 1.76295C4.59371 1.70616 4.58318 1.66053 4.57635 1.62972C4.57294 1.61433 4.57046 1.60267 4.5689 1.59521L4.56726 1.58724L4.56699 1.58593ZM5.33012 4.16274C5.07779 4.04419 4.82432 3.89199 4.63061 3.69958C4.4369 3.50717 4.28298 3.25474 4.16274 3.00322C4.04419 3.25555 3.89199 3.50901 3.69958 3.70273C3.50717 3.89644 3.25474 4.05035 3.00322 4.1706C3.25555 4.28914 3.50901 4.44135 3.70273 4.63375C3.89644 4.82616 4.05035 5.07859 4.1706 5.33012C4.28914 5.07779 4.44135 4.82432 4.63375 4.63061C4.82616 4.4369 5.07859 4.28298 5.33012 4.16274Z" fill="#6A0BFF"/>
<path fill-rule="evenodd" clip-rule="evenodd" d="M15.8333 2.70833C16.1785 2.70833 16.4583 2.98816 16.4583 3.33333V3.54167H16.6667C17.0118 3.54167 17.2917 3.82149 17.2917 4.16667C17.2917 4.51184 17.0118 4.79167 16.6667 4.79167H16.4583V5C16.4583 5.34518 16.1785 5.625 15.8333 5.625C15.4882 5.625 15.2083 5.34518 15.2083 5V4.79167H15C14.6548 4.79167 14.375 4.51184 14.375 4.16667C14.375 3.82149 14.6548 3.54167 15 3.54167H15.2083V3.33333C15.2083 2.98816 15.4882 2.70833 15.8333 2.70833ZM9.98957 5.15023C9.71584 5.50768 9.40486 6.06223 8.94607 6.88525L8.71395 7.30165C8.69897 7.32851 8.68415 7.35522 8.66942 7.38175C8.4601 7.75881 8.27084 8.09971 7.96474 8.33209C7.65495 8.56726 7.27806 8.65178 6.86991 8.74332C6.84121 8.74976 6.81235 8.75623 6.78335 8.76279L6.3326 8.86478C5.44023 9.06669 4.84387 9.20345 4.43786 9.36346C4.04363 9.51882 3.9908 9.6343 3.97082 9.69857C3.94871 9.76965 3.93045 9.90828 4.16699 10.284C4.40779 10.6665 4.8161 11.1465 5.4234 11.8567L5.73069 12.216C5.74988 12.2384 5.76896 12.2607 5.7879 12.2828C6.06888 12.6103 6.31954 12.9024 6.43471 13.2728C6.54911 13.6407 6.51116 14.0262 6.4681 14.4635C6.4652 14.493 6.46227 14.5227 6.45937 14.5527L6.41291 15.0321C6.32118 15.9788 6.26053 16.6205 6.28101 17.0803C6.30144 17.5391 6.39755 17.632 6.44197 17.6657C6.47618 17.6917 6.568 17.759 6.97842 17.6414C7.39687 17.5215 7.95663 17.2658 8.79221 16.881L9.21424 16.6867C9.24196 16.674 9.26951 16.6612 9.29693 16.6485C9.67632 16.4729 10.0298 16.3093 10.4167 16.3093C10.8035 16.3093 11.157 16.4729 11.5364 16.6485C11.5638 16.6612 11.5914 16.674 11.6191 16.6867L12.0411 16.881C12.8767 17.2658 13.4365 17.5215 13.8549 17.6414C14.2653 17.759 14.3572 17.6917 14.3914 17.6657C14.4358 17.632 14.5319 17.5391 14.5523 17.0803C14.5728 16.6205 14.5122 15.9788 14.4204 15.0321L14.374 14.5527C14.3711 14.5227 14.3681 14.493 14.3652 14.4635C14.3222 14.0262 14.2842 13.6407 14.3986 13.2728C14.5138 12.9024 14.7645 12.6103 15.0454 12.2827C15.0644 12.2607 15.0835 12.2384 15.1026 12.216L15.4099 11.8567C16.0172 11.1465 16.4255 10.6665 16.6663 10.284C16.9029 9.90829 16.8846 9.76965 16.8625 9.69857C16.8425 9.6343 16.7897 9.51882 16.3955 9.36346C15.9895 9.20345 15.3931 9.06669 14.5007 8.86478L14.05 8.76279C14.021 8.75623 13.9921 8.74976 13.9634 8.74332C13.5553 8.65178 13.1784 8.56726 12.8686 8.33209C12.5625 8.09971 12.3732 7.7588 12.1639 7.38175C12.1492 7.35522 12.1344 7.32851 12.1194 7.30165L11.8873 6.88525C11.4285 6.06223 11.1175 5.50768 10.8438 5.15023C10.5703 4.79319 10.4523 4.79167 10.4167 4.79167C10.381 4.79167 10.263 4.79319 9.98957 5.15023ZM8.99714 4.39024C9.34 3.94252 9.7816 3.54167 10.4167 3.54167C11.0517 3.54167 11.4933 3.94252 11.8362 4.39024C12.1722 4.82896 12.5268 5.46517 12.9539 6.23151L13.2112 6.69302C13.4933 7.19912 13.5545 7.28342 13.6244 7.33647C13.6904 7.38654 13.777 7.41943 14.3258 7.54361L14.8283 7.6573C15.6553 7.84438 16.3474 8.00093 16.8538 8.2005C17.3825 8.40887 17.8689 8.72517 18.0561 9.32739C18.2413 9.92279 18.0297 10.4646 17.7242 10.95C17.4286 11.4194 16.9587 11.9689 16.393 12.6304L16.0526 13.0284C15.6814 13.4626 15.6211 13.551 15.5922 13.644C15.5625 13.7396 15.5621 13.8534 15.6181 14.4322L15.6694 14.9614C15.7551 15.8455 15.826 16.5767 15.8011 17.136C15.7757 17.7068 15.6454 18.2831 15.1472 18.6613C14.6388 19.0472 14.0515 18.998 13.5106 18.8431C12.9886 18.6935 12.3411 18.3953 11.567 18.0388L11.0963 17.8221C10.5803 17.5846 10.4933 17.5593 10.4167 17.5593C10.3401 17.5593 10.253 17.5846 9.73703 17.8221L9.26638 18.0388C8.49222 18.3953 7.84468 18.6935 7.32273 18.8431C6.78185 18.998 6.19455 19.0472 5.68616 18.6613C5.18797 18.2831 5.05767 17.7068 5.03225 17.136C5.00733 16.5767 5.0782 15.8456 5.1639 14.9615L5.21519 14.4322C5.27128 13.8534 5.27083 13.7396 5.24109 13.644C5.21219 13.551 5.15197 13.4626 4.78069 13.0284L4.44031 12.6304C3.87461 11.9689 3.40468 11.4194 3.10915 10.95C2.80362 10.4646 2.59205 9.92279 2.7772 9.32739C2.96447 8.72517 3.45083 8.40887 3.97956 8.2005C4.48598 8.00093 5.17801 7.84438 6.00502 7.6573L6.50749 7.54361C7.05632 7.41943 7.14297 7.38654 7.20893 7.33647C7.27882 7.28342 7.34001 7.19912 7.62213 6.69302L7.87939 6.23151C8.30655 5.46517 8.66117 4.82896 8.99714 4.39024Z" fill="#6A0BFF"/>
</g>
</g>
</svg>
