<svg viewBox="0 0 40 41" fill="none" xmlns="http://www.w3.org/2000/svg">
<rect y="0.5" width="40" height="40" rx="20"/>
<path d="M30.007 13.2292L20.257 9.9792C20.0902 9.9236 19.9098 9.9236 19.743 9.9792L9.99305 13.2292C9.83126 13.2831 9.69055 13.3866 9.59084 13.525C9.49113 13.6633 9.43749 13.8295 9.4375 14.0001V22.1251C9.4375 22.3405 9.5231 22.5472 9.67548 22.6996C9.82785 22.852 10.0345 22.9376 10.25 22.9376C10.4655 22.9376 10.6722 22.852 10.8245 22.6996C10.9769 22.5472 11.0625 22.3405 11.0625 22.1251V15.1274L14.474 16.2639C13.5676 17.7282 13.2794 19.4924 13.6726 21.1691C14.0658 22.8457 15.1083 24.2978 16.5712 25.2065C14.7431 25.9235 13.1628 27.2205 12.007 28.9937C11.9469 29.0831 11.9052 29.1835 11.8842 29.2891C11.8632 29.3947 11.8635 29.5034 11.8849 29.609C11.9063 29.7145 11.9485 29.8147 12.009 29.9038C12.0695 29.9928 12.1471 30.069 12.2373 30.1278C12.3275 30.1867 12.4284 30.227 12.5344 30.2464C12.6403 30.2659 12.749 30.2641 12.8542 30.2412C12.9594 30.2182 13.059 30.1746 13.1472 30.1129C13.2354 30.0511 13.3104 29.9724 13.368 29.8814C14.8985 27.5333 17.3157 26.1876 20 26.1876C22.6843 26.1876 25.1015 27.5333 26.632 29.8814C26.7512 30.0585 26.9353 30.1816 27.1445 30.2241C27.3537 30.2666 27.5712 30.225 27.75 30.1084C27.9288 29.9917 28.0545 29.8094 28.1 29.6009C28.1455 29.3923 28.107 29.1742 27.993 28.9937C26.8372 27.2205 25.2508 25.9235 23.4287 25.2065C24.8903 24.2978 25.9318 22.8467 26.325 21.1713C26.7181 19.4958 26.4308 17.7329 25.526 16.269L30.007 14.776C30.1688 14.7221 30.3095 14.6186 30.4093 14.4803C30.509 14.3419 30.5627 14.1757 30.5627 14.0051C30.5627 13.8346 30.509 13.6683 30.4093 13.53C30.3095 13.3916 30.1688 13.2882 30.007 13.2343V13.2292ZM24.875 19.6876C24.8752 20.4583 24.6927 21.2181 24.3424 21.9046C23.9921 22.5911 23.4841 23.1848 22.8599 23.6369C22.2358 24.089 21.5133 24.3868 20.7518 24.5056C19.9903 24.6245 19.2115 24.5611 18.4793 24.3207C17.747 24.0803 17.0822 23.6696 16.5393 23.1225C15.9965 22.5754 15.5911 21.9074 15.3565 21.1733C15.1218 20.4392 15.0645 19.6599 15.1894 18.8993C15.3142 18.1388 15.6176 17.4187 16.0746 16.7981L19.743 18.0169C19.9098 18.0725 20.0902 18.0725 20.257 18.0169L23.9254 16.7981C24.5427 17.635 24.8755 18.6477 24.875 19.6876ZM20 16.3939L12.8195 14.0001L20 11.6062L27.1805 14.0001L20 16.3939Z" fill="white"/>
</svg>
