<svg width="39" height="39" viewBox="0 0 39 39" fill="none" xmlns="http://www.w3.org/2000/svg">
<path d="M33.9169 15.7904L33.9041 15.7771C33.3527 15.2008 32.7853 14.6078 32.5704 14.0859C32.3704 13.6052 32.3583 12.8089 32.3465 12.0369V12.0368L32.3464 12.0323L32.3463 12.0266C32.3243 10.5901 32.2993 8.96355 31.1679 7.83214C30.0364 6.70073 28.4099 6.67573 26.9734 6.65366L26.9677 6.65357L26.9632 6.6535C26.1911 6.64174 25.3949 6.62961 24.9141 6.42964C24.3911 6.2137 23.7934 5.64183 23.2146 5.08791L23.2096 5.08312C22.193 4.10638 21.038 3 19.5 3C17.962 3 16.8084 4.10638 15.7904 5.08312L15.7771 5.09592C15.2008 5.64733 14.6078 6.21474 14.0859 6.42964C13.6082 6.62956 12.8092 6.64173 12.0374 6.65349L12.0323 6.65357L12.0266 6.65366C10.5901 6.67573 8.96356 6.70073 7.83214 7.83214C6.71622 8.94806 6.68377 10.5457 6.65489 11.9675L6.65357 12.0323L6.6535 12.0368C6.64174 12.8089 6.62961 13.6051 6.42964 14.0859C6.2137 14.6089 5.64184 15.2065 5.08793 15.7854L5.08792 15.7854L5.08312 15.7904C4.10638 16.807 3 17.962 3 19.5C3 21.038 4.10638 22.1916 5.08312 23.2096L5.09592 23.2229L5.09593 23.2229C5.64733 23.7992 6.21474 24.3922 6.42964 24.9141C6.62961 25.3949 6.64174 26.1911 6.6535 26.9632L6.65357 26.9677L6.65366 26.9734C6.67573 28.4099 6.70073 30.0364 7.83214 31.1679C8.96355 32.2993 10.5901 32.3243 12.0266 32.3463L12.0323 32.3464L12.0368 32.3465H12.0369C12.8089 32.3583 13.6052 32.3704 14.0859 32.5704C14.6089 32.7863 15.2065 33.3582 15.7854 33.9121L15.7854 33.9121L15.7904 33.9169C16.807 34.8936 17.962 36 19.5 36C21.038 36 22.1916 34.8936 23.2096 33.9169L23.2229 33.9041L23.2229 33.9041C23.7992 33.3527 24.3922 32.7853 24.9141 32.5704C25.3949 32.3704 26.1911 32.3583 26.9631 32.3465H26.9632L26.9677 32.3464L26.9734 32.3463C28.4099 32.3243 30.0364 32.2993 31.1679 31.1679C32.2993 30.0364 32.3243 28.4099 32.3463 26.9734L32.3464 26.9677L32.3465 26.9632V26.9631C32.3583 26.1911 32.3704 25.3949 32.5704 24.9141C32.7863 24.3911 33.3582 23.7934 33.9121 23.2146L33.9169 23.2096C34.8936 22.193 36 21.038 36 19.5C36 17.962 34.8936 16.8084 33.9169 15.7904Z" fill="#A66DFF"/>
<path d="M33.9169 15.7904L33.9041 15.7771C33.3527 15.2008 32.7853 14.6078 32.5704 14.0859C32.3704 13.6052 32.3583 12.8089 32.3465 12.0369V12.0368L32.3464 12.0323L32.3463 12.0266C32.3243 10.5901 32.2993 8.96355 31.1679 7.83214C30.0364 6.70073 28.4099 6.67573 26.9734 6.65366L26.9677 6.65357L26.9632 6.6535C26.1911 6.64174 25.3949 6.62961 24.9141 6.42964C24.3911 6.2137 23.7934 5.64183 23.2146 5.08791L23.2096 5.08312C22.193 4.10638 21.038 3 19.5 3C17.962 3 16.8084 4.10638 15.7904 5.08312L15.7771 5.09592C15.2008 5.64733 14.6078 6.21474 14.0859 6.42964C13.6082 6.62956 12.8092 6.64173 12.0374 6.65349L12.0323 6.65357L12.0266 6.65366C10.5901 6.67573 8.96356 6.70073 7.83214 7.83214C6.71622 8.94806 6.68377 10.5457 6.65489 11.9675L6.65357 12.0323L6.6535 12.0368C6.64174 12.8089 6.62961 13.6051 6.42964 14.0859C6.2137 14.6089 5.64184 15.2065 5.08793 15.7854L5.08792 15.7854L5.08312 15.7904C4.10638 16.807 3 17.962 3 19.5C3 21.038 4.10638 22.1916 5.08312 23.2096L5.09592 23.2229L5.09593 23.2229C5.64733 23.7992 6.21474 24.3922 6.42964 24.9141C6.62961 25.3949 6.64174 26.1911 6.6535 26.9632L6.65357 26.9677L6.65366 26.9734C6.67573 28.4099 6.70073 30.0364 7.83214 31.1679C8.96355 32.2993 10.5901 32.3243 12.0266 32.3463L12.0323 32.3464L12.0368 32.3465H12.0369C12.8089 32.3583 13.6052 32.3704 14.0859 32.5704C14.6089 32.7863 15.2065 33.3582 15.7854 33.9121L15.7854 33.9121L15.7904 33.9169C16.807 34.8936 17.962 36 19.5 36C21.038 36 22.1916 34.8936 23.2096 33.9169L23.2229 33.9041L23.2229 33.9041C23.7992 33.3527 24.3922 32.7853 24.9141 32.5704C25.3949 32.3704 26.1911 32.3583 26.9631 32.3465H26.9632L26.9677 32.3464L26.9734 32.3463C28.4099 32.3243 30.0364 32.2993 31.1679 31.1679C32.2993 30.0364 32.3243 28.4099 32.3463 26.9734L32.3464 26.9677L32.3465 26.9632V26.9631C32.3583 26.1911 32.3704 25.3949 32.5704 24.9141C32.7863 24.3911 33.3582 23.7934 33.9121 23.2146L33.9169 23.2096C34.8936 22.193 36 21.038 36 19.5C36 17.962 34.8936 16.8084 33.9169 15.7904Z" stroke="#6A0BFF"/>
<path d="M10.2 23.5V16.3H14.6V17.66H11.56V19.22H14V20.58H11.56V23.5H10.2ZM15.0027 23.5V18.1H16.2027V19.42L16.0727 19.25C16.1427 19.0633 16.2361 18.8933 16.3527 18.74C16.4694 18.5867 16.6127 18.46 16.7827 18.36C16.9127 18.28 17.0544 18.2183 17.2077 18.175C17.3611 18.1283 17.5194 18.1 17.6827 18.09C17.8461 18.0767 18.0094 18.08 18.1727 18.1V19.37C18.0227 19.3233 17.8477 19.3083 17.6477 19.325C17.4511 19.3383 17.2727 19.3833 17.1127 19.46C16.9527 19.5333 16.8177 19.6317 16.7077 19.755C16.5977 19.875 16.5144 20.0183 16.4577 20.185C16.4011 20.3483 16.3727 20.5333 16.3727 20.74V23.5H15.0027ZM21.0362 23.65C20.4828 23.65 19.9945 23.5317 19.5712 23.295C19.1512 23.055 18.8212 22.7267 18.5812 22.31C18.3445 21.89 18.2262 21.41 18.2262 20.87C18.2262 20.28 18.3428 19.7667 18.5762 19.33C18.8095 18.8933 19.1312 18.555 19.5412 18.315C19.9512 18.0717 20.4228 17.95 20.9562 17.95C21.5228 17.95 22.0045 18.0833 22.4012 18.35C22.7978 18.6167 23.0912 18.9917 23.2812 19.475C23.4712 19.9583 23.5378 20.5267 23.4812 21.18H22.1362V20.68C22.1362 20.13 22.0478 19.735 21.8712 19.495C21.6978 19.2517 21.4128 19.13 21.0162 19.13C20.5528 19.13 20.2112 19.2717 19.9912 19.555C19.7745 19.835 19.6662 20.25 19.6662 20.8C19.6662 21.3033 19.7745 21.6933 19.9912 21.97C20.2112 22.2433 20.5328 22.38 20.9562 22.38C21.2228 22.38 21.4512 22.3217 21.6412 22.205C21.8312 22.0883 21.9762 21.92 22.0762 21.7L23.4362 22.09C23.2328 22.5833 22.9112 22.9667 22.4712 23.24C22.0345 23.5133 21.5562 23.65 21.0362 23.65ZM19.2462 21.18V20.17H22.8262V21.18H19.2462ZM26.6202 23.65C26.0668 23.65 25.5785 23.5317 25.1552 23.295C24.7352 23.055 24.4052 22.7267 24.1652 22.31C23.9285 21.89 23.8102 21.41 23.8102 20.87C23.8102 20.28 23.9268 19.7667 24.1602 19.33C24.3935 18.8933 24.7152 18.555 25.1252 18.315C25.5352 18.0717 26.0068 17.95 26.5402 17.95C27.1068 17.95 27.5885 18.0833 27.9852 18.35C28.3818 18.6167 28.6752 18.9917 28.8652 19.475C29.0552 19.9583 29.1218 20.5267 29.0652 21.18H27.7202V20.68C27.7202 20.13 27.6318 19.735 27.4552 19.495C27.2818 19.2517 26.9968 19.13 26.6002 19.13C26.1368 19.13 25.7952 19.2717 25.5752 19.555C25.3585 19.835 25.2502 20.25 25.2502 20.8C25.2502 21.3033 25.3585 21.6933 25.5752 21.97C25.7952 22.2433 26.1168 22.38 26.5402 22.38C26.8068 22.38 27.0352 22.3217 27.2252 22.205C27.4152 22.0883 27.5602 21.92 27.6602 21.7L29.0202 22.09C28.8168 22.5833 28.4952 22.9667 28.0552 23.24C27.6185 23.5133 27.1402 23.65 26.6202 23.65ZM24.8302 21.18V20.17H28.4102V21.18H24.8302Z" fill="white"/>
</svg>
