<svg width="34" height="34" viewBox="0 0 34 34" fill="none" xmlns="http://www.w3.org/2000/svg">
<path d="M16.5833 32.4167C25.3278 32.4167 32.4167 25.3278 32.4167 16.5833C32.4167 7.83882 25.3278 0.75 16.5833 0.75C7.83882 0.75 0.75 7.83882 0.75 16.5833C0.75 25.3278 7.83882 32.4167 16.5833 32.4167Z" stroke="#6A0BFF" stroke-width="1.5" stroke-linecap="round" stroke-linejoin="round"/>
<path d="M16.5833 26.0833C21.83 26.0833 26.0833 21.83 26.0833 16.5833C26.0833 11.3366 21.83 7.08333 16.5833 7.08333C11.3366 7.08333 7.08333 11.3366 7.08333 16.5833C7.08333 21.83 11.3366 26.0833 16.5833 26.0833Z" stroke="#6A0BFF" stroke-width="1.5" stroke-linecap="round" stroke-linejoin="round"/>
<path d="M16.5833 19.75C18.3322 19.75 19.75 18.3322 19.75 16.5833C19.75 14.8344 18.3322 13.4167 16.5833 13.4167C14.8344 13.4167 13.4167 14.8344 13.4167 16.5833C13.4167 18.3322 14.8344 19.75 16.5833 19.75Z" stroke="#6A0BFF" stroke-width="1.5" stroke-linecap="round" stroke-linejoin="round"/>
</svg>
