<svg width="32" height="32" viewBox="0 0 32 32" fill="none" xmlns="http://www.w3.org/2000/svg">
	<path d="M29.6108 3.27352C29.4559 3.13973 29.2674 3.05075 29.0656 3.01617C28.8638 2.98159 28.6565 3.00271 28.4658 3.07727L3.1333 12.991C2.77428 13.1306 2.47033 13.3831 2.26721 13.7104C2.06409 14.0377 1.97278 14.4221 2.00705 14.8058C2.04131 15.1895 2.19929 15.5516 2.4572 15.8378C2.7151 16.1239 3.05898 16.3185 3.43705 16.3923L10.0008 17.681V24.9998C9.99951 25.3984 10.118 25.7883 10.3409 26.1188C10.5637 26.4493 10.8807 26.7053 11.2508 26.8535C11.6203 27.0044 12.0266 27.0406 12.417 26.9575C12.8073 26.8743 13.1636 26.6756 13.4396 26.3873L16.6046 23.1048L21.6258 27.4998C21.9881 27.8211 22.4553 27.9989 22.9396 27.9998C23.1518 27.9996 23.3626 27.9663 23.5646 27.901C23.8945 27.7963 24.1912 27.607 24.4252 27.352C24.6593 27.0969 24.8224 26.785 24.8983 26.4473L29.9721 4.37477C30.0174 4.17571 30.0078 3.96805 29.9442 3.77405C29.8805 3.58005 29.7653 3.40702 29.6108 3.27352ZM21.9683 7.77352L10.7696 15.7935L4.56955 14.5773L21.9683 7.77352ZM12.0008 24.9998V19.0648L15.0996 21.7823L12.0008 24.9998ZM22.9421 25.9998L12.6071 16.9373L27.4821 6.27602L22.9421 25.9998Z" fill="#343330"/>
</svg>
