<svg width="16" height="15" viewBox="0 0 16 15" fill="none" xmlns="http://www.w3.org/2000/svg">
<path fill-rule="evenodd" clip-rule="evenodd" d="M7.50016 0.833008C7.50016 0.556865 7.72402 0.333008 8.00016 0.333008C11.9582 0.333008 15.1668 3.54163 15.1668 7.49967C15.1668 11.4577 11.9582 14.6663 8.00016 14.6663C4.04212 14.6663 0.833496 11.4577 0.833496 7.49967C0.833496 7.22353 1.05735 6.99967 1.3335 6.99967C1.60964 6.99967 1.8335 7.22353 1.8335 7.49967C1.8335 10.9054 4.59441 13.6663 8.00016 13.6663C11.4059 13.6663 14.1668 10.9054 14.1668 7.49967C14.1668 4.09392 11.4059 1.33301 8.00016 1.33301C7.72402 1.33301 7.50016 1.10915 7.50016 0.833008ZM8.00016 4.99967C8.27631 4.99967 8.50016 5.22353 8.50016 5.49967V7.66634H10.6668C10.943 7.66634 11.1668 7.8902 11.1668 8.16634C11.1668 8.44248 10.943 8.66634 10.6668 8.66634H8.00016C7.72402 8.66634 7.50016 8.44248 7.50016 8.16634V5.49967C7.50016 5.22353 7.72402 4.99967 8.00016 4.99967Z" />
<path fill-rule="evenodd" clip-rule="evenodd" d="M6.06655 1.09803C6.16599 1.35565 6.03777 1.6451 5.78015 1.74455C5.68587 1.78095 5.59269 1.8196 5.50069 1.86044C5.24831 1.97248 4.95287 1.85871 4.84083 1.60632C4.72878 1.35393 4.84255 1.0585 5.09494 0.946455C5.20195 0.898952 5.31033 0.853988 5.42003 0.811642C5.67765 0.712198 5.9671 0.84042 6.06655 1.09803ZM3.7653 2.32652C3.95574 2.52648 3.94802 2.84297 3.74805 3.03341C3.67494 3.10304 3.60353 3.17445 3.5339 3.24756C3.34346 3.44753 3.02697 3.45525 2.82701 3.26481C2.62704 3.07437 2.61932 2.75788 2.80976 2.55791C2.8906 2.47302 2.97351 2.39012 3.0584 2.30927C3.25837 2.11883 3.57486 2.12655 3.7653 2.32652ZM2.10681 4.34034C2.3592 4.45239 2.47297 4.74782 2.36093 5.00021C2.32009 5.0922 2.28143 5.18538 2.24504 5.27967C2.14559 5.53728 1.85614 5.6655 1.59852 5.56606C1.34091 5.46661 1.21269 5.17716 1.31213 4.91955C1.35448 4.80985 1.39944 4.70146 1.44694 4.59445C1.55899 4.34206 1.85442 4.22829 2.10681 4.34034Z" />
</svg>
