<svg width="18" height="18" viewBox="0 0 18 18" fill="none" xmlns="http://www.w3.org/2000/svg">
<path d="M13.1665 5.04163C12.8213 5.04163 12.5415 5.32145 12.5415 5.66663V12.3333C12.5415 12.6785 12.8213 12.9583 13.1665 12.9583C13.5117 12.9583 13.7915 12.6785 13.7915 12.3333V5.66663C13.7915 5.32145 13.5117 5.04163 13.1665 5.04163Z" fill="#5E5E5E"/>
<path d="M4.20817 8.99996C4.20817 9.34514 4.48799 9.62496 4.83317 9.62496H9.15762L7.72456 11.058C7.48048 11.3021 7.48048 11.6978 7.72456 11.9419C7.96864 12.186 8.36437 12.186 8.60845 11.9419L11.1084 9.4419C11.2257 9.32469 11.2915 9.16572 11.2915 8.99996C11.2915 8.8342 11.2257 8.67523 11.1084 8.55802L8.60845 6.05802C8.36437 5.81394 7.96864 5.81394 7.72456 6.05802C7.48048 6.3021 7.48048 6.69782 7.72456 6.9419L9.15762 8.37496H4.83317C4.48799 8.37496 4.20817 8.65478 4.20817 8.99996Z" fill="#5E5E5E"/>
<path fill-rule="evenodd" clip-rule="evenodd" d="M8.95202 0.0416262C7.02836 0.0416154 5.52083 0.0416069 4.34459 0.199748C3.14065 0.361615 2.19063 0.699398 1.44495 1.44507C0.699276 2.19075 0.361493 3.14077 0.199626 4.34471C0.0414849 5.52095 0.0414934 7.02848 0.0415041 8.95214V9.04777C0.0414934 10.9714 0.0414849 12.479 0.199626 13.6552C0.361493 14.8592 0.699276 15.8092 1.44495 16.5548C2.19063 17.3005 3.14065 17.6383 4.34459 17.8002C5.52083 17.9583 7.02836 17.9583 8.95203 17.9583H9.04765C10.9713 17.9583 12.4788 17.9583 13.6551 17.8002C14.859 17.6383 15.8091 17.3005 16.5547 16.5548C17.3004 15.8092 17.6382 14.8592 17.8 13.6552C17.9582 12.479 17.9582 10.9714 17.9582 9.04777V8.95215C17.9582 7.02849 17.9582 5.52095 17.8 4.34471C17.6382 3.14077 17.3004 2.19075 16.5547 1.44507C15.8091 0.699398 14.859 0.361615 13.6551 0.199748C12.4788 0.0416069 10.9713 0.0416154 9.04765 0.0416262H8.95202ZM2.32883 2.32896C2.80355 1.85424 3.44582 1.58183 4.51115 1.4386C5.59447 1.29295 7.01798 1.29163 8.99984 1.29163C10.9817 1.29163 12.4052 1.29295 13.4885 1.4386C14.5539 1.58183 15.1961 1.85424 15.6708 2.32896C16.1456 2.80367 16.418 3.44594 16.5612 4.51127C16.7068 5.59459 16.7082 7.01811 16.7082 8.99996C16.7082 10.9818 16.7068 12.4053 16.5612 13.4886C16.418 14.554 16.1456 15.1962 15.6708 15.671C15.1961 16.1457 14.5539 16.4181 13.4885 16.5613C12.4052 16.707 10.9817 16.7083 8.99984 16.7083C7.01798 16.7083 5.59447 16.707 4.51115 16.5613C3.44582 16.4181 2.80355 16.1457 2.32883 15.671C1.85412 15.1962 1.58171 14.554 1.43848 13.4886C1.29283 12.4053 1.2915 10.9818 1.2915 8.99996C1.2915 7.01811 1.29283 5.59459 1.43848 4.51127C1.58171 3.44594 1.85412 2.80367 2.32883 2.32896Z" fill="#5E5E5E"/>
</svg>
