<svg width="32" height="32" viewBox="0 0 32 32" fill="none" xmlns="http://www.w3.org/2000/svg">
	<path d="M30.9247 8.618C30.8491 8.43526 30.7209 8.27906 30.5565 8.16915C30.3921 8.05923 30.1988 8.00055 30.001 8.0005H26.1972C25.6654 7.09573 24.9085 6.34395 24.0002 5.81826C23.0918 5.29257 22.0629 5.01086 21.0135 5.0005C20.2316 4.99025 19.4556 5.13647 18.7311 5.43057C18.0066 5.72466 17.3482 6.16069 16.7947 6.713C16.2251 7.27203 15.7729 7.93931 15.4649 8.67561C15.1568 9.41191 14.9991 10.2024 15.001 11.0005V11.7618C9.96848 10.4343 5.85223 6.3405 5.80848 6.29675C5.67431 6.16141 5.50427 6.06721 5.31837 6.02526C5.13247 5.98332 4.93846 5.99536 4.75917 6.05998C4.57989 6.1246 4.4228 6.23911 4.30642 6.39001C4.19003 6.54092 4.11918 6.72194 4.10223 6.91175C3.56348 12.8855 5.29848 16.883 6.85223 19.1843C7.60982 20.3219 8.53146 21.3412 9.58723 22.2093C7.68348 24.4005 4.68598 25.5518 4.65348 25.5643C4.51237 25.6171 4.38503 25.7012 4.28097 25.8101C4.17691 25.9191 4.09883 26.0502 4.05255 26.1936C4.00628 26.337 3.993 26.489 4.01373 26.6383C4.03445 26.7875 4.08863 26.9301 4.17223 27.0555C4.26598 27.1955 4.64098 27.6868 5.55723 28.1455C6.68973 28.713 8.18598 29.0005 10.001 29.0005C18.8347 29.0005 26.216 22.198 26.9697 13.4455L30.7085 9.708C30.8483 9.56808 30.9435 9.38983 30.9819 9.19581C31.0204 9.00179 31.0005 8.80071 30.9247 8.618ZM25.2997 12.2943C25.1283 12.4661 25.0252 12.6945 25.0097 12.9368C24.501 20.823 17.911 27.0005 10.001 27.0005C8.68098 27.0005 7.75098 26.8255 7.09848 26.6155C8.53723 25.8343 10.5435 24.4905 11.8335 22.5555C11.9092 22.4417 11.9608 22.3136 11.9851 22.1791C12.0093 22.0446 12.0058 21.9066 11.9746 21.7735C11.9435 21.6405 11.8854 21.5152 11.8039 21.4055C11.7224 21.2957 11.6193 21.2038 11.501 21.1355C11.4422 21.1018 6.01223 17.843 6.00098 9.1355C8.00098 10.7605 11.6572 13.2818 15.8347 13.9843C15.9779 14.0084 16.1246 14.0011 16.2647 13.9628C16.4047 13.9245 16.5348 13.8562 16.6457 13.7626C16.7567 13.6689 16.846 13.5523 16.9073 13.4207C16.9687 13.2891 17.0006 13.1457 17.001 13.0005V11.0005C16.9999 10.4671 17.1054 9.93879 17.3115 9.44677C17.5176 8.95474 17.82 8.50891 18.201 8.1355C18.5662 7.76963 19.001 7.48067 19.4798 7.28573C19.9586 7.09078 20.4716 6.99379 20.9885 7.0005C22.571 7.0205 24.0497 7.9855 24.6685 9.40175C24.7465 9.57981 24.8747 9.73128 25.0374 9.83762C25.2001 9.94395 25.3903 10.0006 25.5847 10.0005H27.5847L25.2997 12.2943Z" fill="#343330"/>
</svg>
