<svg width="20" height="20" viewBox="0 0 20 20" fill="none" xmlns="http://www.w3.org/2000/svg">
<path d="M19.8175 10.4427L17.9425 12.3177C17.8845 12.3758 17.8156 12.4219 17.7397 12.4533C17.6638 12.4848 17.5825 12.501 17.5003 12.501C17.4182 12.501 17.3369 12.4848 17.261 12.4533C17.1851 12.4219 17.1162 12.3758 17.0582 12.3177L15.1832 10.4427C15.0659 10.3254 15 10.1663 15 10.0005C15 9.83462 15.0659 9.67556 15.1832 9.55828C15.3004 9.44101 15.4595 9.37512 15.6253 9.37512C15.7912 9.37512 15.9503 9.44101 16.0675 9.55828L16.8753 10.3669V10.0005C16.8761 8.54471 16.4147 7.1263 15.5576 5.94957C14.7006 4.77284 13.4921 3.89853 12.1064 3.45259C10.7206 3.00665 9.22902 3.0121 7.84655 3.46816C6.46407 3.92422 5.26205 4.80734 4.41363 5.99031C4.31687 6.12499 4.17057 6.21572 4.00691 6.24253C3.84326 6.26934 3.67565 6.23004 3.54097 6.13328C3.40629 6.03652 3.31557 5.89022 3.28876 5.72656C3.26194 5.56291 3.30124 5.39531 3.398 5.26062C4.40073 3.86259 5.82135 2.81894 7.45521 2.28001C9.08907 1.74109 10.8518 1.7347 12.4896 2.26179C14.1273 2.78887 15.5554 3.82221 16.5682 5.21295C17.5811 6.60368 18.1263 8.28002 18.1253 10.0005V10.3669L18.9332 9.55828C19.0504 9.44101 19.2095 9.37512 19.3753 9.37512C19.5412 9.37512 19.7003 9.44101 19.8175 9.55828C19.9348 9.67556 20.0007 9.83462 20.0007 10.0005C20.0007 10.1663 19.9348 10.3254 19.8175 10.4427ZM16.6003 14.7395C15.5973 16.1365 14.1769 17.1792 12.5436 17.7175C10.9102 18.2558 9.14822 18.262 7.51115 17.7351C5.87409 17.2082 4.44642 16.1755 3.43366 14.7856C2.4209 13.3957 1.87528 11.7202 1.87535 10.0005V9.63406L1.06754 10.4427C0.95026 10.5599 0.7912 10.6258 0.625348 10.6258C0.459495 10.6258 0.300435 10.5599 0.18316 10.4427C0.0658846 10.3254 0 10.1663 0 10.0005C0 9.83462 0.0658846 9.67556 0.18316 9.55828L2.05816 7.68328C2.11621 7.62517 2.18514 7.57907 2.26101 7.54762C2.33688 7.51617 2.41821 7.49998 2.50035 7.49998C2.58248 7.49998 2.66381 7.51617 2.73969 7.54762C2.81556 7.57907 2.88449 7.62517 2.94253 7.68328L4.81753 9.55828C4.93481 9.67556 5.0007 9.83462 5.0007 10.0005C5.0007 10.1663 4.93481 10.3254 4.81753 10.4427C4.70026 10.5599 4.5412 10.6258 4.37535 10.6258C4.2095 10.6258 4.05044 10.5599 3.93316 10.4427L3.12535 9.63406V10.0005C3.12387 11.6834 3.74242 13.308 4.86285 14.5638C5.5599 13.5537 6.54005 12.7722 7.68004 12.3177C7.06768 11.8353 6.62084 11.1742 6.40165 10.4262C6.18247 9.67813 6.20183 8.88038 6.45706 8.14386C6.71228 7.40734 7.19067 6.76866 7.82571 6.31663C8.46074 5.8646 9.22086 5.6217 10.0003 5.6217C10.7798 5.6217 11.5399 5.8646 12.175 6.31663C12.81 6.76866 13.2884 7.40734 13.5436 8.14386C13.7989 8.88038 13.8182 9.67813 13.599 10.4262C13.3799 11.1742 12.933 11.8353 12.3207 12.3177C13.4617 12.7723 14.4425 13.5547 15.1394 14.5661C15.2974 14.3886 15.4463 14.2032 15.5855 14.0106C15.6823 13.8759 15.8286 13.7852 15.9922 13.7584C16.1559 13.7316 16.3235 13.7709 16.4582 13.8677C16.5928 13.9644 16.6836 14.1107 16.7104 14.2744C16.7372 14.438 16.6979 14.6056 16.6011 14.7403L16.6003 14.7395ZM10.0003 11.8755C10.4948 11.8755 10.9782 11.7288 11.3893 11.4541C11.8004 11.1794 12.1208 10.789 12.31 10.3322C12.4993 9.87536 12.5488 9.3727 12.4523 8.88774C12.3558 8.40279 12.1177 7.95733 11.7681 7.6077C11.4185 7.25807 10.973 7.01997 10.4881 6.92351C10.0031 6.82704 9.50045 6.87655 9.04364 7.06577C8.58682 7.25499 8.19638 7.57542 7.92167 7.98654C7.64697 8.39767 7.50035 8.88102 7.50035 9.37547C7.50035 10.0385 7.76374 10.6744 8.23258 11.1432C8.70142 11.6121 9.33731 11.8755 10.0003 11.8755ZM10.0003 16.8755C11.5257 16.8735 13.0073 16.3654 14.2128 15.4309C13.7607 14.7238 13.1378 14.1419 12.4017 13.7388C11.6655 13.3357 10.8397 13.1244 10.0003 13.1244C9.16103 13.1244 8.33522 13.3357 7.59904 13.7388C6.86285 14.1419 6.23998 14.7238 5.78785 15.4309C6.99162 16.3688 8.47438 16.8772 10.0003 16.8755Z" fill="#6A0BFF"/>
</svg>
