<svg width="24" height="24" viewBox="0 0 24 24" fill="none" xmlns="http://www.w3.org/2000/svg">
	<circle cx="12" cy="12" r="12" fill="#6A0BFF" />
	<path fill-rule="evenodd" clip-rule="evenodd" d="M11.9997 4.83203C10.2508 4.83203 8.83301 6.2498 8.83301 7.9987C8.83301 9.7476 10.2508 11.1654 11.9997 11.1654C13.7486 11.1654 15.1663 9.7476 15.1663 7.9987C15.1663 6.2498 13.7486 4.83203 11.9997 4.83203ZM9.83301 7.9987C9.83301 6.80208 10.8031 5.83203 11.9997 5.83203C13.1963 5.83203 14.1663 6.80208 14.1663 7.9987C14.1663 9.19531 13.1963 10.1654 11.9997 10.1654C10.8031 10.1654 9.83301 9.19531 9.83301 7.9987Z" fill="white" />
	<path d="M16.57 15.0473C16.7682 15.2396 16.7729 15.5562 16.5806 15.7543L15.3585 17.0136C15.2597 17.1153 15.1225 17.1704 14.9808 17.165C14.8391 17.1597 14.7064 17.0944 14.6156 16.9855L14.0599 16.3188C13.8831 16.1067 13.9118 15.7914 14.1239 15.6146C14.336 15.4378 14.6513 15.4664 14.8281 15.6786L15.0279 15.9183L15.863 15.0579C16.0553 14.8597 16.3718 14.855 16.57 15.0473Z" fill="white" />
	<path fill-rule="evenodd" clip-rule="evenodd" d="M13.2735 18.4042C12.8657 18.466 12.4388 18.4987 11.9997 18.4987C10.6401 18.4987 9.38469 18.1849 8.45177 17.6518C7.53301 17.1268 6.83301 16.3253 6.83301 15.332C6.83301 14.3388 7.53301 13.5373 8.45177 13.0123C9.38469 12.4792 10.6401 12.1654 11.9997 12.1654C13.2027 12.1654 14.3214 12.4109 15.2075 12.8345C15.2491 12.8329 15.291 12.832 15.333 12.832C17.0819 12.832 18.4997 14.2498 18.4997 15.9987C18.4997 17.7476 17.0819 19.1654 15.333 19.1654C14.5466 19.1654 13.8272 18.8787 13.2735 18.4042ZM13.1663 15.9987C13.1663 14.8021 14.1364 13.832 15.333 13.832C16.5296 13.832 17.4997 14.8021 17.4997 15.9987C17.4997 17.1953 16.5296 18.1654 15.333 18.1654C14.1364 18.1654 13.1663 17.1953 13.1663 15.9987ZM13.6114 13.3405C12.7416 13.9049 12.1663 14.8846 12.1663 15.9987C12.1663 16.534 12.2991 17.0382 12.5336 17.4803C12.3589 17.4924 12.1807 17.4987 11.9997 17.4987C10.7819 17.4987 9.704 17.2156 8.94791 16.7835C8.17768 16.3434 7.83301 15.8115 7.83301 15.332C7.83301 14.8525 8.17768 14.3207 8.94791 13.8805C9.704 13.4485 10.7819 13.1654 11.9997 13.1654C12.5737 13.1654 13.1175 13.2283 13.6114 13.3405Z" fill="white" />
	<path d="M11.9997 5.83203C10.8031 5.83203 9.83301 6.80208 9.83301 7.9987C9.83301 9.19531 10.8031 10.1654 11.9997 10.1654C13.1963 10.1654 14.1663 9.19531 14.1663 7.9987C14.1663 6.80208 13.1963 5.83203 11.9997 5.83203Z" fill="white" />
	<path d="M12.1663 15.9987C12.1663 14.8846 12.7416 13.9049 13.6114 13.3405C13.1175 13.2283 12.5737 13.1654 11.9997 13.1654C10.7819 13.1654 9.704 13.4485 8.94791 13.8805C8.17768 14.3207 7.83301 14.8525 7.83301 15.332C7.83301 15.8115 8.17768 16.3434 8.94791 16.7835C9.704 17.2156 10.7819 17.4987 11.9997 17.4987C12.1807 17.4987 12.3589 17.4924 12.5336 17.4803C12.2991 17.0382 12.1663 16.534 12.1663 15.9987Z" fill="white" />
</svg>
