<svg width="44" height="41" viewBox="0 0 44 41" fill="none" xmlns="http://www.w3.org/2000/svg">
<rect width="44" height="41" rx="10" style="fill: #6A0BFF" fill="#6A0BFF"/>
<path d="M34.751 7.93384C34.834 7.93384 34.9139 7.96694 34.9727 8.02563C35.0314 8.08434 35.0644 8.16431 35.0645 8.24731C35.0645 8.33033 35.0313 8.41028 34.9727 8.46899L22.2227 21.219C22.1639 21.2777 22.084 21.3108 22.001 21.3108C21.9179 21.3108 21.838 21.2777 21.7793 21.219C21.7206 21.1603 21.6875 21.0803 21.6875 20.9973C21.6875 20.9143 21.7206 20.8343 21.7793 20.7756L25.4609 17.094L26.1104 16.4456L25.3447 15.9387C24.2061 15.1857 22.8465 14.8386 21.4863 14.9543C20.1261 15.0701 18.8446 15.6419 17.8496 16.5764C16.8548 17.5109 16.2046 18.7537 16.0039 20.1038C15.8033 21.4539 16.064 22.8324 16.7441 24.0159C17.4244 25.1994 18.4842 26.119 19.752 26.6252C21.0197 27.1315 22.4211 27.1953 23.7295 26.8059C25.0378 26.4165 26.1763 25.5967 26.9609 24.4797C27.6966 23.4324 28.0814 22.181 28.0625 20.9055L28.0527 20.6506C28.0505 20.6096 28.0567 20.5683 28.0703 20.5295C28.0839 20.4907 28.1054 20.4548 28.1328 20.4241C28.1602 20.3934 28.1934 20.3687 28.2305 20.3508C28.2675 20.333 28.3076 20.3219 28.3486 20.3196C28.4318 20.3149 28.514 20.3441 28.5762 20.3997C28.6068 20.4271 28.6316 20.4603 28.6494 20.4973C28.6673 20.5344 28.6783 20.5744 28.6807 20.6155V20.6165C28.7678 22.1362 28.3336 23.6404 27.4502 24.8801C26.5667 26.1198 25.2862 27.0211 23.8213 27.4348C22.3561 27.8485 20.7931 27.7502 19.3916 27.1555C17.9901 26.5608 16.8339 25.5054 16.1133 24.1643C15.3927 22.8232 15.1511 21.2764 15.4287 19.7795C15.7064 18.2827 16.4861 16.9253 17.6396 15.9319C18.7931 14.9385 20.2511 14.3683 21.7725 14.3157C23.294 14.2631 24.7884 14.7313 26.0078 15.6428L26.5283 16.0315L30.5908 11.969L29.957 11.4436C27.6005 9.48718 24.6045 8.47009 21.5439 8.58813C18.4833 8.70618 15.5738 9.95103 13.375 12.0833C11.1764 14.2154 9.84305 17.0846 9.63086 20.1399C9.41875 23.1954 10.3434 26.2224 12.2266 28.6379C14.1097 31.0533 16.8192 32.688 19.834 33.2278C22.8488 33.7674 25.9564 33.1738 28.5605 31.5618C31.1648 29.9496 33.0821 27.4327 33.9434 24.4934C34.8046 21.5541 34.549 18.3996 33.2266 15.637C33.1912 15.5623 33.1864 15.4766 33.2139 15.3987C33.2415 15.3206 33.2993 15.2567 33.374 15.2209C33.4489 15.1852 33.5351 15.1806 33.6133 15.2083C33.6915 15.2359 33.7553 15.2936 33.791 15.3684C35.1854 18.2848 35.4503 21.6141 34.5342 24.7141C33.6181 27.8142 31.5867 30.4655 28.8311 32.1555C26.0756 33.8454 22.7916 34.4542 19.6133 33.8655C16.4348 33.2766 13.5864 31.5311 11.6191 28.9661C9.65198 26.4011 8.7047 23.1982 8.95996 19.9758C9.21529 16.7534 10.6554 13.7401 13.002 11.5168C15.3486 9.29361 18.4355 8.01786 21.667 7.93677C24.8985 7.85574 28.0459 8.97467 30.501 11.0774L31.0283 11.5295L31.5186 11.0383L34.5293 8.02563C34.588 7.96694 34.668 7.93384 34.751 7.93384Z" style="fill: white; stroke: white" fill="white" stroke="white" stroke-width="1.5"/>
</svg>
