<svg width="24" height="24" viewBox="0 0 24 24"  fill="none" xmlns="http://www.w3.org/2000/svg">
<path d="M17.4247 12.1297L17.42 12.1363L17.4968 12.1646C17.7714 12.2657 18.0084 12.4485 18.1758 12.6885C18.3431 12.9284 18.4329 13.214 18.4329 13.5066C18.4329 13.7991 18.3431 14.0847 18.1758 14.3246C18.0084 14.5646 17.7714 14.7475 17.4969 14.8485L12.6547 16.6298L12.6276 16.6397L12.6176 16.6668L10.8363 21.5053C10.7353 21.7799 10.5524 22.0168 10.3125 22.1842C10.0725 22.3516 9.78695 22.4413 9.49438 22.4413C9.2018 22.4413 8.91626 22.3516 8.67629 22.1842C8.43632 22.0168 8.25347 21.7799 8.1524 21.5053L6.37115 16.6659L6.36121 16.6389L6.33422 16.6289L1.4986 14.8364L1.49847 14.8363C1.2239 14.7353 0.98694 14.5524 0.819562 14.3125C0.652183 14.0725 0.562439 13.787 0.562439 13.4944C0.562439 13.2018 0.652183 12.9163 0.819562 12.6763C0.98694 12.4363 1.2239 12.2535 1.49847 12.1524L6.34064 10.3712L6.36772 10.3612L6.3777 10.3341L8.16083 5.49756L8.16084 5.49753C8.26191 5.22296 8.44476 4.986 8.68473 4.81862C8.9247 4.65124 9.21024 4.5615 9.50281 4.5615C9.79539 4.5615 10.0809 4.65124 10.3209 4.81862C10.5609 4.986 10.7437 5.22296 10.8448 5.49753L12.626 10.3397L12.636 10.3668L12.6631 10.3768L17.4247 12.1297ZM12.1831 15.3399L12.1832 15.3399L17.0113 13.5624L17.1704 13.5038L17.0113 13.4451L12.187 11.6639L12.1868 11.6638C11.9927 11.5926 11.8164 11.4799 11.6701 11.3336C11.5239 11.1874 11.4112 11.0111 11.3399 10.8169L11.3399 10.8168L9.55863 5.99241L9.5 5.83362L9.44137 5.99241L7.66012 10.8168C7.5888 11.0099 7.47649 11.1853 7.3309 11.3309C7.18532 11.4765 7.00993 11.5888 6.81679 11.6601L1.99242 13.4414L1.83362 13.5L1.99242 13.5586L6.81679 15.3399C7.00993 15.4112 7.18532 15.5235 7.3309 15.6691C7.47649 15.8147 7.5888 15.9901 7.66012 16.1832L9.4376 21.0113L9.49617 21.1704L9.55488 21.0113L11.3361 16.187L11.3362 16.1868C11.4074 15.9927 11.5201 15.8164 11.6664 15.6701C11.8126 15.5239 11.9889 15.4112 12.1831 15.3399ZM14.75 3.0625H14.8125V3V1.5C14.8125 1.31766 14.8849 1.1428 15.0139 1.01386C15.1428 0.884933 15.3177 0.8125 15.5 0.8125C15.6823 0.8125 15.8572 0.884933 15.9861 1.01386C16.1151 1.1428 16.1875 1.31766 16.1875 1.5V3V3.0625H16.25H17.75C17.9323 3.0625 18.1072 3.13493 18.2361 3.26386C18.3651 3.3928 18.4375 3.56766 18.4375 3.75C18.4375 3.93234 18.3651 4.1072 18.2361 4.23614C18.1072 4.36507 17.9323 4.4375 17.75 4.4375H16.25H16.1875V4.5V6C16.1875 6.18234 16.1151 6.3572 15.9861 6.48614C15.8572 6.61507 15.6823 6.6875 15.5 6.6875C15.3177 6.6875 15.1428 6.61507 15.0139 6.48614C14.8849 6.3572 14.8125 6.18234 14.8125 6V4.5V4.4375H14.75H13.25C13.0677 4.4375 12.8928 4.36507 12.7639 4.23614C12.6349 4.1072 12.5625 3.93234 12.5625 3.75C12.5625 3.56766 12.6349 3.3928 12.7639 3.26386C12.8928 3.13493 13.0677 3.0625 13.25 3.0625H14.75ZM20.75 8.9375H20.6875V9V9.75C20.6875 9.93234 20.6151 10.1072 20.4861 10.2361C20.3572 10.3651 20.1823 10.4375 20 10.4375C19.8177 10.4375 19.6428 10.3651 19.5139 10.2361C19.3849 10.1072 19.3125 9.93234 19.3125 9.75V9V8.9375H19.25H18.5C18.3177 8.9375 18.1428 8.86507 18.0139 8.73614C17.8849 8.6072 17.8125 8.43234 17.8125 8.25C17.8125 8.06766 17.8849 7.8928 18.0139 7.76386C18.1428 7.63493 18.3177 7.5625 18.5 7.5625H19.25H19.3125V7.5V6.75C19.3125 6.56766 19.3849 6.3928 19.5139 6.26386C19.6428 6.13493 19.8177 6.0625 20 6.0625C20.1823 6.0625 20.3572 6.13493 20.4861 6.26386C20.6151 6.3928 20.6875 6.56766 20.6875 6.75V7.5V7.5625H20.75H21.5C21.6823 7.5625 21.8572 7.63493 21.9861 7.76386C22.1151 7.8928 22.1875 8.06766 22.1875 8.25C22.1875 8.43234 22.1151 8.6072 21.9861 8.73614C21.8572 8.86507 21.6823 8.9375 21.5 8.9375H20.75Z" fill="#343330" stroke="#474747" stroke-width="0.125"/>
</svg>
