<svg width="32" height="32" viewBox="0 0 32 32" fill="none" xmlns="http://www.w3.org/2000/svg">
	<path d="M29.5994 23.5113L18.6681 4.52758C18.395 4.06249 18.005 3.67686 17.5369 3.40891C17.0688 3.14096 16.5388 3 15.9994 3C15.46 3 14.93 3.14096 14.4619 3.40891C13.9938 3.67686 13.6038 4.06249 13.3306 4.52758L2.39939 23.5113C2.13656 23.9612 1.99805 24.4728 1.99805 24.9938C1.99805 25.5148 2.13656 26.0265 2.39939 26.4763C2.66905 26.9442 3.05835 27.332 3.52734 27.5997C3.99633 27.8675 4.52812 28.0057 5.06814 28.0001H26.9306C27.4702 28.0052 28.0015 27.8669 28.47 27.5991C28.9385 27.3314 29.3274 26.9439 29.5969 26.4763C29.8601 26.0267 29.999 25.5152 29.9995 24.9942C29.9999 24.4732 29.8618 23.9614 29.5994 23.5113ZM27.8656 25.4751C27.7703 25.6376 27.6335 25.7719 27.4692 25.8642C27.3049 25.9564 27.119 26.0033 26.9306 26.0001H5.06814C4.87973 26.0033 4.69385 25.9564 4.52955 25.8642C4.36525 25.7719 4.22843 25.6376 4.13314 25.4751C4.04682 25.3289 4.00128 25.1623 4.00128 24.9926C4.00128 24.8228 4.04682 24.6562 4.13314 24.5101L15.0644 5.52633C15.1616 5.36455 15.299 5.23068 15.4633 5.13774C15.6276 5.04479 15.8131 4.99595 16.0019 4.99595C16.1906 4.99595 16.3762 5.04479 16.5405 5.13774C16.7047 5.23068 16.8422 5.36455 16.9394 5.52633L27.8706 24.5101C27.9562 24.6567 28.0009 24.8235 28 24.9933C27.9991 25.163 27.9527 25.3294 27.8656 25.4751ZM14.9994 18.0001V13.0001C14.9994 12.7349 15.1047 12.4805 15.2923 12.293C15.4798 12.1054 15.7342 12.0001 15.9994 12.0001C16.2646 12.0001 16.519 12.1054 16.7065 12.293C16.894 12.4805 16.9994 12.7349 16.9994 13.0001V18.0001C16.9994 18.2653 16.894 18.5197 16.7065 18.7072C16.519 18.8947 16.2646 19.0001 15.9994 19.0001C15.7342 19.0001 15.4798 18.8947 15.2923 18.7072C15.1047 18.5197 14.9994 18.2653 14.9994 18.0001ZM17.4994 22.5001C17.4994 22.7968 17.4114 23.0868 17.2466 23.3334C17.0818 23.5801 16.8475 23.7724 16.5734 23.8859C16.2993 23.9994 15.9977 24.0291 15.7068 23.9713C15.4158 23.9134 15.1485 23.7705 14.9387 23.5607C14.7289 23.351 14.5861 23.0837 14.5282 22.7927C14.4703 22.5017 14.5 22.2001 14.6136 21.9261C14.7271 21.652 14.9194 21.4177 15.166 21.2529C15.4127 21.0881 15.7027 21.0001 15.9994 21.0001C16.3972 21.0001 16.7787 21.1581 17.06 21.4394C17.3414 21.7207 17.4994 22.1023 17.4994 22.5001Z" fill="#343330"/>
</svg>
