<svg width="22" height="22" viewBox="0 0 22 22" fill="none" xmlns="http://www.w3.org/2000/svg">
<path d="M7.44922 0.5H14.0508C14.2794 0.499938 14.4183 0.500366 14.5332 0.512695C15.6409 0.631748 16.4886 1.54185 16.54 2.64355L16.5566 2.99805L16.8965 3.09961C17.8801 3.39332 18.5821 4.30532 18.5947 5.34766L18.5986 5.71484L18.9502 5.82031C19.4851 5.98081 19.9202 6.22413 20.2715 6.60352C20.8046 7.17935 20.9928 7.90357 21 8.85449C21.007 9.78351 20.8408 10.9726 20.623 12.5166L20.1836 15.6299C20.0132 16.8383 19.8808 17.7721 19.6787 18.4941C19.4713 19.2352 19.1825 19.7847 18.6807 20.2002C18.1806 20.614 17.572 20.8095 16.7744 20.9053C15.9924 20.9991 14.9967 21 13.7031 21H7.79688C6.50331 21 5.50764 20.9991 4.72559 20.9053C3.92796 20.8095 3.31941 20.614 2.81934 20.2002C2.31752 19.7847 2.02872 19.2352 1.82129 18.4941C1.61919 17.7721 1.48676 16.8383 1.31641 15.6299L0.876953 12.5166C0.65924 10.9726 0.492996 9.78351 0.5 8.85449C0.507217 7.90357 0.695418 7.17935 1.22852 6.60352C1.57965 6.22427 2.0142 5.98081 2.54883 5.82031L2.90039 5.71484L2.90527 5.34766C2.9179 4.30522 3.61983 3.39328 4.60352 3.09961L4.94336 2.99805L4.95996 2.64355C5.01141 1.54179 5.85902 0.631641 6.9668 0.512695C7.02417 0.506538 7.0876 0.503635 7.16504 0.501953L7.44922 0.5ZM7.42285 6C5.72854 6 4.48193 6.0007 3.54004 6.12598C2.60341 6.25058 2.01243 6.49331 1.5957 6.94336C1.18144 7.39083 1.00674 7.9705 1 8.8584C0.993262 9.75428 1.15684 10.9189 1.38086 12.5078L1.80371 15.5078C1.97951 16.7547 2.10868 17.666 2.30273 18.3594C2.49459 19.0448 2.74261 19.4873 3.1377 19.8145C3.53446 20.143 4.03575 20.3192 4.78516 20.4092C5.54065 20.4998 6.51645 20.5 7.8457 20.5H13.6543C14.9835 20.5 15.9594 20.4998 16.7148 20.4092C17.4642 20.3192 17.9655 20.143 18.3623 19.8145C18.7574 19.4873 19.0054 19.0448 19.1973 18.3594C19.3913 17.666 19.5205 16.7547 19.6963 15.5078L20.1191 12.5078C20.3432 10.9189 20.5067 9.75428 20.5 8.8584C20.4933 7.97051 20.3186 7.39083 19.9043 6.94336C19.4876 6.49331 18.8966 6.25058 17.96 6.12598C17.0181 6.0007 15.7715 6 14.0771 6H7.42285ZM9.01367 10.0781C9.32384 9.87448 9.73208 9.84048 10.0918 10.0635L13.4629 12.1533C13.827 12.379 14 12.7773 14 13.1602C14 13.543 13.827 13.9413 13.4629 14.167L10.0918 16.2568C9.73208 16.4798 9.32384 16.4458 9.01367 16.2422C8.70742 16.0409 8.5 15.6786 8.5 15.25V11.0703C8.5 10.6417 8.70741 10.2794 9.01367 10.0781ZM9.36621 10.4541L9.36426 10.4551L9.3252 10.4717L9.28809 10.4961C9.12715 10.6019 9 10.8046 9 11.0703V15.25C9 15.5157 9.12715 15.7184 9.28809 15.8242L9.29297 15.8271L9.29492 15.8281L9.55957 15.998L9.82812 15.832L13.1992 13.7422C13.3813 13.6293 13.5 13.4146 13.5 13.1602C13.5 12.9057 13.3813 12.691 13.1992 12.5781L9.82812 10.4883L9.60547 10.3506L9.36621 10.4541ZM5.28809 3.5C4.37576 3.5 3.63764 4.14172 3.45117 4.96777L3.30078 5.63281L3.98047 5.57617C4.88068 5.50047 5.99246 5.49999 7.36621 5.5H14.1338C15.5073 5.49999 16.6184 5.50051 17.5186 5.57617L18.1982 5.63281L18.0479 4.96777C17.8614 4.14182 17.1241 3.5001 16.2119 3.5H5.28809ZM7.49121 1C7.22589 1 7.11052 1.00013 7.02051 1.00977C6.2498 1.09247 5.64133 1.66713 5.49219 2.40039L5.37012 3H16.1299L16.0078 2.40039C15.8587 1.66713 15.2502 1.09248 14.4795 1.00977C14.3894 1.0001 14.2743 1 14.0088 1H7.49121Z" stroke="#5E5E5E"/>
</svg>
