<svg width="32" height="32" viewBox="0 0 32 32" fill="none" xmlns="http://www.w3.org/2000/svg">
	<path d="M23.4484 18.105L19.4484 16.105C19.2909 16.0265 19.1156 15.991 18.94 16.002C18.7644 16.0129 18.5948 16.07 18.4484 16.1675L16.6121 17.3925C15.7692 16.9291 15.0755 16.2354 14.6121 15.3925L15.8371 13.5562C15.9346 13.4098 15.9917 13.2402 16.0027 13.0646C16.0136 12.8891 15.9781 12.7137 15.8996 12.5562L13.8996 8.55625C13.8167 8.38884 13.6886 8.248 13.5298 8.14968C13.3709 8.05137 13.1877 7.99952 13.0009 8C11.6748 8 10.403 8.52678 9.46535 9.46447C8.52767 10.4021 8.00088 11.6739 8.00088 13C8.00419 15.9164 9.16418 18.7123 11.2264 20.7745C13.2885 22.8367 16.0845 23.9967 19.0009 24C19.6575 24 20.3077 23.8707 20.9143 23.6194C21.5209 23.3681 22.0721 22.9998 22.5364 22.5355C23.0007 22.0712 23.369 21.52 23.6203 20.9134C23.8716 20.3068 24.0009 19.6566 24.0009 19C24.001 18.8142 23.9494 18.6321 23.8518 18.474C23.7542 18.3159 23.6145 18.1881 23.4484 18.105ZM19.0009 22C16.6147 21.9974 14.3271 21.0483 12.6398 19.361C10.9526 17.6738 10.0035 15.3861 10.0009 13C10.0007 12.3064 10.2408 11.6342 10.6805 11.0977C11.1201 10.5612 11.732 10.1936 12.4121 10.0575L13.8471 12.9325L12.6259 14.75C12.5346 14.8869 12.4786 15.0442 12.4626 15.2079C12.4467 15.3717 12.4714 15.5368 12.5346 15.6888C13.2501 17.3892 14.6029 18.742 16.3034 19.4575C16.4558 19.5235 16.6222 19.5505 16.7876 19.5361C16.953 19.5217 17.1122 19.4663 17.2509 19.375L19.0771 18.1575L21.9521 19.5925C21.815 20.2734 21.4458 20.8856 20.9076 21.3247C20.3693 21.7637 19.6955 22.0024 19.0009 22ZM16.0009 3C13.7565 2.99951 11.5502 3.58011 9.5967 4.68529C7.64324 5.79046 6.00919 7.38256 4.8536 9.30662C3.69801 11.2307 3.06024 13.4212 3.00237 15.6648C2.9445 17.9085 3.46851 20.1289 4.52338 22.11L3.10463 26.3662C2.98712 26.7186 2.97006 27.0968 3.05538 27.4583C3.1407 27.8199 3.32503 28.1505 3.5877 28.4132C3.85037 28.6759 4.181 28.8602 4.54254 28.9455C4.90408 29.0308 5.28224 29.0138 5.63463 28.8962L9.89088 27.4775C11.6343 28.4048 13.5662 28.9228 15.5397 28.992C17.5132 29.0613 19.4765 28.68 21.2807 27.8772C23.0849 27.0743 24.6825 25.871 25.9521 24.3586C27.2218 22.8462 28.1303 21.0644 28.6085 19.1484C29.0868 17.2325 29.1223 15.2328 28.7123 13.301C28.3023 11.3693 27.4577 9.55642 26.2424 7.9999C25.0272 6.44337 23.4733 5.18415 21.6988 4.31782C19.9242 3.45149 17.9756 3.00081 16.0009 3ZM16.0009 27C14.0671 27.0013 12.1673 26.4921 10.4934 25.5238C10.3708 25.4527 10.2346 25.4085 10.0936 25.394C9.9527 25.3796 9.81031 25.3953 9.67588 25.44L5.00088 27L6.55963 22.325C6.60457 22.1907 6.62045 22.0483 6.60622 21.9074C6.592 21.7665 6.548 21.6301 6.47713 21.5075C5.2646 19.4111 4.77777 16.9732 5.09217 14.572C5.40657 12.1707 6.50463 9.94027 8.21599 8.22674C9.92736 6.51321 12.1564 5.41234 14.5573 5.0949C16.9581 4.77747 19.3967 5.26122 21.4945 6.47111C23.5924 7.68099 25.2324 9.54939 26.1601 11.7864C27.0877 14.0235 27.2512 16.5042 26.6252 18.8436C25.9991 21.1831 24.6185 23.2505 22.6976 24.7253C20.7766 26.2 18.4227 26.9996 16.0009 27Z" fill="#343330"/>
</svg>
