<svg viewBox="0 0 90 105" fill="none" xmlns="http://www.w3.org/2000/svg">
<path d="M0.5625 74.2069C0.5625 72.5923 1.40681 71.1111 2.893 70.4741C7.36144 68.5534 18.4264 64.875 37.5938 64.875C56.7611 64.875 67.8261 68.5584 72.2945 70.4741C73.7757 71.1111 74.625 72.5972 74.625 74.2069C74.625 77.8444 73.9085 81.4463 72.5165 84.807C71.1245 88.1676 69.0842 91.2212 66.512 93.7933C63.9399 96.3654 60.8864 98.4057 57.5257 99.7978C54.1651 101.19 50.5632 101.906 46.9256 101.906H28.2619C20.9155 101.906 13.8701 98.9879 8.67546 93.7933C3.48082 88.5986 0.5625 81.5532 0.5625 74.2069Z" style="fill:#E1CEFF" />
<path d="M40.0625 40.1875C50.9701 40.1875 59.8125 31.3451 59.8125 20.4375C59.8125 9.52988 50.9701 0.6875 40.0625 0.6875C29.1549 0.6875 20.3125 9.52988 20.3125 20.4375C20.3125 31.3451 29.1549 40.1875 40.0625 40.1875Z" style="fill:#E1CEFF"/>
<path fill-rule="evenodd" clip-rule="evenodd" d="M64.75 25.375C64.75 30.613 62.6692 35.6365 58.9654 39.3404C55.2615 43.0442 50.238 45.125 45 45.125C39.762 45.125 34.7385 43.0442 31.0346 39.3404C27.3308 35.6365 25.25 30.613 25.25 25.375C25.25 20.137 27.3308 15.1135 31.0346 11.4096C34.7385 7.7058 39.762 5.625 45 5.625C50.238 5.625 55.2615 7.7058 58.9654 11.4096C62.6692 15.1135 64.75 20.137 64.75 25.375ZM69.6875 25.375C69.6875 31.9225 67.0865 38.2019 62.4567 42.8317C57.8269 47.4615 51.5475 50.0625 45 50.0625C38.4525 50.0625 32.1731 47.4615 27.5433 42.8317C22.9135 38.2019 20.3125 31.9225 20.3125 25.375C20.3125 18.8275 22.9135 12.5481 27.5433 7.9183C32.1731 3.2885 38.4525 0.6875 45 0.6875C51.5475 0.6875 57.8269 3.2885 62.4567 7.9183C67.0865 12.5481 69.6875 18.8275 69.6875 25.375ZM5.5 71.1357C5.5 71.1209 5.50988 71.1061 5.52469 71.1012C10.4128 69.0373 22.9886 64.875 45 64.875C67.0114 64.875 79.5872 69.0373 84.4753 71.0963C84.4831 71.0994 84.4897 71.1049 84.4941 71.112C84.4985 71.1191 84.5006 71.1274 84.5 71.1357C84.5 74.8524 83.768 78.5326 82.3457 81.9664C80.9234 85.4001 78.8387 88.5201 76.2106 91.1481C73.5826 93.7762 70.4626 95.8609 67.0289 97.2832C63.5951 98.7055 59.9149 99.4375 56.1982 99.4375H33.8018C26.2957 99.4375 19.097 96.4557 13.7894 91.1481C8.48178 85.8405 5.5 78.6418 5.5 71.1357ZM0.5625 71.1357C0.5625 69.2002 1.57962 67.4228 3.35712 66.6574C8.71925 64.3566 22.0011 59.9375 45 59.9375C67.9989 59.9375 81.2807 64.3516 86.6429 66.6525C88.4204 67.4228 89.4375 69.2002 89.4375 71.1357C89.4375 79.9513 85.9355 88.4059 79.7019 94.6394C73.4684 100.873 65.0138 104.375 56.1982 104.375H33.8018C24.9862 104.375 16.5316 100.873 10.298 94.6394C4.06448 88.4059 0.5625 79.9513 0.5625 71.1357Z" style="fill:#5E5E5E"/>
</svg>
