<svg width="28" height="28" viewBox="0 0 28 28" fill="none" xmlns="http://www.w3.org/2000/svg">
<path fill-rule="evenodd" clip-rule="evenodd" d="M14 0C6.26801 0 0 6.26801 0 14C0 21.732 6.26801 28 14 28C21.732 28 28 21.732 28 14C28 6.26801 21.732 0 14 0ZM19.8343 9.18711C20.4768 9.36343 20.9829 9.88296 21.1546 10.5427C21.4667 11.7384 21.4667 14.2333 21.4667 14.2333C21.4667 14.2333 21.4667 16.7281 21.1546 17.924C20.9829 18.5837 20.4768 19.1032 19.8343 19.2796C18.6698 19.6 14 19.6 14 19.6C14 19.6 9.33019 19.6 8.16565 19.2796C7.52309 19.1032 7.01705 18.5837 6.84532 17.924C6.53333 16.7281 6.53333 14.2333 6.53333 14.2333C6.53333 14.2333 6.53333 11.7384 6.84532 10.5427C7.01705 9.88296 7.52309 9.36343 8.16565 9.18711C9.33019 8.86667 14 8.86667 14 8.86667C14 8.86667 18.6698 8.86667 19.8343 9.18711Z" />
<path d="M12.6 16.8005V12.1338L16.3333 14.4672L12.6 16.8005Z" />
</svg>
