<svg width="32" height="32" viewBox="0 0 32 32" fill="none" xmlns="http://www.w3.org/2000/svg">
	<path d="M20.555 15.1675L14.555 11.1675C14.4044 11.067 14.2293 11.0093 14.0484 11.0005C13.8675 10.9918 13.6877 11.0323 13.528 11.1177C13.3684 11.2032 13.2349 11.3304 13.1419 11.4858C13.0489 11.6412 12.9999 11.8189 13 12V20C12.9999 20.1811 13.0489 20.3588 13.1419 20.5142C13.2349 20.6696 13.3684 20.7968 13.528 20.8823C13.6877 20.9677 13.8675 21.0082 14.0484 20.9995C14.2293 20.9907 14.4044 20.933 14.555 20.8325L20.555 16.8325C20.6922 16.7412 20.8047 16.6175 20.8825 16.4722C20.9603 16.327 21.001 16.1648 21.001 16C21.001 15.8352 20.9603 15.673 20.8825 15.5278C20.8047 15.3826 20.6922 15.2588 20.555 15.1675ZM15 18.1313V13.875L18.1975 16L15 18.1313ZM29.2913 8.69C29.1735 8.22919 28.9478 7.80298 28.6329 7.44654C28.318 7.09011 27.9228 6.81366 27.48 6.64C23.195 4.985 16.375 5 16 5C15.625 5 8.805 4.985 4.52 6.64C4.0772 6.81366 3.68204 7.09011 3.36712 7.44654C3.05219 7.80298 2.82653 8.22919 2.70875 8.69C2.385 9.9375 2 12.2175 2 16C2 19.7825 2.385 22.0625 2.70875 23.31C2.82636 23.771 3.05194 24.1975 3.36687 24.5542C3.68181 24.9108 4.07706 25.1875 4.52 25.3613C8.625 26.945 15.05 27 15.9175 27H16.0825C16.95 27 23.3787 26.945 27.48 25.3613C27.9229 25.1875 28.3182 24.9108 28.6331 24.5542C28.9481 24.1975 29.1736 23.771 29.2913 23.31C29.615 22.06 30 19.7825 30 16C30 12.2175 29.615 9.9375 29.2913 8.69ZM27.355 22.815C27.3169 22.9684 27.243 23.1105 27.1394 23.2298C27.0357 23.3491 26.9053 23.4421 26.7588 23.5013C22.8025 25.0288 16.0738 25.0013 16.0088 25.0013H16C15.9325 25.0013 9.20875 25.0263 5.25 23.5013C5.10346 23.4421 4.97303 23.3491 4.86938 23.2298C4.76574 23.1105 4.69184 22.9684 4.65375 22.815C4.35 21.6738 4 19.5713 4 16C4 12.4288 4.35 10.3263 4.645 9.19125C4.68239 9.03698 4.75596 8.89382 4.85965 8.77362C4.96333 8.65342 5.09413 8.55963 5.24125 8.5C9.05625 7.02625 15.4487 7 15.9725 7H16.0063C16.0738 7 22.8038 6.9775 26.7563 8.5C26.9028 8.55915 27.0332 8.65217 27.1369 8.77146C27.2405 8.89074 27.3144 9.03289 27.3525 9.18625C27.65 10.3263 28 12.4288 28 16C28 19.5713 27.65 21.6738 27.355 22.8088V22.815Z" fill="#343330"/>
</svg>
