<svg width="24" height="24" viewBox="0 0 24 24" fill="none" xmlns="http://www.w3.org/2000/svg">
	<path d="M12 0C18.6274 0 24 5.37258 24 12C24 18.6274 18.6274 24 12 24C5.37258 24 0 18.6274 0 12C0 5.37258 5.37258 0 12 0ZM12 7.59961C12 7.59961 7.99721 7.59936 6.99902 7.87402C6.44827 8.02516 6.01439 8.47065 5.86719 9.03613C5.60186 10.053 5.59963 12.1662 5.59961 12.1992C5.59961 12.1992 5.59977 14.3383 5.86719 15.3633C6.01444 15.9287 6.44833 16.3742 6.99902 16.5254C7.99724 16.8 12 16.7998 12 16.7998C12.0112 16.7998 16.0043 16.7996 17.001 16.5254C17.5516 16.3742 17.9856 15.9287 18.1328 15.3633C18.4003 14.3383 18.4004 12.1992 18.4004 12.1992C18.4004 12.1663 18.3982 10.053 18.1328 9.03613C17.9856 8.47067 17.5517 8.02519 17.001 7.87402C16.0043 7.59974 12.0112 7.59961 12 7.59961Z" fill="#6A0BFF" />
	<path d="M10.7998 14.3984V10.3984L13.9998 12.3985L10.7998 14.3984Z" fill="#6A0BFF" />
</svg>
