<svg width="18" height="18" viewBox="0 0 18 18" fill="none" xmlns="http://www.w3.org/2000/svg">
<path fill-rule="evenodd" clip-rule="evenodd" d="M3.56699 0.585925C3.56699 0.585901 3.567 0.58595 3.56699 0.585925C3.52823 0.39032 3.35625 0.249329 3.15681 0.250002C2.95734 0.250676 2.78633 0.392636 2.74894 0.588568L2.74866 0.590001L2.74707 0.597986C2.74556 0.605457 2.74316 0.617129 2.73985 0.632545C2.73323 0.663402 2.72301 0.709099 2.7091 0.765987C2.68118 0.880183 2.63892 1.03731 2.58174 1.20887C2.46117 1.5707 2.29689 1.92564 2.10834 2.11546C1.91979 2.30529 1.56597 2.47196 1.20497 2.59498C1.0338 2.65331 0.876955 2.69664 0.76295 2.72533C0.706157 2.73963 0.660531 2.75015 0.629719 2.75698C0.614326 2.76039 0.60267 2.76287 0.59521 2.76443L0.587236 2.76608L0.585925 2.76634C0.390249 2.80505 0.249329 2.97704 0.250002 3.17652C0.250676 3.376 0.392636 3.54701 0.588568 3.58439L0.590001 3.58467L0.597986 3.58627C0.605457 3.58777 0.617129 3.59018 0.632545 3.59348C0.663402 3.6001 0.709099 3.61032 0.765987 3.62423C0.880183 3.65215 1.03731 3.69442 1.20887 3.75159C1.5707 3.87217 1.92564 4.03645 2.11546 4.225C2.30529 4.41355 2.47196 4.76736 2.59498 5.12837C2.65331 5.29954 2.69664 5.45638 2.72533 5.57038C2.73963 5.62718 2.75015 5.6728 2.75698 5.70361C2.76039 5.71901 2.76287 5.73066 2.76443 5.73812L2.76608 5.7461L2.76634 5.74741C2.80505 5.94308 2.97704 6.08401 3.17652 6.08333C3.376 6.08266 3.54701 5.9407 3.58439 5.74477L3.58467 5.74333L3.58627 5.73535C3.58777 5.72788 3.59018 5.7162 3.59348 5.70079C3.6001 5.66993 3.61032 5.62424 3.62423 5.56735C3.65215 5.45315 3.69442 5.29602 3.75159 5.12446C3.87217 4.76263 4.03645 4.4077 4.225 4.21787C4.41355 4.02804 4.76736 3.86137 5.12837 3.73835C5.29954 3.68002 5.45638 3.63669 5.57038 3.608C5.62718 3.59371 5.6728 3.58318 5.70361 3.57635C5.71901 3.57294 5.73066 3.57046 5.73812 3.5689L5.7461 3.56726L5.74741 3.56699C5.74736 3.567 5.74745 3.56698 5.74741 3.56699C5.94299 3.52821 6.084 3.35623 6.08333 3.15681C6.08266 2.95734 5.9407 2.78633 5.74477 2.74894L5.74333 2.74866L5.73535 2.74707C5.72788 2.74556 5.7162 2.74316 5.70079 2.73985C5.66993 2.73323 5.62424 2.72301 5.56735 2.7091C5.45315 2.68118 5.29602 2.63892 5.12446 2.58174C4.76263 2.46117 4.4077 2.29689 4.21787 2.10834C4.02804 1.91979 3.86137 1.56597 3.73835 1.20497C3.68002 1.0338 3.63669 0.876955 3.608 0.76295C3.59371 0.706158 3.58318 0.660531 3.57635 0.629719C3.57294 0.614327 3.57046 0.60267 3.5689 0.59521L3.56726 0.587236L3.56699 0.585925ZM4.33012 3.16274C4.07779 3.04419 3.82432 2.89199 3.63061 2.69958C3.4369 2.50717 3.28298 2.25474 3.16274 2.00322C3.04419 2.25555 2.89199 2.50901 2.69958 2.70273C2.50717 2.89644 2.25474 3.05035 2.00322 3.1706C2.25555 3.28914 2.50901 3.44135 2.70273 3.63375C2.89644 3.82616 3.05035 4.07859 3.1706 4.33012C3.28914 4.07779 3.44135 3.82432 3.63375 3.63061C3.82616 3.4369 4.07859 3.28298 4.33012 3.16274Z" fill="#6A0BFF"/>
<path fill-rule="evenodd" clip-rule="evenodd" d="M14.8333 1.70833C15.1785 1.70833 15.4583 1.98816 15.4583 2.33333V2.54167H15.6667C16.0118 2.54167 16.2917 2.82149 16.2917 3.16667C16.2917 3.51184 16.0118 3.79167 15.6667 3.79167H15.4583V4C15.4583 4.34518 15.1785 4.625 14.8333 4.625C14.4882 4.625 14.2083 4.34518 14.2083 4V3.79167H14C13.6548 3.79167 13.375 3.51184 13.375 3.16667C13.375 2.82149 13.6548 2.54167 14 2.54167H14.2083V2.33333C14.2083 1.98816 14.4882 1.70833 14.8333 1.70833ZM8.98957 4.15023C8.71584 4.50768 8.40486 5.06223 7.94607 5.88525L7.71395 6.30165C7.69897 6.32851 7.68415 6.35522 7.66942 6.38175C7.4601 6.75881 7.27084 7.09971 6.96474 7.33209C6.65495 7.56726 6.27806 7.65178 5.86991 7.74332C5.84121 7.74976 5.81235 7.75623 5.78335 7.76279L5.3326 7.86478C4.44023 8.06669 3.84387 8.20345 3.43786 8.36346C3.04363 8.51882 2.9908 8.6343 2.97082 8.69857C2.94871 8.76965 2.93045 8.90828 3.16699 9.28403C3.40779 9.66654 3.8161 10.1465 4.4234 10.8567L4.73069 11.216C4.74988 11.2384 4.76896 11.2607 4.7879 11.2828C5.06888 11.6103 5.31954 11.9024 5.43471 12.2728C5.54911 12.6407 5.51116 13.0262 5.4681 13.4635C5.4652 13.493 5.46227 13.5227 5.45937 13.5527L5.41291 14.0321C5.32118 14.9788 5.26053 15.6205 5.28101 16.0803C5.30144 16.5391 5.39755 16.632 5.44197 16.6657C5.47618 16.6917 5.568 16.759 5.97842 16.6414C6.39687 16.5215 6.95663 16.2658 7.79221 15.881L8.21424 15.6867C8.24196 15.674 8.26951 15.6612 8.29693 15.6485C8.67632 15.4729 9.02983 15.3093 9.41667 15.3093C9.8035 15.3093 10.157 15.4729 10.5364 15.6485C10.5638 15.6612 10.5914 15.674 10.6191 15.6867L11.0411 15.881C11.8767 16.2658 12.4365 16.5215 12.8549 16.6414C13.2653 16.759 13.3572 16.6917 13.3914 16.6657C13.4358 16.632 13.5319 16.5391 13.5523 16.0803C13.5728 15.6205 13.5122 14.9788 13.4204 14.0321L13.374 13.5527C13.3711 13.5227 13.3681 13.493 13.3652 13.4635C13.3222 13.0262 13.2842 12.6407 13.3986 12.2728C13.5138 11.9024 13.7645 11.6103 14.0454 11.2827C14.0644 11.2607 14.0835 11.2384 14.1026 11.216L14.4099 10.8567C15.0172 10.1465 15.4255 9.66654 15.6663 9.28403C15.9029 8.90829 15.8846 8.76965 15.8625 8.69857C15.8425 8.6343 15.7897 8.51882 15.3955 8.36346C14.9895 8.20345 14.3931 8.06669 13.5007 7.86478L13.05 7.76279C13.021 7.75623 12.9921 7.74976 12.9634 7.74332C12.5553 7.65178 12.1784 7.56726 11.8686 7.33209C11.5625 7.09971 11.3732 6.7588 11.1639 6.38175C11.1492 6.35522 11.1344 6.32851 11.1194 6.30165L10.8873 5.88525C10.4285 5.06223 10.1175 4.50768 9.84377 4.15023C9.57034 3.79319 9.45229 3.79167 9.41667 3.79167C9.38105 3.79167 9.26299 3.79319 8.98957 4.15023ZM7.99714 3.39024C8.34 2.94252 8.7816 2.54167 9.41667 2.54167C10.0517 2.54167 10.4933 2.94252 10.8362 3.39024C11.1722 3.82896 11.5268 4.46517 11.9539 5.23151L12.2112 5.69302C12.4933 6.19912 12.5545 6.28342 12.6244 6.33647C12.6904 6.38654 12.777 6.41943 13.3258 6.54361L13.8283 6.6573C14.6553 6.84438 15.3474 7.00093 15.8538 7.2005C16.3825 7.40887 16.8689 7.72517 17.0561 8.32739C17.2413 8.92279 17.0297 9.46462 16.7242 9.94996C16.4286 10.4194 15.9587 10.9689 15.393 11.6304L15.0526 12.0284C14.6814 12.4626 14.6211 12.551 14.5922 12.644C14.5625 12.7396 14.5621 12.8534 14.6181 13.4322L14.6694 13.9614C14.7551 14.8455 14.826 15.5767 14.8011 16.136C14.7757 16.7068 14.6454 17.2831 14.1472 17.6613C13.6388 18.0472 13.0515 17.998 12.5106 17.8431C11.9886 17.6935 11.3411 17.3953 10.567 17.0388L10.0963 16.8221C9.58033 16.5846 9.49325 16.5593 9.41667 16.5593C9.34008 16.5593 9.25301 16.5846 8.73703 16.8221L8.26638 17.0388C7.49222 17.3953 6.84468 17.6935 6.32273 17.8431C5.78185 17.998 5.19455 18.0472 4.68616 17.6613C4.18797 17.2831 4.05767 16.7068 4.03225 16.136C4.00733 15.5767 4.0782 14.8456 4.1639 13.9615L4.21519 13.4322C4.27128 12.8534 4.27083 12.7396 4.24109 12.644C4.21219 12.551 4.15197 12.4626 3.78069 12.0284L3.44031 11.6304C2.87461 10.9689 2.40468 10.4194 2.10915 9.94996C1.80362 9.46462 1.59205 8.92279 1.7772 8.32739C1.96447 7.72517 2.45083 7.40887 2.97956 7.2005C3.48598 7.00093 4.17801 6.84438 5.00502 6.6573L5.50749 6.54361C6.05632 6.41943 6.14297 6.38654 6.20893 6.33647C6.27882 6.28342 6.34001 6.19912 6.62213 5.69302L6.87939 5.23151C7.30655 4.46517 7.66117 3.82896 7.99714 3.39024Z" fill="#6A0BFF"/>
</svg>
