<svg width="54" height="54" viewBox="0 0 54 54" fill="none" xmlns="http://www.w3.org/2000/svg">
<circle cx="27" cy="27" r="27" fill="#6A0BFF"/>
<path d="M5 30.0462V21.1846H7.79241C7.86033 21.1846 8.00015 21.1867 8.21188 21.1908C8.4236 21.1949 8.62734 21.2092 8.82309 21.2338C9.5182 21.32 10.1074 21.5682 10.5908 21.9785C11.0742 22.3887 11.4417 22.9097 11.6934 23.5415C11.9451 24.1733 12.0709 24.8646 12.0709 25.6154C12.0709 26.3662 11.9451 27.0574 11.6934 27.6892C11.4417 28.321 11.0742 28.8421 10.5908 29.2523C10.1074 29.6626 9.5182 29.9108 8.82309 29.9969C8.62734 30.0215 8.4236 30.0359 8.21188 30.04C8.00015 30.0441 7.86033 30.0462 7.79241 30.0462H5ZM6.65388 28.4708H7.79241C7.90028 28.4708 8.04609 28.4687 8.22985 28.4646C8.41362 28.4564 8.5794 28.4379 8.72721 28.4092C9.10273 28.3313 9.40834 28.1508 9.64404 27.8677C9.88373 27.5846 10.0595 27.2441 10.1714 26.8462C10.2872 26.4482 10.3451 26.0379 10.3451 25.6154C10.3451 25.1723 10.2852 24.7518 10.1654 24.3538C10.0495 23.9559 9.87174 23.6195 9.63205 23.3446C9.39236 23.0697 9.09075 22.8954 8.72721 22.8215C8.5794 22.7887 8.41362 22.7703 8.22985 22.7662C8.04609 22.7621 7.90028 22.76 7.79241 22.76H6.65388V28.4708Z" fill="white"/>
<path d="M16.5167 30.2308C15.8536 30.2308 15.2683 30.0851 14.761 29.7938C14.2576 29.4985 13.8622 29.0944 13.5745 28.5815C13.2909 28.0646 13.1491 27.4738 13.1491 26.8092C13.1491 26.0831 13.2889 25.4513 13.5685 24.9138C13.8482 24.3764 14.2337 23.96 14.725 23.6646C15.2164 23.3651 15.7817 23.2154 16.4209 23.2154C17.1 23.2154 17.6773 23.3795 18.1526 23.7077C18.628 24.0359 18.9796 24.4974 19.2073 25.0923C19.435 25.6872 19.5149 26.3867 19.447 27.1908H17.8351V26.5754C17.8351 25.8985 17.7292 25.4123 17.5175 25.1169C17.3097 24.8174 16.9682 24.6677 16.4928 24.6677C15.9375 24.6677 15.528 24.8421 15.2644 25.1908C15.0047 25.5354 14.8749 26.0462 14.8749 26.7231C14.8749 27.3426 15.0047 27.8226 15.2644 28.1631C15.528 28.4995 15.9135 28.6677 16.4209 28.6677C16.7405 28.6677 17.0141 28.5959 17.2418 28.4523C17.4695 28.3087 17.6433 28.1015 17.7631 27.8308L19.393 28.3108C19.1494 28.9179 18.7639 29.3897 18.2365 29.7262C17.7132 30.0626 17.1399 30.2308 16.5167 30.2308ZM14.3715 27.1908V25.9477H18.662V27.1908H14.3715Z" fill="white"/>
<path d="M22.3157 30.0462L19.9667 23.4H21.5966L23.1307 28.0031L24.6647 23.4H26.2946L23.9456 30.0462H22.3157Z" fill="white"/>
<path d="M31.0808 30.2308C30.2179 30.2308 29.4728 30.0379 28.8456 29.6523C28.2224 29.2667 27.741 28.7272 27.4015 28.0338C27.0659 27.3405 26.8981 26.5344 26.8981 25.6154C26.8981 24.6964 27.0659 23.8903 27.4015 23.1969C27.741 22.5036 28.2224 21.9641 28.8456 21.5785C29.4728 21.1928 30.2179 21 31.0808 21C31.9437 21 32.6867 21.1928 33.3099 21.5785C33.9371 21.9641 34.4185 22.5036 34.754 23.1969C35.0936 23.8903 35.2634 24.6964 35.2634 25.6154C35.2634 26.5344 35.0936 27.3405 34.754 28.0338C34.4185 28.7272 33.9371 29.2667 33.3099 29.6523C32.6867 30.0379 31.9437 30.2308 31.0808 30.2308ZM31.0808 28.6554C31.6281 28.6636 32.0835 28.5426 32.447 28.2923C32.8105 28.0421 33.0822 27.6872 33.262 27.2277C33.4457 26.7682 33.5376 26.2308 33.5376 25.6154C33.5376 25 33.4457 24.4667 33.262 24.0154C33.0822 23.5641 32.8105 23.2133 32.447 22.9631C32.0835 22.7128 31.6281 22.5836 31.0808 22.5754C30.5335 22.5672 30.078 22.6882 29.7145 22.9385C29.351 23.1887 29.0773 23.5436 28.8936 24.0031C28.7138 24.4626 28.6239 25 28.6239 25.6154C28.6239 26.2308 28.7138 26.7641 28.8936 27.2154C29.0773 27.6667 29.351 28.0174 29.7145 28.2677C30.078 28.5179 30.5335 28.6472 31.0808 28.6554Z" fill="white"/>
<path d="M39.6355 30.2308C38.9924 30.2308 38.455 30.0769 38.0236 29.7692C37.5922 29.4615 37.2666 29.0431 37.0468 28.5138C36.8311 27.9846 36.7233 27.3877 36.7233 26.7231C36.7233 26.0585 36.8311 25.4615 37.0468 24.9323C37.2626 24.4031 37.5802 23.9846 37.9996 23.6769C38.4191 23.3692 38.9364 23.2154 39.5516 23.2154C40.1708 23.2154 40.7101 23.3672 41.1696 23.6708C41.629 23.9744 41.9845 24.3908 42.2362 24.92C42.4919 25.4451 42.6197 26.0462 42.6197 26.7231C42.6197 27.3877 42.4939 27.9846 42.2422 28.5138C41.9945 29.0431 41.6469 29.4615 41.1995 29.7692C40.7521 30.0769 40.2308 30.2308 39.6355 30.2308ZM36.4476 33V23.4H37.8858V27.9538H38.0895V33H36.4476ZM39.3719 28.7415C39.7234 28.7415 40.011 28.6513 40.2348 28.4708C40.4585 28.2903 40.6243 28.0482 40.7321 27.7446C40.84 27.4369 40.8939 27.0964 40.8939 26.7231C40.8939 26.3538 40.838 26.0174 40.7261 25.7138C40.6143 25.4062 40.4405 25.1621 40.2048 24.9815C39.9731 24.7969 39.6755 24.7046 39.3119 24.7046C38.9724 24.7046 38.6967 24.7887 38.485 24.9569C38.2773 25.1251 38.1255 25.361 38.0296 25.6646C37.9337 25.9682 37.8858 26.321 37.8858 26.7231C37.8858 27.1251 37.9337 27.4779 38.0296 27.7815C38.1255 28.0851 38.2813 28.321 38.497 28.4892C38.7167 28.6574 39.0083 28.7415 39.3719 28.7415Z" fill="white"/>
<path d="M46.2915 30.2308C45.4765 30.2308 44.8174 30.0421 44.314 29.6646C43.8147 29.2831 43.511 28.7456 43.4032 28.0523L45.069 27.7938C45.137 28.1056 45.2868 28.3497 45.5185 28.5262C45.7542 28.7026 46.0518 28.7908 46.4113 28.7908C46.7069 28.7908 46.9347 28.7333 47.0944 28.6185C47.2542 28.4995 47.3341 28.3354 47.3341 28.1262C47.3341 27.9949 47.3022 27.8903 47.2383 27.8123C47.1743 27.7303 47.0305 27.6503 46.8068 27.5723C46.5871 27.4944 46.2435 27.3918 45.7761 27.2646C45.2488 27.1251 44.8274 26.9692 44.5118 26.7969C44.1962 26.6246 43.9685 26.4195 43.8286 26.1815C43.6888 25.9395 43.6189 25.6482 43.6189 25.3077C43.6189 24.881 43.7248 24.5118 43.9365 24.2C44.1482 23.8841 44.4458 23.6421 44.8294 23.4738C45.2169 23.3015 45.6723 23.2154 46.1956 23.2154C46.7029 23.2154 47.1524 23.2954 47.5439 23.4554C47.9354 23.6154 48.251 23.8431 48.4907 24.1385C48.7343 24.4338 48.8842 24.7826 48.9401 25.1846L47.2742 25.4923C47.2463 25.2462 47.1424 25.0513 46.9626 24.9077C46.7828 24.7641 46.5392 24.68 46.2316 24.6554C45.9319 24.6349 45.6902 24.6759 45.5065 24.7785C45.3267 24.881 45.2368 25.0287 45.2368 25.2215C45.2368 25.3364 45.2748 25.4328 45.3507 25.5108C45.4306 25.5887 45.5924 25.6687 45.8361 25.7508C46.0837 25.8328 46.4593 25.9395 46.9626 26.0708C47.454 26.2021 47.8475 26.3559 48.1431 26.5323C48.4427 26.7046 48.6604 26.9138 48.7963 27.16C48.9321 27.4021 49 27.6954 49 28.04C49 28.721 48.7603 29.2564 48.2809 29.6462C47.8015 30.0359 47.1384 30.2308 46.2915 30.2308Z" fill="white"/>
</svg>
