<svg width="54" height="54" viewBox="0 0 54 54" fill="none" xmlns="http://www.w3.org/2000/svg">
<circle cx="27" cy="27" r="27" fill="#6A0BFF"/>
<path d="M18.5597 36C17.5517 36 16.592 35.808 15.6803 35.424C14.7687 35.032 13.9609 34.456 13.2568 33.696C12.5601 32.936 12.008 31.996 11.6003 30.876C11.2001 29.756 11 28.464 11 27C11 25.088 11.3372 23.464 12.0117 22.128C12.6935 20.784 13.6051 19.76 14.7465 19.056C15.8953 18.352 17.1663 18 18.5597 18C20.6201 18 22.2395 18.516 23.4179 19.548C24.5963 20.58 25.3857 22.04 25.7859 23.928L22.6953 24.408C22.4062 23.4 21.9319 22.596 21.2723 21.996C20.6201 21.388 19.7826 21.08 18.7598 21.072C17.7444 21.056 16.8995 21.292 16.2251 21.78C15.5506 22.268 15.043 22.96 14.702 23.856C14.3685 24.752 14.2018 25.8 14.2018 27C14.2018 28.2 14.3685 29.24 14.702 30.12C15.043 31 15.5506 31.684 16.2251 32.172C16.8995 32.66 17.7444 32.912 18.7598 32.928C19.4491 32.944 20.0716 32.816 20.6275 32.544C21.1908 32.272 21.6651 31.844 22.0505 31.26C22.4359 30.676 22.7101 29.928 22.8732 29.016H20.3384V26.496H26.0972C26.112 26.6 26.1231 26.784 26.1305 27.048C26.1379 27.312 26.1416 27.464 26.1416 27.504C26.1416 29.16 25.8303 30.628 25.2078 31.908C24.5852 33.188 23.707 34.192 22.573 34.92C21.4391 35.64 20.1013 36 18.5597 36Z" fill="white"/>
<path d="M35.2402 36C33.6393 36 32.2571 35.624 31.0935 34.872C29.9373 34.12 29.0442 33.068 28.4142 31.716C27.7917 30.364 27.4804 28.792 27.4804 27C27.4804 25.208 27.7917 23.636 28.4142 22.284C29.0442 20.932 29.9373 19.88 31.0935 19.128C32.2571 18.376 33.6393 18 35.2402 18C36.8411 18 38.2196 18.376 39.3758 19.128C40.5394 19.88 41.4325 20.932 42.055 22.284C42.685 23.636 43 25.208 43 27C43 28.792 42.685 30.364 42.055 31.716C41.4325 33.068 40.5394 34.12 39.3758 34.872C38.2196 35.624 36.8411 36 35.2402 36ZM35.2402 32.928C36.2556 32.944 37.1005 32.708 37.7749 32.22C38.4494 31.732 38.9533 31.04 39.2869 30.144C39.6278 29.248 39.7982 28.2 39.7982 27C39.7982 25.8 39.6278 24.76 39.2869 23.88C38.9533 23 38.4494 22.316 37.7749 21.828C37.1005 21.34 36.2556 21.088 35.2402 21.072C34.2248 21.056 33.3799 21.292 32.7055 21.78C32.031 22.268 31.5233 22.96 31.1824 23.856C30.8489 24.752 30.6821 25.8 30.6821 27C30.6821 28.2 30.8489 29.24 31.1824 30.12C31.5233 31 32.031 31.684 32.7055 32.172C33.3799 32.66 34.2248 32.912 35.2402 32.928Z" fill="white"/>
</svg>
