<svg width="54" height="54" viewBox="0 0 54 54" fill="none" xmlns="http://www.w3.org/2000/svg">
<circle cx="27" cy="27" r="27" fill="#6A0BFF"/>
<path d="M10 34.68V19.32H12.8815V34.68H10Z" fill="white"/>
<path d="M22.6045 35C21.079 35 19.7618 34.6658 18.653 33.9973C17.5512 33.3289 16.7002 32.3938 16.0999 31.192C15.5066 29.9902 15.21 28.5929 15.21 27C15.21 25.4071 15.5066 24.0098 16.0999 22.808C16.7002 21.6062 17.5512 20.6711 18.653 20.0027C19.7618 19.3342 21.079 19 22.6045 19C24.13 19 25.4436 19.3342 26.5454 20.0027C27.6542 20.6711 28.5052 21.6062 29.0985 22.808C29.6988 24.0098 29.999 25.4071 29.999 27C29.999 28.5929 29.6988 29.9902 29.0985 31.192C28.5052 32.3938 27.6542 33.3289 26.5454 33.9973C25.4436 34.6658 24.13 35 22.6045 35ZM22.6045 32.2693C23.572 32.2836 24.3772 32.0738 25.0199 31.64C25.6626 31.2062 26.1428 30.5911 26.4606 29.7947C26.7855 28.9982 26.9479 28.0667 26.9479 27C26.9479 25.9333 26.7855 25.0089 26.4606 24.2267C26.1428 23.4444 25.6626 22.8364 25.0199 22.4027C24.3772 21.9689 23.572 21.7449 22.6045 21.7307C21.6369 21.7164 20.8318 21.9262 20.1891 22.36C19.5464 22.7938 19.0626 23.4089 18.7377 24.2053C18.4199 25.0018 18.261 25.9333 18.261 27C18.261 28.0667 18.4199 28.9911 18.7377 29.7733C19.0626 30.5556 19.5464 31.1636 20.1891 31.5973C20.8318 32.0311 21.6369 32.2551 22.6045 32.2693Z" fill="white"/>
<path d="M37.8768 35C36.7468 35 35.7262 34.8009 34.8152 34.4027C33.9112 33.9973 33.1661 33.4213 32.5799 32.6747C32.0007 31.9209 31.6335 31.0249 31.4781 29.9867L34.4868 29.5387C34.6986 30.4204 35.1365 31.0996 35.8004 31.576C36.4643 32.0524 37.22 32.2907 38.0675 32.2907C38.5407 32.2907 38.9997 32.216 39.4447 32.0667C39.8896 31.9173 40.2533 31.6969 40.5358 31.4053C40.8254 31.1138 40.9702 30.7547 40.9702 30.328C40.9702 30.1716 40.9455 30.0222 40.896 29.88C40.8536 29.7307 40.7795 29.592 40.6735 29.464C40.5676 29.336 40.4158 29.2151 40.218 29.1013C40.0273 28.9876 39.7837 28.8844 39.487 28.792L35.525 27.6187C35.2283 27.5333 34.8823 27.4124 34.4868 27.256C34.0983 27.0996 33.7205 26.8756 33.3532 26.584C32.986 26.2924 32.6787 25.9084 32.4316 25.432C32.1914 24.9484 32.0714 24.3404 32.0714 23.608C32.0714 22.5769 32.3292 21.72 32.8447 21.0373C33.3603 20.3547 34.0489 19.8462 34.9105 19.512C35.7721 19.1778 36.7256 19.0142 37.7708 19.0213C38.8232 19.0356 39.7625 19.2169 40.5888 19.5653C41.4151 19.9138 42.1072 20.4222 42.6652 21.0907C43.2231 21.752 43.6257 22.5627 43.8729 23.5227L40.7583 24.056C40.6453 23.5582 40.4369 23.1387 40.1333 22.7973C39.8296 22.456 39.4658 22.1964 39.0421 22.0187C38.6254 21.8409 38.1875 21.7449 37.7285 21.7307C37.2765 21.7164 36.8492 21.7804 36.4466 21.9227C36.0511 22.0578 35.7262 22.2569 35.472 22.52C35.2248 22.7831 35.1012 23.096 35.1012 23.4587C35.1012 23.7929 35.2036 24.0667 35.4084 24.28C35.6132 24.4862 35.871 24.6533 36.1818 24.7813C36.4925 24.9093 36.8103 25.016 37.1352 25.1013L39.7837 25.8267C40.1792 25.9333 40.617 26.0756 41.0973 26.2533C41.5775 26.424 42.0366 26.6658 42.4745 26.9787C42.9194 27.2844 43.2831 27.6898 43.5657 28.1947C43.8552 28.6996 44 29.3396 44 30.1147C44 30.9396 43.827 31.6613 43.4809 32.28C43.1419 32.8916 42.6828 33.4 42.1037 33.8053C41.5246 34.2036 40.8678 34.5022 40.1333 34.7013C39.4058 34.9004 38.6537 35 37.8768 35Z" fill="white"/>
</svg>
