<svg width="54" height="54" viewBox="0 0 54 54" fill="none" xmlns="http://www.w3.org/2000/svg">
<circle cx="27" cy="27" r="27" fill="#6A0BFF"/>
<path d="M6 30.0462V21.1846H7.59783L11.2219 27.0923V21.1846H12.8197V30.0462H11.2219L7.59783 24.1385V30.0462H6Z" fill="white"/>
<path d="M17.2486 30.2308C16.6195 30.2308 16.0676 30.081 15.5929 29.7815C15.1182 29.4821 14.7477 29.0697 14.4814 28.5446C14.2189 28.0154 14.0877 27.4082 14.0877 26.7231C14.0877 26.0297 14.2228 25.4205 14.493 24.8954C14.7631 24.3662 15.1356 23.9538 15.6103 23.6585C16.085 23.3631 16.6311 23.2154 17.2486 23.2154C17.8777 23.2154 18.4296 23.3651 18.9044 23.6646C19.3829 23.9641 19.7554 24.3785 20.0217 24.9077C20.288 25.4328 20.4211 26.0379 20.4211 26.7231C20.4211 27.4123 20.2861 28.0215 20.0159 28.5508C19.7496 29.0759 19.3771 29.4882 18.8986 29.7877C18.4239 30.0831 17.8739 30.2308 17.2486 30.2308ZM17.2486 28.6677C17.7542 28.6677 18.1305 28.4872 18.3775 28.1262C18.6284 27.761 18.7538 27.2933 18.7538 26.7231C18.7538 26.1323 18.6265 25.6605 18.3718 25.3077C18.1209 24.9549 17.7465 24.7785 17.2486 24.7785C16.9051 24.7785 16.6234 24.8605 16.4034 25.0246C16.1834 25.1887 16.0194 25.4164 15.9113 25.7077C15.8071 25.999 15.755 26.3374 15.755 26.7231C15.755 27.3179 15.8805 27.7918 16.1313 28.1446C16.386 28.4933 16.7585 28.6677 17.2486 28.6677Z" fill="white"/>
<path d="M24.2299 30.2308C23.6548 30.2308 23.1512 30.0769 22.7189 29.7692C22.2867 29.4615 21.9489 29.0431 21.7058 28.5138C21.4665 27.9846 21.3469 27.3877 21.3469 26.7231C21.3469 26.0462 21.4684 25.4451 21.7116 24.92C21.9586 24.3908 22.304 23.9744 22.7479 23.6708C23.1917 23.3672 23.7127 23.2154 24.311 23.2154C24.9053 23.2154 25.4051 23.3692 25.8104 23.6769C26.2156 23.9846 26.5224 24.4031 26.7308 24.9323C26.9393 25.4615 27.0435 26.0585 27.0435 26.7231C27.0435 27.3877 26.9373 27.9846 26.7251 28.5138C26.5166 29.0431 26.204 29.4615 25.7872 29.7692C25.3704 30.0769 24.8513 30.2308 24.2299 30.2308ZM24.4846 28.7415C24.8358 28.7415 25.1157 28.6574 25.3241 28.4892C25.5363 28.321 25.6888 28.0851 25.7814 27.7815C25.874 27.4779 25.9204 27.1251 25.9204 26.7231C25.9204 26.321 25.874 25.9682 25.7814 25.6646C25.6888 25.361 25.5402 25.1251 25.3356 24.9569C25.135 24.7887 24.8706 24.7046 24.5425 24.7046C24.1913 24.7046 23.9018 24.7969 23.6741 24.9815C23.4503 25.1621 23.2843 25.4062 23.1763 25.7138C23.0682 26.0174 23.0142 26.3538 23.0142 26.7231C23.0142 27.0964 23.0663 27.4369 23.1705 27.7446C23.2747 28.0482 23.4348 28.2903 23.651 28.4708C23.8671 28.6513 24.145 28.7415 24.4846 28.7415ZM25.9204 30.0462V25.4923H25.7235V21.1846H27.3098V30.0462H25.9204Z" fill="white"/>
<path d="M31.8369 30.2308C31.1963 30.2308 30.6309 30.0851 30.1407 29.7938C29.6544 29.4985 29.2723 29.0944 28.9944 28.5815C28.7204 28.0646 28.5834 27.4738 28.5834 26.8092C28.5834 26.0831 28.7185 25.4513 28.9886 24.9138C29.2588 24.3764 29.6312 23.96 30.106 23.6646C30.5807 23.3651 31.1268 23.2154 31.7443 23.2154C32.4004 23.2154 32.9581 23.3795 33.4174 23.7077C33.8767 24.0359 34.2163 24.4974 34.4363 25.0923C34.6563 25.6872 34.7335 26.3867 34.6679 27.1908H33.1106V26.5754C33.1106 25.8985 33.0083 25.4123 32.8037 25.1169C32.603 24.8174 32.2731 24.6677 31.8138 24.6677C31.2773 24.6677 30.8817 24.8421 30.627 25.1908C30.3761 25.5354 30.2507 26.0462 30.2507 26.7231C30.2507 27.3426 30.3761 27.8226 30.627 28.1631C30.8817 28.4995 31.2542 28.6677 31.7443 28.6677C32.0531 28.6677 32.3174 28.5959 32.5374 28.4523C32.7574 28.3087 32.9253 28.1015 33.0411 27.8308L34.6158 28.3108C34.3803 28.9179 34.0079 29.3897 33.4984 29.7262C32.9929 30.0626 32.439 30.2308 31.8369 30.2308ZM29.7644 27.1908V25.9477H33.9095V27.1908H29.7644Z" fill="white"/>
<path d="M36.0036 30.0462V28.3723H37.5783V30.0462H36.0036Z" fill="white"/>
<path d="M38.5314 33V31.4369H38.8092C39.1682 31.4369 39.4133 31.3508 39.5445 31.1785C39.6796 31.0062 39.7471 30.76 39.7471 30.44V23.4H41.3218V31.2523C41.3218 31.7815 41.1655 32.2041 40.8528 32.52C40.5441 32.84 40.1253 33 39.5966 33H38.5314ZM39.7471 22.4769V21H41.3218V22.4769H39.7471Z" fill="white"/>
<path d="M45.3833 30.2308C44.5959 30.2308 43.9591 30.0421 43.4728 29.6646C42.9904 29.2831 42.6971 28.7456 42.5929 28.0523L44.2023 27.7938C44.2679 28.1056 44.4126 28.3497 44.6365 28.5262C44.8642 28.7026 45.1517 28.7908 45.4991 28.7908C45.7847 28.7908 46.0046 28.7333 46.159 28.6185C46.3134 28.4995 46.3906 28.3354 46.3906 28.1262C46.3906 27.9949 46.3597 27.8903 46.298 27.8123C46.2362 27.7303 46.0973 27.6503 45.8811 27.5723C45.6689 27.4944 45.337 27.3918 44.8854 27.2646C44.3759 27.1251 43.9688 26.9692 43.6639 26.7969C43.359 26.6246 43.139 26.4195 43.0039 26.1815C42.8688 25.9395 42.8013 25.6482 42.8013 25.3077C42.8013 24.881 42.9036 24.5118 43.1081 24.2C43.3127 23.8841 43.6002 23.6421 43.9707 23.4738C44.3451 23.3015 44.7851 23.2154 45.2906 23.2154C45.7808 23.2154 46.215 23.2954 46.5932 23.4554C46.9714 23.6154 47.2763 23.8431 47.5079 24.1385C47.7433 24.4338 47.8881 24.7826 47.9421 25.1846L46.3327 25.4923C46.3057 25.2462 46.2053 25.0513 46.0317 24.9077C45.858 24.7641 45.6226 24.68 45.3254 24.6554C45.0359 24.6349 44.8024 24.6759 44.6249 24.7785C44.4512 24.881 44.3644 25.0287 44.3644 25.2215C44.3644 25.3364 44.401 25.4328 44.4744 25.5108C44.5516 25.5887 44.7079 25.6687 44.9433 25.7508C45.1826 25.8328 45.5454 25.9395 46.0317 26.0708C46.5064 26.2021 46.8865 26.3559 47.1721 26.5323C47.4616 26.7046 47.6719 26.9138 47.8032 27.16C47.9344 27.4021 48 27.6954 48 28.04C48 28.721 47.7684 29.2564 47.3053 29.6462C46.8422 30.0359 46.2015 30.2308 45.3833 30.2308Z" fill="white"/>
</svg>
