<svg width="54" height="54" viewBox="0 0 54 54" fill="none" xmlns="http://www.w3.org/2000/svg">
<circle cx="27" cy="27" r="27" fill="#6A0BFF"/>
<path d="M6 30V21H9.67554C9.76018 21 9.87302 21.0042 10.0141 21.0125C10.1592 21.0167 10.2881 21.0292 10.401 21.05C10.9209 21.1333 11.3461 21.3104 11.6765 21.5812C12.011 21.8521 12.2569 22.1937 12.4141 22.6062C12.5712 23.0146 12.6498 23.4708 12.6498 23.975C12.6498 24.4792 12.5692 24.9375 12.408 25.35C12.2508 25.7583 12.005 26.0979 11.6705 26.3688C11.34 26.6396 10.9168 26.8167 10.401 26.9C10.2881 26.9167 10.1592 26.9292 10.0141 26.9375C9.86899 26.9458 9.75615 26.95 9.67554 26.95H7.64432V30H6ZM7.64432 25.3625H9.603C9.68763 25.3625 9.78033 25.3583 9.88108 25.35C9.98184 25.3417 10.0745 25.325 10.1592 25.3C10.3808 25.2375 10.5521 25.1333 10.673 24.9875C10.7939 24.8375 10.8765 24.6729 10.9209 24.4937C10.9692 24.3104 10.9934 24.1375 10.9934 23.975C10.9934 23.8125 10.9692 23.6417 10.9209 23.4625C10.8765 23.2792 10.7939 23.1146 10.673 22.9688C10.5521 22.8188 10.3808 22.7125 10.1592 22.65C10.0745 22.625 9.98184 22.6083 9.88108 22.6C9.78033 22.5917 9.68763 22.5875 9.603 22.5875H7.64432V25.3625Z" fill="white"/>
<path d="M14.6979 33L15.9553 29.425L15.9795 30.475L13.1382 23.25H14.843L16.7533 28.3625H16.3664L18.2646 23.25H19.9089L16.2213 33H14.6979Z" fill="white"/>
<path d="M25.1605 30C24.7091 30.0875 24.2658 30.125 23.8305 30.1125C23.3993 30.1042 23.0124 30.0271 22.6698 29.8812C22.3313 29.7312 22.0733 29.4917 21.896 29.1625C21.7348 28.8542 21.6502 28.5417 21.6421 28.225C21.6341 27.9042 21.63 27.5417 21.63 27.1375V21.375H23.2743V27.0375C23.2743 27.3 23.2764 27.5375 23.2804 27.75C23.2885 27.9583 23.3308 28.125 23.4073 28.25C23.5524 28.4875 23.7842 28.6167 24.1026 28.6375C24.4209 28.6583 24.7736 28.6417 25.1605 28.5875V30ZM20.5177 24.5625V23.25H25.1605V24.5625H20.5177Z" fill="white"/>
<path d="M31.0648 30V26.8125C31.0648 26.6583 31.0567 26.4625 31.0406 26.225C31.0245 25.9833 30.9741 25.7417 30.8894 25.5C30.8048 25.2583 30.6658 25.0563 30.4723 24.8937C30.2829 24.7312 30.0129 24.65 29.6622 24.65C29.5212 24.65 29.3701 24.6729 29.2088 24.7188C29.0476 24.7646 28.8965 24.8542 28.7555 24.9875C28.6144 25.1167 28.4975 25.3083 28.4048 25.5625C28.3162 25.8167 28.2718 26.1542 28.2718 26.575L27.3288 26.1125C27.3288 25.5792 27.4335 25.0792 27.6431 24.6125C27.8527 24.1458 28.167 23.7687 28.5862 23.4812C29.0094 23.1937 29.5413 23.05 30.1821 23.05C30.694 23.05 31.1111 23.1396 31.4335 23.3188C31.7559 23.4979 32.0058 23.725 32.1831 24C32.3645 24.275 32.4935 24.5625 32.57 24.8625C32.6466 25.1583 32.693 25.4292 32.7091 25.675C32.7252 25.9208 32.7333 26.1 32.7333 26.2125V30H31.0648ZM26.6033 30V21H28.0663V25.625H28.2718V30H26.6033Z" fill="white"/>
<path d="M37.2399 30.1875C36.583 30.1875 36.0067 30.0354 35.511 29.7312C35.0153 29.4271 34.6284 29.0083 34.3503 28.475C34.0762 27.9375 33.9392 27.3208 33.9392 26.625C33.9392 25.9208 34.0803 25.3021 34.3624 24.7688C34.6445 24.2313 35.0334 23.8125 35.5291 23.5125C36.0248 23.2125 36.5951 23.0625 37.2399 23.0625C37.8969 23.0625 38.4732 23.2146 38.9689 23.5187C39.4686 23.8229 39.8576 24.2437 40.1356 24.7812C40.4137 25.3146 40.5528 25.9292 40.5528 26.625C40.5528 27.325 40.4117 27.9437 40.1296 28.4812C39.8515 29.0146 39.4626 29.4333 38.9628 29.7375C38.4671 30.0375 37.8928 30.1875 37.2399 30.1875ZM37.2399 28.6C37.7679 28.6 38.1608 28.4167 38.4188 28.05C38.6807 27.6792 38.8117 27.2042 38.8117 26.625C38.8117 26.025 38.6787 25.5458 38.4127 25.1875C38.1508 24.8292 37.7598 24.65 37.2399 24.65C36.8812 24.65 36.587 24.7333 36.3573 24.9C36.1276 25.0667 35.9563 25.2979 35.8435 25.5937C35.7347 25.8896 35.6802 26.2333 35.6802 26.625C35.6802 27.2292 35.8112 27.7104 36.0732 28.0687C36.3392 28.4229 36.7281 28.6 37.2399 28.6Z" fill="white"/>
<path d="M46.3315 30V26.8125C46.3315 26.6583 46.3234 26.4625 46.3073 26.225C46.2912 25.9833 46.2408 25.7417 46.1562 25.5C46.0715 25.2583 45.9325 25.0563 45.7391 24.8937C45.5496 24.7312 45.2796 24.65 44.929 24.65C44.7879 24.65 44.6368 24.6729 44.4756 24.7188C44.3144 24.7646 44.1632 24.8542 44.0222 24.9875C43.8811 25.1167 43.7643 25.3083 43.6716 25.5625C43.5829 25.8167 43.5386 26.1542 43.5386 26.575L42.5955 26.1125C42.5955 25.5792 42.7003 25.0792 42.9099 24.6125C43.1194 24.1458 43.4338 23.7687 43.8529 23.4812C44.2761 23.1937 44.8081 23.05 45.4489 23.05C45.9607 23.05 46.3778 23.1396 46.7003 23.3188C47.0227 23.4979 47.2725 23.725 47.4499 24C47.6312 24.275 47.7602 24.5625 47.8368 24.8625C47.9133 25.1583 47.9597 25.4292 47.9758 25.675C47.9919 25.9208 48 26.1 48 26.2125V30H46.3315ZM41.8701 30V23.25H43.333V25.4875H43.5386V30H41.8701Z" fill="white"/>
</svg>
