<svg width="54" height="54" viewBox="0 0 54 54" fill="none" xmlns="http://www.w3.org/2000/svg">
<circle cx="27" cy="27" r="27" fill="#6A0BFF"/>
<path d="M25.0715 36L20.171 30.984L22.1312 28.968L27.0084 33.984L25.0715 36ZM19.1442 36C17.464 36 16.0133 35.624 14.7921 34.872C13.5786 34.12 12.6413 33.068 11.9801 31.716C11.3267 30.364 11 28.792 11 27C11 25.208 11.3267 23.636 11.9801 22.284C12.6413 20.932 13.5786 19.88 14.7921 19.128C16.0133 18.376 17.464 18 19.1442 18C20.8244 18 22.2712 18.376 23.4847 19.128C24.7059 19.88 25.6432 20.932 26.2966 22.284C26.9578 23.636 27.2884 25.208 27.2884 27C27.2884 28.792 26.9578 30.364 26.2966 31.716C25.6432 33.068 24.7059 34.12 23.4847 34.872C22.2712 35.624 20.8244 36 19.1442 36ZM19.1442 32.928C20.2099 32.944 21.0966 32.708 21.8045 32.22C22.5123 31.732 23.0413 31.04 23.3913 30.144C23.7491 29.248 23.9281 28.2 23.9281 27C23.9281 25.8 23.7491 24.76 23.3913 23.88C23.0413 23 22.5123 22.316 21.8045 21.828C21.0966 21.34 20.2099 21.088 19.1442 21.072C18.0785 21.056 17.1918 21.292 16.4839 21.78C15.7761 22.268 15.2432 22.96 14.8854 23.856C14.5354 24.752 14.3604 25.8 14.3604 27C14.3604 28.2 14.5354 29.24 14.8854 30.12C15.2432 31 15.7761 31.684 16.4839 32.172C17.1918 32.66 18.0785 32.912 19.1442 32.928Z" fill="white"/>
<path d="M27.9951 35.64L33.1289 18.36H37.8661L43 35.64H39.733L35.1592 20.4H35.7659L31.2621 35.64H27.9951ZM31.0754 32.04V28.992H39.943V32.04H31.0754Z" fill="white"/>
</svg>
