<svg width="54" height="54" viewBox="0 0 54 54" fill="none" xmlns="http://www.w3.org/2000/svg">
<circle cx="27" cy="27" r="27" fill="#6A0BFF"/>
<path d="M8 33V21H12.8322C12.9435 21 13.0918 21.0056 13.2773 21.0167C13.468 21.0222 13.6376 21.0389 13.7859 21.0667C14.4694 21.1778 15.0284 21.4139 15.4629 21.775C15.9027 22.1361 16.2259 22.5917 16.4325 23.1417C16.6392 23.6861 16.7425 24.2944 16.7425 24.9667C16.7425 25.9722 16.5041 26.8333 16.0272 27.55C15.5503 28.2611 14.8032 28.7 13.7859 28.8667L12.8322 28.9333H10.1618V33H8ZM14.4535 33L12.1964 28.1167L14.4218 27.6667L16.9014 33H14.4535ZM10.1618 26.8167H12.7368C12.8481 26.8167 12.97 26.8111 13.1024 26.8C13.2349 26.7889 13.3568 26.7667 13.468 26.7333C13.7594 26.65 13.9846 26.5111 14.1436 26.3167C14.3025 26.1167 14.4112 25.8972 14.4694 25.6583C14.533 25.4139 14.5648 25.1833 14.5648 24.9667C14.5648 24.75 14.533 24.5222 14.4694 24.2833C14.4112 24.0389 14.3025 23.8194 14.1436 23.625C13.9846 23.425 13.7594 23.2833 13.468 23.2C13.3568 23.1667 13.2349 23.1444 13.1024 23.1333C12.97 23.1222 12.8481 23.1167 12.7368 23.1167H10.1618V26.8167Z" fill="white"/>
<path d="M21.8437 33.2667C21.1708 33.2667 20.6224 33.1472 20.1985 32.9083C19.7746 32.6694 19.4435 32.3667 19.205 32C18.9719 31.6333 18.805 31.2528 18.7043 30.8583C18.6037 30.4583 18.5427 30.0944 18.5215 29.7667C18.5003 29.4389 18.4897 29.2 18.4897 29.05V24H20.6833V28.25C20.6833 28.4556 20.6939 28.7194 20.7151 29.0417C20.7363 29.3583 20.8025 29.6778 20.9138 30C21.0251 30.3222 21.2052 30.5917 21.4542 30.8083C21.7086 31.025 22.0662 31.1333 22.5272 31.1333C22.7126 31.1333 22.9113 31.1028 23.1233 31.0417C23.3352 30.9806 23.5339 30.8639 23.7193 30.6917C23.9048 30.5139 24.0558 30.2556 24.1724 29.9167C24.2942 29.5722 24.3552 29.1222 24.3552 28.5667L25.595 29.1833C25.595 29.8944 25.4572 30.5611 25.1817 31.1833C24.9062 31.8056 24.4903 32.3083 23.9339 32.6917C23.3829 33.075 22.6861 33.2667 21.8437 33.2667ZM24.6254 33V30.0167H24.3552V24H26.5328V33H24.6254Z" fill="white"/>
<path d="M32.9664 33.25C32.1133 33.25 31.4007 33.0417 30.8284 32.625C30.2562 32.2083 29.8244 31.6417 29.533 30.925C29.2468 30.2083 29.1038 29.4 29.1038 28.5C29.1038 27.6 29.2468 26.7917 29.533 26.075C29.8191 25.3583 30.2403 24.7917 30.7966 24.375C31.353 23.9583 32.0391 23.75 32.8551 23.75C33.6764 23.75 34.3917 23.9556 35.001 24.3667C35.6103 24.7778 36.0819 25.3417 36.4157 26.0583C36.7548 26.7694 36.9243 27.5833 36.9243 28.5C36.9243 29.4 36.7574 30.2083 36.4236 30.925C36.0951 31.6417 35.6342 32.2083 35.0407 32.625C34.4473 33.0417 33.7558 33.25 32.9664 33.25ZM28.7382 33V21H30.9159V26.8333H30.6456V33H28.7382ZM32.6167 31.2333C33.0829 31.2333 33.4644 31.1111 33.7611 30.8667C34.0579 30.6222 34.2777 30.2944 34.4208 29.8833C34.5639 29.4667 34.6354 29.0056 34.6354 28.5C34.6354 28 34.5612 27.5444 34.4129 27.1333C34.2645 26.7167 34.034 26.3861 33.7214 26.1417C33.4141 25.8917 33.0194 25.7667 32.5372 25.7667C32.0868 25.7667 31.7212 25.8806 31.4404 26.1083C31.1649 26.3361 30.9636 26.6556 30.8364 27.0667C30.7092 27.4778 30.6456 27.9556 30.6456 28.5C30.6456 29.0444 30.7092 29.5222 30.8364 29.9333C30.9636 30.3444 31.1702 30.6639 31.4563 30.8917C31.7477 31.1194 32.1345 31.2333 32.6167 31.2333Z" fill="white"/>
<path d="M39.1491 37L40.8022 32.2333L40.834 33.6333L37.0986 24H39.3398L41.8513 30.8167H41.3426L43.8382 24H46L41.1519 37H39.1491Z" fill="white"/>
</svg>
