<svg width="54" height="54" viewBox="0 0 54 54" fill="none" xmlns="http://www.w3.org/2000/svg">
<circle cx="27" cy="27" r="27" fill="#6A0BFF"/>
<path d="M10 32.52V21H14.864C14.976 21 15.1253 21.0053 15.312 21.016C15.504 21.0213 15.6747 21.0373 15.824 21.064C16.512 21.1707 17.0747 21.3973 17.512 21.744C17.9547 22.0907 18.28 22.528 18.488 23.056C18.696 23.5787 18.8 24.1627 18.8 24.808C18.8 25.7733 18.56 26.6 18.08 27.288C17.6 27.9707 16.848 28.392 15.824 28.552L14.864 28.616H12.176V32.52H10ZM16.496 32.52L14.224 27.832L16.464 27.4L18.96 32.52H16.496ZM12.176 26.584H14.768C14.88 26.584 15.0027 26.5787 15.136 26.568C15.2693 26.5573 15.392 26.536 15.504 26.504C15.7973 26.424 16.024 26.2907 16.184 26.104C16.344 25.912 16.4533 25.7013 16.512 25.472C16.576 25.2373 16.608 25.016 16.608 24.808C16.608 24.6 16.576 24.3813 16.512 24.152C16.4533 23.9173 16.344 23.7067 16.184 23.52C16.024 23.328 15.7973 23.192 15.504 23.112C15.392 23.08 15.2693 23.0587 15.136 23.048C15.0027 23.0373 14.88 23.032 14.768 23.032H12.176V26.584Z" fill="white"/>
<path d="M23.9348 32.776C23.2574 32.776 22.7054 32.6613 22.2788 32.432C21.8521 32.2027 21.5188 31.912 21.2788 31.56C21.0441 31.208 20.8761 30.8427 20.7747 30.464C20.6734 30.08 20.6121 29.7307 20.5907 29.416C20.5694 29.1013 20.5588 28.872 20.5588 28.728V23.88H22.7668V27.96C22.7668 28.1573 22.7774 28.4107 22.7987 28.72C22.8201 29.024 22.8867 29.3307 22.9987 29.64C23.1108 29.9493 23.2921 30.208 23.5428 30.416C23.7987 30.624 24.1588 30.728 24.6228 30.728C24.8094 30.728 25.0094 30.6987 25.2227 30.64C25.4361 30.5813 25.6361 30.4693 25.8228 30.304C26.0094 30.1333 26.1614 29.8853 26.2787 29.56C26.4014 29.2293 26.4627 28.7973 26.4627 28.264L27.7108 28.856C27.7108 29.5387 27.5721 30.1787 27.2948 30.776C27.0174 31.3733 26.5987 31.856 26.0387 32.224C25.4841 32.592 24.7828 32.776 23.9348 32.776ZM26.7348 32.52V29.656H26.4627V23.88H28.6548V32.52H26.7348Z" fill="white"/>
<path d="M34.2666 32.76C33.1786 32.76 32.2986 32.5147 31.6266 32.024C30.96 31.528 30.5546 30.8293 30.4106 29.928L32.6346 29.592C32.7253 29.9973 32.9253 30.3147 33.2346 30.544C33.5493 30.7733 33.9466 30.888 34.4266 30.888C34.8213 30.888 35.1253 30.8133 35.3386 30.664C35.552 30.5093 35.6586 30.296 35.6586 30.024C35.6586 29.8533 35.616 29.7173 35.5306 29.616C35.4453 29.5093 35.2533 29.4053 34.9546 29.304C34.6613 29.2027 34.2026 29.0693 33.5786 28.904C32.8746 28.7227 32.312 28.52 31.8906 28.296C31.4693 28.072 31.1653 27.8053 30.9786 27.496C30.792 27.1813 30.6986 26.8027 30.6986 26.36C30.6986 25.8053 30.84 25.3253 31.1226 24.92C31.4053 24.5093 31.8026 24.1947 32.3146 23.976C32.832 23.752 33.44 23.64 34.1386 23.64C34.816 23.64 35.416 23.744 35.9386 23.952C36.4613 24.16 36.8826 24.456 37.2026 24.84C37.528 25.224 37.728 25.6773 37.8026 26.2L35.5786 26.6C35.5413 26.28 35.4026 26.0267 35.1626 25.84C34.9226 25.6533 34.5973 25.544 34.1866 25.512C33.7866 25.4853 33.464 25.5387 33.2186 25.672C32.9786 25.8053 32.8586 25.9973 32.8586 26.248C32.8586 26.3973 32.9093 26.5227 33.0106 26.624C33.1173 26.7253 33.3333 26.8293 33.6586 26.936C33.9893 27.0427 34.4906 27.1813 35.1626 27.352C35.8186 27.5227 36.344 27.7227 36.7386 27.952C37.1386 28.176 37.4293 28.448 37.6106 28.768C37.792 29.0827 37.8826 29.464 37.8826 29.912C37.8826 30.7973 37.5626 31.4933 36.9226 32C36.2826 32.5067 35.3973 32.76 34.2666 32.76Z" fill="white"/>
<path d="M44.8246 32.52C44.2273 32.632 43.6406 32.68 43.0646 32.664C42.494 32.6533 41.982 32.5547 41.5286 32.368C41.0806 32.176 40.7393 31.8693 40.5046 31.448C40.2913 31.0533 40.1793 30.6533 40.1686 30.248C40.158 29.8373 40.1526 29.3733 40.1526 28.856V21.48H42.3286V28.728C42.3286 29.064 42.3313 29.368 42.3366 29.64C42.3473 29.9067 42.4033 30.12 42.5046 30.28C42.6966 30.584 43.0033 30.7493 43.4246 30.776C43.846 30.8027 44.3126 30.7813 44.8246 30.712V32.52ZM38.6806 25.56V23.88H44.8246V25.56H38.6806Z" fill="white"/>
</svg>
