<svg width="2800" height="2800" viewBox="0 0 2800 2800" fill="none" xmlns="http://www.w3.org/2000/svg">
<rect width="2800" height="2800" fill="#4600E9"/>
<path fill-rule="evenodd" clip-rule="evenodd" d="M2166.63 1019.4C2116.36 1053.8 2084.49 1094.81 2071.56 1141.75C2064.02 1169.11 2061.41 1195.77 2066 1198.61C2073.05 1202.97 2120.69 1176.1 2143.13 1155.11C2167.44 1132.37 2186.46 1100.17 2195.04 1067.24C2200.58 1045.97 2202.28 1000.16 2197.53 1000.16C2196.01 1000.16 2182.1 1008.82 2166.63 1019.4ZM2087.15 1153.47C2084.5 1151.46 2097.33 1126.97 2105.12 1119.19C2118.64 1105.66 2118.04 1108.78 2102.55 1132.4C2094.67 1144.43 2087.74 1153.92 2087.15 1153.47Z" fill="white"/>
<path d="M1015.72 1368.52C1015.01 1369.23 1001.04 1368.18 984.677 1366.18L956.109 1362.68C955.346 1362.58 954.642 1362.22 954.123 1361.65L938.02 1344.03C902.989 1305.7 864.833 1293.47 780.1 1293.39C717.619 1293.33 715.608 1294.12 726.145 1314.59C752.019 1364.83 810.544 1396.81 876.632 1396.81C894.38 1396.81 917.354 1394.62 927.687 1391.94C938.527 1389.13 948.722 1388.27 951.795 1389.92C954.723 1391.49 978.676 1396.39 1005.03 1400.83L1052.93 1408.89L1015.72 1368.52Z" fill="white"/>
<path fill-rule="evenodd" clip-rule="evenodd" d="M974.234 826.044C974.247 808.93 976.306 789.11 978.81 781.995C981.318 774.883 984.694 769.06 986.312 769.06C991.471 769.06 1003.86 789.235 1011.24 809.661C1018.86 830.722 1021.81 888.479 1016.28 908.329L1014.95 913.122C1014.3 915.453 1011.41 916.262 1009.64 914.604L1004.93 910.174C983.897 890.417 974.214 853.207 974.234 826.044ZM1937.33 1000.45C1938.64 992.814 1944.4 985.947 1955.63 971.67C1967.21 956.949 1977.88 945.649 1979.35 946.56C1983.68 949.233 2002.99 1003.03 2010.35 1032.92C2021.62 1078.71 2025.49 1119 2023.29 1167.44C2019.28 1255.43 1989.99 1336.54 1929.13 1428.17C1898.69 1474.01 1856.85 1523.38 1773.15 1612.23C1686.76 1703.94 1676.54 1715.24 1648.95 1749.43C1566.54 1851.61 1524.43 1951.13 1524.34 2043.95C1524.28 2109.3 1544.23 2175.47 1581.69 2234.17C1588.08 2244.17 1593.29 2253.1 1593.29 2254.01C1593.29 2254.92 1512.59 2255.67 1413.95 2255.67C1315.31 2255.67 1234.6 2254.94 1234.6 2254.05C1234.6 2253.16 1246.07 2228.71 1260.09 2199.72C1286.42 2145.27 1297.07 2118.36 1337.61 2003.87C1425.3 1756.25 1493.32 1650.67 1649.08 1520.43C1722.38 1459.15 1797.96 1399.71 1861.84 1328.26C1872.52 1316.31 1882.81 1303.99 1892.09 1290.91C1915.06 1258.54 1935.2 1219.16 1947.16 1182.96C1955.74 1156.99 1956.85 1148.53 1956.94 1108.81C1957 1082.16 1955.33 1059.36 1945.92 1034.43L1945.89 1034.34C1939.2 1016.64 1936 1008.15 1937.33 1000.45Z" fill="white"/>
<path d="M2103.74 742.75C2050.65 764.828 2015.51 802.186 2006.73 845.877C2001.64 871.226 2004.96 889.782 2014.58 889.782C2037.03 889.782 2093.59 846.871 2112.95 815.142C2123.14 798.461 2134.78 761.738 2134.78 746.278C2134.78 732.043 2130.61 731.571 2103.74 742.75Z" fill="white"/>
<path d="M1674.47 555.641C1631.22 606.838 1631.48 711.152 1675 761.989L1686.4 775.312C1686.96 775.966 1687.23 776.818 1687.16 777.677L1684.88 804.601C1681.94 839.403 1672.6 883.591 1660.59 919.528C1639.27 983.287 1584.5 1078.51 1524.94 1155.37C1492.73 1196.93 1415.85 1290.47 1400.58 1307C1399.26 1308.43 1396.88 1310.89 1395.7 1312.44L1362.76 1355.68L1342.27 1387.46C1331 1404.93 1319.63 1423.4 1316.99 1428.49L1314.46 1433.38C1313.4 1435.44 1310.57 1435.73 1309.1 1433.93L1289.79 1410.17C1265.11 1379.8 1231.26 1348.68 1186.15 1314.88L1157.63 1293.51C1157 1293.04 1156.57 1292.36 1156.41 1291.6L1140.18 1214.59C1110.45 1073.48 1106.46 1057.26 1097.21 1039.82C1085.18 1017.14 1005.64 937.716 958.365 901.165L922.825 873.69C922.181 873.192 921.75 872.469 921.617 871.667L917.761 848.316C912.498 816.428 900.944 794.153 878.022 771.678C860.036 754.046 805.125 717.984 801.614 721.496C800.652 722.458 798.186 732.775 796.134 744.426C785.818 802.993 819.735 866.376 876.615 894.835C890.018 901.541 904.096 907.028 907.9 907.028C911.704 907.028 925.852 915.913 939.337 926.771C977.134 957.204 1058.65 1038.28 1066.08 1052.84C1069.74 1060 1076.49 1084.06 1081.07 1106.31C1085.66 1128.55 1094.88 1170.72 1101.56 1200.02C1108.24 1229.32 1113.06 1253.92 1112.29 1254.7C1109.76 1257.23 1032.59 1198.03 1007.22 1174.1C973.502 1142.28 945.249 1099.24 933.153 1061.25C923.858 1032.06 913.11 1026.86 890.19 1007.06C874.825 993.776 860.764 982.911 858.949 982.911C853.607 982.911 850.031 1012.78 850.279 1055.34C850.651 1119.18 867.524 1168.97 913.053 1240.58C917.468 1247.52 915.298 1247.08 887.862 1235.41C847.061 1218.04 787.615 1170.15 784.253 1151.92C781.445 1136.72 769.101 1115.04 756.371 1102.97C743.762 1091 713.146 1077.04 689.81 1072.62C661.967 1067.34 600 1068.04 600 1073.64C600 1085.02 619.552 1115.37 637.735 1132.21C666.33 1158.69 707.879 1176.07 742.576 1176.07C754.416 1176.07 758.917 1178.74 778.979 1197.66C817.98 1234.46 843.609 1251.98 883.944 1269.46C952.423 1299.12 966.318 1307.99 992.923 1339.09C1006.17 1354.57 1016.43 1367.81 1015.72 1368.52L1052.93 1408.89L1075.68 1434.76C1194.79 1570.23 1270.73 1686.94 1302.02 1782.63C1305.21 1792.39 1308.92 1800.37 1310.25 1800.37C1311.59 1800.37 1317.96 1788.34 1324.42 1773.64C1350.36 1714.54 1398.13 1635.91 1428.84 1601.75C1442.01 1587.09 1445.48 1579.89 1453.08 1551.33C1475.28 1467.9 1509.83 1393.06 1573.3 1290.91C1596.88 1252.96 1599.2 1250.52 1703 1154.67C1842.53 1025.83 1855.4 1013.47 1867.52 996.59C1873.19 988.695 1886.14 973.467 1896.29 962.743C1940.62 915.9 1962.33 862.975 1962.33 801.728C1962.33 768.281 1956.08 740.387 1945.7 727.577L1941.88 722.86C1940.63 721.311 1938.29 721.262 1936.97 722.756L1923.13 738.442C1868.38 800.541 1845.68 865.027 1855.11 931.683L1859.32 961.405C1859.46 962.385 1859.14 963.374 1858.45 964.087L1846.27 976.775C1838.97 984.377 1803.51 1017.4 1767.46 1050.16C1731.42 1082.92 1690.74 1120.62 1677.06 1133.93L1665.89 1144.81C1663.29 1147.34 1659.14 1144.3 1660.77 1141.06L1665.44 1131.75C1724.04 1014.99 1745.32 907.118 1729.65 806.16C1723.63 767.343 1723.63 767.332 1731.23 748.365C1742.6 719.985 1744.08 683.82 1735.3 649.104C1727.93 619.955 1705.57 570.662 1691.97 553.613L1686.75 547.067C1685.49 545.48 1683.09 545.446 1681.78 546.996L1674.47 555.641Z" fill="white"/>
<path d="M1334.28 2155.56H1494.98L1512.84 2210.3H1316.42L1334.28 2155.56Z" fill="#4600E9"/>
<path d="M1361.83 2078.29H1480.11L1491.94 2113.71H1347.04L1361.83 2078.29Z" fill="#4600E9"/>
<path d="M1389.61 2007.45H1476.7L1490.31 2036.43H1376L1389.61 2007.45Z" fill="#4600E9"/>
<path d="M1414.68 1941.44H1487.05L1498.36 1965.59H1403.37L1414.68 1941.44Z" fill="#4600E9"/>
<path d="M1439.96 1881.87H1498.84L1508.04 1899.58H1430.76L1439.96 1881.87Z" fill="#4600E9"/>
<circle cx="1672.24" cy="2219.96" r="37.029" fill="white"/>
</svg>
