<svg width="54" height="54" viewBox="0 0 54 54" fill="none" xmlns="http://www.w3.org/2000/svg">
<circle cx="27" cy="27" r="27" fill="#6A0BFF"/>
<path d="M15.78 37.58V21.564L12 23.888V19.688L15.78 17.42H19.672V37.58H15.78Z" fill="white"/>
<path d="M33.6468 38C31.6308 38 29.8902 37.5613 28.4248 36.684C26.9688 35.8067 25.8442 34.5793 25.0508 33.002C24.2668 31.4247 23.8748 29.5907 23.8748 27.5C23.8748 25.4093 24.2668 23.5753 25.0508 21.998C25.8442 20.4207 26.9688 19.1933 28.4248 18.316C29.8902 17.4387 31.6308 17 33.6468 17C35.9615 17 37.9028 17.574 39.4708 18.722C41.0482 19.87 42.1588 21.424 42.8028 23.384L38.9668 24.448C38.5935 23.2253 37.9635 22.278 37.0768 21.606C36.1902 20.9247 35.0468 20.584 33.6468 20.584C32.3682 20.584 31.2995 20.8687 30.4408 21.438C29.5915 22.0073 28.9522 22.81 28.5228 23.846C28.0935 24.882 27.8788 26.1 27.8788 27.5C27.8788 28.9 28.0935 30.118 28.5228 31.154C28.9522 32.19 29.5915 32.9927 30.4408 33.562C31.2995 34.1313 32.3682 34.416 33.6468 34.416C35.0468 34.416 36.1902 34.0753 37.0768 33.394C37.9635 32.7127 38.5935 31.7653 38.9668 30.552L42.8028 31.616C42.1588 33.576 41.0482 35.13 39.4708 36.278C37.9028 37.426 35.9615 38 33.6468 38Z" fill="white"/>
</svg>
