<svg width="54" height="54" viewBox="0 0 54 54" fill="none" xmlns="http://www.w3.org/2000/svg">
<circle cx="27" cy="27" r="27" fill="#6A0BFF"/>
<path d="M9 34.6939L13.296 20H17.26L21.5559 34.6939H18.8221L14.9948 21.7347H15.5025L11.7338 34.6939H9ZM11.5776 31.6327V29.0408H18.9979V31.6327H11.5776Z" fill="white"/>
<path d="M30.4918 34.6939V29.4898C30.4918 29.2381 30.4788 28.9184 30.4528 28.5306C30.4267 28.1361 30.3454 27.7415 30.2087 27.3469C30.072 26.9524 29.8474 26.6224 29.535 26.3571C29.2291 26.0918 28.793 25.9592 28.2267 25.9592C27.9989 25.9592 27.7548 25.9966 27.4944 26.0714C27.2341 26.1463 26.99 26.2925 26.7622 26.5102C26.5344 26.7211 26.3456 27.034 26.1959 27.449C26.0527 27.8639 25.9811 28.415 25.9811 29.102L24.458 28.3469C24.458 27.4762 24.6272 26.6599 24.9657 25.898C25.3041 25.1361 25.8118 24.5204 26.4888 24.051C27.1722 23.5816 28.0314 23.3469 29.0664 23.3469C29.893 23.3469 30.5667 23.4932 31.0874 23.7857C31.6081 24.0782 32.0117 24.449 32.2981 24.898C32.591 25.3469 32.7993 25.8163 32.923 26.3061C33.0466 26.7891 33.1215 27.2313 33.1475 27.6327C33.1736 28.034 33.1866 28.3265 33.1866 28.5102V34.6939H30.4918ZM23.2863 34.6939V23.6735H25.6491V27.3265H25.9811V34.6939H23.2863Z" fill="white"/>
<path d="M39.8058 35C38.836 35 37.9865 34.7449 37.2575 34.2347C36.5285 33.7245 35.959 33.0306 35.5489 32.1531C35.1453 31.2755 34.9436 30.2857 34.9436 29.1837C34.9436 28.0612 35.1486 27.0646 35.5587 26.1939C35.9752 25.3163 36.5578 24.6259 37.3063 24.1224C38.0549 23.619 38.9336 23.3673 39.9425 23.3673C40.9449 23.3673 41.7878 23.6224 42.4712 24.1327C43.1547 24.6429 43.6722 25.3367 44.0236 26.2143C44.3751 27.0918 44.5509 28.0816 44.5509 29.1837C44.5509 30.2857 44.3719 31.2755 44.0139 32.1531C43.6624 33.0306 43.1352 33.7245 42.4322 34.2347C41.7292 34.7449 40.8537 35 39.8058 35ZM40.2354 32.5306C40.8277 32.5306 41.2996 32.3912 41.6511 32.1122C42.0091 31.8333 42.2662 31.4422 42.4224 30.9388C42.5786 30.4354 42.6567 29.8503 42.6567 29.1837C42.6567 28.517 42.5786 27.932 42.4224 27.4286C42.2662 26.9252 42.0156 26.534 41.6706 26.2551C41.3322 25.9762 40.8863 25.8367 40.333 25.8367C39.7407 25.8367 39.2525 25.9898 38.8685 26.2959C38.491 26.5952 38.2111 27 38.0288 27.5102C37.8466 28.0136 37.7555 28.5714 37.7555 29.1837C37.7555 29.8027 37.8433 30.3673 38.0191 30.8776C38.1948 31.381 38.4649 31.7823 38.8294 32.0816C39.1939 32.381 39.6626 32.5306 40.2354 32.5306ZM42.6567 34.6939V27.1429H42.3248V20H45V34.6939H42.6567Z" fill="white"/>
</svg>
