<svg width="54" height="54" viewBox="0 0 54 54" fill="none" xmlns="http://www.w3.org/2000/svg">
<circle cx="27" cy="27" r="27" fill="#6A0BFF"/>
<path d="M6.97998 32.0027V21.9227H10.977C11.6583 21.9227 12.216 22.0604 12.65 22.3357C13.0886 22.6064 13.413 22.954 13.623 23.3787C13.8376 23.8034 13.945 24.242 13.945 24.6947C13.945 25.25 13.812 25.7214 13.546 26.1087C13.2846 26.496 12.9276 26.7574 12.475 26.8927V26.5427C13.1096 26.6874 13.5903 26.9884 13.917 27.4457C14.2483 27.903 14.414 28.4234 14.414 29.0067C14.414 29.604 14.2996 30.1267 14.071 30.5747C13.8423 31.0227 13.5016 31.3727 13.049 31.6247C12.601 31.8767 12.0456 32.0027 11.383 32.0027H6.97998ZM8.68798 30.4137H11.173C11.467 30.4137 11.7306 30.3554 11.964 30.2387C12.1973 30.1174 12.3793 29.9494 12.51 29.7347C12.6453 29.5154 12.713 29.2564 12.713 28.9577C12.713 28.687 12.6546 28.4444 12.538 28.2297C12.4213 28.015 12.251 27.8447 12.027 27.7187C11.803 27.588 11.5346 27.5227 11.222 27.5227H8.68798V30.4137ZM8.68798 25.9477H10.956C11.1986 25.9477 11.4156 25.901 11.607 25.8077C11.7983 25.7144 11.95 25.5767 12.062 25.3947C12.174 25.2127 12.23 24.9887 12.23 24.7227C12.23 24.3727 12.118 24.081 11.894 23.8477C11.67 23.6144 11.3573 23.4977 10.956 23.4977H8.68798V25.9477Z" fill="white"/>
<path d="M15.112 32.0027L18.29 21.9227H20.761L23.939 32.0027H22.203L19.319 22.9587H19.697L16.848 32.0027H15.112ZM16.883 29.8187V28.2437H22.175V29.8187H16.883Z" fill="white"/>
<path d="M27.7526 21.9227H29.4466L26.7586 32.0027H25.0646L27.7526 21.9227Z" fill="white"/>
<path d="M34.9922 32.2127C34.2549 32.2127 33.5899 32.0844 32.9972 31.8277C32.4092 31.571 31.9239 31.2047 31.5412 30.7287C31.1632 30.248 30.9229 29.6787 30.8202 29.0207L32.5702 28.7547C32.7196 29.352 33.0252 29.814 33.4872 30.1407C33.9539 30.4674 34.4906 30.6307 35.0972 30.6307C35.4566 30.6307 35.7949 30.5747 36.1122 30.4627C36.4296 30.3507 36.6862 30.1874 36.8822 29.9727C37.0829 29.758 37.1832 29.4944 37.1832 29.1817C37.1832 29.0417 37.1599 28.9134 37.1132 28.7967C37.0666 28.6754 36.9966 28.568 36.9032 28.4747C36.8146 28.3814 36.6979 28.2974 36.5532 28.2227C36.4132 28.1434 36.2499 28.0757 36.0632 28.0197L33.4592 27.2497C33.2352 27.1844 32.9926 27.098 32.7312 26.9907C32.4746 26.8787 32.2296 26.727 31.9962 26.5357C31.7676 26.3397 31.5786 26.0924 31.4292 25.7937C31.2846 25.4904 31.2122 25.117 31.2122 24.6737C31.2122 24.025 31.3756 23.4814 31.7022 23.0427C32.0336 22.5994 32.4769 22.268 33.0322 22.0487C33.5922 21.8294 34.2129 21.722 34.8942 21.7267C35.5849 21.7314 36.2009 21.8504 36.7422 22.0837C37.2836 22.3124 37.7362 22.646 38.1002 23.0847C38.4642 23.5234 38.7209 24.053 38.8702 24.6737L37.0572 24.9887C36.9826 24.634 36.8379 24.333 36.6232 24.0857C36.4132 23.8337 36.1542 23.6424 35.8462 23.5117C35.5429 23.381 35.2186 23.311 34.8732 23.3017C34.5372 23.297 34.2246 23.3484 33.9352 23.4557C33.6506 23.5584 33.4196 23.7077 33.2422 23.9037C33.0696 24.0997 32.9832 24.3284 32.9832 24.5897C32.9832 24.837 33.0579 25.04 33.2072 25.1987C33.3566 25.3527 33.5409 25.4764 33.7602 25.5697C33.9842 25.6584 34.2106 25.733 34.4392 25.7937L36.2452 26.2977C36.4926 26.363 36.7702 26.4517 37.0782 26.5637C37.3862 26.6757 37.6826 26.832 37.9672 27.0327C38.2519 27.2334 38.4852 27.497 38.6672 27.8237C38.8539 28.1504 38.9472 28.5657 38.9472 29.0697C38.9472 29.5924 38.8376 30.052 38.6182 30.4487C38.4036 30.8407 38.1119 31.1674 37.7432 31.4287C37.3746 31.69 36.9522 31.886 36.4762 32.0167C36.0049 32.1474 35.5102 32.2127 34.9922 32.2127Z" fill="white"/>
<path d="M39.7624 32.0027L42.9404 21.9227H45.4114L48.5894 32.0027H46.8534L43.9694 22.9587H44.3474L41.4984 32.0027H39.7624ZM41.5334 29.8187V28.2437H46.8254V29.8187H41.5334Z" fill="white"/>
</svg>
