<svg width="54" height="54" viewBox="0 0 54 54" fill="none" xmlns="http://www.w3.org/2000/svg">
<circle cx="27" cy="27" r="27" fill="#6A0BFF"/>
<path d="M16.4697 16C18.9497 16 21.03 16.6147 22.71 17.8447C24.3999 19.0747 25.5903 20.7399 26.2803 22.8398L22.1699 23.9795C21.7699 22.6696 21.0945 21.6545 20.1445 20.9346C19.1946 20.2047 17.9696 19.8398 16.4697 19.8398C15.0999 19.8399 13.9551 20.145 13.0352 20.7549C12.1252 21.3649 11.4395 22.225 10.9795 23.335C10.5196 24.4449 10.29 25.7501 10.29 27.25C10.2901 28.7499 10.5195 30.0551 10.9795 31.165C11.4395 32.275 12.1252 33.1351 13.0352 33.7451C13.9551 34.3549 15.1 34.6601 16.4697 34.6602C17.9697 34.6602 19.1945 34.2944 20.1445 33.5645C21.0945 32.8345 21.7699 31.8195 22.1699 30.5195L26.2803 31.6602C25.5903 33.7599 24.3997 35.4244 22.71 36.6543C21.03 37.8843 18.9497 38.5 16.4697 38.5C14.3098 38.5 12.4449 38.0298 10.875 37.0898C9.315 36.1498 8.10977 34.8345 7.25977 33.1445C6.41987 31.4546 6.00003 29.4898 6 27.25C6 25.01 6.41977 23.0445 7.25977 21.3545C8.10975 19.6646 9.31509 18.3501 10.875 17.4102C12.445 16.4702 14.3098 16 16.4697 16ZM33.1787 26.8936H36.6182V28.9941H33.1787V32.4541H31.0781V28.9941H27.6182V26.8936H31.0781V23.4541H33.1787V26.8936ZM44.585 26.8936H48.0244V28.9941H44.585V32.4541H42.4844V28.9941H39.0244V26.8936H42.4844V23.4541H44.585V26.8936Z" fill="white"/>
</svg>
