<svg width="54" height="54" viewBox="0 0 54 54" fill="none" xmlns="http://www.w3.org/2000/svg">
<circle cx="27" cy="27" r="27" fill="#6A0BFF"/>
<path d="M32.4545 32.654L33.3054 29.4371H30.4024L30.9696 27.2469H33.8727L34.3232 25.4844H31.4201L32.0041 23.3113H34.8904L35.6746 20.3511H37.8769L37.0927 23.3113H38.8946L39.6788 20.3511H41.8811L41.097 23.3113H44L43.4327 25.4844H40.5297L40.0625 27.2469H42.9656L42.3983 29.4371H39.4953L38.6611 32.654H36.4587L37.293 29.4371H35.4911L34.6569 32.654H32.4545ZM36.075 27.2469H37.8602L38.3274 25.4844H36.5255L36.075 27.2469Z" fill="white"/>
<path d="M19.9819 38C17.9226 38 16.1445 37.5404 14.6477 36.6213C13.1605 35.7022 12.0116 34.4164 11.2013 32.764C10.4004 31.1116 10 29.1902 10 27C10 24.8098 10.4004 22.8884 11.2013 21.236C12.0116 19.5836 13.1605 18.2978 14.6477 17.3787C16.1445 16.4596 17.9226 16 19.9819 16C22.3463 16 24.3293 16.6013 25.931 17.804C27.5422 19.0067 28.6768 20.6347 29.3346 22.688L25.4162 23.8027C25.0348 22.5218 24.3913 21.5293 23.4856 20.8253C22.5799 20.1116 21.412 19.7547 19.9819 19.7547C18.6758 19.7547 17.5842 20.0529 16.707 20.6493C15.8395 21.2458 15.1864 22.0867 14.7478 23.172C14.3093 24.2573 14.09 25.5333 14.09 27C14.09 28.4667 14.3093 29.7427 14.7478 30.828C15.1864 31.9133 15.8395 32.7542 16.707 33.3507C17.5842 33.9471 18.6758 34.2453 19.9819 34.2453C21.412 34.2453 22.5799 33.8884 23.4856 33.1747C24.3913 32.4609 25.0348 31.4684 25.4162 30.1973L29.3346 31.312C28.6768 33.3653 27.5422 34.9933 25.931 36.196C24.3293 37.3987 22.3463 38 19.9819 38Z" fill="white"/>
</svg>
