<svg width="54" height="54" viewBox="0 0 54 54" fill="none" xmlns="http://www.w3.org/2000/svg">
<circle cx="27" cy="27" r="27" fill="#6A0BFF"/>
<path d="M9 32.7551V21H12.7232C12.8138 21 13.0002 21.0027 13.2825 21.0082C13.5648 21.0136 13.8365 21.0327 14.0975 21.0653C15.0243 21.1796 15.8099 21.5088 16.4544 22.0531C17.0989 22.5973 17.589 23.2884 17.9246 24.1265C18.2601 24.9646 18.4279 25.8816 18.4279 26.8776C18.4279 27.8735 18.2601 28.7905 17.9246 29.6286C17.589 30.4667 17.0989 31.1578 16.4544 31.702C15.8099 32.2463 15.0243 32.5755 14.0975 32.6898C13.8365 32.7224 13.5648 32.7415 13.2825 32.7469C13.0002 32.7524 12.8138 32.7551 12.7232 32.7551H9ZM11.2052 30.6653H12.7232C12.867 30.6653 13.0615 30.6626 13.3065 30.6571C13.5515 30.6463 13.7725 30.6218 13.9696 30.5837C14.4703 30.4803 14.8778 30.2408 15.1921 29.8653C15.5117 29.4898 15.746 29.0381 15.8952 28.5102C16.0496 27.9823 16.1269 27.4381 16.1269 26.8776C16.1269 26.2898 16.047 25.732 15.8872 25.2041C15.7327 24.6762 15.4957 24.2299 15.1761 23.8653C14.8565 23.5007 14.4543 23.2694 13.9696 23.1714C13.7725 23.1279 13.5515 23.1034 13.3065 23.098C13.0615 23.0925 12.867 23.0898 12.7232 23.0898H11.2052V30.6653Z" fill="white"/>
<path d="M22.7418 33C22.1239 33 21.5992 32.8803 21.1678 32.6408C20.7417 32.3959 20.4167 32.0721 20.193 31.6694C19.9746 31.2612 19.8654 30.8122 19.8654 30.3224C19.8654 29.9143 19.9267 29.5415 20.0492 29.2041C20.1717 28.8667 20.3688 28.5701 20.6404 28.3143C20.9174 28.0531 21.2876 27.8354 21.751 27.6612C22.0706 27.5415 22.4515 27.4354 22.8936 27.3429C23.3357 27.2503 23.8364 27.1633 24.3956 27.0816C24.9549 26.9946 25.5701 26.8993 26.2413 26.7959L25.4583 27.2367C25.4583 26.7143 25.3358 26.3306 25.0907 26.0857C24.8457 25.8408 24.4356 25.7184 23.8603 25.7184C23.5407 25.7184 23.2078 25.7973 22.8616 25.9551C22.5154 26.1129 22.273 26.3932 22.1345 26.7959L20.1691 26.1592C20.3874 25.4299 20.7976 24.8367 21.3995 24.3796C22.0014 23.9224 22.8217 23.6939 23.8603 23.6939C24.622 23.6939 25.2985 23.8136 25.8897 24.0531C26.481 24.2925 26.9284 24.7061 27.232 25.2939C27.4024 25.6204 27.5037 25.9469 27.5356 26.2735C27.5676 26.6 27.5835 26.9646 27.5835 27.3673V32.7551H25.682V30.9429L25.9536 31.3184C25.5328 31.9116 25.0774 32.3415 24.5874 32.6082C24.1027 32.8694 23.4875 33 22.7418 33ZM23.2052 31.2531C23.6046 31.2531 23.9402 31.1823 24.2119 31.0408C24.4888 30.8939 24.7072 30.7279 24.867 30.5429C25.0322 30.3578 25.144 30.2027 25.2026 30.0776C25.3145 29.8381 25.3784 29.5605 25.3944 29.2449C25.4157 28.9238 25.4263 28.6571 25.4263 28.4449L26.0655 28.6082C25.421 28.717 24.899 28.8095 24.4995 28.8857C24.1 28.9565 23.7778 29.0218 23.5327 29.0816C23.2877 29.1415 23.072 29.2068 22.8856 29.2776C22.6725 29.3646 22.4994 29.4599 22.3662 29.5633C22.2384 29.6612 22.1425 29.7701 22.0786 29.8898C22.02 30.0095 21.9907 30.1429 21.9907 30.2898C21.9907 30.4912 22.0387 30.6653 22.1345 30.8122C22.2357 30.9537 22.3769 31.0626 22.558 31.1388C22.7391 31.215 22.9548 31.2531 23.2052 31.2531Z" fill="white"/>
<path d="M34.8384 32.7551C34.2418 32.8694 33.6559 32.9184 33.0806 32.902C32.5107 32.8912 31.9993 32.7905 31.5466 32.6C31.0992 32.4041 30.7583 32.0912 30.5239 31.6612C30.3108 31.2585 30.199 30.8503 30.1883 30.4367C30.1777 30.0177 30.1724 29.5442 30.1724 29.0163V21.4898H32.3456V28.8857C32.3456 29.2286 32.3482 29.5388 32.3536 29.8163C32.3642 30.0884 32.4201 30.3061 32.5213 30.4694C32.7131 30.7796 33.0194 30.9483 33.4402 30.9755C33.861 31.0027 34.327 30.981 34.8384 30.9102V32.7551ZM28.7022 25.6531V23.9388H34.8384V25.6531H28.7022Z" fill="white"/>
<path d="M39.1582 33C38.5403 33 38.0157 32.8803 37.5842 32.6408C37.1581 32.3959 36.8332 32.0721 36.6095 31.6694C36.3911 31.2612 36.2819 30.8122 36.2819 30.3224C36.2819 29.9143 36.3431 29.5415 36.4657 29.2041C36.5882 28.8667 36.7852 28.5701 37.0569 28.3143C37.3339 28.0531 37.7041 27.8354 38.1675 27.6612C38.4871 27.5415 38.8679 27.4354 39.31 27.3429C39.7521 27.2503 40.2528 27.1633 40.8121 27.0816C41.3714 26.9946 41.9866 26.8993 42.6577 26.7959L41.8747 27.2367C41.8747 26.7143 41.7522 26.3306 41.5072 26.0857C41.2622 25.8408 40.852 25.7184 40.2768 25.7184C39.9572 25.7184 39.6243 25.7973 39.2781 25.9551C38.9318 26.1129 38.6895 26.3932 38.551 26.7959L36.5855 26.1592C36.8039 25.4299 37.214 24.8367 37.8159 24.3796C38.4178 23.9224 39.2381 23.6939 40.2768 23.6939C41.0385 23.6939 41.7149 23.8136 42.3062 24.0531C42.8974 24.2925 43.3448 24.7061 43.6484 25.2939C43.8189 25.6204 43.9201 25.9469 43.9521 26.2735C43.984 26.6 44 26.9646 44 27.3673V32.7551H42.0984V30.9429L42.3701 31.3184C41.9493 31.9116 41.4939 32.3415 41.0038 32.6082C40.5191 32.8694 39.9039 33 39.1582 33ZM39.6216 31.2531C40.0211 31.2531 40.3567 31.1823 40.6283 31.0408C40.9053 30.8939 41.1237 30.7279 41.2835 30.5429C41.4486 30.3578 41.5605 30.2027 41.619 30.0776C41.7309 29.8381 41.7948 29.5605 41.8108 29.2449C41.8321 28.9238 41.8428 28.6571 41.8428 28.4449L42.4819 28.6082C41.8374 28.717 41.3154 28.8095 40.916 28.8857C40.5165 28.9565 40.1942 29.0218 39.9492 29.0816C39.7042 29.1415 39.4885 29.2068 39.302 29.2776C39.089 29.3646 38.9159 29.4599 38.7827 29.5633C38.6549 29.6612 38.559 29.7701 38.4951 29.8898C38.4365 30.0095 38.4072 30.1429 38.4072 30.2898C38.4072 30.4912 38.4551 30.6653 38.551 30.8122C38.6522 30.9537 38.7933 31.0626 38.9744 31.1388C39.1555 31.215 39.3713 31.2531 39.6216 31.2531Z" fill="white"/>
</svg>
