<svg width="54" height="54" viewBox="0 0 54 54" fill="none" xmlns="http://www.w3.org/2000/svg">
<circle cx="27" cy="27" r="27" fill="#6A0BFF"/>
<path d="M10.44 33C9.71467 33 9.024 32.872 8.368 32.616C7.712 32.3547 7.13067 31.9707 6.624 31.464C6.12267 30.9573 5.72533 30.3307 5.432 29.584C5.144 28.8373 5 27.976 5 27C5 25.7253 5.24267 24.6427 5.728 23.752C6.21867 22.856 6.87467 22.1733 7.696 21.704C8.52267 21.2347 9.43733 21 10.44 21C11.9227 21 13.088 21.344 13.936 22.032C14.784 22.72 15.352 23.6933 15.64 24.952L13.416 25.272C13.208 24.6 12.8667 24.064 12.392 23.664C11.9227 23.2587 11.32 23.0533 10.584 23.048C9.85333 23.0373 9.24533 23.1947 8.76 23.52C8.27467 23.8453 7.90933 24.3067 7.664 24.904C7.424 25.5013 7.304 26.2 7.304 27C7.304 27.8 7.424 28.4933 7.664 29.08C7.90933 29.6667 8.27467 30.1227 8.76 30.448C9.24533 30.7733 9.85333 30.9413 10.584 30.952C11.08 30.9627 11.528 30.8773 11.928 30.696C12.3333 30.5147 12.6747 30.2293 12.952 29.84C13.2293 29.4507 13.4267 28.952 13.544 28.344H11.72V26.664H15.864C15.8747 26.7333 15.8827 26.856 15.888 27.032C15.8933 27.208 15.896 27.3093 15.896 27.336C15.896 28.44 15.672 29.4187 15.224 30.272C14.776 31.1253 14.144 31.7947 13.328 32.28C12.512 32.76 11.5493 33 10.44 33Z" fill="white"/>
<path d="M19.8994 33C19.2807 33 18.7554 32.8827 18.3234 32.648C17.8967 32.408 17.5714 32.0907 17.3474 31.696C17.1287 31.296 17.0194 30.856 17.0194 30.376C17.0194 29.976 17.0807 29.6107 17.2034 29.28C17.326 28.9493 17.5234 28.6587 17.7954 28.408C18.0727 28.152 18.4434 27.9387 18.9074 27.768C19.2274 27.6507 19.6087 27.5467 20.0514 27.456C20.494 27.3653 20.9954 27.28 21.5554 27.2C22.1154 27.1147 22.7314 27.0213 23.4034 26.92L22.6194 27.352C22.6194 26.84 22.4967 26.464 22.2514 26.224C22.006 25.984 21.5954 25.864 21.0194 25.864C20.6994 25.864 20.366 25.9413 20.0194 26.096C19.6727 26.2507 19.43 26.5253 19.2914 26.92L17.3234 26.296C17.542 25.5813 17.9527 25 18.5554 24.552C19.158 24.104 19.9794 23.88 21.0194 23.88C21.782 23.88 22.4594 23.9973 23.0514 24.232C23.6434 24.4667 24.0914 24.872 24.3954 25.448C24.566 25.768 24.6674 26.088 24.6994 26.408C24.7314 26.728 24.7474 27.0853 24.7474 27.48V32.76H22.8434V30.984L23.1154 31.352C22.694 31.9333 22.238 32.3547 21.7474 32.616C21.262 32.872 20.646 33 19.8994 33ZM20.3634 31.288C20.7634 31.288 21.0994 31.2187 21.3714 31.08C21.6487 30.936 21.8674 30.7733 22.0274 30.592C22.1927 30.4107 22.3047 30.2587 22.3634 30.136C22.4754 29.9013 22.5394 29.6293 22.5554 29.32C22.5767 29.0053 22.5874 28.744 22.5874 28.536L23.2274 28.696C22.582 28.8027 22.0594 28.8933 21.6594 28.968C21.2594 29.0373 20.9367 29.1013 20.6914 29.16C20.446 29.2187 20.23 29.2827 20.0434 29.352C19.83 29.4373 19.6567 29.5307 19.5234 29.632C19.3954 29.728 19.2994 29.8347 19.2354 29.952C19.1767 30.0693 19.1474 30.2 19.1474 30.344C19.1474 30.5413 19.1954 30.712 19.2914 30.856C19.3927 30.9947 19.534 31.1013 19.7154 31.176C19.8967 31.2507 20.1127 31.288 20.3634 31.288Z" fill="white"/>
<path d="M37.2275 32.76V27.656C37.2275 27.0853 37.0915 26.6427 36.8195 26.328C36.5528 26.008 36.1822 25.848 35.7075 25.848C35.4035 25.848 35.1395 25.92 34.9155 26.064C34.6915 26.2027 34.5155 26.4 34.3875 26.656C34.2648 26.9067 34.2035 27.1973 34.2035 27.528L33.2915 26.92C33.2915 26.328 33.4302 25.8053 33.7075 25.352C33.9902 24.8987 34.3662 24.5467 34.8355 24.296C35.3102 24.04 35.8355 23.912 36.4115 23.912C37.3982 23.912 38.1422 24.2053 38.6435 24.792C39.1502 25.3733 39.4035 26.136 39.4035 27.08V32.76H37.2275ZM26.8115 32.76V24.12H28.7315V26.984H29.0035V32.76H26.8115ZM32.0275 32.76V27.656C32.0275 27.0853 31.8915 26.6427 31.6195 26.328C31.3528 26.008 30.9822 25.848 30.5075 25.848C30.0542 25.848 29.6888 26.0053 29.4115 26.32C29.1395 26.6293 29.0035 27.032 29.0035 27.528L28.0915 26.888C28.0915 26.3227 28.2328 25.816 28.5155 25.368C28.7982 24.92 29.1768 24.5653 29.6515 24.304C30.1315 24.0427 30.6675 23.912 31.2595 23.912C31.9368 23.912 32.4915 24.056 32.9235 24.344C33.3608 24.632 33.6835 25.016 33.8915 25.496C34.0995 25.976 34.2035 26.504 34.2035 27.08V32.76H32.0275Z" fill="white"/>
<path d="M45.3435 33C44.4582 33 43.6768 32.8107 42.9995 32.432C42.3275 32.048 41.7995 31.5227 41.4155 30.856C41.0368 30.184 40.8475 29.416 40.8475 28.552C40.8475 27.608 41.0342 26.7867 41.4075 26.088C41.7808 25.3893 42.2955 24.848 42.9515 24.464C43.6075 24.0747 44.3622 23.88 45.2155 23.88C46.1222 23.88 46.8928 24.0933 47.5275 24.52C48.1622 24.9467 48.6315 25.5467 48.9355 26.32C49.2395 27.0933 49.3462 28.0027 49.2555 29.048H47.1035V28.248C47.1035 27.368 46.9622 26.736 46.6795 26.352C46.4022 25.9627 45.9462 25.768 45.3115 25.768C44.5702 25.768 44.0235 25.9947 43.6715 26.448C43.3248 26.896 43.1515 27.56 43.1515 28.44C43.1515 29.2453 43.3248 29.8693 43.6715 30.312C44.0235 30.7493 44.5382 30.968 45.2155 30.968C45.6422 30.968 46.0075 30.8747 46.3115 30.688C46.6155 30.5013 46.8475 30.232 47.0075 29.88L49.1835 30.504C48.8582 31.2933 48.3435 31.9067 47.6395 32.344C46.9408 32.7813 46.1755 33 45.3435 33ZM42.4795 29.048V27.432H48.2075V29.048H42.4795Z" fill="white"/>
</svg>
