<svg width="54" height="54" viewBox="0 0 54 54" fill="none" xmlns="http://www.w3.org/2000/svg">
<circle cx="27" cy="27" r="27" fill="#6A0BFF"/>
<path d="M13.5157 33C12.6036 33 11.8507 32.7605 11.2568 32.2816C10.6681 31.8027 10.2492 31.1551 10 30.3388L12.1317 29.8163C12.1794 30.1156 12.3332 30.3769 12.593 30.6C12.8529 30.8177 13.1286 30.9265 13.4203 30.9265C13.6218 30.9265 13.8365 30.8694 14.0646 30.7551C14.2979 30.6408 14.4649 30.4585 14.5657 30.2082C14.6293 30.0503 14.6664 29.8571 14.677 29.6286C14.6876 29.4 14.6929 29.1361 14.6929 28.8367V21H16.8883V28.8367C16.8883 29.2122 16.8856 29.5388 16.8803 29.8163C16.8803 30.0939 16.8538 30.3551 16.8008 30.6C16.753 30.8395 16.6549 31.0898 16.5065 31.351C16.183 31.9279 15.7614 32.3469 15.2418 32.6082C14.7221 32.8694 14.1467 33 13.5157 33Z" fill="white"/>
<path d="M21.6559 33C21.0408 33 20.5185 32.8803 20.0889 32.6408C19.6647 32.3959 19.3412 32.0721 19.1185 31.6694C18.9011 31.2612 18.7924 30.8122 18.7924 30.3224C18.7924 29.9143 18.8534 29.5415 18.9754 29.2041C19.0973 28.8667 19.2935 28.5701 19.564 28.3143C19.8397 28.0531 20.2082 27.8354 20.6696 27.6612C20.9877 27.5415 21.3669 27.4354 21.807 27.3429C22.2471 27.2503 22.7456 27.1633 23.3024 27.0816C23.8592 26.9946 24.4716 26.8993 25.1398 26.7959L24.3603 27.2367C24.3603 26.7143 24.2383 26.3306 23.9944 26.0857C23.7505 25.8408 23.3422 25.7184 22.7695 25.7184C22.4513 25.7184 22.1199 25.7973 21.7752 25.9551C21.4305 26.1129 21.1892 26.3932 21.0514 26.7959L19.0947 26.1592C19.3121 25.4299 19.7204 24.8367 20.3196 24.3796C20.9188 23.9224 21.7354 23.6939 22.7695 23.6939C23.5278 23.6939 24.2012 23.8136 24.7898 24.0531C25.3784 24.2925 25.8238 24.7061 26.1261 25.2939C26.2958 25.6204 26.3965 25.9469 26.4284 26.2735C26.4602 26.6 26.4761 26.9646 26.4761 27.3673V32.7551H24.583V30.9429L24.8534 31.3184C24.4345 31.9116 23.9811 32.3415 23.4933 32.6082C23.0107 32.8694 22.3983 33 21.6559 33ZM22.1172 31.2531C22.5149 31.2531 22.849 31.1823 23.1194 31.0408C23.3952 30.8939 23.6126 30.7279 23.7717 30.5429C23.9361 30.3578 24.0474 30.2027 24.1058 30.0776C24.2171 29.8381 24.2807 29.5605 24.2967 29.2449C24.3179 28.9238 24.3285 28.6571 24.3285 28.4449L24.9648 28.6082C24.3232 28.717 23.8035 28.8095 23.4058 28.8857C23.0081 28.9565 22.6873 29.0218 22.4433 29.0816C22.1994 29.1415 21.9847 29.2068 21.7991 29.2776C21.587 29.3646 21.4146 29.4599 21.282 29.5633C21.1548 29.6612 21.0593 29.7701 20.9957 29.8898C20.9374 30.0095 20.9082 30.1429 20.9082 30.2898C20.9082 30.4912 20.9559 30.6653 21.0514 30.8122C21.1521 30.9537 21.2927 31.0626 21.4729 31.1388C21.6532 31.215 21.868 31.2531 22.1172 31.2531Z" fill="white"/>
<path d="M30.5562 32.7551L27.4382 23.9388H29.6017L31.6379 30.0449L33.6742 23.9388H35.8377L32.7197 32.7551H30.5562Z" fill="white"/>
<path d="M39.1798 33C38.5647 33 38.0424 32.8803 37.6128 32.6408C37.1886 32.3959 36.8652 32.0721 36.6424 31.6694C36.425 31.2612 36.3163 30.8122 36.3163 30.3224C36.3163 29.9143 36.3773 29.5415 36.4993 29.2041C36.6212 28.8667 36.8174 28.5701 37.0879 28.3143C37.3636 28.0531 37.7322 27.8354 38.1935 27.6612C38.5117 27.5415 38.8908 27.4354 39.3309 27.3429C39.7711 27.2503 40.2695 27.1633 40.8263 27.0816C41.3831 26.9946 41.9956 26.8993 42.6637 26.7959L41.8842 27.2367C41.8842 26.7143 41.7622 26.3306 41.5183 26.0857C41.2744 25.8408 40.8661 25.7184 40.2934 25.7184C39.9752 25.7184 39.6438 25.7973 39.2991 25.9551C38.9544 26.1129 38.7132 26.3932 38.5753 26.7959L36.6186 26.1592C36.836 25.4299 37.2443 24.8367 37.8435 24.3796C38.4427 23.9224 39.2593 23.6939 40.2934 23.6939C41.0517 23.6939 41.7251 23.8136 42.3137 24.0531C42.9023 24.2925 43.3478 24.7061 43.65 25.2939C43.8197 25.6204 43.9205 25.9469 43.9523 26.2735C43.9841 26.6 44 26.9646 44 27.3673V32.7551H42.1069V30.9429L42.3774 31.3184C41.9584 31.9116 41.5051 32.3415 41.0172 32.6082C40.5347 32.8694 39.9222 33 39.1798 33ZM39.6411 31.2531C40.0389 31.2531 40.3729 31.1823 40.6434 31.0408C40.9191 30.8939 41.1365 30.7279 41.2956 30.5429C41.46 30.3578 41.5713 30.2027 41.6297 30.0776C41.741 29.8381 41.8047 29.5605 41.8206 29.2449C41.8418 28.9238 41.8524 28.6571 41.8524 28.4449L42.4887 28.6082C41.8471 28.717 41.3274 28.8095 40.9297 28.8857C40.532 28.9565 40.2112 29.0218 39.9673 29.0816C39.7233 29.1415 39.5086 29.2068 39.323 29.2776C39.1109 29.3646 38.9385 29.4599 38.806 29.5633C38.6787 29.6612 38.5832 29.7701 38.5196 29.8898C38.4613 30.0095 38.4321 30.1429 38.4321 30.2898C38.4321 30.4912 38.4798 30.6653 38.5753 30.8122C38.676 30.9537 38.8166 31.0626 38.9969 31.1388C39.1772 31.215 39.3919 31.2531 39.6411 31.2531Z" fill="white"/>
</svg>
