<svg width="54" height="54" viewBox="0 0 54 54" fill="none" xmlns="http://www.w3.org/2000/svg">
<circle cx="27" cy="27" r="27" fill="#6A0BFF"/>
<path d="M35.1973 34V20H41.168C41.3055 20 41.4888 20.0065 41.718 20.0194C41.9536 20.0259 42.1631 20.0454 42.3465 20.0778C43.191 20.2074 43.8817 20.4829 44.4185 20.9042C44.9619 21.3255 45.3613 21.8569 45.6166 22.4986C45.8719 23.1338 45.9996 23.8435 45.9996 24.6278C45.9996 25.412 45.8687 26.125 45.6068 26.7667C45.3515 27.4019 44.9521 27.9301 44.4087 28.3514C43.8719 28.7727 43.1845 29.0481 42.3465 29.1778C42.1631 29.2037 41.9536 29.2231 41.718 29.2361C41.4823 29.2491 41.299 29.2556 41.168 29.2556H37.8684V34H35.1973ZM37.8684 26.7861H41.0502C41.1877 26.7861 41.3382 26.7796 41.5019 26.7667C41.6656 26.7537 41.8162 26.7278 41.9536 26.6889C42.3137 26.5917 42.592 26.4296 42.7884 26.2028C42.9848 25.9694 43.119 25.7134 43.191 25.4347C43.2696 25.1495 43.3088 24.8806 43.3088 24.6278C43.3088 24.375 43.2696 24.1093 43.191 23.8306C43.119 23.5454 42.9848 23.2894 42.7884 23.0625C42.592 22.8292 42.3137 22.6639 41.9536 22.5667C41.8162 22.5278 41.6656 22.5019 41.5019 22.4889C41.3382 22.4759 41.1877 22.4694 41.0502 22.4694H37.8684V26.7861Z" fill="white"/>
<path d="M20.7744 34V20H23.4455V25.7556H29.7698V20H32.4409V34H29.7698V28.225H23.4455V34H20.7744Z" fill="white"/>
<path d="M8 34V20H13.9707C14.1082 20 14.2915 20.0065 14.5207 20.0194C14.7564 20.0259 14.9659 20.0454 15.1492 20.0778C15.9937 20.2074 16.6844 20.4829 17.2213 20.9042C17.7647 21.3255 18.164 21.8569 18.4194 22.4986C18.6747 23.1338 18.8023 23.8435 18.8023 24.6278C18.8023 25.412 18.6714 26.125 18.4095 26.7667C18.1542 27.4019 17.7548 27.9301 17.2115 28.3514C16.6746 28.7727 15.9872 29.0481 15.1492 29.1778C14.9659 29.2037 14.7564 29.2231 14.5207 29.2361C14.285 29.2491 14.1017 29.2556 13.9707 29.2556H10.6711V34H8ZM10.6711 26.7861H13.8529C13.9904 26.7861 14.141 26.7796 14.3046 26.7667C14.4683 26.7537 14.6189 26.7278 14.7564 26.6889C15.1165 26.5917 15.3947 26.4296 15.5911 26.2028C15.7875 25.9694 15.9217 25.7134 15.9937 25.4347C16.0723 25.1495 16.1116 24.8806 16.1116 24.6278C16.1116 24.375 16.0723 24.1093 15.9937 23.8306C15.9217 23.5454 15.7875 23.2894 15.5911 23.0625C15.3947 22.8292 15.1165 22.6639 14.7564 22.5667C14.6189 22.5278 14.4683 22.5019 14.3046 22.4889C14.141 22.4759 13.9904 22.4694 13.8529 22.4694H10.6711V26.7861Z" fill="white"/>
</svg>
