<svg width="54" height="54" viewBox="0 0 54 54" fill="none" xmlns="http://www.w3.org/2000/svg">
<circle cx="27" cy="27" r="27" fill="#6A0BFF"/>
<path d="M8 32.08V22H12.165C12.263 22 12.389 22.0047 12.543 22.014C12.697 22.0187 12.8393 22.0327 12.97 22.056C13.5533 22.1447 14.034 22.3383 14.412 22.637C14.7947 22.9357 15.077 23.3137 15.259 23.771C15.4457 24.2237 15.539 24.7277 15.539 25.283C15.539 26.1043 15.3313 26.8113 14.916 27.404C14.5007 27.992 13.8637 28.356 13.005 28.496L12.284 28.559H9.687V32.08H8ZM13.789 32.08L11.801 27.978L13.516 27.6L15.7 32.08H13.789ZM9.687 26.984H12.095C12.1883 26.984 12.2933 26.9793 12.41 26.97C12.5267 26.9607 12.634 26.942 12.732 26.914C13.012 26.844 13.2313 26.7203 13.39 26.543C13.5533 26.3657 13.6677 26.165 13.733 25.941C13.803 25.717 13.838 25.4977 13.838 25.283C13.838 25.0683 13.803 24.849 13.733 24.625C13.6677 24.3963 13.5533 24.1933 13.39 24.016C13.2313 23.8387 13.012 23.715 12.732 23.645C12.634 23.617 12.5267 23.6007 12.41 23.596C12.2933 23.5867 12.1883 23.582 12.095 23.582H9.687V26.984Z" fill="white"/>
<path d="M20.6792 32.29C19.9139 32.29 19.2419 32.1243 18.6632 31.793C18.0845 31.4617 17.6319 31.002 17.3052 30.414C16.9832 29.826 16.8222 29.1493 16.8222 28.384C16.8222 27.558 16.9809 26.8417 17.2982 26.235C17.6155 25.6237 18.0565 25.15 18.6212 24.814C19.1859 24.478 19.8392 24.31 20.5812 24.31C21.3652 24.31 22.0302 24.4943 22.5762 24.863C23.1269 25.227 23.5352 25.7427 23.8012 26.41C24.0672 27.0773 24.1675 27.8637 24.1022 28.769H22.4292V28.153C22.4245 27.3317 22.2799 26.732 21.9952 26.354C21.7105 25.976 21.2625 25.787 20.6512 25.787C19.9605 25.787 19.4472 26.0017 19.1112 26.431C18.7752 26.8557 18.6072 27.4787 18.6072 28.3C18.6072 29.0653 18.7752 29.658 19.1112 30.078C19.4472 30.498 19.9372 30.708 20.5812 30.708C20.9965 30.708 21.3535 30.617 21.6522 30.435C21.9555 30.2483 22.1889 29.98 22.3522 29.63L24.0182 30.134C23.7289 30.8153 23.2809 31.345 22.6742 31.723C22.0722 32.101 21.4072 32.29 20.6792 32.29ZM18.0752 28.769V27.495H23.2762V28.769H18.0752Z" fill="white"/>
<path d="M27.6413 32.29C27.0953 32.29 26.6333 32.1873 26.2553 31.982C25.8773 31.772 25.5903 31.4943 25.3943 31.149C25.203 30.8037 25.1073 30.4233 25.1073 30.008C25.1073 29.644 25.168 29.3173 25.2893 29.028C25.4107 28.734 25.5973 28.482 25.8493 28.272C26.1013 28.0573 26.428 27.8823 26.8293 27.747C27.1327 27.649 27.4873 27.5603 27.8933 27.481C28.304 27.4017 28.7473 27.3293 29.2233 27.264C29.704 27.194 30.2057 27.1193 30.7283 27.04L30.1263 27.383C30.131 26.8603 30.0143 26.4753 29.7763 26.228C29.5383 25.9807 29.137 25.857 28.5723 25.857C28.2317 25.857 27.9027 25.9363 27.5853 26.095C27.268 26.2537 27.0463 26.5267 26.9203 26.914L25.3803 26.431C25.567 25.7917 25.9217 25.2783 26.4443 24.891C26.9717 24.5037 27.681 24.31 28.5723 24.31C29.2443 24.31 29.8347 24.4197 30.3433 24.639C30.8567 24.8583 31.237 25.2177 31.4843 25.717C31.6197 25.983 31.7013 26.256 31.7293 26.536C31.7573 26.8113 31.7713 27.1123 31.7713 27.439V32.08H30.2943V30.442L30.5393 30.708C30.1987 31.254 29.7997 31.6553 29.3423 31.912C28.8897 32.164 28.3227 32.29 27.6413 32.29ZM27.9773 30.946C28.36 30.946 28.6867 30.8783 28.9573 30.743C29.228 30.6077 29.4427 30.442 29.6013 30.246C29.7647 30.05 29.8743 29.8657 29.9303 29.693C30.019 29.4783 30.068 29.2333 30.0773 28.958C30.0913 28.678 30.0983 28.4517 30.0983 28.279L30.6163 28.433C30.1077 28.5123 29.6713 28.5823 29.3073 28.643C28.9433 28.7037 28.6307 28.762 28.3693 28.818C28.108 28.8693 27.877 28.9277 27.6763 28.993C27.4803 29.063 27.3147 29.1447 27.1793 29.238C27.044 29.3313 26.939 29.4387 26.8643 29.56C26.7943 29.6813 26.7593 29.8237 26.7593 29.987C26.7593 30.1737 26.806 30.3393 26.8993 30.484C26.9927 30.624 27.128 30.736 27.3053 30.82C27.4873 30.904 27.7113 30.946 27.9773 30.946Z" fill="white"/>
<path d="M36.8768 32.29C36.0974 32.29 35.4324 32.1173 34.8818 31.772C34.3311 31.422 33.9088 30.946 33.6147 30.344C33.3254 29.742 33.1784 29.0607 33.1737 28.3C33.1784 27.5253 33.3301 26.8393 33.6287 26.242C33.9321 25.64 34.3614 25.1687 34.9167 24.828C35.4721 24.4827 36.1324 24.31 36.8978 24.31C37.7564 24.31 38.4821 24.527 39.0748 24.961C39.6721 25.3903 40.0618 25.9783 40.2438 26.725L38.5637 27.18C38.4331 26.774 38.2161 26.459 37.9128 26.235C37.6094 26.0063 37.2641 25.892 36.8768 25.892C36.4381 25.892 36.0764 25.997 35.7917 26.207C35.5071 26.4123 35.2971 26.697 35.1618 27.061C35.0264 27.425 34.9587 27.838 34.9587 28.3C34.9587 29.0187 35.1197 29.5997 35.4417 30.043C35.7638 30.4863 36.2421 30.708 36.8768 30.708C37.3248 30.708 37.6771 30.6053 37.9338 30.4C38.1951 30.1947 38.3911 29.8983 38.5217 29.511L40.2438 29.896C40.0104 30.666 39.6021 31.2587 39.0187 31.674C38.4354 32.0847 37.7214 32.29 36.8768 32.29Z" fill="white"/>
<path d="M46.0775 32.08C45.5782 32.1733 45.0882 32.213 44.6075 32.199C44.1315 32.1897 43.7045 32.1033 43.3265 31.94C42.9485 31.772 42.6615 31.5083 42.4655 31.149C42.2928 30.8223 42.2018 30.4887 42.1925 30.148C42.1832 29.8073 42.1785 29.4223 42.1785 28.993V22.42H43.8585V28.895C43.8585 29.1983 43.8608 29.4643 43.8655 29.693C43.8748 29.9217 43.9238 30.1083 44.0125 30.253C44.1805 30.533 44.4488 30.6893 44.8175 30.722C45.1862 30.7547 45.6062 30.736 46.0775 30.666V32.08ZM40.8065 25.843V24.52H46.0775V25.843H40.8065Z" fill="white"/>
</svg>
